<?xml version="1.0" encoding="UTF-8" standalone="no"?>
<svg
   xml:space="preserve"
   width="108"
   height="108"
   version="1.1"
   id="svg2"
   sodipodi:docname="icon.svg"
   inkscape:version="1.4.3 (0d15f75042, 2025-12-25)"
   xmlns:inkscape="http://www.inkscape.org/namespaces/inkscape"
   xmlns:sodipodi="http://sodipodi.sourceforge.net/DTD/sodipodi-0.dtd"
   xmlns:xlink="http://www.w3.org/1999/xlink"
   xmlns="http://www.w3.org/2000/svg"
   xmlns:svg="http://www.w3.org/2000/svg"><defs
   id="defs2"><linearGradient
     id="linearGradient8"
     inkscape:collect="always"><stop
       style="stop-color:#d3de1c;stop-opacity:1;"
       offset="0"
       id="stop8" /><stop
       style="stop-color:#f3f39d;stop-opacity:1;"
       offset="1"
       id="stop9" /></linearGradient><linearGradient
     inkscape:collect="always"
     xlink:href="#linearGradient8"
     id="linearGradient9"
     x1="87"
     y1="87"
     x2="21"
     y2="21"
     gradientUnits="userSpaceOnUse" /></defs><sodipodi:namedview
   id="namedview2"
   pagecolor="#ffffff"
   bordercolor="#000000"
   borderopacity="0.25"
   inkscape:showpageshadow="2"
   inkscape:pageopacity="0.0"
   inkscape:pagecheckerboard="0"
   inkscape:deskcolor="#d1d1d1"
   inkscape:zoom="4.9562021"
   inkscape:cx="31.37483"
   inkscape:cy="39.647294"
   inkscape:window-width="1920"
   inkscape:window-height="1131"
   inkscape:window-x="0"
   inkscape:window-y="0"
   inkscape:window-maximized="1"
   inkscape:current-layer="layer1"
   showguides="true"><sodipodi:guide
     position="133.92863,157.80423"
     orientation="-0.70710678,-0.70710678"
     id="guide4"
     inkscape:locked="false" /><sodipodi:guide
     position="21,142.70399"
     orientation="-1,0"
     id="guide5"
     inkscape:locked="false"
     inkscape:label=""
     inkscape:color="rgb(0,134,229)" /><sodipodi:guide
     position="87,147.54641"
     orientation="-1,0"
     id="guide6"
     inkscape:label=""
     inkscape:locked="false"
     inkscape:color="rgb(0,134,229)" /><sodipodi:guide
     position="0,87"
     orientation="0,1"
     id="guide7"
     inkscape:locked="false"
     inkscape:label=""
     inkscape:color="rgb(0,134,229)" /><sodipodi:guide
     position="0,21"
     orientation="0,1"
     id="guide8"
     inkscape:label=""
     inkscape:locked="false"
     inkscape:color="rgb(0,134,229)" /></sodipodi:namedview>
  
  
<g
   inkscape:groupmode="layer"
   id="layer1"
   inkscape:label="background"
   style="fill-opacity:1;fill:url(#linearGradient9)" /><g
   id="g8"
   transform="matrix(0.88922396,0,0,0.88922396,7.5479102,7.368726)"
   inkscape:label="foreground"
   sodipodi:insensitive="true"><circle
     style="opacity:1;fill:#d40000;stroke:none;stroke-width:8.50404"
     id="path2"
     cx="27.59333"
     cy="27.797192"
     r="12.277239" /><path
     style="font-size:164.276px;font-family:Flama;-inkscape-font-specification:Flama;letter-spacing:0px;fill:#d40000;stroke-width:122.209"
     d="m 62.884777,33.131763 v -3.674685 c 0,-5.124328 -4.315224,-7.450505 -8.563023,-7.450505 -4.146661,0 -8.39446,2.461027 -8.39446,7.585356 v 3.809535 c 0,5.158037 4.281511,7.113375 8.52931,7.113375 3.978098,0 8.428173,-2.225035 8.428173,-7.383076 z m -5.630019,0.370835 c 0,1.8542 -1.247368,2.798155 -2.798154,2.798155 -1.786773,0 -2.899293,-1.045092 -2.899293,-2.764439 v -4.348936 c 0,-1.921626 1.247372,-2.933006 2.831868,-2.933006 1.651921,0 2.865579,1.146234 2.865579,2.831868 z m 25.453103,6.60769 V 27.83887 c 0,-3.944384 -2.6633,-5.832297 -5.83229,-5.832297 -2.19133,0 -4.04553,0.842821 -5.394035,2.629592 h -0.06743 v -2.258752 h -5.42774 v 17.732875 h 5.562592 V 30.09762 c 0,-2.461026 1.213658,-3.674685 2.865578,-3.674685 2.05647,0 2.73073,1.550787 2.73073,3.337559 v 10.349794 z"
     id="text2"
     aria-label="on" /><path
     id="text3"
     style="font-weight:bold;font-size:199.983px;font-family:Flama;-inkscape-font-specification:'Flama Bold';letter-spacing:0px;fill:#d40000;stroke-width:130.31"
     d="m 36.884297,43.364533 v 4.421492 h 5.931486 v -4.421492 z m -12.437688,6.542363 c -4.313696,0 -8.411861,1.905446 -8.411861,6.003457 v 0.68285 h 5.284447 v -0.575068 c 0,-1.006531 0.898503,-1.905308 2.803719,-1.905308 1.905216,0 2.947663,0.8628 2.947663,2.372594 v 1.473832 h -3.307168 c -3.810432,0 -8.44732,1.689561 -8.44732,6.147047 0,3.5588 2.624135,5.500009 6.254829,5.500009 1.905216,0 4.133884,-0.395635 5.715573,-2.516536 h 0.143591 c 0,0.179738 0.179753,1.977081 0.179753,2.12087 h 5.715921 c -0.143789,-0.359474 -0.359505,-2.731871 -0.359505,-4.16977 V 56.41345 c 0,-4.781013 -4.169998,-6.506554 -8.519642,-6.506554 z m 12.437688,0.395666 v 18.908081 h 5.931486 V 50.302562 Z m 9.40998,-2.583699 v 21.49178 h 5.395642 v -7.595774 h 2.44141 l 4.250181,7.595774 h 5.87779 l -4.943348,-8.379725 c 2.803287,-1.145429 4.069021,-3.707247 4.069021,-6.329676 0,-2.140142 -0.873932,-4.129811 -2.531791,-5.335525 -1.356427,-0.994714 -3.014219,-1.446854 -5.154361,-1.446854 z m 5.365378,4.219921 h 3.345592 c 1.80857,0 3.134985,0.844159 3.134985,2.833589 0,1.748285 -1.205842,2.863447 -3.134985,2.863447 h -3.345592 z m -27.428608,9.327635 h 2.83953 l -0.03581,1.078515 c -0.07189,1.797374 -1.006378,3.019634 -3.163226,3.019634 -1.83332,0 -2.624318,-0.827036 -2.624318,-2.04925 0,-1.545741 1.258345,-2.048899 2.983824,-2.048899 z"
     sodipodi:nodetypes="cccccssccssscsssccccssscccccccccccccscsccsssccsccsss" /></g></svg>
