<?xml version="1.0" encoding="UTF-8" standalone="no"?>
<svg
   enable-background="new -0.788 -0.975 52 22"
   height="192.28119"
   viewBox="-0.788 -0.975 20.292 20.565999"
   width="189.71944"
   version="1.1"
   id="svg19"
   sodipodi:docname="logo_bbc_radio_5_live.svg"
   inkscape:version="1.4.3 (0d15f75042, 2025-12-25)"
   xmlns:inkscape="http://www.inkscape.org/namespaces/inkscape"
   xmlns:sodipodi="http://sodipodi.sourceforge.net/DTD/sodipodi-0.dtd"
   xmlns="http://www.w3.org/2000/svg"
   xmlns:svg="http://www.w3.org/2000/svg">
  <defs
     id="defs19" />
  <sodipodi:namedview
     id="namedview19"
     pagecolor="#ffffff"
     bordercolor="#000000"
     borderopacity="0.25"
     inkscape:showpageshadow="2"
     inkscape:pageopacity="0.0"
     inkscape:pagecheckerboard="0"
     inkscape:deskcolor="#d1d1d1"
     inkscape:zoom="0.99299106"
     inkscape:cx="138.47053"
     inkscape:cy="183.78816"
     inkscape:window-width="1920"
     inkscape:window-height="1131"
     inkscape:window-x="0"
     inkscape:window-y="0"
     inkscape:window-maximized="1"
     inkscape:current-layer="g19" />
  <path
     d="M 4.401,2.617 H 15.107 V 16.273 H 4.401 Z"
     fill="#ffffff"
     stroke="#ffffff"
     id="path1" />
  <g
     fill="#00b3df"
     id="g19"
     transform="translate(-17.413,-0.975)">
    <path
       d="m 26.771,0 c -5.604,0 -10.146,4.604 -10.146,10.283 0,5.679 4.542,10.283 10.146,10.283 5.604,0 10.146,-4.604 10.146,-10.283 C 36.917,4.604 32.375,0 26.771,0 m 0.589,7.869 c 2.568,0 4.363,1.984 4.363,4.825 0,1.375 -0.531,2.659 -1.496,3.616 -0.983,0.975 -2.289,1.496 -3.664,1.467 -2.322,0 -4.675,-1.17 -5.097,-3.758 h 3.696 c 0.288,0.436 0.763,0.693 1.345,0.693 1.132,0 1.739,-1.041 1.739,-2.02 0,-0.968 -0.537,-1.945 -1.739,-1.945 -0.719,0 -1.116,0.213 -1.573,0.842 l -0.109,0.148 H 21.587 L 23.252,3.36 h 8.646 l -0.6,3.056 h -5.451 c 0,0 -0.258,1.195 -0.376,1.878 0.544,-0.287 1.161,-0.425 1.889,-0.425"
       id="path14" />
  </g>
</svg>
