<?xml version="1.0" encoding="UTF-8" standalone="no"?>
<svg
   version="1.1"
   id="Ebene_2"
   x="0px"
   y="0px"
   xml:space="preserve"
   viewBox="0 0 170 170"
   sodipodi:docname="logo_wdr3.svg"
   width="170"
   height="170"
   inkscape:version="1.4.3 (0d15f75042, 2025-12-25)"
   xmlns:inkscape="http://www.inkscape.org/namespaces/inkscape"
   xmlns:sodipodi="http://sodipodi.sourceforge.net/DTD/sodipodi-0.dtd"
   xmlns="http://www.w3.org/2000/svg"
   xmlns:svg="http://www.w3.org/2000/svg"><defs
   id="defs5" /><sodipodi:namedview
   id="namedview5"
   pagecolor="#ffffff"
   bordercolor="#000000"
   borderopacity="0.25"
   inkscape:showpageshadow="2"
   inkscape:pageopacity="0.0"
   inkscape:pagecheckerboard="0"
   inkscape:deskcolor="#d1d1d1"
   inkscape:zoom="1.7671605"
   inkscape:cx="109.49769"
   inkscape:cy="98.180101"
   inkscape:window-width="1920"
   inkscape:window-height="1131"
   inkscape:window-x="0"
   inkscape:window-y="0"
   inkscape:window-maximized="1"
   inkscape:current-layer="Ebene_2" />
<style
   type="text/css"
   id="style1">
<![CDATA[
	.st0{fill:#17375C;}
	.st1{fill:#FFFFFF;}
	.st2{fill:#CDC907;}
]]>
</style><style
   class="darkreader darkreader--sync"
   media="screen"
   id="style2" />
<g
   id="g5"
   transform="translate(0,51)">
	<g
   id="g4">
		<g
   id="g3">
			<g
   id="g2">
				<polygon
   class="st2"
   points="117.2,68 135.7,0 170.1,0 151.6,68 "
   id="polygon2" />
				<path
   class="st0"
   d="m 100.8,30.5 h -5.6 v -8.3 h 5.2 c 3.5,0 4.9,1.4 4.9,4.2 0.1,2.5 -1.4,4.1 -4.5,4.1 M 65.1,42.9 H 62 V 22.8 h 2.8 c 6.8,0 9.8,3 9.8,9.9 0.1,6.7 -3,10.2 -9.5,10.2 m 48.1,-1.2 c -1.9,-3.2 -3.4,-4.9 -4.7,-5.8 v -0.1 c 3.4,-1.2 7.2,-4.2 7.2,-10.1 0,-7.4 -5.3,-11.3 -14.7,-11.3 H 85 V 26 c 0,0 0,1.1 0,1.2 H 84.9 C 83,19.5 76.4,14.4 64.5,14.4 H 42.1 l -3.4,15.1 c -0.7,3.1 -1.3,7 -1.3,7 h -0.1 c 0,0 -0.8,-4.4 -1.5,-7.5 L 32.9,14.4 H 20.5 L 17.6,29 c -0.7,3.1 -1.5,7.5 -1.5,7.5 h -0.2 c 0,0 -0.6,-3.9 -1.3,-7 L 11.2,14.4 H 0 l 9.9,36.9 h 11.3 l 4,-17 c 0.8,-3.4 1.6,-6.7 1.6,-6.7 v 0 h 0.1 c 0,0 0.7,3.3 1.6,6.7 l 4,17 h 11.1 l 8.2,-30.7 v 0 h 0.1 c 0,0 -0.1,1.2 -0.1,2.9 v 27.8 h 12.6 c 12.1,0 18.8,-5.5 20.7,-13.5 h 0.1 c 0,0.1 0,1.2 0,1.2 v 12.2 h 10.2 v -13 h 0.8 c 1.2,0 4.1,-0.1 5.7,2.5 l 6.3,10.5 h 11 z"
   id="path2" />
			</g>
			<path
   class="st1"
   d="M 136.9,39.3 138,34 c 0.8,0.3 2.8,0.8 4.7,0.8 2.9,0 4.8,-0.9 4.8,-2.9 0,-2.1 -2.5,-2.9 -6.7,-2.9 v -4.6 c 3.8,-0.1 6.1,-1.4 6.1,-3.1 0,-1.4 -1.4,-2.1 -3.1,-2.1 -1.8,0 -3.8,1 -4.6,1.7 l -2.6,-4.4 c 1.4,-1.1 4.5,-2.7 8.9,-2.7 5.3,0 8.5,2.3 8.5,5.9 0,3.4 -2.9,5.2 -5.4,5.9 v 0.1 c 2.7,0.3 6.3,2.2 6.3,6.2 0,4.8 -4.4,8.3 -12,8.3 -2.8,0 -5,-0.5 -6,-0.9"
   id="path3" />
		</g>
	</g>
</g>
</svg>
