<?xml version="1.0" encoding="UTF-8"?>
<svg width="79.38mm" height="79.38mm" version="1.1" viewBox="0 0 79.38 79.38" xmlns="http://www.w3.org/2000/svg">
<title>Radio Swiss Pop logo</title>
 <path d="m0 79.38h79.38v-79.38h-79.38z" style="fill:#e6236e"/>
 <path d="m26.17 76.51h27.05v-9.334h-27.05zm21.83-6.697c0-0.1338 0.04851-0.1823 0.1823-0.1823h1.531c1.057 0 1.543 0.4861 1.543 1.337 0 0.6684-0.3768 0.9723-0.7171 1.191l0.9966 1.665c0.1095 0.1702 0 0.2308-0.0971 0.2308h-0.7535c-0.158 0-0.2187-0.04851-0.2916-0.1702l-0.8143-1.471c-0.04851-0.08467-0.06085-0.1338-0.06085-0.2066 0-0.0247 0-0.06086 0.0247-0.1459l0.0732-0.2915c0.06085-0.2672 0.1216-0.1702 0.3281-0.2551 0.158-0.0732 0.316-0.1823 0.316-0.5226 0-0.3889-0.2066-0.5469-0.6078-0.5347h-0.6563v3.403c0 0.1338-0.04851 0.1945-0.1823 0.1945h-0.632c-0.1338 0-0.1823-0.04851-0.1823-0.1945zm-2.2 2.479-0.5105-0.1338c-0.6563-0.1702-1.045-0.5834-1.045-1.3 0-0.7778 0.5469-1.276 1.689-1.276 0.5469 0 0.9966 0.03616 1.191 0.06086 0.08467 0.01234 0.1338 0.06086 0.1216 0.158l-0.08467 0.5226c-0.0247 0.1459-0.0732 0.1702-0.2551 0.158-0.1702-0.0247-0.5955-0.04851-1.021-0.04851-0.316 0-0.6442 0.06086-0.6442 0.4254 0 0.2551 0.1458 0.3646 0.4983 0.4497l0.5105 0.1338c0.8994 0.2309 1.155 0.6806 1.167 1.276-0.01235 1.021-0.8021 1.373-1.896 1.373-0.4861 0-0.9844-0.03616-1.191-0.06086-0.08467-0.01234-0.1337-0.06086-0.1215-0.158l0.08467-0.5347c0.0247-0.1459 0.0732-0.1702 0.2552-0.158 0.1701 0.01234 0.6684 0.06086 0.9601 0.06086 0.632 0 0.8994-0.0732 0.8994-0.4497 0-0.2672-0.1823-0.3889-0.6077-0.4983m-3.549 0-0.5105-0.1338c-0.6684-0.1702-1.045-0.5834-1.045-1.3 0-0.7778 0.5469-1.276 1.677-1.276 0.5591 0 0.9966 0.03616 1.203 0.06086 0.08467 0.01234 0.1337 0.06086 0.1215 0.158l-0.08467 0.5226c-0.02381 0.1459-0.0732 0.1702-0.2552 0.158-0.1701-0.0247-0.6077-0.04851-1.033-0.04851-0.316 0-0.6442 0.06086-0.6442 0.4254 0 0.2551 0.158 0.3646 0.4983 0.4497l0.5105 0.1338c0.9115 0.2308 1.167 0.6806 1.167 1.276 0 1.021-0.79 1.373-1.884 1.373-0.4861 0-0.9844-0.03616-1.191-0.06086-0.08467-0.01234-0.1337-0.06086-0.1215-0.158l0.08467-0.5347c0.02381-0.1459 0.0732-0.1702 0.2552-0.158 0.1701 0.01234 0.6684 0.06086 0.9601 0.06086 0.632 0 0.8872-0.0732 0.8872-0.4497 0-0.2672-0.1701-0.3889-0.5955-0.4983m-4.533-2.71c0.7049 0 1.021 0.04851 1.07 0.04851 0.1458 0.01234 0.1701 0.0732 0.1458 0.2187l-0.0732 0.4861c-0.03616 0.158-0.08467 0.1702-0.2674 0.158-0.1945-0.01234-0.5469-0.03616-0.8021-0.03616-0.8629 0-1.264 0.2794-1.264 1.325 0 0.8386 0.2431 1.434 1.179 1.434 0.158 0 0.2917 0 0.3282-0.01234v-0.9601h-0.316c-0.1337 0-0.1823-0.04851-0.1823-0.1823v-0.4738c0-0.1459 0.04851-0.1945 0.1823-0.1945h1.118c0.1458 0 0.1823 0.04851 0.1823 0.1945v2.2c0 0.158-0.03616 0.2066-0.1823 0.243-0.1458 0.03616-0.4254 0.0732-1.179 0.0732-1.665 0-2.2-0.9601-2.2-2.321 0-1.361 0.6442-2.2 2.261-2.2m-5.943 0.04851h1.531c1.07 0 1.543 0.4861 1.543 1.337 0 0.6684-0.3768 0.9723-0.717 1.191l1.009 1.665c0.1094 0.1702-0.01234 0.2309-0.1094 0.2309h-0.7414c-0.1701 0-0.2309-0.04851-0.2917-0.1702l-0.8143-1.471c-0.06085-0.08467-0.0732-0.1338-0.0732-0.2066 0-0.0247 0-0.06086 0.0247-0.1459l0.0732-0.2916c0.06086-0.2672 0.1337-0.1702 0.3282-0.2551 0.158-0.0732 0.316-0.1823 0.316-0.5226 0-0.3889-0.1945-0.5347-0.6077-0.5347h-0.6563v3.403c0 0.1459-0.03616 0.1945-0.1823 0.1945h-0.6319c-0.1337 0-0.1823-0.04851-0.1823-0.1945v-4.047c0-0.1338 0.04851-0.1823 0.1823-0.1823m-2.382 2.662-0.4983-0.1338c-0.6684-0.1702-1.057-0.5834-1.057-1.3 0-0.7778 0.5591-1.276 1.689-1.276 0.5591 0 0.9966 0.03616 1.191 0.06086 0.08467 0.01234 0.1337 0.06086 0.1215 0.158l-0.08467 0.5226c-0.0247 0.1459-0.0732 0.1702-0.2431 0.158-0.1701-0.0247-0.6077-0.04851-1.033-0.04851-0.316 0-0.6442 0.06086-0.6442 0.4254 0 0.2551 0.158 0.3646 0.4983 0.4497l0.5105 0.1338c0.8994 0.2309 1.167 0.6806 1.167 1.276 0 1.021-0.8021 1.373-1.896 1.373-0.4861 0-0.9844-0.03616-1.179-0.06086-0.09728-0.01234-0.1458-0.06086-0.1337-0.158l0.08555-0.535c0.0247-0.1459 0.0732-0.1702 0.2552-0.158 0.1701 0.01234 0.6684 0.06086 0.9601 0.06086 0.632 0 0.8994-0.0732 0.8994-0.4497 0-0.2672-0.1823-0.3889-0.6077-0.4983" style="fill:#fff"/>
 <path d="m15.11 6.49c0.1945-0.0732 0.3646-0.1945 0.5347-0.3281 0.1459-0.146 0.2795-0.3282 0.3646-0.5348 0.09719-0.2187 0.1458-0.474 0.1458-0.79 0-0.6077-0.1701-1.082-0.5226-1.434-0.3524-0.3646-0.9115-0.5348-1.677-0.5348h-2.528v6.842h1.24v-5.809h1.045c0.4497 0 0.7535 0.0732 0.9237 0.2309 0.1701 0.158 0.2552 0.4011 0.2552 0.7414 0 0.2066-0.03616 0.3768-0.1094 0.5105-0.06086 0.1338-0.158 0.2309-0.2917 0.316-0.1337 0.0732-0.2917 0.1338-0.474 0.158-0.1945 0.03616-0.401 0.06085-0.6442 0.06085l-0.2066 0.8751 2.042 2.917h1.483l-2.2-3.038c0.2187-0.03616 0.4254-0.0971 0.6198-0.1823" style="fill:#fff"/>
 <path d="m19.6 2.868-2.443 6.842h1.215l0.5955-1.726h2.419l0.5955 1.726h1.288l-2.443-6.842zm-0.2917 4.108 0.8872-2.662 0.8751 2.662z" style="fill:#fff"/>
 <path d="m28.56 3.573c-0.2795-0.2672-0.6077-0.4497-1.009-0.5469-0.3889-0.1092-0.8265-0.158-1.3-0.158h-2.2v6.842h2.2c0.474 0 0.9115-0.06085 1.3-0.158 0.4011-0.1095 0.7292-0.2916 1.009-0.5469 0.2795-0.2672 0.4983-0.6198 0.6563-1.057 0.1458-0.4375 0.2309-0.9966 0.2309-1.665 0-0.6806-0.08467-1.228-0.2309-1.665-0.158-0.4375-0.3768-0.79-0.6563-1.045m-0.5712 3.926c-0.08467 0.316-0.2066 0.5591-0.3768 0.7292-0.1701 0.1702-0.3646 0.2916-0.5955 0.3403-0.2309 0.06085-0.4861 0.0971-0.7779 0.0971h-0.948v-4.752h0.948c0.2917 0 0.5469 0.0247 0.7779 0.08467 0.2309 0.06085 0.4254 0.1702 0.5955 0.3403 0.1701 0.1702 0.2917 0.4132 0.3768 0.717 0.08467 0.316 0.1337 0.7292 0.1337 1.228 0 0.4983-0.04851 0.9115-0.1337 1.215" style="fill:#fff"/>
 <path d="m30.52 9.711h1.252v-6.842h-1.252z" style="fill:#fff"/>
 <path d="m38.03 3.5c-0.2552-0.2797-0.5591-0.4861-0.9358-0.5955-0.3646-0.1216-0.79-0.1823-1.264-0.1823-0.4619 0-0.8872 0.06085-1.252 0.1823-0.3646 0.1095-0.6806 0.316-0.9358 0.5955-0.2552 0.2672-0.4497 0.6442-0.5834 1.094-0.1337 0.4497-0.2066 1.021-0.2066 1.689 0 0.6684 0.06085 1.24 0.1945 1.689 0.1337 0.4618 0.3282 0.8264 0.5834 1.106 0.2552 0.2794 0.5712 0.4861 0.9358 0.6077 0.3646 0.1095 0.79 0.1702 1.264 0.1702 0.474 0 0.8994-0.06085 1.276-0.1702 0.3646-0.1216 0.6806-0.3282 0.9358-0.6077 0.2431-0.2797 0.4375-0.6442 0.5712-1.106 0.1337-0.4497 0.1945-1.021 0.1945-1.689s-0.06085-1.24-0.1945-1.689c-0.1337-0.4497-0.3282-0.8265-0.5834-1.094m-0.6441 4.023c-0.06085 0.316-0.158 0.5834-0.2917 0.7779-0.1337 0.1945-0.3038 0.3281-0.5105 0.4132-0.2188 0.0732-0.4618 0.1216-0.7535 0.1216-0.2917 0-0.5347-0.04851-0.7535-0.1216-0.1945-0.08467-0.3646-0.2187-0.5105-0.4132-0.1337-0.1945-0.2309-0.4619-0.2917-0.7779-0.0732-0.3403-0.09728-0.7535-0.09728-1.24 0-0.4983 0.02381-0.9115 0.09728-1.228 0.06085-0.3282 0.158-0.5955 0.2917-0.7778 0.1458-0.1945 0.316-0.3403 0.5105-0.4133 0.2188-0.0732 0.4619-0.1095 0.7535-0.1095s0.5347 0.03616 0.7535 0.1095c0.2066 0.0732 0.3768 0.2187 0.5105 0.4133 0.1337 0.1823 0.2309 0.4497 0.2917 0.7778 0.0732 0.316 0.09728 0.7292 0.09728 1.228 0 0.4861-0.0247 0.8994-0.09728 1.24" style="fill:#fff"/>
 <path d="m44.53 5.797-0.8265-0.1945c-0.2674-0.06086-0.4861-0.158-0.6442-0.2916-0.158-0.1338-0.2309-0.3524-0.2309-0.6442 0-0.1823 0.02381-0.3403 0.08467-0.4497 0.06086-0.1216 0.1458-0.2187 0.2552-0.2916 0.09728-0.06085 0.2188-0.1095 0.3768-0.1338 0.1458-0.0247 0.3038-0.03616 0.4618-0.03616 0.2066 0 0.401 0.01234 0.5834 0.0247 0.1945 0.0247 0.3646 0.04851 0.5347 0.06086 0.158 0.0247 0.3038 0.04851 0.4254 0.08555 0.1215 0.0247 0.2188 0.04851 0.2674 0.06085l0.1823-0.9844c-0.04851-0.01234-0.1337-0.03616-0.2552-0.06085-0.1215-0.03616-0.2795-0.0732-0.4497-0.0971-0.1823-0.03616-0.3889-0.06086-0.6077-0.08467-0.2188-0.0247-0.4497-0.03616-0.6806-0.03616-0.8386 0-1.458 0.1823-1.835 0.5347-0.3768 0.3646-0.5712 0.8507-0.5712 1.471 0 0.5469 0.1337 0.9844 0.4011 1.3 0.2674 0.3282 0.6684 0.5469 1.203 0.6684l0.7535 0.1823c0.3403 0.0732 0.5834 0.1823 0.7657 0.304 0.1701 0.1216 0.2552 0.3403 0.2552 0.6684 0 0.1823-0.0247 0.3282-0.0732 0.4619-0.04851 0.1216-0.1337 0.2187-0.2431 0.2916-0.1215 0.0732-0.2674 0.1216-0.4375 0.158-0.1823 0.0247-0.401 0.03616-0.6563 0.03616-0.1701 0-0.3524-0.01235-0.5469-0.0247-0.2066-0.0247-0.3889-0.04851-0.5712-0.08467-0.1823-0.0247-0.3524-0.04851-0.4983-0.08555-0.1337-0.0247-0.2309-0.04851-0.2795-0.06085l-0.2066 1.009c0.02381 0.01235 0.09728 0.0247 0.2188 0.06086 0.1215 0.0247 0.2795 0.06085 0.4861 0.0971 0.1945 0.03616 0.4254 0.0732 0.6928 0.1095 0.2674 0.0247 0.5591 0.03616 0.8629 0.03616 0.3768 0 0.7292-0.03616 1.033-0.1095 0.3038-0.0732 0.5712-0.1945 0.79-0.3646 0.2188-0.158 0.3889-0.3768 0.5226-0.6442 0.1215-0.2551 0.1701-0.5834 0.1701-0.948 0-0.5226-0.1215-0.948-0.3768-1.288-0.2552-0.316-0.6928-0.5591-1.337-0.7049" style="fill:#fff"/>
 <path d="m52.84 8.07-1.215-5.202h-1.24l-1.215 5.202-1.082-5.202h-1.361l1.726 6.842h1.288l1.228-5.056 1.203 5.056h1.288l1.774-6.842h-1.288z" style="fill:#fff"/>
 <path d="m56.03 9.711h1.252v-6.842h-1.252z" style="fill:#fff"/>
 <path d="m61.25 5.797-0.8264-0.1945c-0.2794-0.06086-0.4983-0.158-0.6442-0.2916-0.158-0.1338-0.243-0.3524-0.243-0.6442 0-0.1823 0.03616-0.3403 0.0971-0.4497 0.06086-0.1216 0.1459-0.2187 0.243-0.2916 0.1095-0.06085 0.243-0.1095 0.3768-0.1338 0.1459-0.0247 0.304-0.03616 0.474-0.03616 0.1945 0 0.4011 0.01234 0.5834 0.0247 0.1945 0.0247 0.3646 0.04851 0.5347 0.06086 0.158 0.0247 0.304 0.04851 0.4254 0.08555 0.1216 0.0247 0.2066 0.04851 0.2672 0.06085l0.1823-0.9844c-0.04851-0.01234-0.1338-0.03616-0.2551-0.06085-0.1216-0.03616-0.2794-0.0732-0.4619-0.0971-0.1702-0.03616-0.3768-0.06086-0.5955-0.08467-0.2187-0.0247-0.4497-0.03616-0.6806-0.03616-0.8507 0-1.458 0.1823-1.835 0.5347-0.3768 0.3646-0.5712 0.8507-0.5712 1.471 0 0.5469 0.1338 0.9844 0.401 1.3 0.2672 0.3282 0.6684 0.5469 1.191 0.6684l0.7657 0.1823c0.3403 0.0732 0.5834 0.1823 0.7535 0.304 0.1823 0.1216 0.2672 0.3403 0.2672 0.6684 0 0.1823-0.0247 0.3282-0.08467 0.4619-0.04851 0.1216-0.1216 0.2187-0.2309 0.2916-0.1216 0.0732-0.2672 0.1216-0.4497 0.158-0.1702 0.0247-0.3889 0.03616-0.6442 0.03616-0.1702 0-0.3524-0.01235-0.5469-0.0247-0.2066-0.0247-0.3889-0.04851-0.5712-0.08467-0.1945-0.0247-0.3524-0.04851-0.4983-0.08555-0.1338-0.0247-0.2308-0.04851-0.2794-0.06085l-0.2066 1.009c0.0247 0.01235 0.0971 0.0247 0.2187 0.06086 0.1216 0.0247 0.2794 0.06085 0.474 0.0971 0.2066 0.03616 0.4375 0.0732 0.7049 0.1095 0.2672 0.0247 0.5591 0.03616 0.8629 0.03616 0.3768 0 0.7171-0.03616 1.033-0.1095 0.304-0.0732 0.5712-0.1945 0.79-0.3646 0.2187-0.158 0.3889-0.3768 0.5105-0.6442 0.1216-0.2551 0.1823-0.5834 0.1823-0.948 0-0.5226-0.1216-0.948-0.3768-1.288-0.2551-0.316-0.6928-0.5591-1.337-0.7049" style="fill:#fff"/>
 <path d="m67.94 6.514c-0.2552-0.3403-0.7049-0.5712-1.337-0.7171l-0.8264-0.1823c-0.2794-0.0732-0.4983-0.1702-0.6563-0.304-0.1459-0.1338-0.2308-0.3524-0.2308-0.6442 0-0.1823 0.03616-0.3403 0.0971-0.4497 0.06085-0.1216 0.1459-0.2187 0.243-0.2798 0.1095-0.0732 0.2309-0.1216 0.3768-0.1459 0.1459-0.0247 0.304-0.03616 0.474-0.03616 0.1945 0 0.3889 0.01234 0.5834 0.0247 0.1945 0.0247 0.3646 0.03616 0.5226 0.06086 0.1702 0.0247 0.304 0.06085 0.4254 0.08555 0.1216 0.0247 0.2187 0.04851 0.2794 0.06085l0.1701-0.9844c-0.03615-0.01235-0.1216-0.03616-0.243-0.0732-0.1338-0.0247-0.2794-0.06086-0.4619-0.0971-0.1823-0.0247-0.3768-0.04851-0.5955-0.0732-0.2187-0.0247-0.4497-0.03616-0.6928-0.03616-0.8386 0-1.446 0.1823-1.823 0.5347-0.3889 0.3646-0.5712 0.8507-0.5712 1.471 0 0.5469 0.1338 0.9844 0.401 1.3 0.2672 0.3282 0.6684 0.5469 1.191 0.6684l0.7657 0.1823c0.3282 0.0732 0.5834 0.1702 0.7535 0.304 0.1702 0.1216 0.2672 0.3403 0.2672 0.6684 0 0.1823-0.02468 0.3282-0.08466 0.4619-0.04853 0.1216-0.1338 0.2187-0.243 0.2916-0.1095 0.0732-0.2552 0.1216-0.4375 0.146-0.1702 0.03616-0.3889 0.04851-0.6563 0.04851-0.158 0-0.3403-0.01234-0.5347-0.0247-0.2066-0.0247-0.4011-0.04851-0.5834-0.0732-0.1823-0.03616-0.3403-0.06085-0.4861-0.0971-0.1338-0.0247-0.2308-0.03616-0.2794-0.06086l-0.2066 1.009c0.0247 0.01234 0.0971 0.0247 0.2187 0.06085 0.1216 0.0247 0.2794 0.06086 0.474 0.0971 0.2066 0.03616 0.4375 0.0732 0.7049 0.0971 0.2672 0.03616 0.5591 0.04851 0.8629 0.04851 0.3768 0 0.7171-0.03616 1.033-0.1095 0.304-0.0732 0.5712-0.1945 0.79-0.3646 0.2187-0.158 0.3889-0.3768 0.5105-0.6442 0.1216-0.2672 0.1823-0.5834 0.1823-0.948 0-0.5226-0.1216-0.948-0.3768-1.276" style="fill:#fff"/>
 <path d="m35.7 23.16c0-4.521-3.683-8.204-8.216-8.204h-10.85v28.66h2.042v-12.24h8.811c4.533 0 8.216-3.695 8.216-8.216m-17.03-6.174h8.811c3.403 0 6.174 2.771 6.174 6.174 0 3.403-2.771 6.174-6.174 6.174h-8.811z" style="fill:#fff"/>
 <path d="m56.75 33.26h-10.85v14.38h-2.747c0.3524-1.07 0.5226-2.2 0.5226-3.367 0-2.965-1.155-5.761-3.257-7.851-2.09-2.103-4.886-3.257-7.851-3.257-2.965 0-5.761 1.155-7.863 3.257-2.09 2.09-3.257 4.886-3.257 7.851 0 2.965 1.167 5.761 3.257 7.863 2.103 2.103 4.898 3.257 7.863 3.257 2.965 0 5.761-1.155 7.851-3.257 0.7414-0.7414 1.361-1.568 1.859-2.455h3.622v12.25h2.042v-12.25h8.811c2.2 0 4.254-0.8507 5.809-2.406 1.544-1.543 2.394-3.61 2.394-5.797 0-4.533-3.683-8.216-8.204-8.216m-17.77 17.44c-1.714 1.714-3.999 2.649-6.417 2.649-2.431 0-4.703-0.9358-6.429-2.649-1.714-1.726-2.662-3.999-2.662-6.429 0-2.419 0.948-4.703 2.662-6.417 1.726-1.714 3.999-2.662 6.429-2.662 2.419 0 4.703 0.948 6.417 2.662 1.714 1.714 2.662 3.999 2.662 6.417 0 2.431-0.948 4.703-2.662 6.429m22.13-4.861c-1.167 1.167-2.71 1.799-4.363 1.799h-8.811v-12.34h8.811c3.403 0 6.174 2.759 6.174 6.174 0 1.641-0.6442 3.196-1.811 4.363" style="fill:#fff"/>
</svg>
