<?xml version="1.0" encoding="UTF-8" standalone="no"?>
<!-- Created with Inkscape (http://www.inkscape.org/) -->

<svg
   version="1.1"
   id="svg2"
   xml:space="preserve"
   width="500"
   height="500"
   viewBox="0 0 499.99999 500"
   sodipodi:docname="france-musique.svg"
   inkscape:version="1.1.1 (1:1.1+202109281954+c3084ef5ed)"
   inkscape:export-filename="/home/gub/OneDrive/Logo Radio France 2021/logos Radio France + chaines 2021/France Musique/france-musique.png"
   inkscape:export-xdpi="192"
   inkscape:export-ydpi="192"
   xmlns:inkscape="http://www.inkscape.org/namespaces/inkscape"
   xmlns:sodipodi="http://sodipodi.sourceforge.net/DTD/sodipodi-0.dtd"
   xmlns="http://www.w3.org/2000/svg"
   xmlns:svg="http://www.w3.org/2000/svg"><defs
     id="defs6"><clipPath
       clipPathUnits="userSpaceOnUse"
       id="clipPath18"><path
         d="M 0,720 H 1280 V 0 H 0 Z"
         id="path16" /></clipPath><clipPath
       clipPathUnits="userSpaceOnUse"
       id="clipPath40"><path
         d="m 687.732,461.852 h 54.12 v -61.248 h -54.12 z"
         id="path38" /></clipPath></defs><sodipodi:namedview
     id="namedview4"
     pagecolor="#ffffff"
     bordercolor="#666666"
     borderopacity="1.0"
     inkscape:pageshadow="2"
     inkscape:pageopacity="0.0"
     inkscape:pagecheckerboard="0"
     showgrid="false"
     inkscape:zoom="1.2537334"
     inkscape:cx="169.89258"
     inkscape:cy="269.19599"
     inkscape:window-width="2560"
     inkscape:window-height="1376"
     inkscape:window-x="0"
     inkscape:window-y="27"
     inkscape:window-maximized="1"
     inkscape:current-layer="g8" /><g
     id="g8"
     inkscape:groupmode="layer"
     inkscape:label="Chaine Radio France RVB_France Bleu Couleurs"
     transform="matrix(1.3333333,0,0,-1.3333333,-693.84154,641.48076)"><path
       d="M 520.38117,106.11057 H 895.38118 V 481.11058 H 520.38117 Z"
       style="fill:#a90042;fill-opacity:1;fill-rule:nonzero;stroke:none;stroke-width:0.157009"
       id="path838" /><path
       id="path864"
       style="fill:#ffffff;fill-opacity:1;fill-rule:nonzero;stroke:none;stroke-width:0.157009"
       d="m 776.82534,208.13337 c 0,-3.66772 -0.59349,-7.11878 -5.50002,-7.11878 -2.80418,0 -4.04455,1.72553 -4.04455,3.72111 0,2.69584 1.72553,4.15289 6.41695,4.15289 h 3.12762 z m 7.55056,-4.74637 v 11.70344 c 0,6.68701 -4.0995,9.59795 -11.54015,9.6529 -7.66361,0 -10.91997,-3.22967 -11.77253,-7.48775 l 7.13448,-1.46489 c 0.32344,2.04896 1.07865,3.39767 4.31304,3.39767 3.61434,0 4.3146,-1.9422 4.3146,-3.93621 v -1.67215 h -3.98959 c -8.19744,0 -13.26725,-2.9659 -13.26725,-9.32947 0,-4.3146 2.80417,-8.73754 9.54614,-8.73754 4.96148,0 6.84872,1.83386 7.87242,3.39767 0,-0.70026 0.16172,-2.21068 0.37839,-2.74922 h 7.38727 c -0.16172,0.64687 -0.37682,4.5297 -0.37682,7.22555 m 74.61062,9.81462 c -0.055,3.23595 -1.34871,5.98675 -5.1232,5.98675 -3.66773,0 -5.17815,-2.53412 -5.50159,-5.98675 z m -10.78651,-4.74481 c 0,-3.50601 1.78048,-6.90368 5.60993,-6.90368 3.23438,0 4.15131,1.29532 4.90652,2.9659 h 7.71228 c -0.97189,-3.3961 -4.04455,-9.00603 -12.78209,-9.00603 -9.22114,0 -13.2123,6.8503 -13.2123,14.18418 0,8.78936 4.47632,15.04616 13.48235,15.04616 9.54614,0 12.83548,-6.95706 12.83548,-13.91412 0,-0.97032 0,-1.56381 -0.10834,-2.37241 h -18.44383 m -8.40312,-3.2909 c -0.91693,-4.63648 -4.20627,-9.65291 -12.51046,-9.65291 -8.6826,0 -13.15892,5.98675 -13.15892,14.39928 0,8.25239 5.01486,14.83106 13.53574,14.83106 9.38285,0 12.02531,-6.79534 12.13364,-9.92296 h -7.4956 c -0.48516,2.26407 -1.78048,3.82945 -4.79976,3.82945 -3.55939,0 -5.55498,-3.07424 -5.55498,-8.46749 0,-5.98675 2.15731,-8.68259 5.50002,-8.68259 2.69742,0 4.09951,1.56381 4.79977,3.66616 h 7.55055 m -52.31065,11.86516 c 0,2.37397 0,4.96148 -0.0534,7.06383 h 7.49561 c 0.16171,-0.75365 0.27005,-2.69585 0.32343,-3.55782 0.91694,1.72552 3.18257,4.20626 8.0891,4.20626 5.60993,0 9.2227,-3.82944 9.2227,-10.83989 v -17.742 h -7.71227 v 16.87845 c 0,3.18257 -1.0237,5.44664 -4.47476,5.44664 -3.2909,0 -5.12477,-1.83229 -5.12477,-6.79378 v -15.53131 h -7.76566 v 20.86962 m -43.62646,-0.53854 c 0,2.80418 0,5.22996 -0.055,7.60237 h 7.60394 c 0.10834,-0.64688 0.21668,-3.39611 0.21668,-4.90653 1.24037,3.181 4.20626,5.50002 8.95264,5.55497 v -7.38883 c -5.60992,0.16171 -8.95264,-1.34871 -8.95264,-9.00603 v -12.18703 h -7.76566 v 20.33108 M 731.0023,196.16145 v 22.10999 h -2.27035 v 5.82346 h 2.27035 v 2.42735 c 0,5.77008 2.85913,9.54614 8.89926,9.54614 1.24037,0 2.85756,-0.10833 3.55939,-0.32343 v -6.09509 c -0.43177,0.055 -1.02526,0.10834 -1.61876,0.10834 -2.26407,0 -3.12761,-0.8086 -3.12761,-3.82945 v -1.83386 h 3.93935 v -5.82346 h -3.93935 v -22.10999 h -7.71228 m 122.98977,-33.40207 c -0.0864,5.31789 -2.21383,9.83503 -8.41725,9.83503 -6.026,0 -8.50674,-4.16387 -9.03743,-9.83503 z m -17.7216,-7.79706 c 0,-5.76066 2.92351,-11.34233 9.21485,-11.34233 5.31947,0 6.82361,2.12748 8.06555,4.87356 h 12.67062 c -1.59678,-5.58167 -6.64462,-14.79809 -21.00151,-14.79809 -15.15136,0 -21.70962,11.25283 -21.70962,23.30326 0,14.44639 7.35587,24.72262 22.15395,24.72262 15.68519,0 21.08787,-11.42868 21.08787,-22.86049 0,-1.59364 0,-2.57024 -0.17585,-3.89853 h -30.30586 m -17.46409,-6.90996 c 0,-4.34287 0,-9.21486 0.0895,-13.29395 H 806.4906 c -0.17899,1.24351 -0.26535,3.72111 -0.35484,5.31789 -2.74609,-4.60821 -6.73411,-6.38084 -12.67062,-6.38084 -9.30434,0 -15.24399,5.67116 -15.24399,17.01349 v 29.95258 h 12.67376 v -27.38235 c 0,-5.05097 1.59364,-9.21485 7.08895,-9.21485 5.75751,0 8.1519,3.10093 8.1519,12.13679 v 24.46041 h 12.67062 v -32.60917 m -69.16242,-4.16702 c 7.79864,0 9.57284,5.58481 9.57284,13.91256 0,8.86158 -1.7742,13.73356 -9.30435,13.73356 -6.82361,0 -9.92453,-5.67116 -9.92453,-13.91255 0,-8.14876 3.01143,-13.73357 9.65604,-13.73357 z m 9.39385,-4.25337 c -2.57024,-4.16388 -6.64462,-5.93651 -12.75855,-5.93651 -10.18987,0 -19.31994,7.61964 -19.31994,23.57175 0,14.79808 8.86472,24.45413 20.38289,24.45413 7.2648,0 10.63265,-3.01143 11.6956,-5.40268 0.0895,1.14931 0.26534,3.18885 0.44433,4.34287 h 11.96251 c 0,-3.90324 -0.0895,-8.42039 -0.0895,-12.58426 v -50.8646 h -12.31734 v 22.4193 m -49.59283,41.02956 h 12.75854 v -45.90312 h -12.75854 z m 0,7.43908 v 11.34232 h 12.75854 v -11.34232 h -12.75854 m -32.53852,-39.51756 c 0.97346,-3.72426 3.98489,-5.76066 8.68259,-5.76066 4.69771,0 6.37927,1.68471 6.37927,4.52186 0,2.92036 -1.95005,4.07438 -8.50674,5.66959 -14.97551,3.72111 -17.36675,8.32775 -17.36675,14.79808 0,6.73411 4.6977,13.90942 18.52077,13.90942 13.90941,0 18.69504,-7.61964 19.04988,-13.81992 h -12.05043 c -0.44433,1.68313 -1.59678,4.87198 -7.53328,4.87198 -4.16388,0 -5.58167,-1.86055 -5.58167,-3.89853 0,-2.30489 1.41779,-3.36941 8.86158,-5.14047 15.33035,-3.54526 17.5426,-8.77208 17.5426,-15.50619 0,-7.62279 -5.84701,-14.53275 -19.75956,-14.53275 -13.99892,0 -19.67008,6.73411 -20.73303,14.88759 h 12.49477 m -16.67748,-0.53069 c 0,-4.34287 0,-9.21486 0.0895,-13.29395 H 647.9132 c -0.17899,1.24351 -0.26848,3.72111 -0.35484,5.31789 -2.74923,-4.60821 -6.73411,-6.38084 -12.67376,-6.38084 -9.3012,0 -15.23771,5.67116 -15.23771,17.01349 v 29.95258 h 12.67062 v -27.38235 c 0,-5.05097 1.59364,-9.21485 7.08895,-9.21485 5.76066,0 8.1519,3.10093 8.1519,12.13679 v 24.46041 h 12.67062 v -32.60917 m -113.21754,20.73302 c 0,3.98802 0,7.88655 -0.0895,11.87615 h 12.13993 c 0.17585,-1.15402 0.44433,-3.72425 0.53383,-5.49531 2.30175,3.36784 6.02286,6.55512 12.76011,6.55512 6.55512,0 10.18987,-3.45577 11.78351,-6.99946 2.74609,3.72268 6.64776,6.99946 14.17634,6.99946 7.97762,0 14.53274,-4.96305 14.53274,-16.83449 v -30.12844 h -12.40527 v 28.53166 c 0,4.16701 -1.50729,8.24139 -6.73412,8.24139 -5.31789,0 -7.44379,-3.54369 -7.44379,-10.54314 V 134.75841 H 573.7736 v 28.09046 c 0,4.69457 -1.15245,8.59624 -6.55826,8.59624 -5.14204,0 -7.61964,-3.19356 -7.61964,-11.07698 v -25.60972 h -12.58427 v 34.02697" /><path
       id="path868"
       style="fill:#e8a9ca;fill-opacity:1;fill-rule:nonzero;stroke:none;stroke-width:0.157009"
       d="m 824.26714,357.36246 c -23.46497,0 -42.4866,18.04817 -42.4866,40.31046 0,2.73196 0.2889,5.39954 0.83529,7.97919 h 23.99724 c -1.21525,-2.41793 -1.89667,-5.12162 -1.89667,-7.97919 0,-10.24483 8.75324,-18.54903 19.55074,-18.54903 2.40538,0 4.71027,0.41451 6.83931,1.16815 V 357.8853 c -2.22638,-0.34228 -4.51086,-0.52284 -6.83931,-0.52284 m 41.4896,31.60589 h -24.22333 c 1.45704,2.59536 2.28291,5.55812 2.28291,8.70457 0,10.24483 -8.75167,18.54903 -19.54918,18.54903 -2.0207,0 -3.96918,-0.29046 -5.80304,-0.83057 v 38.13588 h 21.03605 v -18.21617 c 15.93797,-5.8109 27.25203,-20.46925 27.25203,-37.63817 0,-2.98945 -0.34542,-5.90039 -0.99544,-8.70457" /></g></svg>
