<svg width="683" height="720" xmlns="http://www.w3.org/2000/svg" xmlns:xlink="http://www.w3.org/1999/xlink" overflow="hidden"><defs><clipPath id="clip0"><rect x="298" y="0" width="683" height="720"/></clipPath></defs><g clip-path="url(#clip0)" transform="translate(-298 0)"><path d="M184.04 720.592 178.984 735.177C178.054 737.731 176.894 738.512 174.224 738.512L161.099 738.512C158.397 738.512 156.973 738.031 156.389 735.177L146.869 690.686C146.779 690.234 146.717 689.802 146.717 689.3 146.717 686.519 148.202 684.791 150.893 684.096L168.592 679.138C164.527 676.259 160.561 673.074 157.451 669.025 151.206 660.933 148.725 651.059 148.725 641.021L148.725 634.521C148.725 630.991 149.893 629.781 153.558 629.781L182.098 629.781C185.673 629.781 186.899 630.991 186.899 634.521L186.899 635.731C186.899 649.089 188.158 665.582 200.895 673.239 202.656 674.267 204.392 675.07 206.318 675.646 210.477 676.958 214.739 677.242 219.055 677.242L292.134 677.242 297.129 662.509C298.041 659.966 299.218 659.18 301.872 659.18L314.469 659.18C318.073 659.18 319.258 660.402 319.258 664.015L319.258 733.699C319.258 737.229 318.073 738.504 314.469 738.504L301.872 738.504C299.209 738.504 298.041 737.829 297.129 735.168L292.134 720.583ZM297.137 468.966C298.049 466.304 299.135 465.707 301.88 465.707L314.477 465.707C317.077 465.707 318.965 466.044 319.266 468.966L323.528 509.942C323.677 511.135 323.767 512.385 323.767 513.673 323.767 516.455 322.031 517.693 319.55 518.466L308.022 521.77C311.939 526.324 315.708 530.928 318.365 536.145 322.479 544.101 324.002 552.992 324.002 561.763 324.002 569.876 322.771 578.179 319.558 585.691 318.089 588.949 316.255 592.092 314.045 594.947 304.089 607.936 288.155 613.317 272.225 613.317 266.264 613.317 260.105 612.63 254.362 611.045 250.56 609.89 246.945 608.364 243.567 606.352 240.575 604.57 237.737 602.394 235.174 600.049 226 591.425 221.363 580.734 218.508 568.617 215.023 554.148 214.859 539.07 214.62 524.263L203.973 524.263C194.811 524.263 183.538 525.316 180.054 535.523 178.704 539.453 178.42 543.784 178.42 547.94 178.42 557.694 180.81 567.387 183.813 576.566 184.772 579.458 185.846 582.247 186.924 585.073 187.525 586.814 188.302 588.69 188.302 590.594 188.302 592.795 186.833 593.487 184.908 594.223L163.527 601.608C162.63 601.826 161.762 602.11 160.882 602.11 157.821 602.11 155.723 597.634 154.694 595.474L153.661 593.166C153.316 592.409 153.003 591.483 152.686 590.586 152.402 589.793 152.102 588.908 151.76 588.015 146.927 573.813 144.989 558.517 144.989 543.5 144.989 526.127 147.527 507.967 160.89 495.649 163.251 493.489 165.695 491.676 168.324 490.042 171.236 488.318 174.54 486.932 177.787 486.018 185.007 483.813 192.153 483.64 199.526 483.64L292.154 483.64ZM242.855 524.263 242.991 532.458C243.406 544.887 244.159 560.25 255.695 567.98 257.469 569.156 259.356 570.02 261.372 570.741 264.121 571.599 267.038 571.982 270.069 571.982 282.609 571.982 293.644 563.067 293.644 550.137 293.644 539.354 287.711 531.496 280.342 524.255L242.855 524.255ZM297.137 289.978C298.049 287.316 299.135 286.617 301.88 286.617L314.477 286.617C317.077 286.617 318.965 287.024 319.266 289.978L323.528 330.822C323.677 332.069 323.767 333.373 323.767 334.587 323.767 337.413 322.031 338.68 319.55 339.347L307.503 342.947C314.185 351.743 320.015 361.316 322.8 372.083 324.36 378.027 324.907 384.142 324.907 390.189 324.907 397.281 324.187 404.42 321.751 410.99 318.492 419.79 311.992 426.397 304.484 431.779 290.101 442.035 272.608 446.181 255.267 447.63 249.544 448.078 243.707 448.263 237.955 448.263 232.051 448.263 226.156 448.033 220.223 447.597 215.105 447.173 209.909 446.548 204.857 445.56 181.328 441.216 155.821 427.804 147.902 403.634 145.75 396.853 144.956 389.786 144.956 382.648 144.956 376.538 145.421 370.33 147.108 364.443 148.679 358.572 151.46 353.203 154.583 347.924L120.169 347.924 115.112 362.567C114.17 365.18 113.067 365.919 110.357 365.919L97.3106 365.919C94.6077 365.919 93.2006 365.472 92.5095 362.567L81.5824 311.466C81.3562 310.462 81.0723 309.306 81.0723 308.256 81.0723 305.521 82.9977 304.567 85.425 304.567L292.146 304.567ZM185.591 347.924C181.431 356.055 179.461 363.415 179.461 372.577 179.461 377.295 179.778 382.385 181.538 386.84 186.961 400.729 203.59 402.996 216.402 404.091 219.467 404.375 222.498 404.568 225.473 404.638 229.406 404.827 233.327 404.947 237.198 404.947 240.728 404.947 244.254 404.827 247.784 404.692 250.474 404.568 253.132 404.375 255.695 404.136 267.742 403.087 284.342 400.252 289.389 387.601 290.887 383.796 291.269 379.579 291.269 375.576 291.269 369.849 290.356 363.867 287.79 358.662 285.638 354.635 282.745 351.216 279.696 347.924ZM185.772 244.879 180.711 259.513C179.786 262.154 178.7 262.866 175.943 262.866L162.951 262.866C160.187 262.866 158.78 262.339 158.134 259.513L147.206 208.478C146.918 207.384 146.725 206.252 146.725 205.17 146.725 202.442 148.651 201.603 151.033 201.603L292.146 201.603 297.145 186.871C298.057 184.282 299.234 183.55 301.884 183.55L314.486 183.55C318.089 183.55 319.274 184.764 319.274 188.311L319.274 258.073C319.274 261.619 318.089 262.858 314.486 262.858L301.884 262.858C299.226 262.858 298.057 262.146 297.145 259.504L292.146 244.871ZM134.954 224.461C134.954 240.012 122.176 252.465 106.699 252.465 90.9914 252.465 78.682 239.584 78.682 224.012 78.682 209.116 91.6867 196.033 106.699 196.177 122.279 196.316 134.954 208.704 134.954 224.461ZM283.56 28.0787C288.912 30.5225 293.952 33.5752 298.695 37.175 303.303 40.7048 307.512 44.7078 311.071 49.291 320.788 61.7937 325.034 77.4108 325.034 93.1184 325.034 100.977 324.002 108.851 321.759 116.474 320.336 121.259 318.365 126.035 315.753 130.392 312.943 135.144 309.701 139.546 305.723 143.466 287.135 161.889 260.105 167.25 234.8 167.25 209.182 167.25 183.641 161.437 164.839 142.94 161.49 139.604 158.381 135.934 155.739 131.963 152.748 127.348 150.284 122.435 148.679 117.239 146.067 109.242 144.956 100.837 144.956 92.4313 144.956 76.8636 148.922 61.4934 158.623 49.147 162.136 44.5803 166.399 40.5978 171.027 36.9775 175.783 33.3118 181.176 30.1933 186.677 27.6755 201.195 21.167 218.718 18.5957 234.668 18.7603 251.206 18.9989 268.4 21.1588 283.56 28.0787ZM225.152 65.0561C222.358 65.1755 219.561 65.2907 216.776 65.5951 203.635 66.7965 185.307 69.8943 180.6 84.4829 179.778 87.301 179.461 90.329 179.461 93.2829 179.461 96.1546 179.778 99.0673 180.6 101.816 184.295 113.182 197.074 117.355 207.704 119.255 209.766 119.683 211.995 119.938 214.102 120.165 217.512 120.486 221.025 120.786 224.551 120.897 227.855 121.103 231.191 121.169 234.524 121.169 238.157 121.169 241.715 121.103 245.303 120.996 248.023 120.831 250.696 120.72 253.379 120.412 255.469 120.255 257.522 120.013 259.508 119.753 271.098 118.042 285.44 114.166 289.389 101.631 290.245 98.907 290.574 95.9613 290.574 93.1596 290.574 90.2467 290.245 87.2435 289.299 84.4664 284.798 70.4457 267.412 67.0885 254.765 65.7474 251.523 65.4018 248.175 65.1837 244.916 65.0644 241.715 64.9204 238.56 64.9204 235.376 64.9204 231.969 64.9121 228.53 64.9121 225.152 65.0561ZM669.77 362.793C679.487 367.405 688.979 372.429 698.042 377.892 707.114 383.323 715.421 389.403 722.99 396.224 730.511 403.017 737.044 410.652 742.676 419.251 748.263 427.849 752.752 437.583 756.13 448.498 758.417 455.261 759.914 462.174 760.573 469.147 761.338 476.058 761.679 483.138 761.679 490.199 761.741 501.932 760.856 513.541 759.112 524.987 757.306 536.437 754.488 547.742 750.6 558.953 748.407 564.425 746.038 569.741 743.528 574.973 741.08 580.141 738.134 585.073 734.831 589.702 725.64 603.616 714.799 615.641 702.321 625.803 689.781 635.932 676.205 644.222 661.657 650.685 647.02 657.14 631.698 661.896 615.629 664.961 599.667 667.969 583.44 669.498 566.996 669.556 544.694 669.601 522.716 667.212 501.138 662.373 479.506 657.54 458.598 650.372 438.542 640.856 434.07 638.689 429.623 636.471 425.327 634.183 421.02 631.838 416.737 629.469 412.533 627.029 410.336 625.98 408.208 624.503 406.316 622.734 404.301 620.989 403.313 618.768 403.313 615.987 403.313 614.382 403.688 612.753 404.362 611.152 405.049 609.45 405.797 607.965 406.645 606.599L436.587 550.487C437.982 548.294 439.426 546.372 440.969 544.714 442.467 543.126 444.618 542.249 447.395 542.249 450.506 542.249 453.407 543.056 456.273 544.714 459.01 546.319 461.7 547.693 464.156 548.742 471.122 552.555 478.959 556.226 487.582 559.785 500.138 564.577 512.863 568.609 525.719 571.682 538.531 574.764 551.625 576.294 565.034 576.265 573.924 576.265 582.839 575.455 591.746 573.92 600.727 572.418 609.03 569.802 616.88 566.103 624.643 562.392 631.579 557.476 637.693 551.288 643.835 545.142 648.382 537.585 651.401 528.579 654.75 518.466 656.412 507.811 656.322 496.678 656.322 492.264 656.083 487.956 655.663 483.541 655.231 479.218 654.33 474.791 652.927 470.48 651.216 465.024 648.847 459.392 645.798 453.723 641.013 445.823 635.093 439.418 628.14 434.514 621.158 429.618 613.592 425.734 605.344 422.9 597.075 420.061 588.542 418.222 579.59 417.264 570.666 416.362 561.874 415.926 553.251 415.926L524.012 416.004C514.776 416.017 510.181 411.558 510.181 402.54L509.913 338.734C509.913 335.999 510.424 333.32 511.395 330.74 512.325 328.123 514.385 326.474 517.45 325.606 518.812 325.351 520.873 325.232 523.666 325.187L555.061 325.096C563.392 325.096 571.896 324.392 580.602 323.17 589.163 321.94 597.404 319.714 605.208 316.555 612.971 313.383 620.043 309.104 626.305 303.6 632.521 298.094 637.446 291.274 641.062 283.103 643.271 277.36 644.921 271.444 646.016 265.281 647.11 259.146 647.658 252.984 647.658 246.694 647.658 241.752 647.267 236.91 646.575 232.133 645.872 227.415 644.53 222.692 642.556 218.039 637.45 204.154 629.025 194.082 617.135 187.858 605.286 181.575 592.244 178.511 578.047 178.573 566.877 178.573 556.546 180.946 546.891 185.603 537.293 190.26 528.484 196.271 520.417 203.664 519.623 204.758 518.676 205.725 517.709 206.565 516.722 207.346 515.846 208.169 515.006 209.005L507.05 217.22C505.124 219.401 502.729 221.906 499.966 224.794 497.213 227.666 494.255 229.106 491.223 229.106 488.952 229.106 487.08 228.67 485.574 227.678 484.015 226.749 482.555 225.572 481.16 224.222L432.964 182.238C431.581 180.917 430.334 179.35 429.178 177.746 428.038 176.112 427.499 174.335 427.499 172.393 427.487 169.97 428.277 167.719 429.754 165.687 431.285 163.626 432.791 161.646 434.135 159.722 437.501 155.62 440.924 151.727 444.334 148.034 447.831 144.367 451.539 140.744 455.368 137.156 472.92 120.741 492.876 108.394 515.298 100.154 537.72 91.95 561.034 87.7207 585.275 87.7084 612.062 87.6466 637.364 92.6617 661.238 102.835 685.083 112.923 704.814 129.063 720.526 151.124 726.714 159.277 731.724 168.435 735.687 178.503 739.846 188.574 742.894 198.867 744.758 209.371 746.577 219.873 747.551 230.438 747.551 241.049 747.613 249.556 746.983 258.016 745.746 266.659 744.52 275.258 742.384 283.49 739.348 291.422 732.951 307.536 723.402 321.348 710.611 332.843 697.849 344.321 684.26 354.298 669.77 362.793ZM184.04 720.592 178.984 735.177C178.054 737.731 176.894 738.512 174.224 738.512L161.099 738.512C158.397 738.512 156.973 738.031 156.389 735.177L146.869 690.686C146.779 690.234 146.717 689.802 146.717 689.3 146.717 686.519 148.202 684.791 150.893 684.096L168.592 679.138C164.527 676.259 160.561 673.074 157.451 669.025 151.206 660.933 148.725 651.059 148.725 641.021L148.725 634.521C148.725 630.991 149.893 629.781 153.558 629.781L182.098 629.781C185.673 629.781 186.899 630.991 186.899 634.521L186.899 635.731C186.899 649.089 188.158 665.582 200.895 673.239 202.656 674.267 204.392 675.07 206.318 675.646 210.477 676.958 214.739 677.242 219.055 677.242L292.134 677.242 297.129 662.509C298.041 659.966 299.218 659.18 301.872 659.18L314.469 659.18C318.073 659.18 319.258 660.402 319.258 664.015L319.258 733.699C319.258 737.229 318.073 738.504 314.469 738.504L301.872 738.504C299.209 738.504 298.041 737.829 297.129 735.168L292.134 720.583ZM297.137 468.966C298.049 466.304 299.135 465.707 301.88 465.707L314.477 465.707C317.077 465.707 318.965 466.044 319.266 468.966L323.528 509.942C323.677 511.135 323.767 512.385 323.767 513.673 323.767 516.455 322.031 517.693 319.55 518.466L308.022 521.77C311.939 526.324 315.708 530.928 318.365 536.145 322.479 544.101 324.002 552.992 324.002 561.763 324.002 569.876 322.771 578.179 319.558 585.691 318.089 588.949 316.255 592.092 314.045 594.947 304.089 607.936 288.155 613.317 272.225 613.317 266.264 613.317 260.105 612.63 254.362 611.045 250.56 609.89 246.945 608.364 243.567 606.352 240.575 604.57 237.737 602.394 235.174 600.049 226 591.425 221.363 580.734 218.508 568.617 215.023 554.148 214.859 539.07 214.62 524.263L203.973 524.263C194.811 524.263 183.538 525.316 180.054 535.523 178.704 539.453 178.42 543.784 178.42 547.94 178.42 557.694 180.81 567.387 183.813 576.566 184.772 579.458 185.846 582.247 186.924 585.073 187.525 586.814 188.302 588.69 188.302 590.594 188.302 592.795 186.833 593.487 184.908 594.223L163.527 601.608C162.63 601.826 161.762 602.11 160.882 602.11 157.821 602.11 155.723 597.634 154.694 595.474L153.661 593.166C153.316 592.409 153.003 591.483 152.686 590.586 152.402 589.793 152.102 588.908 151.76 588.015 146.927 573.813 144.989 558.517 144.989 543.5 144.989 526.127 147.527 507.967 160.89 495.649 163.251 493.489 165.695 491.676 168.324 490.042 171.236 488.318 174.54 486.932 177.787 486.018 185.007 483.813 192.153 483.64 199.526 483.64L292.154 483.64ZM242.855 524.263 242.991 532.458C243.406 544.887 244.159 560.25 255.695 567.98 257.469 569.156 259.356 570.02 261.372 570.741 264.121 571.599 267.038 571.982 270.069 571.982 282.609 571.982 293.644 563.067 293.644 550.137 293.644 539.354 287.711 531.496 280.342 524.255L242.855 524.255ZM297.137 289.978C298.049 287.316 299.135 286.617 301.88 286.617L314.477 286.617C317.077 286.617 318.965 287.024 319.266 289.978L323.528 330.822C323.677 332.069 323.767 333.373 323.767 334.587 323.767 337.413 322.031 338.68 319.55 339.347L307.503 342.947C314.185 351.743 320.015 361.316 322.8 372.083 324.36 378.027 324.907 384.142 324.907 390.189 324.907 397.281 324.187 404.42 321.751 410.99 318.492 419.79 311.992 426.397 304.484 431.779 290.101 442.035 272.608 446.181 255.267 447.63 249.544 448.078 243.707 448.263 237.955 448.263 232.051 448.263 226.156 448.033 220.223 447.597 215.105 447.173 209.909 446.548 204.857 445.56 181.328 441.216 155.821 427.804 147.902 403.634 145.75 396.853 144.956 389.786 144.956 382.648 144.956 376.538 145.421 370.33 147.108 364.443 148.679 358.572 151.46 353.203 154.583 347.924L120.169 347.924 115.112 362.567C114.17 365.18 113.067 365.919 110.357 365.919L97.3106 365.919C94.6077 365.919 93.2006 365.472 92.5095 362.567L81.5824 311.466C81.3562 310.462 81.0723 309.306 81.0723 308.256 81.0723 305.521 82.9977 304.567 85.425 304.567L292.146 304.567ZM185.591 347.924C181.431 356.055 179.461 363.415 179.461 372.577 179.461 377.295 179.778 382.385 181.538 386.84 186.961 400.729 203.59 402.996 216.402 404.091 219.467 404.375 222.498 404.568 225.473 404.638 229.406 404.827 233.327 404.947 237.198 404.947 240.728 404.947 244.254 404.827 247.784 404.692 250.474 404.568 253.132 404.375 255.695 404.136 267.742 403.087 284.342 400.252 289.389 387.601 290.887 383.796 291.269 379.579 291.269 375.576 291.269 369.849 290.356 363.867 287.79 358.662 285.638 354.635 282.745 351.216 279.696 347.924ZM185.772 244.879 180.711 259.513C179.786 262.154 178.7 262.866 175.943 262.866L162.951 262.866C160.187 262.866 158.78 262.339 158.134 259.513L147.206 208.478C146.918 207.384 146.725 206.252 146.725 205.17 146.725 202.442 148.651 201.603 151.033 201.603L292.146 201.603 297.145 186.871C298.057 184.282 299.234 183.55 301.884 183.55L314.486 183.55C318.089 183.55 319.274 184.764 319.274 188.311L319.274 258.073C319.274 261.619 318.089 262.858 314.486 262.858L301.884 262.858C299.226 262.858 298.057 262.146 297.145 259.504L292.146 244.871ZM134.954 224.461C134.954 240.012 122.176 252.465 106.699 252.465 90.9914 252.465 78.682 239.584 78.682 224.012 78.682 209.116 91.6867 196.033 106.699 196.177 122.279 196.316 134.954 208.704 134.954 224.461ZM283.56 28.0787C288.912 30.5225 293.952 33.5752 298.695 37.175 303.303 40.7048 307.512 44.7078 311.071 49.291 320.788 61.7937 325.034 77.4108 325.034 93.1184 325.034 100.977 324.002 108.851 321.759 116.474 320.336 121.259 318.365 126.035 315.753 130.392 312.943 135.144 309.701 139.546 305.723 143.466 287.135 161.889 260.105 167.25 234.8 167.25 209.182 167.25 183.641 161.437 164.839 142.94 161.49 139.604 158.381 135.934 155.739 131.963 152.748 127.348 150.284 122.435 148.679 117.239 146.067 109.242 144.956 100.837 144.956 92.4313 144.956 76.8636 148.922 61.4934 158.623 49.147 162.136 44.5803 166.399 40.5978 171.027 36.9775 175.783 33.3118 181.176 30.1933 186.677 27.6755 201.195 21.167 218.718 18.5957 234.668 18.7603 251.206 18.9989 268.4 21.1588 283.56 28.0787ZM225.152 65.0561C222.358 65.1755 219.561 65.2907 216.776 65.5951 203.635 66.7965 185.307 69.8943 180.6 84.4829 179.778 87.301 179.461 90.329 179.461 93.2829 179.461 96.1546 179.778 99.0673 180.6 101.816 184.295 113.182 197.074 117.355 207.704 119.255 209.766 119.683 211.995 119.938 214.102 120.165 217.512 120.486 221.025 120.786 224.551 120.897 227.855 121.103 231.191 121.169 234.524 121.169 238.157 121.169 241.715 121.103 245.303 120.996 248.023 120.831 250.696 120.72 253.379 120.412 255.469 120.255 257.522 120.013 259.508 119.753 271.098 118.042 285.44 114.166 289.389 101.631 290.245 98.907 290.574 95.9613 290.574 93.1596 290.574 90.2467 290.245 87.2435 289.299 84.4664 284.798 70.4457 267.412 67.0885 254.765 65.7474 251.523 65.4018 248.175 65.1837 244.916 65.0644 241.715 64.9204 238.56 64.9204 235.376 64.9204 231.969 64.9121 228.53 64.9121 225.152 65.0561ZM669.77 362.793C679.487 367.405 688.979 372.429 698.042 377.892 707.114 383.323 715.421 389.403 722.99 396.224 730.511 403.017 737.044 410.652 742.676 419.251 748.263 427.849 752.752 437.583 756.13 448.498 758.417 455.261 759.914 462.174 760.573 469.147 761.338 476.058 761.679 483.138 761.679 490.199 761.741 501.932 760.856 513.541 759.112 524.987 757.306 536.437 754.488 547.742 750.6 558.953 748.407 564.425 746.038 569.741 743.528 574.973 741.08 580.141 738.134 585.073 734.831 589.702 725.64 603.616 714.799 615.641 702.321 625.803 689.781 635.932 676.205 644.222 661.657 650.685 647.02 657.14 631.698 661.896 615.629 664.961 599.667 667.969 583.44 669.498 566.996 669.556 544.694 669.601 522.716 667.212 501.138 662.373 479.506 657.54 458.598 650.372 438.542 640.856 434.07 638.689 429.623 636.471 425.327 634.183 421.02 631.838 416.737 629.469 412.533 627.029 410.336 625.98 408.208 624.503 406.316 622.734 404.301 620.989 403.313 618.768 403.313 615.987 403.313 614.382 403.688 612.753 404.362 611.152 405.049 609.45 405.797 607.965 406.645 606.599L436.587 550.487C437.982 548.294 439.426 546.372 440.969 544.714 442.467 543.126 444.618 542.249 447.395 542.249 450.506 542.249 453.407 543.056 456.273 544.714 459.01 546.319 461.7 547.693 464.156 548.742 471.122 552.555 478.959 556.226 487.582 559.785 500.138 564.577 512.863 568.609 525.719 571.682 538.531 574.764 551.625 576.294 565.034 576.265 573.924 576.265 582.839 575.455 591.746 573.92 600.727 572.418 609.03 569.802 616.88 566.103 624.643 562.392 631.579 557.476 637.693 551.288 643.835 545.142 648.382 537.585 651.401 528.579 654.75 518.466 656.412 507.811 656.322 496.678 656.322 492.264 656.083 487.956 655.663 483.541 655.231 479.218 654.33 474.791 652.927 470.48 651.216 465.024 648.847 459.392 645.798 453.723 641.013 445.823 635.093 439.418 628.14 434.514 621.158 429.618 613.592 425.734 605.344 422.9 597.075 420.061 588.542 418.222 579.59 417.264 570.666 416.362 561.874 415.926 553.251 415.926L524.012 416.004C514.776 416.017 510.181 411.558 510.181 402.54L509.913 338.734C509.913 335.999 510.424 333.32 511.395 330.74 512.325 328.123 514.385 326.474 517.45 325.606 518.812 325.351 520.873 325.232 523.666 325.187L555.061 325.096C563.392 325.096 571.896 324.392 580.602 323.17 589.163 321.94 597.404 319.714 605.208 316.555 612.971 313.383 620.043 309.104 626.305 303.6 632.521 298.094 637.446 291.274 641.062 283.103 643.271 277.36 644.921 271.444 646.016 265.281 647.11 259.146 647.658 252.984 647.658 246.694 647.658 241.752 647.267 236.91 646.575 232.133 645.872 227.415 644.53 222.692 642.556 218.039 637.45 204.154 629.025 194.082 617.135 187.858 605.286 181.575 592.244 178.511 578.047 178.573 566.877 178.573 556.546 180.946 546.891 185.603 537.293 190.26 528.484 196.271 520.417 203.664 519.623 204.758 518.676 205.725 517.709 206.565 516.722 207.346 515.846 208.169 515.006 209.005L507.05 217.22C505.124 219.401 502.729 221.906 499.966 224.794 497.213 227.666 494.255 229.106 491.223 229.106 488.952 229.106 487.08 228.67 485.574 227.678 484.015 226.749 482.555 225.572 481.16 224.222L432.964 182.238C431.581 180.917 430.334 179.35 429.178 177.746 428.038 176.112 427.499 174.335 427.499 172.393 427.487 169.97 428.277 167.719 429.754 165.687 431.285 163.626 432.791 161.646 434.135 159.722 437.501 155.62 440.924 151.727 444.334 148.034 447.831 144.367 451.539 140.744 455.368 137.156 472.92 120.741 492.876 108.394 515.298 100.154 537.72 91.95 561.034 87.7207 585.275 87.7084 612.062 87.6466 637.364 92.6617 661.238 102.835 685.083 112.923 704.814 129.063 720.526 151.124 726.714 159.277 731.724 168.435 735.687 178.503 739.846 188.574 742.894 198.867 744.758 209.371 746.577 219.873 747.551 230.438 747.551 241.049 747.613 249.556 746.983 258.016 745.746 266.659 744.52 275.258 742.384 283.49 739.348 291.422 732.951 307.536 723.402 321.348 710.611 332.843 697.849 344.321 684.26 354.298 669.77 362.793Z" fill="#D13434" transform="matrix(1 0 0 1.00023 219.318 -18.7197)"/></g></svg>