<?xml version="1.0" encoding="UTF-8" standalone="no"?>
<!-- Created with Inkscape (http://www.inkscape.org/) -->

<svg
   width="162.56001mm"
   height="162.56001mm"
   viewBox="0 0 162.56001 162.56001"
   version="1.1"
   id="svg1"
   xml:space="preserve"
   inkscape:version="1.4.3 (0d15f75042, 2025-12-25)"
   sodipodi:docname="logo_deutschlandradio.svg"
   xmlns:inkscape="http://www.inkscape.org/namespaces/inkscape"
   xmlns:sodipodi="http://sodipodi.sourceforge.net/DTD/sodipodi-0.dtd"
   xmlns="http://www.w3.org/2000/svg"
   xmlns:svg="http://www.w3.org/2000/svg"><sodipodi:namedview
     id="namedview1"
     pagecolor="#ffffff"
     bordercolor="#000000"
     borderopacity="0.25"
     inkscape:showpageshadow="2"
     inkscape:pageopacity="0.0"
     inkscape:pagecheckerboard="0"
     inkscape:deskcolor="#d1d1d1"
     inkscape:document-units="mm"
     inkscape:zoom="0.78484147"
     inkscape:cx="321.72102"
     inkscape:cy="379.05744"
     inkscape:window-width="1920"
     inkscape:window-height="1131"
     inkscape:window-x="0"
     inkscape:window-y="0"
     inkscape:window-maximized="1"
     inkscape:current-layer="layer1" /><defs
     id="defs1" /><g
     inkscape:label="Layer 1"
     inkscape:groupmode="layer"
     id="layer1"
     transform="translate(-19.897983,-47.894331)"><rect
       style="fill:#ffffff;stroke-width:11.5094"
       id="rect1"
       width="123.38479"
       height="132.14983"
       x="40.462112"
       y="67.447113" /><path
       style="fill:#a7a197;fill-opacity:1"
       d="M 19.897983,129.17434 V 47.894331 h 81.280007 81.28 v 81.280009 81.28001 h -81.28 -81.280007 z m 100.668677,47.75201 v -4.40267 H 88.266322 55.965986 v 4.40267 4.40266 h 32.300336 32.300338 z m 19.79135,-18.56317 -0.0217,-6.62517 H 98.045312 55.754309 l -0.02168,6.62517 -0.02168,6.62517 h 42.334368 42.334373 z m 15.54792,-16.36876 c 0.0672,-0.17506 0.0672,-22.1631 0,-22.33816 -0.0468,-0.12191 -4.53405,-0.13392 -50.02894,-0.13392 -45.494889,0 -49.982163,0.012 -50.028946,0.13392 -0.06718,0.17506 -0.06718,22.1631 0,22.33816 0.04678,0.12191 4.534057,0.13392 50.028946,0.13392 45.49489,0 49.98216,-0.012 50.02894,-0.13392 z m -11.46327,-39.22703 c 0,-6.630459 -0.0132,-7.362009 -0.13393,-7.408329 -0.17511,-0.0672 -88.541704,-0.0672 -88.716819,0 -0.120689,0.0463 -0.133925,0.7729 -0.133925,7.351889 0,4.01527 0.0254,7.3259 0.05644,7.35694 0.03104,0.031 20.052596,0.0564 44.492344,0.0564 h 44.43589 z m -24.384,-20.837059 v -4.40266 H 87.758322 55.457986 v 4.40266 4.40267 h 32.300336 32.300338 z"
       id="path1" /></g></svg>
