<?xml version="1.0" encoding="UTF-8" standalone="no"?>
<!-- Created with Inkscape (http://www.inkscape.org/) -->

<svg
   width="137.23242mm"
   height="62.812969mm"
   viewBox="0 0 137.23242 62.812969"
   version="1.1"
   id="svg1"
   xml:space="preserve"
   inkscape:version="1.4.3 (0d15f75042, 2025-12-25)"
   sodipodi:docname="logo_jazz24.svg"
   xmlns:inkscape="http://www.inkscape.org/namespaces/inkscape"
   xmlns:sodipodi="http://sodipodi.sourceforge.net/DTD/sodipodi-0.dtd"
   xmlns="http://www.w3.org/2000/svg"
   xmlns:svg="http://www.w3.org/2000/svg"><sodipodi:namedview
     id="namedview1"
     pagecolor="#ffffff"
     bordercolor="#000000"
     borderopacity="0.25"
     inkscape:showpageshadow="2"
     inkscape:pageopacity="0.0"
     inkscape:pagecheckerboard="0"
     inkscape:deskcolor="#d1d1d1"
     inkscape:document-units="mm"
     inkscape:zoom="0.78484147"
     inkscape:cx="272.02946"
     inkscape:cy="-144.61519"
     inkscape:window-width="1920"
     inkscape:window-height="1131"
     inkscape:window-x="0"
     inkscape:window-y="0"
     inkscape:window-maximized="1"
     inkscape:current-layer="layer1" /><defs
     id="defs1" /><g
     inkscape:label="Layer 1"
     inkscape:groupmode="layer"
     id="layer1"
     transform="translate(-32.919449,-186.60583)"><path
       style="fill:#13c97e;fill-opacity:1"
       d="m 151.84902,235.51517 -0.08,-1.38906 -2.57969,-0.0757 -2.57968,-0.0757 v -1.04875 -1.04875 h 2.64583 2.64583 v -5.29167 c 0,-3.53244 0.0927,-5.29167 0.2789,-5.29167 0.15339,0 2.743,1.73546 5.75469,3.85656 3.01168,2.12111 6.9886,4.88932 8.83759,6.15157 1.84899,1.26225 3.36703,2.38255 3.37344,2.48956 0.006,0.107 -3.59001,0.22607 -7.99201,0.26458 l -8.00365,0.07 -0.08,1.38906 -0.08,1.38906 h -1.03068 -1.03068 z m 10.90183,-4.44953 c -0.78623,-0.67189 -5.53617,-4.0199 -7.98838,-5.63062 l -0.74447,-0.489 v 3.46556 3.46557 l 4.82865,-0.0108 4.82864,-0.0108 z m -16.14118,-20.14768 v -7.73002 l 1.38906,1.32739 c 1.94929,1.86274 8.24534,7.67293 9.98802,9.21726 3.43438,3.04346 6.72553,3.35966 8.92269,0.85723 1.58619,-1.80657 1.7212,-4.58226 0.31869,-6.55191 -0.67274,-0.94477 -2.43003,-1.99033 -3.75128,-2.23195 -0.92475,-0.16912 -0.99218,-0.24489 -0.99218,-1.1149 v -0.93345 l 1.30482,0.15454 c 1.7887,0.21184 3.16942,0.97602 4.56199,2.52488 1.37233,1.52636 1.80833,2.761 1.80029,5.0979 -0.0166,4.81966 -4.37198,7.89508 -9.14043,6.4542 -1.6245,-0.49087 -3.24318,-1.71831 -8.02861,-6.08802 -2.07174,-1.89177 -3.87696,-3.47927 -4.0116,-3.52778 -0.14467,-0.0521 -0.2448,2.031 -0.2448,5.09323 v 5.18142 h -1.05833 -1.05833 z"
       id="path1"
       sodipodi:nodetypes="ccccccccsssscscccccccsccccccccsssssscssssssscccc" /><path
       d="m 77.63258,249.30885 c 0,-0.0361 2.57975,-4.33641 5.73277,-9.55622 3.15303,-5.21981 6.61758,-11.0086 7.699,-12.86399 l 1.96623,-3.37344 h 3.545793 c 1.95018,0 3.545787,0.0474 3.545787,0.10534 0,0.0879 -6.01847,10.04425 -10.67237,17.65525 -0.67863,1.10983 -1.23388,2.08929 -1.23388,2.17656 0,0.0873 2.05383,0.19126 4.56406,0.23108 l 4.564063,0.0724 0.075,2.67536 0.075,2.67535 -7.483333,0.18006 c -6.95172,0.16727 -12.37812,0.17703 -12.37812,0.0223 z M 37.897598,232.93569 c -2.757461,-0.74248 -4.971465,-3.49072 -4.97813,-6.17935 -0.0014,-0.58064 0.06883,-0.59531 2.850935,-0.59531 h 2.85241 l 0.288488,0.76429 c 0.195125,0.51695 0.599221,0.87666 1.248632,1.11149 l 0.960143,0.34719 v 2.46039 2.46039 l -0.992187,-0.0179 c -0.545703,-0.01 -1.549334,-0.16787 -2.230291,-0.35123 z m 42.645392,-6.77466 v -2.64583 h 3.43959 3.43958 v 2.64583 2.64583 h -3.43958 -3.43959 z m 27.46471,1.52136 c 0.2862,-0.47295 0.98304,-1.63381 1.54852,-2.57969 l 1.02816,-1.71979 5.15378,-0.16326 c 2.83458,-0.0898 7.20762,-0.17909 9.71785,-0.19844 l 4.56406,-0.0352 v 2.77813 2.77812 H 118.7537 107.48733 Z M 43.501326,214.11458 v -10.45894 l 3.373438,0.074 3.373437,0.074 0.06922,10.3849 0.06922,10.38489 h -3.442654 -3.442655 z m 70.924424,2.75596 c 0.53459,-0.99889 4.00052,-6.69692 4.51281,-7.4191 0.274,-0.38627 0.49818,-0.77041 0.49818,-0.85365 0,-0.0832 -2.05383,-0.18392 -4.56406,-0.22374 l -4.56406,-0.0724 -0.0751,-2.84427 -0.0751,-2.84427 h 9.96126 9.96125 l -0.38395,0.59531 c -0.21118,0.32742 -1.25327,2.08359 -2.31577,3.9026 -1.06249,1.81901 -2.87527,4.88487 -4.02839,6.81302 l -2.09658,3.50573 h -3.56489 c -3.54681,0 -3.56338,-0.003 -3.2656,-0.55924 z M 62.89184,211.5428 c 0.0729,-0.1819 1.20764,-2.23573 2.52166,-4.56406 l 2.38911,-4.23333 3.59207,-0.0736 c 1.97563,-0.0405 3.59206,-0.008 3.59206,0.0729 0,0.0806 -1.09748,2.16756 -2.43886,4.63767 l -2.43886,4.49112 h -3.67486 c -2.83419,0 -3.64454,-0.0757 -3.54232,-0.33073 z m 20.2424,-0.26458 c -0.20902,-0.32742 -1.71307,-2.98904 -3.34235,-5.91471 l -2.96231,-5.31941 0.0708,-6.71913 0.0708,-6.71914 2.09071,3.83645 c 1.1499,2.11006 3.1294,5.68193 4.39889,7.9375 1.2695,2.25558 3.41009,6.12511 4.75687,8.59896 1.34678,2.47385 2.4997,4.58721 2.56204,4.69635 0.0623,0.10914 -1.54687,0.19844 -3.57601,0.19844 -3.537,0 -3.70504,-0.0246 -4.06938,-0.59531 z"
       style="fill:#2e55a5;fill-opacity:1"
       id="path1-2" /></g></svg>
