<?xml version="1.0" encoding="utf-8"?>
<!-- Generator: Adobe Illustrator 22.1.0, SVG Export Plug-In . SVG Version: 6.00 Build 0)  -->
<svg version="1.1"
	 id="svg3639" inkscape:version="0.91 r13725" sodipodi:docname="Couleur3.svg" xmlns:cc="http://creativecommons.org/ns#" xmlns:dc="http://purl.org/dc/elements/1.1/" xmlns:inkscape="http://www.inkscape.org/namespaces/inkscape" xmlns:rdf="http://www.w3.org/1999/02/22-rdf-syntax-ns#" xmlns:sodipodi="http://sodipodi.sourceforge.net/DTD/sodipodi-0.dtd" xmlns:svg="http://www.w3.org/2000/svg"
	 xmlns="http://www.w3.org/2000/svg" xmlns:xlink="http://www.w3.org/1999/xlink" x="0px" y="0px" viewBox="0 0 13957.5 3322.7"
	 style="enable-background:new 0 0 13957.5 3322.7;" xml:space="preserve">
<style type="text/css">
	.st0{fill:#E60096;}
</style>
<g id="Calque_1">
	<path class="st0" d="M0,2803.2h2886.5V866.8H0V2803.2z M2247.5,1928l-105.6-27.8c-138.9-36.1-219.5-122.2-219.5-269.5
		c0-163.9,113.9-263.9,350-263.9c116.7,0,205.6,8.3,247.3,13.9c19.4,2.8,27.8,11.1,25,33.3l-16.7,105.6
		c-5.6,22.2-11.1,30.6-30.6,33.3c-5.6,0-13.9,0-22.2,0c-36.1-2.8-125-11.1-213.9-11.1c-66.7,0-133.4,13.9-133.4,88.9
		c0,38.9,19.4,61.1,58.3,77.8c13.9,5.6,27.8,11.1,47.2,13.9l105.6,27.8c188.9,47.2,241.7,141.7,241.7,263.9
		c0,211.1-166.7,286.2-391.7,286.2c-100,0-205.6-8.3-247.3-13.9c-19.4-2.8-27.8-11.1-25-33.3l16.7-111.1
		c5.6-22.2,11.1-30.6,30.6-33.3c5.6,0,13.9,0,22.2,0c36.1,2.8,138.9,11.1,200,11.1c130.6,0,186.1-13.9,186.1-94.5
		C2369.8,1978.1,2333.7,1953,2247.5,1928z M1086.3,1416.9c0-13.9,2.8-25,8.3-30.6c5.6-5.6,13.9-8.3,30.6-8.3h689
		c27.8,0,36.1,11.1,36.1,38.9v97.2c0,27.8-8.3,38.9-36.1,38.9h-241.7v705.7c0,27.8-8.3,38.9-36.1,38.9h-130.6
		c-8.3,0-13.9,0-16.7-2.8c-8.3-2.8-13.9-8.3-16.7-19.4c0-5.6-2.8-11.1-2.8-19.4v-705.7h-241.7c-13.9,0-22.2-2.8-30.6-8.3
		c-5.6-5.6-8.3-16.7-8.3-30.6v-94.5H1086.3z M338.9,1416.9c0-8.3,0-13.9,2.8-16.7c2.8-11.1,8.3-16.7,16.7-19.4
		c5.6-2.8,11.1-2.8,16.7-2.8h316.7c219.5,0,319.5,100,319.5,277.8c0,86.1-30.6,144.5-69.5,183.4c-25,25-52.8,44.5-77.8,61.1
		l208.4,344.5c5.6,8.3,8.3,16.7,8.3,22.2c2.8,19.4-16.7,25-30.6,25H894.6c-16.7,0-27.8-2.8-36.1-8.3s-16.7-13.9-22.2-25L666.8,1953
		c-11.1-16.7-13.9-27.8-13.9-41.7c0-5.6,2.8-13.9,5.6-30.6l13.9-61.1c2.8-13.9,5.6-22.2,11.1-27.8c11.1-19.4,27.8-11.1,58.3-25
		c33.3-13.9,66.7-36.1,66.7-111.1c0-19.4-2.8-36.1-8.3-50c-16.7-41.7-55.6-61.1-119.5-61.1H544.5v708.4c0,27.8-8.3,38.9-36.1,38.9
		H377.8c-8.3,0-13.9,0-16.7-2.8c-8.3-2.8-13.9-8.3-16.7-19.4c0-5.6-2.8-11.1-2.8-19.4v-833.4H338.9z M11546,1439.1
		c0-394.5-197.2-572.3-525.1-572.3h-555.6v1936.4h383.4v-769.6h127.8l197.2,766.8h397.3l-250-852.9
		C11457.1,1875.3,11546,1719.7,11546,1439.1z M10990.4,1747.5h-141.7v-564h138.9c119.5,0,177.8,97.2,177.8,280.6
		C11162.7,1672.5,11098.8,1747.5,10990.4,1747.5z M9901.4,2305.9c2.8,116.7-58.3,191.7-166.7,191.7c-100,0-175-63.9-175-191.7V866.8
		h-386.2v1453c0,350,202.8,514,533.4,514c313.9,0,555.6-183.4,555.6-525.1V866.8h-366.7v1439.1H9901.4z M3756.1,836.2
		c-311.2,0-558.4,177.8-558.4,500.1v991.8c0,338.9,236.1,505.6,555.6,505.6c294.5,0,522.3-177.8,522.3-483.4v-197.2h-347.3v175
		c0,100-66.7,169.5-169.5,169.5c-111.1,0-175-66.7-175-183.4v-969.6c0-105.6,55.6-177.8,172.2-177.8c102.8,0,172.2,63.9,172.2,169.5
		v180.6h347.3V1303C4275.6,1005.7,4047.8,836.2,3756.1,836.2z M7395.5,866.8h-380.6v1936.4h936.2v-330.6h-555.6V866.8z
		 M4989.6,836.2c-319.5,0-561.2,180.6-561.2,527.9v939c0,361.2,227.8,530.6,558.4,530.6c311.2,0,561.2-175,561.2-533.4v-941.8
		C5548,1000.1,5300.7,836.2,4989.6,836.2z M5161.8,2311.4c0,105.6-58.3,183.4-175,183.4c-116.7,0-175-77.8-175-186.1v-958.5
		c0-108.3,58.3-177.8,172.2-177.8c105.6,0,177.8,63.9,177.8,177.8L5161.8,2311.4L5161.8,2311.4z M8481.7,1972.5h436.2v-327.8h-436.2
		v-455.6h550.1V866.8h-930.7v1936.4h933.5v-330.6h-552.9V1972.5z M6450.9,2305.9c2.8,116.7-58.3,191.7-166.7,191.7
		c-100,0-175-63.9-175-191.7V866.8H5723v1453c0,350,202.8,514,533.4,514c313.9,0,555.6-183.4,555.6-525.1V866.8h-361.2V2305.9z
		 M12890.7,691.8V0c-469.5,0-869.6,288.9-1014,736.2l658.4,213.9C12585.1,791.8,12721.2,691.8,12890.7,691.8z M12890.7,1189.1v691.8
		c205.6,0,375.1,169.5,375.1,375.1c0,205.6-169.5,375.1-375.1,375.1s-375.1-169.5-375.1-375.1c0-44.5,5.6-75,19.4-116.7
		l-658.4-213.9c-36.1,108.3-52.8,213.9-52.8,330.6c0,589,477.8,1066.8,1066.8,1066.8s1066.8-477.8,1066.8-1066.8
		C13957.5,1666.9,13476.9,1189.1,12890.7,1189.1z"/>
</g>
</svg>
