<?xml version="1.0" encoding="UTF-8" standalone="no"?>
<!-- Created with Inkscape (http://www.inkscape.org/) -->

<svg
   version="1.1"
   id="svg1"
   width="1200.2906"
   height="1200"
   viewBox="0 0 1200.2906 1200"
   sodipodi:docname="logo_rtl2.svg"
   inkscape:version="1.4.3 (0d15f75042, 2025-12-25)"
   xmlns:inkscape="http://www.inkscape.org/namespaces/inkscape"
   xmlns:sodipodi="http://sodipodi.sourceforge.net/DTD/sodipodi-0.dtd"
   xmlns="http://www.w3.org/2000/svg"
   xmlns:svg="http://www.w3.org/2000/svg">
  <defs
     id="defs1" />
  <sodipodi:namedview
     id="namedview1"
     pagecolor="#ffffff"
     bordercolor="#000000"
     borderopacity="0.25"
     inkscape:showpageshadow="2"
     inkscape:pageopacity="0.0"
     inkscape:pagecheckerboard="0"
     inkscape:deskcolor="#d1d1d1"
     inkscape:zoom="0.19436411"
     inkscape:cx="360.14879"
     inkscape:cy="64.312284"
     inkscape:window-width="1920"
     inkscape:window-height="1131"
     inkscape:window-x="0"
     inkscape:window-y="0"
     inkscape:window-maximized="1"
     inkscape:current-layer="g1" />
  <g
     inkscape:groupmode="layer"
     inkscape:label="Image"
     id="g1"
     transform="translate(87.464708,30.86987)">
    <rect
       style="fill:#f9f9f9;fill-opacity:1;stroke-width:10;stroke-linecap:round"
       id="rect1"
       width="1152.4761"
       height="1142.1862"
       x="-56.59481"
       y="5.1449828" />
    <path
       style="fill:#db1e26;fill-opacity:1"
       d="M -87.464708,569.1301 V -30.86987 H 512.68066 1112.826 l -0.6163,406.25 c -0.339,223.43747 -0.6294,493.43747 -0.6454,599.99997 l -0.029,193.75 H 512.03529 -87.464708 Z m 447.358038,541.9882 c 147.29149,-5.9478 298.54514,-66.4506 432.14196,-172.86051 87.14251,-69.40903 162.4295,-157.58958 211.84711,-248.12769 40.6115,-74.40446 64.9022,-144.14134 76.1076,-218.5 10.6411,-70.61327 5.1497,-143.14617 -15.4307,-203.81837 -18.5491,-54.6837 -43.9831,-95.2724 -89.01731,-142.058 C 888.17503,34.98893 745.92561,-2.9979696 589.6101,22.69263 c -125.94416,20.6991 -254.99831,81.636 -366.06838,172.8507 -22.55758,18.525 -38.63841,33.2113 -62.50643,57.0858 -49.80235,49.8157 -88.393438,98.2008 -122.015988,152.9823 -21.521,35.0643 -45.1317196,81.66183 -57.03408,112.56102 -22.06638,57.28553 -33.84262,104.59749 -40.06337,160.95765 -2.42545,21.97468 -2.42892,71.5526 -0.007,93.5 7.83269,70.96612 31.2911,133.00475 69.52977,183.87998 8.46632,11.26414 28.08685,33.77682 40.47371,46.43962 46.21985,47.2497 109.234138,80.9209 181.806608,97.1471 24.80082,5.5451 62.93138,10.5476 86.30989,11.3234 4.95,0.1642 10.575,0.3803 12.5,0.4801 1.925,0.1 14.23612,-0.2521 27.35804,-0.782 z m -61.85804,-26.5836 c -56.5377,-4.3199 -99.08387,-13.9259 -142,-32.0605 -34.63346,-14.6346 -61.759908,-31.8153 -91.499998,-57.952 -19.83169,-17.4289 -31.90609,-31.38049 -46.2081,-53.3921 -26.7735496,-41.20606 -43.97704,-90.43274 -51.3728,-147 -2.1922,-16.7673 -3.06087,-67.91202 -1.48959,-87.7025 7.64141,-96.24441 46.89246,-203.39352 108.35705,-295.79747 9.65024,-14.5079 26.617638,-38.5 27.227468,-38.5 0.1643,0 0.12002,0.7875 -0.0984,1.75 -0.21843,0.9625 -12.343268,80.72497 -26.944088,177.24997 -14.60081,96.525 -26.91185,177.8625 -27.35785,180.75 l -0.81091,5.25 h 38.6292 38.629188 l 25.82007,-172.75 c 14.20104,-95.0125 26.03011,-173.53747 26.28681,-174.49997 0.43179,-1.619 2.78655,-1.75 31.44901,-1.75 34.77565,0 33.93822,-0.1523 40.56586,7.3771 16.46115,18.7008 21.27115,60.00067 10.52481,90.36856 -4.6247,13.06885 -10.6894,22.67043 -20.70773,32.78431 -10.09807,10.19439 -19.93874,16.78575 -33.02715,22.12184 -8.3689,3.41196 -29.69231,9.34816 -33.57953,9.34816 -1.04133,0 -1.89332,0.16495 -1.89332,0.36655 0,0.2016 -1.36426,10.2141 -3.0317,22.25 -1.66743,12.0359 -3.12993,22.96516 -3.25,24.28725 -0.19203,2.11458 0.38328,2.54414 4.7817,3.5702 21.62127,5.04382 48.82325,29.69269 73.62868,66.71807 16.39745,24.47536 31.03818,51.07217 34.7245,63.08163 l 1.91117,6.2263 42.11783,0.26085 c 48.65733,0.30136 43.98253,1.64666 39.60389,-11.39709 -7.60492,-22.65467 -32.10682,-68.52967 -52.26916,-97.86376 -18.42905,-26.81235 -35.12554,-46.57869 -46.82746,-55.43727 l -6.23646,-4.72113 5.6735,-2.75979 c 18.43553,-8.96768 40.4599,-24.91866 54.1841,-39.24239 25.93735,-27.07041 35.98941,-54.40296 35.98941,-97.8588 0,-17.41299 -1.26021,-27.13189 -5.05551,-38.98879 -9.42789,-29.4535 -31.85436,-46.5357 -68.17513,-51.9289 -8.74288,-1.2982 -21.98985,-1.5629 -78.19739,-1.5629 -58.20056,0 -67.55943,-0.199 -66.87166,-1.4216 2.20409,-3.918 27.0795,-31.3752 44.79969,-49.4494 126.95206,-129.4885 285.28829,-213.9977 445,-237.5108 30.4887,-4.4887 40.17659,-5.1212 77.5,-5.0602 36.65977,0.06 43.58547,0.532 74,5.0433 77.39448,11.4799 145.6489,43.9119 198.0114,94.0876 29.65331,28.415 56.28641,73.5097 71.90561,121.7494 11.2335,34.6944 16.5914,68.0832 17.742,110.5617 2.0347,75.11717 -15.6151,156.30892 -51.6171,237.44618 -6.2354,14.05243 -24.24331,50.27412 -27.99201,56.30379 l -2.0205,3.25 h -40.5468 c -44.75292,0 -47.4826,-0.31489 -47.4826,-5.47749 0,-3.72678 4.46204,-12.04267 18.51799,-34.5119 51.28911,-81.98856 68.58321,-116.27139 78.95221,-156.51061 5.5262,-21.44526 6.9673,-32.63878 6.9522,-53.99997 -0.015,-20.6716 -1.3318,-30.701 -5.9937,-45.6357 -6.7331,-21.5696 -20.293,-35.7239 -41.1534,-42.9572 -17.5688,-6.092 -49.32188,-6.2873 -76.95991,-0.4735 -17.94819,3.7755 -43.10845,13.6976 -63.41208,25.0068 -8.21749,4.5771 -26.00037,15.5341 -27.72873,17.0851 -0.33973,0.3048 -8.93922,54.47447 -8.6479,54.47447 0.0916,0 7.09805,-3.31854 15.56992,-7.37457 55.78212,-26.7062 93.81706,-29.6166 114.51811,-8.7627 9.13433,9.20169 13.51929,19.87776 15.42169,37.54679 1.2649,11.74795 0.1941,24.93805 -3.0589,37.67846 -5.77431,22.61589 -25.66753,64.1155 -50.71203,105.7914 -19.8315,33.00109 -65.95757,105.85559 -84.45265,133.38999 -3.23975,4.82315 -6.14613,9.43565 -6.45863,10.25 -0.49889,1.3001 9.44309,1.48063 81.53882,1.48063 45.15885,0 82.10699,0.33868 82.10699,0.75262 0,0.41395 -7.3125,10.51116 -16.25,22.43826 -61.4721,82.03454 -143.1589,156.13837 -236.25,214.31892 -27.006,16.8784 -73.93009,41.34 -105.24988,54.867 -64.17329,27.7164 -138.08288,47.1265 -204.25012,53.64 -10.7174,1.0551 -66.44803,2.0795 -75.5,1.3878 z m 169.5,-347.92819 c 0,-0.28798 4.03692,-26.72548 8.97094,-58.75 15.02602,-97.52727 25.79229,-168.15575 31.57276,-207.12244 3.02729,-20.40718 6.41854,-40.46317 7.53612,-44.56886 5.50688,-20.23078 17.32356,-31.38428 39.16938,-36.97108 4.26205,-1.09 14.61205,-2.5004 23,-3.1342 8.38794,-0.6339 15.33447,-1.2236 15.43674,-1.3104 0.33847,-0.2875 8.31406,-46.32 8.31406,-47.9861 0,-1.5017 -9.36633,-1.6333 -116.26082,-1.6333 H 369.01364 l -3.83091,22.75 c -2.107,12.5125 -4.06341,23.7625 -4.34758,25 l -0.51668,2.25 h 36.38591 c 41.32057,0 40.83091,-0.085 40.83091,7.1115 0,2.199 -11.7,79.92125 -26,172.71609 -14.3,92.79483 -26,169.49514 -26,170.44513 0,1.60825 2.82477,1.72725 41,1.72725 22.55,0 41,-0.23562 41,-0.52359 z m 291.44888,-1.72641 c 0.59168,-2.73371 6.55112,-50.92543 6.55112,-52.97641 0,-1.23955 -5.99681,-1.56015 -40.27672,-2.15329 -43.12407,-0.74616 -48.03567,-1.26917 -56.05538,-5.96904 -12.89463,-7.55675 -14.81793,-21.36611 -8.72577,-62.65126 1.74493,-11.825 11.92179,-78.40881 22.61524,-147.96402 10.69345,-69.55515 19.44263,-126.81765 19.44263,-127.24995 0,-0.4323 -17.27881,-0.786 -38.39735,-0.786 H 625.7406 l -1.06006,6.25 c -2.38499,14.0616 -60.14525,392.49089 -60.14525,394.05503 0,1.5816 6.48505,1.69494 96.98095,1.69494 h 96.98095 z"
       id="path1" />
  </g>
</svg>
