<?xml version="1.0" encoding="UTF-8"?>
<svg data-name="Capa 2" viewBox="0 0 59.87 46.34" xmlns="http://www.w3.org/2000/svg">
<defs>
<style>.cls-1 {
        fill: #3b985c;
      }

      .cls-1, .cls-2, .cls-3, .cls-4 {
        fill-rule: evenodd;
      }

      .cls-2 {
        fill: #fff;
      }

      .cls-3 {
        fill: #231f20;
      }

      .cls-4 {
        fill: #fefefe;
      }

      .cls-5 {
        fill: none;
        mask: url(#a);
      }</style>
<mask id="a" x="0" y="0" width="56.87" height="43.34" maskUnits="userSpaceOnUse">
<g data-name="prefix  b">
<path class="cls-2" d="m0,0h56.87v43.34H0V0Z" data-name="prefix  a"/>
</g>
</mask>
</defs>
<g data-name="Capa 1">
<path class="cls-1" d="m52.65,3.08c.63-.03,1.88-.12,3.21-.06.94.04,2.49-.06,3.13.24.71.33.87.97.89,2.29.02,1.37-.15,3.7-.3,4.9-.32,2.63-.18,9.77-.18,12.36,0,4.1-.21,13.72-.3,17.98-.02,1.09.03,3.15-.41,3.63-.4.43-2.01.11-3.07.06-3.34-.16-6.91-.32-10.22-.18-2.33.09-4.2.02-6.31.12-2.35.12-4.49.45-6.55.54-4.61.22-9.2.48-13.69.48s-9.58-.09-13.63.54c-.5.08-1.52.68-2.07.06-.31-.35-.06-2.46-.06-3.56,0-6.36-.09-23.12-.06-29.08.01-2.28.6-5.52.77-7.86.02-.31.06.25,0,0-.09-.37-.44-.28-.18-.61.17-.21,1-.14,1.47-.18,1.17-.11,3.13-.43,4.37-.49,2.24-.11,4.44-.23,6.08-.42,1.81-.22,3.84-.51,5.9-.6,2.09-.1,4.21.05,6.25.06,8.59.05,16.67.16,24.95-.24"/>
<g class="cls-5">
<path class="cls-3" d="m49.65.08c.63-.03,1.88-.12,3.21-.06.94.04,2.49-.06,3.13.24.71.33.87.97.89,2.29.02,1.37-.15,3.7-.3,4.9-.32,2.63-.18,9.77-.18,12.36,0,4.1-.21,13.72-.3,17.98-.02,1.09.03,3.15-.41,3.63-.4.43-2.01.11-3.07.06-3.34-.16-6.91-.32-10.22-.18-2.33.09-4.2.02-6.31.12-2.35.12-4.49.45-6.55.54-4.61.22-9.2.48-13.69.48s-9.58-.09-13.63.54c-.5.08-1.52.68-2.07.06-.31-.35-.06-2.46-.06-3.56C.09,33.14,0,16.38.04,10.42c.01-2.28.6-5.52.77-7.86.02-.31.06.25,0,0-.08-.37-.44-.28-.18-.61.17-.21,1-.14,1.47-.18,1.17-.11,3.13-.42,4.37-.49,2.24-.11,4.44-.23,6.08-.42,1.81-.22,3.84-.5,5.9-.6,2.09-.1,4.21.05,6.25.06,8.59.05,16.67.16,24.95-.24"/>
</g>
<path class="cls-4" d="m36.14,21.86c3.42-.22,6.98.95,10.03,2.03,2.24.79,4.65,1.38,6.59,3.16.63.58,1.38,1.64,1.32,2.41-.2,2.61-4.95,4.79-7.06,5.55-3.85,1.4-8.23,1.59-12.27,2.24-7.91,1.27-15.38,1.47-23.33.39-1.26-.17-2.71-.54-4.15-1.16-.94-.41-3.63-1.59-3.73-2.88-.13-1.64,1.55-3.79,2.24-4.64,2.28-2.78,5.66-3.83,9.74-5.02,1.03-.3,2.89-.68,3.84-.78,1.23-.13,2.26-.14,2.59-.14,5.03,0,8.79-1.27,14.04-1.17.04,0,.08,0,.13,0"/>
<path class="cls-3" d="m34,29.08c0-.65.11-1.25.31-1.79.89.05,1.15.3,1.24.79-.35.46-.87.79-1.55,1m2.33,1.89c-.15-.19-.29-.38-.41-.57.14-.14.28-.27.44-.41.77-.69,1.64-1.48,1.62-3.08v-.14s-.08-.12-.08-.12c-.98-1.63-4.2-1.28-5.63-.75l-.32.12-.02.35c-.06,1.08-.2,2.1-.35,3.09-.19,1.33-.4,2.71-.38,4.27v.55s.54-.02.54-.02c.1,0,.21,0,.31,0,.25,0,.5.01.77-.07l.18-.06.1-.16c.19-.3.25-.72.32-1.2.05-.31.14-.94.27-1.09.13.04.44.24.68.47.34.33.68.84,1.03,1.57l.14.28h.31c.43.03.8,0,1.12-.03l.51-.06-.05-.52c-.11-1.09-.64-1.8-1.12-2.42m-10.29-5.39c-1.47.05-2.94.21-4.64.49l-.41.07-.03.41c-.06.75-.13,1.52-.2,2.27-.17,1.75-.34,3.56-.32,5.35v.57s.57-.05.57-.05c.76-.07,1.6-.08,2.42-.09.62,0,1.26-.02,1.88-.05l.39-.02.09-.38c.11-.47.22-.93.23-1.51v-.46s-.45-.06-.45-.06c-.5-.07-.94-.01-1.34.04-.22.03-.42.05-.6.05-.06,0-.15-.02-.23-.04-.14-.03-.29-.06-.45-.06-.16,0-.44.22-.46-.08-.01-.23.03-.47.06-.69l.05-.31.03-.17c.35-.05.65,0,1.03.08.46.09.99.19,1.7.11l.26-.03.13-.23c.12-.21.12-.48.12-.78,0-.09,0-.24,0-.31,0-.06.05-.13.07-.19.07-.21-.14-.39-.3-.48-.52-.3-1.2-.24-1.85-.18-.31.03-.89.08-1.02-.02-.04-.17-.03-.31,0-.51.01-.13.03-.29.03-.48.1-.03.27-.03.57-.01.13,0,.26.02.4.02.31,0,.6-.03.89-.06.41-.04.8-.08,1.13,0l.6.14.04-.62c.02-.3.08-.67.13-.98l.02-.11.1-.64-.64.02m-11.55.42c-1.05.45-3,1.72-3.69,3.6-.35.96-.3,1.91.15,2.82.69,1.39,1.77,2.76,4.58,2.4l.28-.04.12-.26c.24-.5.16-1.13.11-1.64v-.06s-.06-.5-.06-.5l-.5.04c-.63.05-1.26-.15-1.67-.53-.34-.32-.52-.73-.53-1.24-.01-.71.53-1.48,1.08-1.86.03-.02.1-.05.17-.08.2-.08.54-.21.69-.59.16-.41.1-.84.06-1.18-.02-.12-.04-.28-.03-.34.02-.17.17-.44,0-.57-.1-.08-.25-.06-.37-.05-.14.02-.28,0-.41.06m30.42,4.22c-.08.2-.28.54-.67.57-.23.02-.71-.18-.79-.3h0s0,0,0,0h0c-.06-.13-.03-.37.08-.64.2-.47.54-.81.67-.85h0s0,0,0,0h0c.46-.1.6.07.65.13.19.23.22.7.07,1.09m2.44-2.53v-.03s-.02-.03-.02-.03c-.12-.42-.4-.64-.65-.83-.24-.19-.62-.45-1.1-.58-.17-.05-.34-.05-.51-.03-.15.02-.28.1-.43.1-.15,0-.28,0-.42.05-.57.19-1.52.82-1.92,1.27-1.04,1.21-1.79,4.05-.69,5.48.36.47.86.74,1.46.79.98.08,1.92-.44,2.44-.92,1.09-1,2.22-2.99,1.84-5.27"/>
<path class="cls-4" d="m55.33,1.59c-2.6-.26-5.44-.25-8.11-.12-12.12.58-23.92-.65-34.38.67-3.76.47-7.11.31-10.73,1.03-.78,4.51-1.07,14.39-.77,19.69,4.12-.06,7.98-.23,11.62-.42.73-.04,1.42-.29,2.07-.46-1.66-.16-4.73-.7-6.72-1.26-.64-.18-1.43-.49-1.97-.87-.23-.16-.45-.56-.75-.87-.82-.83-1.97-2.04-2.03-3.65-.06-1.75,1.03-3.21,1.85-4,1.23-1.18,2.99-1.95,4.75-2.78,3.52-1.66,6.97-2.81,10.95-3.56,1.89-.36,4.07-.87,6.08-.87,2.38,0,4.86.37,7.24.52,5.08.33,9.22,1.08,13.09,3.21,1.64.91,4.32,2.34,4.67,4.78.21,1.42-.6,3.21-1.26,3.91-1.06,1.11-2.95,1.77-4.63,2.26-2.25.66-4.66,1.3-7.08,1.7l.15.02c.49.09,3.03-.19,4.17-.22,1.27-.03,2.68.14,4.08.24,2.04.15,3.9.29,5.69.36.58.02,1.15-.11,1.72,0-.26-5.19.66-14.59.29-19.33"/>
<path class="cls-4" d="m25.57,15.96c-.66.05-.94-.24-1.34-.43-.11-.1-.69-.59-.79-.72-.1-.13-1.5-1.19-2.62-1.87-.41.97.07,2.97-.93,3.15-.44.08-1.11-.4-1.2-.74-.06-.19.06-.67.07-.87.08-1.31.14-4.18,1.14-4.32.79-.11,1.44.99,2.14,1.42.9.56,1.67.64,2.41,1.23.58-.64-.24-2.78.6-3.02.9-.26,1.41,1.03,1.34,1.91-.03.35-.21.8-.27,1.23-.17,1.3.03,2.12-.54,3.02m7.75-1.05c-.02-.91.14-2.22.22-3.27.68.25,1.57.27,1.88.73.79,1.18-1.16,2.15-2.1,2.53m3.76-3.27c-.56-1.03-3.55-1.57-4.99-1.53-1.47.04-.94,3.18-1.23,4.67-.07.35-.27.46-.29.93.93,1.45,3.37.36,4.48-.2.85-.42,2.01-.88,2.31-1.73.18-.51,0-1.6-.29-2.13m-25.68,4.48c-.63-1.32-.37-3.52.73-4.14.95,1.1.6,3.69-.73,4.14m1.67-5.74c-1.1-.54-2.63-.1-3.54.43-.4.34-.73,1.19-.87,1.85-.24,1.14.02,2.89.34,3.52.76,1.53,3.17,2.3,4.61.74,1.65-1.79,1.29-5.63-.53-6.54m30.17,3.31c.22-.57.65-.96.93-1.48.51.28.62.93.84,1.48h-1.77Zm2.89-1.19c-.38-.81-.91-2.73-2.01-2.59-.14.02-.32.1-.33.12-1.26,1.65-3.19,3.92-3.81,5.86,1.13,1.51,1.56-.42,2.54-.74.95-.31,1.44.09,2.68-.06.21.78,1.25,1.85,2.01.86-.28-1.15-.56-2.35-1.07-3.46Z"/>
</g>
</svg>
