<?xml version="1.0" encoding="UTF-8" standalone="no"?>
<svg
   viewBox="0 0 261.41465 275.5552"
   version="1.1"
   id="svg1"
   sodipodi:docname="logo_cope.svg"
   width="261.41464"
   height="275.55521"
   inkscape:version="1.4.3 (0d15f75042, 2025-12-25)"
   xmlns:inkscape="http://www.inkscape.org/namespaces/inkscape"
   xmlns:sodipodi="http://sodipodi.sourceforge.net/DTD/sodipodi-0.dtd"
   xmlns="http://www.w3.org/2000/svg"
   xmlns:svg="http://www.w3.org/2000/svg">
  <defs
     id="defs1" />
  <sodipodi:namedview
     id="namedview1"
     pagecolor="#ffffff"
     bordercolor="#000000"
     borderopacity="0.25"
     inkscape:showpageshadow="2"
     inkscape:pageopacity="0.0"
     inkscape:pagecheckerboard="0"
     inkscape:deskcolor="#d1d1d1"
     inkscape:zoom="1"
     inkscape:cx="204"
     inkscape:cy="221.5"
     inkscape:window-width="1920"
     inkscape:window-height="1131"
     inkscape:window-x="0"
     inkscape:window-y="0"
     inkscape:window-maximized="1"
     inkscape:current-layer="g1" />
  <g
     data-name="Capa 2"
     id="g1"
     transform="translate(0.04464148,0.00126034)">
    <path
       d="m 118.72,1.79 c 2,-0.3 4.18,-0.3 6.08,-1.2 6.57,-0.95 13.24,-0.46 19.86,-0.5 3.8,-0.22 7.33,1.37 11.06,1.68 29.94787,3.7773596 57.76403,17.488265 79,38.94 10.97273,11.174383 19.9824,24.119234 26.65,38.29 -18,18.093333 -36.05,36.16333 -54.15,54.21 -1.68,1.7 -4,3.36 -6.51,2.76 -2.34,-0.29 -4,-2.12 -5.52,-3.68 -18.76,-19 -37.91,-37.56 -56.57,-56.62 -20.94,21 -41.79,42.09 -62.85,63 21.1,20.8 41.83,42 62.78,62.95 19.07,-19.29 38.39,-38.33 57.6,-57.47 1.55,-1.49 3.11,-3.54 5.55,-3.25 2.43,-0.44 4,1.71 5.63,3.12 17.93,17.95 35.79,36 53.78,53.87 -11.22,25.57 -31.34,47 -55.78,60.39 -21.29936,11.65581 -45.25236,17.60186 -69.53,17.26 C 104.36425,275.74206 73.860951,264.86977 49.64,244.83 28.090058,227.03843 12.524853,203.05706 5.05,176.13 -11.578917,116.37856 13.442377,52.845701 66.35,20.48 82.318438,10.678925 100.15434,4.3135814 118.72,1.79 Z"
       fill="#002c8b"
       data-name="Layer 1"
       id="path1"
       sodipodi:nodetypes="cccccccccccccccccccccc" />
  </g>
</svg>
