<?xml version="1.0" encoding="utf-8"?>
<!-- Generator: Adobe Illustrator 23.0.1, SVG Export Plug-In . SVG Version: 6.00 Build 0)  -->
<!DOCTYPE svg PUBLIC "-//W3C//DTD SVG 1.1//EN" "http://www.w3.org/Graphics/SVG/1.1/DTD/svg11.dtd" [
	<!ENTITY ns_extend "http://ns.adobe.com/Extensibility/1.0/">
	<!ENTITY ns_ai "http://ns.adobe.com/AdobeIllustrator/10.0/">
	<!ENTITY ns_graphs "http://ns.adobe.com/Graphs/1.0/">
	<!ENTITY ns_vars "http://ns.adobe.com/Variables/1.0/">
	<!ENTITY ns_imrep "http://ns.adobe.com/ImageReplacement/1.0/">
	<!ENTITY ns_sfw "http://ns.adobe.com/SaveForWeb/1.0/">
	<!ENTITY ns_custom "http://ns.adobe.com/GenericCustomNamespace/1.0/">
	<!ENTITY ns_adobe_xpath "http://ns.adobe.com/XPath/1.0/">
]>
<svg version="1.1" id="Layer_2" xmlns:x="&ns_extend;" xmlns:i="&ns_ai;" xmlns:graph="&ns_graphs;"
	 xmlns="http://www.w3.org/2000/svg" xmlns:xlink="http://www.w3.org/1999/xlink" x="0px" y="0px" viewBox="0 0 600 600"
	 enable-background="new 0 0 600 600" xml:space="preserve">
<metadata>
	<sfw  xmlns="&ns_sfw;">
		<slices></slices>
		<sliceSourceBounds  bottomLeftOrigin="true" height="600" width="600" x="-44" y="-44"></sliceSourceBounds>
	</sfw>
</metadata>
<g>
	<path d="M300,600c-80.1,0-155.5-31.2-212.1-87.9S0,380.1,0,300S31.2,144.5,87.9,87.9C144.5,31.2,219.9,0,300,0
		s155.5,31.2,212.1,87.9c56.7,56.7,87.9,132,87.9,212.1s-31.2,155.5-87.9,212.1C455.5,568.8,380.1,600,300,600z M300,30.2
		c-72.1,0-139.8,28.1-190.8,79c-51,51-79,118.7-79,190.8s28.1,139.8,79,190.8c51,51,118.7,79,190.8,79s139.8-28.1,190.8-79
		c50.9-51,79-118.7,79-190.8s-28.1-139.8-79-190.8C439.8,58.3,372.1,30.2,300,30.2z"/>
	<path d="M195.4,117.8c0,0-55.8,0-61.4,0c-5.6,0-11.2,5.6-11.2,11.2c0,5.6,0,149.8,0,149.8c0,5.6,5.6,11.2,11.2,11.2l71.4,0
		c36.3,0,44-64.9,44-64.9l0-37.2C249.3,187.9,245.7,117.7,195.4,117.8z M188.1,254.9c-19,0-19,0-19,0v-99.2h19
		c16.5,0,16.7,39.1,16.7,39.1V215C204.8,215,207.1,254.9,188.1,254.9z"/>
	<path d="M272,117.7h79.2c5.6,0,11.2,5.6,11.2,11.2l0,14.5c0,5.6-5.6,11.2-11.2,11.2l-44.1,0v27.3h26.8c5.6,0,11.2,5.7,11.2,11.3
		l0,14.3c0,5.6-5.7,11.2-11.2,11.2h-26.8v35h44.1c5.6,0,11.2,5.7,11.2,11.3v13.8c0,5.6-5.6,11.2-11.2,11.2H272
		c-5.6,0-11.2-5.6-11.2-11.2l0-149.9C260.8,123.3,266.4,117.7,272,117.7z"/>
	<path d="M387.8,117.7H467c5.6,0,11.2,5.6,11.2,11.2l0,14.5c0,5.6-5.6,11.2-11.2,11.2l-44.1,0v27.3h26.8c5.6,0,11.2,5.7,11.2,11.3
		l0,14.3c0,5.6-5.7,11.2-11.2,11.2h-26.8v35H467c5.6,0,11.2,5.7,11.2,11.3v13.8c0,5.6-5.6,11.2-11.2,11.2h-79.2
		c-5.6,0-11.2-5.6-11.2-11.2l0-149.9C376.6,123.3,382.2,117.7,387.8,117.7z"/>
	<path d="M187.2,313.1l22.6,0c5.6,0,11.2,5.7,11.2,11.2v148c0,5.6-5.6,11.2-11.2,11.2h-75.4c-5.4,0-11.1-5.6-11.1-11.1l0-42.7
		c0-5.7,5.6-11.3,11.2-11.3l19.1,0c5.7,0,11.2,5.7,11.2,11.2l0,11.6c0,0,0,5.6,5.6,5.6s5.6-5.6,5.6-5.6l0.1-116.9
		C176.1,318.7,181.6,313.1,187.2,313.1z"/>
	<path d="M333.3,324.3c0,0-3.4-11.1-11.2-11.1c-5.6,0-42.7,0-42.7,0c-8.7,0-11.2,11.2-11.2,11.2l-38.3,153.6c0,2.8,2.7,5.5,5.6,5.5
		c2.9,0,24,0,32.4,0c9.4,0,11.1-11.1,11.1-11.1l8.3-31.4l31.9,0l6.5,31.4c0,0,1.2,11.2,9.4,11.2c7,0,32.6,0,35.8,0
		c3.3,0,5.6-2.6,5.6-5.6L333.3,324.3z M293.9,403.6l8.4-39l8.2,39.1L293.9,403.6z"/>
	<path d="M451.7,470.4c0-6.6,5-11.6,11.5-11.6c6.4,0,11.3,5,11.3,11.6c0,6.8-5,11.7-11.3,11.7C456.7,482.1,451.7,477.1,451.7,470.4z
		 M463.1,484.4c7.6,0,14.1-5.9,14.1-14c0-8.1-6.5-14-14.1-14c-7.7,0-14.3,5.9-14.3,14C448.9,478.5,455.4,484.4,463.1,484.4z
		 M460.2,471.5h2.8l4.3,7h2.7l-4.6-7.1c2.4-0.3,4.2-1.6,4.2-4.5c0-3.2-1.9-4.6-5.7-4.6h-6.2v16.2h2.4L460.2,471.5L460.2,471.5z
		 M460.2,469.4v-5h3.4c1.7,0,3.5,0.4,3.5,2.4c0,2.5-1.9,2.6-3.9,2.6L460.2,469.4L460.2,469.4z"/>
	<path d="M354.7,313.1h35.7c5.6,0,10,11.2,10,11.2l13.9,30.2l13-30.2c0,0,4.6-11.2,8.9-11.2h38c0,0,5.9,0.1,5.9,5.6l-43.9,91.5
		l0,62.2c0,5.5-5.6,11.1-11.2,11.1h-23.8c-5.6,0-11.2-5.7-11.2-11.1l0.1-62.2L347,318.8C347,313.1,354.7,313.1,354.7,313.1z"/>
</g>
</svg>
