<svg width="245" height="139" viewBox="0 0 245 139" fill="none" xmlns="http://www.w3.org/2000/svg">
<path d="M1 131.527V16.0746L7.25913 4.69434L84.3033 13.258V136.022L1 131.527Z" fill="url(#paint0_linear_101_4996)"/>
<path d="M44.558 100.544V21.6509H27.5161V116.277H68.3711V100.544H44.558Z" fill="white"/>
<path d="M164.392 0V127.174L87.3479 119.692V11.4087L73.0088 9.92925L87.3479 2.90195L164.392 0Z" fill="url(#paint1_linear_101_4996)"/>
<path d="M141.603 60.4578C146.838 56.9584 149.398 50.8984 149.398 42.0218V38.7216C149.398 23.3867 142.172 16.2456 126.666 16.2456H103.536V110.872H127.577C142.57 110.872 150.821 102.65 150.821 87.7419V80.2309C150.821 70.3586 147.805 63.8719 141.575 60.4009L141.603 60.4578ZM120.606 69.5051H125.756C131.076 69.5051 133.779 71.0414 133.779 79.3774V87.4005C133.779 93.8587 131.418 95.1675 127.577 95.1675H120.578V69.5051H120.606ZM132.328 45.3221C132.328 52.7192 128.772 53.7435 124.959 53.7435H120.606V32.0357H126.268C129.91 32.0357 132.328 33.4297 132.328 40.201V45.3221Z" fill="white"/>
<path d="M244.48 12.0913L236.599 130.986L167.436 137.701L159.015 129.137L167.436 130.19V15.4485L244.48 12.0913Z" fill="url(#paint2_linear_101_4996)"/>
<path d="M226.414 60.4576V50.2154C226.414 34.4538 218.306 25.7764 203.54 25.7764C188.774 25.7764 180.666 34.4538 180.666 50.2154V98.0693C180.666 113.831 188.774 122.508 203.54 122.508C218.306 122.508 226.414 113.831 226.414 98.0693V84.5552H210.14V99.0081C210.14 102.792 209.401 106.633 203.938 106.633C198.476 106.633 197.736 102.764 197.736 99.0081V49.305C197.736 42.4199 201.036 41.538 203.938 41.538C206.84 41.538 210.14 42.4199 210.14 49.305V60.4576H226.414Z" fill="white"/>
<defs>
<linearGradient id="paint0_linear_101_4996" x1="42.6516" y1="4.69434" x2="42.6516" y2="136.022" gradientUnits="userSpaceOnUse">
<stop stop-color="#FC4456"/>
<stop offset="1" stop-color="#FF0000"/>
</linearGradient>
<linearGradient id="paint1_linear_101_4996" x1="118.7" y1="1.82084" x2="118.7" y2="121.512" gradientUnits="userSpaceOnUse">
<stop stop-color="#00A4FF"/>
<stop offset="1" stop-color="#0068FF"/>
</linearGradient>
<linearGradient id="paint2_linear_101_4996" x1="201.747" y1="14.2251" x2="201.747" y2="137.701" gradientUnits="userSpaceOnUse">
<stop stop-color="#79737F"/>
<stop offset="1" stop-color="#121113"/>
</linearGradient>
</defs>
</svg>
