<?xml version="1.0" encoding="UTF-8"?>
<svg id="_Слой_1" data-name="Слой 1" xmlns="http://www.w3.org/2000/svg" width="495" height="210" viewBox="0 0 495 210">
  <defs>
    <style>
      .cls-1 {
        fill: #fff;
      }

      .cls-2 {
        fill: #db0034;
      }
    </style>
  </defs>
  <path class="cls-2" d="M495,0H0v210h495V0Z"/>
  <path class="cls-1" d="M380.7787651,69.6289731c10.6424698,0,17.325,8.5335706,19.0574924,20.7773838h38.7337349c-1.6087349-31.1660734-21.4087349-54.5406332-54.45-54.5406332-32.5462349,0-58.78125,23.6219058-68.0625,55.1590077l6.5587727-52.6855095h-41.8275227l-36.3824924,69.9999969h-1.4849962l-19.18125-69.9999969h-40.5900038l-4.8262424,37.3498236c0-22.1378107-16.8300076-37.3498236-39.7237576-37.3498236h-65.5875l-16.5825019,133.3215561h38.2387519l5.4450019-43.7809198h18.0674981l10.7662462,43.7809198h75.9825113l7.0537462-57.2614868,16.3349962,57.2614868h16.0875l30.5662462-57.2614868-7.0537462,57.2614868h38.2387424l6.4350151-52.4381635c1.3612387,31.4134289,21.2849773,54.9116617,54.45,54.9116617,32.2987576,0,58.4099773-23.3745598,67.8149849-54.5406426h-39.3524849c-5.3212727,12.2438179-14.4787651,20.7773886-24.9975151,20.7773886-14.6024849,0-21.65625-15.8303922-18.8099773-35.3710222,2.8462349-19.5406395,14.9737198-35.3710269,29.08125-35.3710269ZM140.0849962,83.1095354c-1.2375,9.7703197-10.1474962,17.6855158-20.0474962,17.6855158h-16.5825019l4.33125-35.3710222h16.5825019c9.9,0,16.8299981,7.9151914,15.7162462,17.6855064ZM166.9387424,169.8056544l-13.8599962-49.9646653c11.6325113-6.431101,20.6662462-18.3038904,23.8837538-31.0424004l-10.0237576,81.0070657Z"/>
</svg>