<?xml version="1.0" encoding="UTF-8" standalone="no"?>
<!-- Created with Inkscape (http://www.inkscape.org/) -->

<svg
   version="1.1"
   id="svg2"
   xml:space="preserve"
   width="500"
   height="500"
   viewBox="0 0 499.99999 500"
   sodipodi:docname="france-culture.svg"
   inkscape:version="1.1.1 (1:1.1+202109281954+c3084ef5ed)"
   inkscape:export-filename="/home/gub/OneDrive/Logo Radio France 2021/logos Radio France + chaines 2021/France Culture/france-culture.png"
   inkscape:export-xdpi="192"
   inkscape:export-ydpi="192"
   xmlns:inkscape="http://www.inkscape.org/namespaces/inkscape"
   xmlns:sodipodi="http://sodipodi.sourceforge.net/DTD/sodipodi-0.dtd"
   xmlns="http://www.w3.org/2000/svg"
   xmlns:svg="http://www.w3.org/2000/svg"><defs
     id="defs6"><clipPath
       clipPathUnits="userSpaceOnUse"
       id="clipPath18"><path
         d="M 0,720 H 1280 V 0 H 0 Z"
         id="path16" /></clipPath><clipPath
       clipPathUnits="userSpaceOnUse"
       id="clipPath40"><path
         d="m 687.732,461.852 h 54.12 v -61.248 h -54.12 z"
         id="path38" /></clipPath></defs><sodipodi:namedview
     id="namedview4"
     pagecolor="#ffffff"
     bordercolor="#666666"
     borderopacity="1.0"
     inkscape:pageshadow="2"
     inkscape:pageopacity="0.0"
     inkscape:pagecheckerboard="0"
     showgrid="false"
     inkscape:zoom="1.2537334"
     inkscape:cx="259.22577"
     inkscape:cy="277.17216"
     inkscape:window-width="2560"
     inkscape:window-height="1376"
     inkscape:window-x="0"
     inkscape:window-y="27"
     inkscape:window-maximized="1"
     inkscape:current-layer="g8" /><g
     id="g8"
     inkscape:groupmode="layer"
     inkscape:label="Chaine Radio France RVB_France Bleu Couleurs"
     transform="matrix(1.3333333,0,0,-1.3333333,-601.4315,664.74785)"><path
       d="M 451.07364,123.56089 H 826.07369 V 498.5609 H 451.07364 Z"
       style="fill:#762b84;fill-opacity:1;fill-rule:nonzero;stroke:none;stroke-width:0.157009"
       id="path1008" /><path
       id="path864"
       style="fill:#ffffff;fill-opacity:1;fill-rule:nonzero;stroke:none;stroke-width:0.157009"
       d="m 708.56349,236.01693 c 0,-3.66772 -0.59349,-7.11878 -5.50002,-7.11878 -2.80418,0 -4.04455,1.72553 -4.04455,3.72111 0,2.69584 1.72553,4.15289 6.41695,4.15289 h 3.12762 z m 7.55056,-4.74637 V 242.974 c 0,6.68544 -4.09793,9.59795 -11.54016,9.6529 -7.6636,0 -10.91996,-3.22967 -11.77252,-7.48775 l 7.13448,-1.46489 c 0.32344,2.04896 1.07865,3.39767 4.31304,3.39767 3.61434,0 4.3146,-1.9422 4.3146,-3.93621 v -1.67215 h -3.9896 c -8.19743,0 -13.26725,-2.9659 -13.26725,-9.32947 0,-4.3146 2.80418,-8.73754 9.54614,-8.73754 4.96148,0 6.84873,1.83386 7.87243,3.39767 0,-0.70026 0.16172,-2.21068 0.37839,-2.74922 h 7.38727 c -0.16172,0.64687 -0.37682,4.5297 -0.37682,7.22555 m 74.61062,9.81462 c -0.055,3.23595 -1.34871,5.98675 -5.1232,5.98675 -3.66773,0 -5.17816,-2.53569 -5.50159,-5.98675 z m -10.78651,-4.74481 c 0,-3.50601 1.78048,-6.90368 5.60835,-6.90368 3.23596,0 4.15289,1.29532 4.9081,2.9659 h 7.71228 c -0.97189,-3.3961 -4.04455,-9.00603 -12.78209,-9.00603 -9.22114,0 -13.2123,6.8503 -13.2123,14.18418 0,8.78936 4.47632,15.04616 13.48235,15.04616 9.54614,0 12.83548,-6.95706 12.83548,-13.91412 0,-0.97032 0,-1.56381 -0.10834,-2.37241 h -18.44383 m -8.40312,-3.28933 c -0.91693,-4.63805 -4.20627,-9.65448 -12.51047,-9.65448 -8.68259,0 -13.15891,5.98675 -13.15891,14.39928 0,8.25082 5.01486,14.83106 13.53574,14.83106 9.38285,0 12.02531,-6.79534 12.13364,-9.92296 h -7.4956 c -0.48516,2.26564 -1.78048,3.82788 -4.79976,3.82788 -3.55939,0 -5.55498,-3.07267 -5.55498,-8.46592 0,-5.98675 2.1573,-8.68259 5.50002,-8.68259 2.69742,0 4.09951,1.56381 4.79976,3.66773 h 7.55056 m -52.31065,11.86359 c 0,2.3724 0,4.96148 -0.0534,7.06383 h 7.4956 c 0.16172,-0.75365 0.27006,-2.69585 0.32344,-3.55782 0.91693,1.72552 3.18257,4.20626 8.0891,4.20626 5.60993,0 9.2227,-3.82944 9.2227,-10.83989 v -17.742 h -7.71227 v 16.87845 c 0,3.18257 -1.0237,5.44664 -4.47476,5.44664 -3.2909,0 -5.12477,-1.83386 -5.12477,-6.79377 v -15.53132 h -7.76566 v 20.86962 m -43.62646,-0.53854 c 0,2.80418 0,5.22996 -0.055,7.60237 h 7.60394 c 0.10834,-0.64688 0.21668,-3.39611 0.21668,-4.90653 1.24037,3.181 4.20626,5.50002 8.95107,5.55497 v -7.38883 c -5.60836,0.16171 -8.95107,-1.34714 -8.95107,-9.00603 v -12.18703 h -7.76566 v 20.33108 M 662.74045,224.04501 V 246.155 h -2.27035 v 5.82346 h 2.27035 v 2.42735 c 0,5.77008 2.85913,9.54614 8.89926,9.54614 1.24037,0 2.85756,-0.10833 3.55939,-0.32343 v -6.09509 c -0.43177,0.0549 -1.02526,0.10834 -1.61876,0.10834 -2.26407,0 -3.12762,-0.8086 -3.12762,-3.82945 v -1.83386 h 3.93936 V 246.155 h -3.93936 v -22.10999 h -7.71227 m 120.21856,-37.52356 c -0.1052,6.47348 -2.69584,11.97507 -10.2464,11.97507 -7.33232,0 -10.3516,-5.07296 -11.00004,-11.97507 z m -21.56988,-9.48961 c 0,-7.01202 3.55939,-13.80579 11.21828,-13.80579 6.47034,0 8.3042,2.5875 9.81306,5.93179 h 15.42455 c -1.9422,-6.79377 -8.0891,-18.01206 -25.56105,-18.01206 -18.44383,0 -26.42459,13.69903 -26.42459,28.3668 0,17.57871 8.95108,30.09232 26.96313,30.09232 19.08914,0 25.66782,-13.91413 25.66782,-27.82825 0,-1.94063 0,-3.12605 -0.21511,-4.74481 h -36.88609 m -49.3683,16.07143 c 0,5.60678 0,10.4615 -0.10834,15.20631 h 15.20788 c 0.2151,-1.29533 0.4302,-6.79692 0.4302,-9.81306 2.48074,6.36043 8.41254,10.99847 17.9053,11.10838 v -14.77611 c -11.21672,0.32344 -17.9053,-2.69741 -17.9053,-18.01205 v -24.37563 h -15.52974 v 40.66216 m -8.45336,-24.48397 c 0,-5.28335 0,-11.21828 0.10519,-16.17819 h -15.09797 c -0.21667,1.51042 -0.32344,4.5297 -0.43177,6.47033 -3.34429,-5.60835 -8.19587,-7.76566 -15.42299,-7.76566 -11.32505,0 -18.55217,6.90368 -18.55217,20.7079 v 36.4559 h 15.42456 v -33.32671 c 0,-6.14847 1.9422,-11.21828 8.62763,-11.21828 7.01045,0 9.92297,3.77763 9.92297,14.77767 v 29.76732 h 15.42455 V 168.6193 m -88.12281,39.69028 h 8.62764 v 15.09954 h 15.42455 v -15.09954 h 11.00005 v -11.64692 h -11.00005 v -27.61158 c 0,-4.20627 1.29376,-5.82503 5.93023,-5.82503 0.86355,0 2.3724,0 3.45262,0.1099 v -10.5714 c -3.02085,-1.07709 -7.22711,-1.07709 -10.35473,-1.07709 -10.89171,0 -14.45267,5.82189 -14.45267,15.63652 v 29.33868 h -8.62764 v 11.64692 m -5.06196,18.44069 v -74.30916 h -16.06986 v 74.30916 H 610.3827 M 583.72416,168.6193 c 0,-5.28335 0,-11.21828 0.10834,-16.17819 h -15.09955 c -0.2151,1.51042 -0.32501,4.5297 -0.43177,6.47033 -3.34429,-5.60835 -8.19587,-7.76566 -15.42298,-7.76566 -11.32506,0 -18.5506,6.90368 -18.5506,20.7079 v 36.4559 h 15.42298 v -33.32671 c 0,-6.14847 1.9422,-11.21828 8.62764,-11.21828 7.01044,0 9.92296,3.77763 9.92296,14.77767 v 29.76732 h 15.42298 V 168.6193 m -53.72844,1.83387 c -1.83386,-9.27609 -8.41253,-19.30739 -25.02093,-19.30739 -17.36676,0 -26.31783,11.97193 -26.31783,28.797 0,16.50164 10.03129,29.66212 27.07147,29.66212 18.76727,0 24.05062,-13.59069 24.26729,-19.84592 h -14.99121 c -0.97188,4.53127 -3.55939,7.65732 -9.59952,7.65732 -7.11878,0 -11.10838,-6.1469 -11.10838,-16.93184 0,-11.97506 4.31304,-17.36675 11.00161,-17.36675 5.39169,0 8.19587,3.12919 9.59796,7.33546 h 15.09954" /><path
       id="path868"
       style="fill:#d6badc;fill-opacity:1;fill-rule:nonzero;stroke:none;stroke-width:0.157009"
       d="m 756.00372,374.81278 c -23.46497,0 -42.4866,18.04817 -42.4866,40.31046 0,2.73196 0.2889,5.39954 0.83529,7.97919 h 23.99881 c -1.21682,-2.41636 -1.89824,-5.12162 -1.89824,-7.97919 0,-10.24483 8.75324,-18.54903 19.55074,-18.54903 2.40538,0 4.71027,0.41294 6.83931,1.16815 v -22.40674 c -2.22639,-0.34228 -4.51086,-0.52284 -6.83931,-0.52284 m 41.4896,31.60589 h -24.22333 c 1.45704,2.59536 2.28448,5.55812 2.28448,8.70457 0,10.24483 -8.75325,18.54903 -19.55075,18.54903 -2.0207,0 -3.96918,-0.29046 -5.80304,-0.83057 v 38.13588 h 21.03605 v -18.21617 c 15.93797,-5.8109 27.2536,-20.46925 27.2536,-37.63817 0,-2.98945 -0.34699,-5.90039 -0.99701,-8.70457" /></g></svg>
