<?xml version="1.0" encoding="UTF-8" standalone="no"?>
<svg
   xmlns:dc="http://purl.org/dc/elements/1.1/"
   xmlns:cc="http://creativecommons.org/ns#"
   xmlns:rdf="http://www.w3.org/1999/02/22-rdf-syntax-ns#"
   xmlns:svg="http://www.w3.org/2000/svg"
   xmlns="http://www.w3.org/2000/svg"
   version="1.1"
   id="svg2"
   x="0px"
   y="0px"
   viewBox="0 0 202.7 267"
   enable-background="new 0 0 202.7 267"
   xml:space="preserve"><defs
   id="defs61" /><g
   id="g56"><rect
   fill="#AF001D"
   width="202.7"
   height="202.7"
   id="rect3" /><path
   id="rect3232"
   fill="#FFFFFF"
   d="M47.5,118.6h52.8v29.7H47.5   V118.6z" /><rect
   x="118.6"
   y="211.8"
   fill="#AF001D"
   width="84"
   height="55.2"
   id="rect6" /><g
   id="g24"><path
     fill="#FFFFFF"
     d="M136.1,252.7c-2.9,0-5.9-0.2-7-0.4c-0.5-0.1-0.8-0.3-0.7-0.9l0.5-3.1c0.2-0.9,0.4-1,1.5-0.9    c1,0.1,4,0.3,5.7,0.3c3.7,0,5.3-0.4,5.3-2.7c0-1.5-1-2.3-3.5-2.9l-3-0.8c-3.9-1-6.2-3.5-6.2-7.7c0-4.6,3.3-7.6,10-7.6    c3.3,0,5.9,0.2,7.1,0.4c0.5,0.1,0.8,0.3,0.7,0.9l-0.5,3.1c-0.2,0.9-0.4,1-1.5,0.9c-1-0.1-3.6-0.3-6.1-0.3c-1.9,0-3.8,0.4-3.8,2.5    c0,1.5,0.9,2.1,2.9,2.7l3,0.8c5.4,1.4,6.9,4,6.9,7.6C147.3,250.6,142.6,252.7,136.1,252.7"
     id="path8" /><path
     fill="#FFFFFF"
     d="M171.1,252.5h-4.4c-1,0-1.3-0.3-1.7-1l-4.8-8.7c-0.3-0.5-0.4-0.8-0.4-1.2c0-0.2,0-0.4,0.1-0.9l0.4-1.7    c0.4-1.5,0.8-1,1.9-1.5c1-0.4,1.9-1.1,1.9-3.1c0-2.3-1.2-3.2-3.6-3.2h-3.9v20.2c0,0.8-0.2,1.1-1.1,1.1h-3.7    c-0.8,0-1.1-0.3-1.1-1.1v-24c0-0.8,0.2-1.1,1.1-1.1h9.1c6.3,0,9.1,2.9,9.1,7.9c0,3.9-2.2,5.7-4.2,7l5.9,9.8    C172.4,252.1,171.7,252.5,171.1,252.5"
     id="path10" /><path
     fill="#FFFFFF"
     d="M193,230.3c0,0.8-0.2,1.1-1,1.1h-10.7v5.5h9.7c0.8,0,1,0.3,1,1.1v2.8c0,0.8-0.2,1.1-1,1.1h-9.7v9.4    c0,0.8-0.3,1.1-1,1.1h-3.7c-0.8,0-1.1-0.3-1.1-1.1v-24c0-0.8,0.2-1.1,1.1-1.1h15.4c0.8,0,1,0.3,1,1.1V230.3z"
     id="path12" /><path
     fill="#AF001D"
     d="M16.1,240.4c0.9-0.4,1.6-1.2,2.2-2.3c0.6-1.1,0.9-2.4,0.9-3.9c0-2.4-0.7-4.3-2.2-5.7    c-1.4-1.4-3.7-2.1-6.7-2.1H0.1v26.2H6v-21.3h3.4c1.4,0,2.4,0.3,2.9,0.8c0.6,0.5,0.8,1.3,0.8,2.4c0,1.3-0.4,2.2-1.1,2.7    c-0.7,0.5-1.8,0.8-3.3,0.8l-1,4.1l6.8,10.5h6.8l-7.6-11.2C14.5,241.2,15.2,240.9,16.1,240.4"
     id="path14" /><path
     fill="#AF001D"
     d="M32,226.3l-9.4,26.2h5.8l2.2-6.3h8.2l2.2,6.3h6l-9.3-26.2L32,226.3L32,226.3z M32.1,241.4l2.7-8.5l2.6,8.5    H32.1z"
     id="path16" /><path
     fill="#AF001D"
     d="M67.6,229c-1.1-1-2.4-1.7-4-2.1c-1.5-0.4-3.2-0.6-5-0.6h-9v26.2h9c1.8,0,3.5-0.2,5-0.6    c1.5-0.4,2.9-1.1,4-2.1c1.1-1,2-2.3,2.6-4c0.6-1.7,0.9-3.8,0.9-6.3c0-2.6-0.3-4.7-0.9-6.4C69.6,231.4,68.7,230,67.6,229     M64.2,244.1c-0.4,1.3-1,2.3-1.9,2.8c-0.9,0.5-2.2,0.8-3.7,0.8h-3v-16.4h3c1,0,1.9,0.1,2.9,0.4c1,0.3,1.8,1,2.4,2.2    c0.6,1.2,0.9,3,0.9,5.6C64.8,241.2,64.6,242.7,64.2,244.1"
     id="path18" /><rect
     x="75.1"
     y="226.3"
     fill="#AF001D"
     width="6"
     height="26.2"
     id="rect20" /><path
     fill="#AF001D"
     d="M103.8,227.4c-1.8-1.1-4.1-1.6-6.9-1.6c-1.8,0-3.5,0.3-5.4,0.9c-1.8,0.6-3.3,1.9-4.5,4    c-1.2,2.1-1.8,5-1.8,8.7c0,2.6,0.3,4.7,0.8,6.5c0.5,1.7,1.3,3.1,2.3,4.2c1,1.1,2.2,1.8,3.7,2.3c1.4,0.4,3.1,0.7,4.9,0.7    c1.9,0,3.5-0.2,5-0.7c1.4-0.4,2.7-1.2,3.7-2.3c1-1,1.7-2.5,2.3-4.2c0.5-1.7,0.8-3.9,0.8-6.5c0-2.6-0.3-4.9-1-7.1    C106.8,230.1,105.6,228.5,103.8,227.4 M101.8,244c-0.3,1.4-0.8,2.4-1.6,3.1c-0.8,0.7-1.9,1-3.4,1c-1,0-1.8-0.1-2.5-0.4    c-0.7-0.3-1.2-0.7-1.7-1.4c-0.4-0.7-0.7-1.6-0.9-2.7c-0.2-1.1-0.3-2.5-0.3-4.2c0-1.7,0.1-3.2,0.4-4.6c0.2-1.4,0.8-2.4,1.6-3.1    c0.8-0.7,1.9-1,3.5-1c1,0,1.9,0.2,2.7,0.6c0.9,0.4,1.5,1.2,2,2.5c0.4,1.3,0.7,3.2,0.7,5.7C102.2,241.1,102.1,242.7,101.8,244"
     id="path22" /></g><g
   id="path3235"><defs
   id="defs29">
			<filter
   id="Adobe_OpacityMaskFilter"
   filterUnits="userSpaceOnUse"
   x="31"
   y="36.7"
   width="62.9"
   height="112"><feColorMatrix
     type="matrix"
     values="1 0 0 0 0  0 1 0 0 0  0 0 1 0 0  0 0 0 1 0"
     id="feColorMatrix26" /></filter></defs><mask
   maskUnits="userSpaceOnUse"
   x="31"
   y="36.7"
   width="62.9"
   height="112"
   id="SVGID_2_"><g
   filter="url(#Adobe_OpacityMaskFilter)"
   id="g33" />
		</mask>
		<g
   mask="url(#SVGID_2_)"
   id="g38">
			<polygon
   points="92.3,36.7 31,122 48.2,148.7 93.9,80.7    "
   id="polygon36" />
		</g>
	</g><linearGradient
   id="SVGID_1_"
   gradientUnits="userSpaceOnUse"
   x1="-1058.4822"
   y1="475.3494"
   x2="-1044.86"
   y2="475.3494"
   gradientTransform="matrix(1.6753 -1.0287 1.0287 1.6753 1310.463 -1771.5516)">
		<stop
   offset="0"
   style="stop-color:#DADADA"
   id="stop41" />
		<stop
   offset="1"
   style="stop-color:#FFFFFF"
   id="stop43" />
	</linearGradient>
	<polygon
   fill="url(#SVGID_1_)"
   points="101.5,19.7 31,122 47.5,148.3 101.5,69.4  "
   id="polygon46" />
	<polygon
   fill="#FFFFFF"
   points="151.2,182.3 108.8,182.3 108.8,173.4 135.8,157.4 108.8,157.4 108.8,148.7 151.2,148.7    151.2,157.5 124.6,173.6 151.2,173.6  "
   id="polygon48" />
	<polygon
   fill="#FFFFFF"
   points="151.2,140.9 108.8,140.9 108.8,113.5 117.1,113.5 117.1,131.2 125.5,131.2 125.5,115.2    133.7,115.2 133.7,131.2 143,131.2 143,112.5 151.2,113.5  "
   id="polygon50" />
	<polygon
   fill="#FFFFFF"
   points="151.2,97.4 108.8,108.1 108.8,97.4 138.9,91.9 108.8,84.8 108.8,75.7 138.9,68.5 108.8,63.1    108.8,52.9 151.2,63.6 151.2,73.7 121.3,80.5 151.2,87.5  "
   id="polygon52" />
	<path
   fill="#FFFFFF"
   d="M152.2,35.3c0,2.7-0.2,5.3-0.6,7.6c-0.4,2.3-0.7,4-1,5.2c-0.3,1.2-0.5,1.8-0.5,1.9l-7.7-1.5   c0.6-2.4,1.1-4.6,1.3-6.6c0.3-2,0.4-3.9,0.4-5.5c0-2.7-0.3-4.6-1-5.7c-0.7-1.1-1.9-1.6-3.8-1.6c-1.6,0-2.8,0.5-3.4,1.3   s-1.2,2.2-1.6,3.9l-1.1,4.6c-0.8,3.4-2.2,6-4.3,7.7c-2,1.7-4.8,2.6-8.3,2.6c-2,0-3.8-0.3-5.3-0.9c-1.6-0.6-2.9-1.5-4-2.8   c-1.1-1.3-2-2.8-2.5-4.8c-0.6-1.9-0.9-4.2-0.9-6.9c0-3.8,0.6-8.2,1.8-13l7.4,1.3c-0.4,1.5-0.7,3.4-1,5.5c-0.3,2.2-0.4,4.2-0.4,6   c0,1.8,0.3,3.2,0.9,4.4c0.6,1.2,1.8,1.7,3.7,1.7c1.5,0,2.6-0.4,3.3-1.3c0.7-0.8,1.2-1.9,1.5-3.3l1.1-4.9c1-4.1,2.5-6.9,4.6-8.6   c2.1-1.6,4.8-2.5,8.1-2.5c3.4,0,6.1,0.8,8.2,2.5c2.1,1.6,3.4,3.7,4,6.3C151.8,30.4,152.1,32.9,152.2,35.3"
   id="path54" />
</g>
<path
   style="opacity:0.8;fill:#b3b3b3;stroke:none;stroke-width:1px;stroke-linecap:butt;stroke-linejoin:miter;stroke-opacity:1"
   d="m 67.907162,118.51779 0.609033,0.0609 L 47.5,148.3 Z"
   id="path63" /><metadata
   id="metadata65"><rdf:RDF><cc:Work
       rdf:about=""><dc:title></dc:title></cc:Work></rdf:RDF></metadata></svg>
