<svg enable-background="new -0.788 -0.975 52 22" height="205.688338" viewBox="-.788 -.975 52 22" width="486.172435" xmlns="http://www.w3.org/2000/svg"><path d="m21.814 3.592h10.706v13.656h-10.706z" fill="#fff" stroke="#fff"/><path d="m12.077 1.181c-.018-.004-.037-.006-.055-.01l-.022-.004c-.032-.004-.063-.008-.096-.011-.022-.003-.044-.004-.066-.005-.04-.003-.077-.004-.114-.004-.017 0-.027 0-.044 0-.032 0-.062.002-.091.004-.017.001-.034.002-.05.004-.025.002-.049.004-.073.008l-.021.002-.021.005-.027.005c-.012.001-.023.003-.035.006-.017.002-.033.006-.048.009-.098.021-.188.048-.271.081-.043.019-.085.037-.124.056-.033.017-.064.034-.095.051-.029.017-.057.034-.084.052-.016.012-.031.021-.047.033-.012.009-.025.018-.037.027-.026.021-.051.042-.076.063-.021.021-.042.04-.063.06-.017.017-.035.034-.05.054-.018.019-.034.038-.049.058-.018.021-.033.043-.049.065-.013.017-.024.034-.035.052-.008.012-.016.023-.022.036-.043.07-.081.146-.112.228-.038.102-.066.211-.081.326-.004.037-.008.074-.011.112-.002.029-.002.059-.002.088v.066c.002.021.005.045.007.067l.001.016c.003.027.008.053.013.078.002.01.004.02.006.03.004.021.01.042.014.063.008.027.015.053.024.08.01.032.022.063.034.093.02.048.042.094.065.138.014.025.028.05.042.075.012.019.024.037.036.055.016.024.033.046.049.068.017.022.036.043.054.064.021.025.043.049.065.07l.011.011c.019.017.037.037.06.056.015.012.03.026.047.04.016.012.032.025.049.038.021.016.042.03.065.045.026.015.051.032.079.047.054.031.114.061.181.088.024.01.05.019.076.028.026.01.053.018.081.026.048.013.098.026.149.036.042.008.087.015.132.021s.091.01.139.013c.024.001.048.001.071.003h.034c.086 0 .167-.004.241-.01l.014-.001c.03-.002.058-.006.085-.01.043-.005.083-.011.121-.019.024-.004.048-.009.071-.014.036-.008.07-.017.102-.025.024-.006.047-.013.069-.02.026-.007.051-.017.076-.025l.023-.007c.012-.004.028-.01.046-.018.025-.01.055-.021.089-.037.021-.009.043-.019.066-.029.019-.01.041-.021.063-.03.008-.004.018-.009.027-.013v-.537c-.006.005-.013.009-.019.013l-.036.021c-.036.024-.071.044-.106.064-.038.02-.077.04-.114.058-.065.032-.128.058-.188.079-.116.042-.221.067-.314.085-.011.001-.022.003-.033.005-.026.004-.05.007-.075.01-.036.003-.071.006-.101.007-.021 0-.039.002-.057.002-.037 0-.076-.001-.116-.004-.046-.003-.092-.009-.14-.017-.076-.013-.153-.033-.227-.061-.012-.003-.022-.008-.034-.013-.007-.002-.014-.005-.022-.008-.011-.006-.023-.01-.036-.016-.026-.012-.052-.026-.077-.041-.012-.007-.023-.015-.037-.022-.012-.008-.025-.017-.038-.026-.015-.01-.031-.021-.044-.033-.015-.012-.029-.024-.042-.035l-.017-.016-.009-.008-.005-.005-.006-.006c-.024-.024-.045-.048-.066-.072-.01-.013-.021-.027-.031-.041-.009-.014-.018-.026-.026-.041-.009-.012-.016-.024-.023-.038-.011-.019-.021-.037-.031-.056-.006-.016-.014-.032-.02-.048-.012-.026-.021-.054-.029-.08-.007-.019-.012-.04-.018-.06-.013-.055-.02-.106-.024-.15-.002-.016-.002-.032-.003-.046-.001-.021-.001-.04-.001-.054v-.032c.001-.031.004-.069.01-.113.004-.027.009-.056.017-.086.004-.021.01-.04.016-.061.006-.019.013-.038.021-.059.004-.013.009-.026.016-.039.008-.018.016-.036.025-.054.007-.015.015-.029.023-.042.017-.03.037-.061.059-.091.008-.01.016-.022.024-.032.011-.013.023-.028.035-.041.007-.006.013-.013.02-.02.097-.098.206-.172.318-.223.018-.008.036-.016.054-.023s.035-.014.054-.02.039-.012.059-.018c.018-.005.038-.01.056-.015.019-.004.038-.008.056-.011.02-.004.04-.007.061-.01.02-.002.04-.005.061-.006.039-.003.076-.005.112-.005h.038c.027 0 .053.001.08.002.019.002.036.002.054.004.032.003.065.007.095.012.027.004.054.008.078.013.038.009.072.017.104.026.02.004.038.01.055.016.025.008.047.015.064.02.029.011.046.017.046.017.025.009.051.021.076.03.033.014.065.028.095.042.025.012.049.024.072.035.019.01.037.02.053.028.029.015.053.029.073.04l.054.03v-.526s-.033-.013-.088-.035c-.025-.009-.054-.02-.088-.031-.018-.007-.038-.014-.058-.021-.017-.005-.033-.011-.051-.017-.02-.007-.04-.015-.061-.021-.016-.004-.031-.01-.048-.015l-.014-.004c-.013-.004-.03-.008-.044-.013-.02-.004-.039-.011-.058-.016-.012-.002-.025-.005-.038-.008-.021-.005-.041-.01-.063-.014-.02-.004-.041-.008-.064-.011m-2.593-.547h4.116v3.923h-4.116z"/><path d="m6.322 2.804v.771h.493s.011-.001.026-.001c.017-.001.04-.002.07-.004.052-.006.124-.016.193-.04.062-.02.121-.052.168-.099.018-.018.033-.037.045-.056.038-.062.048-.124.05-.16.001-.016.001-.025.001-.025s0-.007 0-.019c0-.015-.002-.044-.009-.075-.01-.036-.027-.078-.058-.117-.007-.006-.013-.014-.02-.021-.013-.014-.029-.028-.045-.04-.027-.02-.058-.037-.091-.051-.044-.021-.094-.035-.15-.045-.026-.006-.057-.01-.087-.012-.019-.003-.037-.004-.056-.005-.018-.001-.035-.001-.053-.001z"/><path d="m6.322 1.63v.731h.238.037c.019-.001.037-.001.054-.003.049-.003.118-.01.186-.029.014-.004.028-.008.04-.013.054-.02.104-.046.146-.086.031-.032.052-.067.065-.101.017-.042.023-.082.026-.11.001-.026.001-.042.001-.042s0-.012 0-.031c-.002-.032-.008-.084-.033-.134-.012-.024-.029-.047-.052-.069-.026-.027-.058-.048-.093-.063-.068-.031-.145-.043-.209-.046-.03-.002-.055-.004-.077-.004z"/><path d="m5.822 1.184v2.826h1.05s.513.013.795-.272c.23-.233.214-.503.214-.503s.016-.281-.197-.498c-.182-.183-.413-.233-.413-.233s.104-.049.186-.131c.037-.038.171-.161.171-.458 0-.3-.197-.472-.197-.472s-.217-.259-.703-.259zm-1.08-.55h4.116v3.923h-4.116z"/><path d="m1.58 2.804v.771h.495s.009-.001.025-.001c.017-.001.041-.002.069-.004.054-.006.124-.016.193-.04.062-.02.121-.052.169-.099.018-.019.032-.037.044-.057.039-.062.048-.124.05-.16.002-.015.002-.024.002-.024v-.018c-.002-.015-.004-.044-.011-.075-.01-.037-.027-.079-.058-.118-.005-.007-.012-.014-.018-.021-.015-.014-.029-.028-.044-.04-.028-.02-.059-.037-.092-.051-.045-.021-.095-.035-.15-.045-.027-.006-.057-.01-.087-.012-.019-.003-.038-.004-.057-.005-.017-.001-.035-.001-.052-.001z"/><path d="m1.58 1.63v.731h.24.037c.016-.001.036-.001.053-.003.049-.003.118-.01.186-.029.014-.004.026-.008.04-.013.053-.02.104-.046.144-.086.032-.032.052-.067.066-.101.017-.042.023-.082.025-.11.002-.026.002-.042.002-.042v-.032c-.003-.031-.008-.083-.033-.133-.012-.024-.029-.047-.05-.069-.028-.027-.061-.048-.096-.063-.068-.031-.144-.043-.21-.046-.027-.002-.053-.004-.074-.004z"/><path d="m1.08 1.184v2.826h1.05s.512.013.794-.272c.23-.233.214-.503.214-.503s.016-.281-.197-.498c-.182-.183-.413-.233-.413-.233s.105-.049.185-.131c.038-.038.172-.161.172-.458 0-.3-.197-.472-.197-.472s-.215-.259-.702-.259zm-1.08-.55h4.116v3.923h-4.116z"/><path d="m0 5.529v3.243h.459v-1.407h.193c.236 0 .426.077.85.742l.423.665h.548c-.221-.308-.3-.417-.437-.642-.243-.403-.421-.703-.713-.898.343-.139.536-.418.536-.795 0-.561-.404-.909-1.051-.909zm.459.4h.297c.445 0 .624.185.628.49.005.271-.135.528-.628.528h-.297z"/><path d="m4.146 5.511h-.323l-1.376 3.261h.469l.405-.955h1.361l.427.955h.469zm-.168.713.517 1.174h-.996z"/><path d="m5.96 8.772h1.249c1.057 0 1.699-.789 1.699-1.621 0-.766-.521-1.623-1.703-1.623h-1.245zm.461-2.824h.708c.897 0 1.306.551 1.306 1.203 0 .399-.239 1.203-1.281 1.203h-.733z"/><path d="m9.668 5.529v3.243" fill="none" stroke="#000" stroke-miterlimit="10" stroke-width=".4625"/><path d="m10.429 7.151c0 .88.663 1.664 1.708 1.664 1.084 0 1.733-.789 1.733-1.664 0-.903-.667-1.664-1.723-1.664-1.038 0-1.718.765-1.718 1.664m.474 0c0-.714.531-1.236 1.244-1.236.719 0 1.249.522 1.249 1.236 0 .708-.53 1.236-1.249 1.236-.713.001-1.244-.528-1.244-1.236"/><g fill="#00b3df"><path d="m26.771 0c-5.604 0-10.146 4.604-10.146 10.283s4.542 10.283 10.146 10.283 10.146-4.604 10.146-10.283-4.542-10.283-10.146-10.283m.589 7.869c2.568 0 4.363 1.984 4.363 4.825 0 1.375-.531 2.659-1.496 3.616-.983.975-2.289 1.496-3.664 1.467-2.322 0-4.675-1.17-5.097-3.758h3.696c.288.436.763.693 1.345.693 1.132 0 1.739-1.041 1.739-2.02 0-.968-.537-1.945-1.739-1.945-.719 0-1.116.213-1.573.842l-.109.148h-3.238l1.665-8.377h8.646l-.6 3.056h-5.451s-.258 1.195-.376 1.878c.544-.287 1.161-.425 1.889-.425"/><path d="m41.679 6.435h-1.282l-.137.94h1.282z"/><path d="m40.789 13.363.681-5.259h-1.283l-.68 5.259z"/><path d="m44.136 13.363 2.586-5.26h-1.375s-1.188 2.579-1.465 3.182c-.129-.641-.641-3.182-.641-3.182h-1.35l1.225 5.26z"/><path d="m50.171 8.676c-.354-.407-.873-.631-1.466-.631-1.038 0-2.24.705-2.495 2.685-.119.917.023 1.617.424 2.079.348.401.891.614 1.568.614.75 0 1.434-.293 1.977-.848l.105-.107-.842-.816-.103.094c-.296.271-.69.44-1.036.44-.305 0-.545-.091-.693-.265-.123-.141-.187-.34-.187-.582 0-.026.005-.053.007-.08h3.045l.123-.951c.016-.113.021-.225.021-.333.003-.506-.153-.958-.448-1.299m-.843 1.463h-1.744c.14-.532.511-.857 1-.857.233 0 .424.074.551.215.13.143.195.355.195.62 0 .006-.002.014-.002.022"/><path d="m39.562 6.435h-1.282l-.9 6.922h1.282z"/></g></svg>