<?xml version="1.0" encoding="UTF-8"?>
<svg  version="1.1" viewBox="0 0 114 25" xmlns="http://www.w3.org/2000/svg">
<title>WQXR-FM logo</title>
 <path d="m51.048 10.922v-0.05021c0-5.0561-4.2687-9.1045-10.032-9.1045-5.7643 0-10.085 4.0988-10.085 9.1547v0.05021c0 5.0561 4.2677 9.1054 10.032 9.1054 0.26506 0 0.52406-0.016837 0.78369-0.034876 0.53012 0.95549 1.2612 1.8511 2.2123 2.6235 1.1747 0.95939 2.6818 1.6864 4.4313 2.0778l2.8665-4.0123c-2.3007 0.17889-3.7603-1.0466-4.5841-2.2083 2.6812-1.6443 4.3762-4.4359 4.3762-7.6015zm-5.282 0.049909c0 2.5387-1.8959 4.7032-4.7503 4.7032-2.8276 0-4.7758-2.2125-4.7758-4.7531v-0.05021c0-2.5402 1.8921-4.7035 4.7219-4.7035 2.8557 0 4.8039 2.2125 4.8039 4.7537v0.049909h3.189e-4z" style="fill:#0c0c0c"/>
 <polygon points="6.0891 19.442 10.485 19.442 14.128 9.3661 17.795 19.442 22.193 19.442 28.279 1.8179 23.051 1.8179 19.877 11.943 16.365 1.7674 12.019 1.7674 8.5069 11.943 5.3336 1.8179 0 1.8179" style="fill:#0c0c0c"/>
 <polygon points="54.791 19.442 60.217 19.442 63.578 14.114 66.913 19.442 72.465 19.442 66.491 10.402 72.217 1.7674 66.79 1.7674 63.678 6.7408 60.591 1.7674 55.04 1.7674 60.766 10.452" style="fill:#0c0c0c"/>
 <path d="m93.989 7.8514v-0.050634c0-1.7419-0.51931-3.1051-1.5312-4.1159-1.1599-1.2107-2.9889-1.9174-5.6314-1.9174h-8.1749v17.674h4.7921v-5.3536h2.0986l3.483 5.3536h5.5333l-4.1266-6.1625c2.1487-0.93355 3.5572-2.7258 3.5572-5.4279zm-4.8149 0.3035c0 1.2874-0.93867 2.0957-2.5687 2.0957h-3.1618v-4.2427h3.1369c1.6054 0 2.5936 0.70736 2.5936 2.096v0.050938z" style="fill:#0c0c0c"/>
 <polygon points="111.35 22.977 114 22.977 114 0 111.35 0" style="fill:#0c0c0c"/>
 <path d="m104.28 10.605c0.97491 0 1.7659-0.79231 1.7659-1.7692 0-0.97548-0.79096-1.7657-1.7659-1.7657-0.97805 0-1.769 0.78987-1.769 1.7657-3.49e-4 0.97687 0.79096 1.7692 1.769 1.7692" style="fill:#0c0c0c"/>
 <path d="m104.28 16.791c0.97491 0 1.7659-0.79162 1.7659-1.7674 0-0.97443-0.79096-1.7674-1.7659-1.7674-0.97805 0-1.769 0.79301-1.769 1.7674-3.49e-4 0.97618 0.79096 1.7674 1.769 1.7674" style="fill:#0c0c0c"/>
 <polygon points="108.7 22.977 109.58 22.977 109.58 0 108.7 0" style="fill:#0c0c0c"/>
</svg>
