<?xml version="1.0" encoding="UTF-8"?>
<svg style="enable-background:new 0 0 82.1 82.1" version="1.1" viewBox="0 0 82.1 82.1" xml:space="preserve" xmlns="http://www.w3.org/2000/svg">
<title>Cafe del Mar logo</title>
<style type="text/css">
	.st0{fill:#25336C;}
</style>
	<path class="st0" d="m49.4 21.3c0.4-0.9 1-3.2-1-1.3-2.1 2-6 7.8-6.7 10.3 1.7-1 6.4-6.5 7.7-9z"/>
	<path class="st0" d="m49.5 30.5c0.3-0.4 0.2-1.7-1-1.1-1.8 0.8-3.5 3.8-3.7 4.9 0.9-0.1 3.9-2.1 4.7-3.8z"/>
	<path class="st0" d="m32.5 22.3c0.9-1.7 0.2-2.8-4.7-0.6-5.2 2.3-9.6 7.9-10.2 8.7 2.6 0.4 13.7-5.5 14.9-8.1z"/>
	<path class="st0" d="m54.9 38.2c0.7-0.8 1-2.1 1.1-2.3 0.1-0.3-0.4-1.3-1.6 0-1 1.1-1.2 1.6-1.2 2.3 0.1 0.9 0.9 0.8 1.7 0z"/>
	<path class="st0" d="m59.7 37c1-0.9 1.1-1 1.3-1.3 0.2-0.2 0.4-0.9-0.4-0.6-0.9 0.4-1.5 1.7-1.5 1.7s-0.5 1.3 0.6 0.2z"/>
	<path class="st0" d="m64.1 35.2c1.1-1.3 3.1-5 3.1-6.1s-0.4-0.4-0.7 0.2c-0.3 0.5-2.1 3.6-2.7 5.6-0.5 1.6 0.2 0.4 0.3 0.3z"/>
	<path class="st0" d="m21.3 32c-2.8 2.5-4.1 4.9-4.4 7.6 1.9 0.5 4.1-0.8 5.3-1.9 1.1-0.9 1.5-1.8 1.8-2.4 0.7-1.2 1.7-6.3-2.7-3.3z"/>
	<path class="st0" d="m61.1 48.8c-1.6 1.2-3 4.9-3.4 5.9-0.5 1.1-0.3 3 1.5 1.6 1.9-1.4 3.4-6.5 3.4-6.7s0.1-2-1.5-0.8z"/>
	<path class="st0" d="m41 0c-22.6 0-41 18.4-41 41 0 22.7 18.4 41 41 41 22.7 0 41-18.4 41-41 0.1-22.6-18.3-41-41-41zm30.5 56.9c-0.8 0.4-1.3 0.7-2.4 0.5-2.1-0.8 0.4-4.9 1-7.1 0.2-0.7 1.1-2.3-0.7-2.2-0.7 0-1 0.1-1 0.1s-1.4 3.6-1.8 4.2-1.5 3-3.1 4.3c-1.1 0.9-2.6 1.1-3-0.5-0.2 0.2-0.4 0.3-0.7 0.5-1 0.9-3.1 1.7-3.8-1.3-0.2-1.4-0.1-1.6 0.1-2.3 0.1-0.2-1.6 1.1-1.9 1.3-0.1 0.1-2.5 3.6-5.1 3.3 0.2 2.9 1.2 4.9 3.6 6.8 1.8 1.3 7.7 4.5 14.2 0.3-3.5 4-11.4 3.5-15.8-0.7-2.6-2.4-2.9-6.6-2.9-6.6s-4.2-1.4-2.8-7.4c1.2-5.2 3.8-8.7 4.2-9.7-1.6 1.8-5.3 8-5.4 8.3s-2.5 4.2-3.3 5.3c-0.3 0.4-1.3 3.5-1.6 4.3-0.7 2.5-2.5 5.3-3.4 6.1-0.8 0.7-2.3 1.6-1.7-1 0.6-2.8 3.3-6.1 4.1-6.5 0.5-2.7 3-11.6 6.7-17.2-4 4.6-6.6 9.2-7.5 10.7s-5.5 9.3-10.1 8.5c-2.7-0.4-2.9-2.2-2.2-3.1 0.4-0.6 1.6-0.9 2.3-0.3 0.9 0.8-0.6 2-1.7 1.2-0.2 0.6 1.2 1.9 3.4 1s4.6-3.1 7.2-7.6c2-3.5 4.9-7.8 9.1-12.2-0.4 0.1-0.9 0.2-1.4 0.2-1.8 0-1.9-1.9-1.9-2s0.2-0.7-0.4-0.3-4.1 2.4-4.3 2.5c-0.3 0.2-2.3 5.5-3.9 7.8-2.6 3.7-4.4 5.1-5.2 5.8-0.8 0.6-3.1 1.6-2.3-1.3 1-3.5 3.9-6 5.1-7.4s3.5-3.3 3.5-3.3l1-2.8s-1.3 0.9-1.4 1-2.4 1.5-2.8-0.1c0-0.1-0.2-0.4-0.4-0.2-0.1 0.1-1.5 1.4-2.6 1.1-1.1-0.2-2.5-1.2-1.6-3.9 0.1-0.5-2.1 1-2.7 1.5-0.9 0.7-2.2 1.9-3.4 2.5-0.4 0.2-2.4 1.1-4.2 0.9-0.4 1.5 1 8.5 8.5 9.8-6.3 0.1-9.8-6.1-9.4-10.1-2.5-1.2-3.5-5.3-1.6-8.7-3.1-0.3-6.4-3.5-5.4-6.9 1.1-5.1 7.6-7 13.1-7.9 1.1-0.1 2.3-0.2 3.3-0.1-1.8 0.3-4.6 0.8-5.9 1.1-3.4 0.9-6.8 2.3-8.7 5.4-1.6 2.7-0.8 6.3 4.2 7.4 1-1.3 3-4.3 8-7.5s12.3-5.1 10.4-0.5c-1.7 5.1-14.1 9.7-16.2 9.7-0.5 0.2-3.4 5.8-0.9 7.3 0.8-3.3 2.5-5.4 3.9-6.7s5.5-3.6 5.6 0.6c0 1.3-0.6 3-0.7 3.2s2.1-1.2 2.6-1.4c0.3-0.1 3-6.4 7-4.4 0.1 0.1 0.3-0.5 0.3-0.5h1.4l-3 7s-1.5 4 3.2-0.3c2.7-6.3 4.5-10.2 9.3-15.5 1.6-2 5.9-4.4 4.7 0.1-1.4 4.4-9 10.7-9.6 11.2-0.5 0.6-2.6 5.5-2.6 5.5s3.5-2.2 4.5-2.6c0.2-0.1 0.5-3.2 3.5-5.3 4.3-3.1 4.6-0.4 4.1 0.8-0.5 1-2.6 3.9-6.1 4.9-1 1.6 0.5 3.4 2.9 1.5l0.3-0.3c0.3-0.3 0.7-0.6 1-0.9l0.1-0.1c0-0.1 0.1 0 0.9 0-2.8 3.5-6.8 10.8-7 14.8 3-4.4 5.6-10.8 10.9-14.8 0 0 0.9-0.7 1.3-0.8l-0.1 0.1c0.6-0.3 1.2-0.2 1.8 0.3 0.5-0.7 3.1-6.8 3.1-6.8h0.8l-3.9 9.2c-0.4 1 0.3 2 1.7 0.9 0.2 0.1-0.6-1.6 1.7-3.4 1.6-1.1 2.3-0.5 1.8 0.7-0.4 1.2-2.2 2.2-2.4 2.3-0.6 0.3-0.2 1 0.7 0.6 1.2-0.4 1.9-1.1 2.4-1.5 1.2-5 3-7.5 3.9-8.7 0.6-0.8 2.1-2.1 1.6 1.1-0.5 3.1-3 6.1-4.5 7.6-0.2 1 0 1.5 0.8 1.4 1-0.1 2.2-1.7 2.2-1.7l0.1 0.1s0.1 0.1-0.9 1.4c-1.2 1.6-2.8 1-3 0.3-0.2-0.4-0.1-0.9-0.1-0.9s-0.6 0.5-1.6 1.3c-1.9 1.3-2.4-0.1-2.6-0.2-1.7 1-2.6 0.2-2.9-0.1-1.1 1-2 1.2-2.6 0.5-0.3-0.3-0.2-0.9 0-1.5-0.4 0.7-0.8 1.5-1.3 2.5-0.7 1.3-1.9 3.5-2.7 6.1-1 3.2-3.1 9.6-0.2 10.5 0.2-4.5 1.2-5.7 2.1-6.8 1.5-2 4.7-3.8 4.7 0.8-0.3 1.9-0.4 2.1-0.6 2.7 0.5-0.1 1.9-1.1 2-1.2s1.8-4.2 5-4.7c1.2-0.2 1.4 0.2 1.8 0.4 0.1-0.1 0.2-0.4 0.2-0.4h1.7l-3.2 7.2c-0.2 0.4-0.5 2.2 1.2 0.8 1-0.8 1.4-1.7 2.1-3 0.1-0.2 1.5-2.8 2.1-4.7-0.6-0.6-1.5-1.1-0.9-2.5 0.4-0.9 1.7-1.9 2.5-0.7 0.2 0.3 0.3 1.1-0.4 2.5 0.5 0 4.1-0.8 3.3 2.2-0.9 3-1.7 5.4-1.8 5.7s-0.6 1.6 0.5 1.3c1.2-0.3 3.4-2.5 4.3-4h0.5c-0.6 0.9-2.3 3.4-3.9 4.3z"/>
	<path class="st0" d="m52.3 49.1c-2.1 1.5-3.3 4.5-3.1 7.9 1.3 0.5 4.6-1.7 5.2-6.2 0.1-0.7 0-3.1-2.1-1.7z"/>
	<path class="st0" d="m31.4 31.5c-2.2 2.9-2.7 5.1-2.7 5.1s-1 3 1.1 1.8c2.1-1.1 3.8-6.6 3.9-6.7 0.2-0.5-0.2-2.3-2.3-0.2z"/>
	<path class="st0" d="m27.4 50.5c-0.5 1.2-0.7 2.2 0.7 1.1 4.4-3.3 6.1-8.6 6.4-9.8-3.7 3-6.6 7.6-7.1 8.7z"/>
	<path class="st0" d="m37.4 59.5c-0.6 0.8-1.8 2.5-2.3 3.9-0.5 1.2-0.1 1.2 0.7 0.4s2.2-3.9 2.3-4.2c0.1-0.4 0.6-1.8-0.7-0.1z"/>
</svg>
