<?xml version="1.0" encoding="UTF-8" standalone="no"?>
<!-- Created with Inkscape (http://www.inkscape.org/) -->

<svg
   version="1.1"
   id="svg1"
   width="780.32727"
   height="775.22736"
   viewBox="0 0 780.32727 775.22736"
   sodipodi:docname="logo_kcrw.svg"
   inkscape:version="1.4.3 (0d15f75042, 2025-12-25)"
   xmlns:inkscape="http://www.inkscape.org/namespaces/inkscape"
   xmlns:sodipodi="http://sodipodi.sourceforge.net/DTD/sodipodi-0.dtd"
   xmlns="http://www.w3.org/2000/svg"
   xmlns:svg="http://www.w3.org/2000/svg">
  <defs
     id="defs1" />
  <sodipodi:namedview
     id="namedview1"
     pagecolor="#ffffff"
     bordercolor="#000000"
     borderopacity="0.25"
     inkscape:showpageshadow="2"
     inkscape:pageopacity="0.0"
     inkscape:pagecheckerboard="0"
     inkscape:deskcolor="#d1d1d1"
     inkscape:zoom="0.51563244"
     inkscape:cx="341.32841"
     inkscape:cy="322.90443"
     inkscape:window-width="1920"
     inkscape:window-height="1131"
     inkscape:window-x="0"
     inkscape:window-y="0"
     inkscape:window-maximized="1"
     inkscape:current-layer="g1" />
  <g
     inkscape:groupmode="layer"
     inkscape:label="Image"
     id="g1"
     transform="translate(-9.6956543,-16.488538)">
    <circle
       style="fill:#ffffff;stroke-width:10;stroke-linecap:round"
       id="path2"
       cx="399.50821"
       cy="400.48297"
       r="354.90396" />
    <path
       style="fill:#000000"
       d="m 372.56063,790.79763 c -2.2,-0.46251 -11.425,-1.53125 -20.5,-2.37498 -14.60511,-1.35789 -40.58534,-6.50107 -48.5,-9.6013 -4.90065,-1.91963 -12.0318,-3.94349 -13.92814,-3.95288 -3.12849,-0.0155 -32.6007,-10.14141 -44.99639,-15.45964 C 199.54374,740.0625 160.2478,713.14135 123.50414,676.42285 78.767413,631.71676 49.845153,585.09049 29.191253,524.37873 18.358763,492.53684 10.411093,449.78898 9.8721127,420.4675 c -0.64411,-35.04018 0.4427403,-57.1174 3.7950303,-77.08877 1.86837,-11.13083 5.23491,-24.60384 6.54112,-26.17782 0.5376,-0.64781 1.1799,-3.24508 1.42732,-5.77173 0.24743,-2.52665 1.17337,-6.49663 2.05765,-8.82218 0.88428,-2.32555 1.56821,-5.51169 1.51984,-7.08032 -0.0617,-2.0009 0.47589,-2.9995 1.80134,-3.34611 1.49785,-0.3917 1.78483,-1.1475 1.38511,-3.64795 -0.3245,-2.02994 0.4405,-5.64848 2.14666,-10.15389 1.45796,-3.85 3.04761,-8.575 3.53255,-10.5 1.31814,-5.23249 10.28482,-26.64958 15.57955,-37.21205 19.00268,-37.90852 46.82154,-75.85063 76.308667,-104.07732 25.84763,-24.74276 61.36575,-50.951125 81.94421,-60.465575 4.04279,-1.86918 9.74245,-4.92861 12.66591,-6.79872 2.92346,-1.87012 8.84072,-4.7551 13.14947,-6.41109 4.30875,-1.65598 11.88409,-5.00987 16.83409,-7.4531 15.25257,-7.52836 51.46476,-18.40042 76.69513,-23.02633 25.21374,-4.62286 41.90116,-5.98553 72.80487,-5.94514 38.18884,0.0499 54.10918,2.13649 88.5,11.59917 6.05,1.66467 12.67928,3.36152 14.73172,3.77079 2.05245,0.40927 4.4514,1.34141 5.331,2.07142 0.87961,0.73001 3.70034,1.66879 6.26829,2.08618 11.11917,1.8073 15.36684,2.96092 27.16899,7.37882 32.22356,12.06223 69.32482,33.10363 98.13682,55.65677 32.28797,25.274035 69.3631,65.019935 79.06902,84.764915 2.62863,5.34746 6.42767,10.92265 10.37087,15.21948 10.60477,11.55582 28.29591,47.57057 38.96466,79.32234 9.12372,27.15352 14.81664,50.69923 18.501,76.51944 2.22275,15.57718 2.41859,20.67968 0.81423,21.21447 -0.82866,0.27622 -0.77627,1.05613 0.19033,2.83333 1.57837,2.90199 2.48043,31.50824 1.022,32.4096 -0.56179,0.34721 -0.55994,1.83056 0.005,3.79948 1.22449,4.26954 1.17652,10.95489 -0.10276,14.31963 -0.566,1.48869 -1.22218,7.48049 -1.45819,13.3151 -0.23601,5.83462 -0.9276,13.75839 -1.53687,17.60839 -0.60928,3.85 -1.36185,9.15314 -1.67238,11.78475 -0.31663,2.68325 -1.27587,5.3185 -2.18404,6 -1.07018,0.80309 -1.67684,2.93435 -1.7887,6.28395 -0.12442,3.72575 -1.12429,6.80617 -3.77383,11.62641 -2.51988,4.58436 -3.84089,8.5207 -4.3899,13.08103 -0.62791,5.21567 -1.57531,7.67209 -4.72617,12.25395 -3.86007,5.61319 -3.93528,5.89166 -3.67018,13.58879 0.23927,6.94696 -0.14958,8.9901 -3.35336,17.61965 -6.4685,17.42322 -12.05823,28.43864 -28.23669,55.64472 -3.55953,5.98578 -7.53134,11.80443 -8.82624,12.93033 -1.2949,1.1259 -2.35436,2.7875 -2.35436,3.69244 0,0.90494 -1.16775,2.73629 -2.59501,4.06967 -1.42726,1.33337 -3.23882,3.66181 -4.02568,5.17431 -0.78687,1.5125 -2.12067,2.75 -2.96401,2.75 -0.84333,0 -1.25581,0.44904 -0.91661,0.99788 0.98334,1.59107 -10.01221,15.47593 -22.49869,28.41068 -7.747,8.02513 -19.49552,18.2633 -36,31.37197 -13.475,10.7025 -26.525,21.35456 -29,23.67123 -9.2124,8.62308 -41.66403,27.54517 -65.10825,37.96372 -33.02093,14.6744 -78.82938,27.12315 -108.89175,29.59204 -6.325,0.51945 -15.55,1.39726 -20.5,1.9507 -10.6627,1.19215 -50.27458,1.16433 -56,-0.0393 z m -17.77083,-4.52307 c -0.33229,-0.33229 -1.19479,-0.36781 -1.91667,-0.0789 -0.79773,0.31922 -0.56077,0.55618 0.60417,0.60416 1.05417,0.0434 1.64479,-0.19292 1.3125,-0.52522 z m 6.27083,-2.39583 c 0,-0.55 -0.47656,-1 -1.05902,-1 -0.58245,0 -0.7809,0.45 -0.44098,1 0.33992,0.55 0.81648,1 1.05902,1 0.24254,0 0.44098,-0.45 0.44098,-1 z m 75.5374,-43.45889 c 2.77057,-0.0882 5.69557,-0.58125 6.5,-1.09575 0.80443,-0.51451 4.6126,-1.2132 8.4626,-1.55266 23.16236,-2.04224 65.39835,-15.54643 98.2174,-31.40323 38.93488,-18.81171 66.00284,-38.11381 94.82159,-67.61704 31.67035,-32.42257 54.36324,-68.61452 71.71751,-114.37929 22.07494,-58.21359 27.92657,-112.93238 18.21047,-170.28676 -12.21609,-72.11184 -44.24817,-134.93339 -94.45614,-185.24805 -33.3031,-33.37388 -67.49978,-56.25902 -113.01083,-75.629245 -21.50518,-9.15295 -51.22629,-17.20862 -78.5,-21.27679 -62.33944,-9.29863 -123.26193,-1.5892 -181.70665,22.99403 C 146.64478,145.48791 68.179393,257.14342 61.106533,387.70175 c -4.01457,74.10519 20.2137,154.45496 64.613987,214.28355 16.14778,21.75884 41.38157,48.08449 61.95408,64.63483 55.48834,44.63969 118.61772,68.82556 194.88603,74.66393 4.10831,0.3145 30.01255,-0.0998 54.0374,-0.86422 z m -63.0374,-20.23455 c -19.43801,-1.02138 -47.91674,-5.82219 -67.93702,-11.4525 -69.12937,-19.44127 -133.07447,-65.57544 -173.74925,-125.35406 -11.06703,-16.26492 -15.21134,-23.50238 -14.09637,-24.61736 0.52723,-0.52723 6.54401,-2.11144 13.37062,-3.52046 6.82661,-1.40902 13.19952,-2.98276 14.16202,-3.4972 1.63318,-0.87291 1.75,-4.50428 1.75,-54.40016 0,-30.00327 0.38509,-53.46482 0.87756,-53.46482 1.94556,0 0.53962,-3.04533 24.01529,52.01809 6.45261,15.13494 13.05393,29.97228 14.66959,32.97185 3.84776,7.14361 8.12523,10.01006 14.93753,10.01006 6.39562,0 25.34737,-4.62776 27.77708,-6.78279 1.56616,-1.3891 1.74418,-3.18662 1.5,-15.14668 -0.23452,-11.48741 -0.5073,-13.50891 -1.77705,-13.16909 -0.825,0.2208 -3.3724,1.04844 -5.66089,1.8392 -3.71879,1.285 -4.53403,1.2607 -7.67273,-0.22871 -4.13616,-1.96274 -3.02849,0.26391 -19.0671,-38.32878 -7.39812,-17.80164 -12.59928,-31.66911 -12.59928,-33.59256 0,-1.80163 2.88352,-11.10905 6.40782,-20.68314 3.5243,-9.5741 11.67444,-31.71982 18.11141,-49.21271 6.43697,-17.49289 11.45123,-32.05761 11.1428,-32.36605 -0.51467,-0.51467 -20.31799,3.39975 -28.74923,5.68272 -1.97295,0.53423 -4.36862,1.83479 -5.3237,2.89014 -0.95508,1.05535 -9.33597,22.94187 -18.6242,48.63669 -9.28822,25.69483 -17.07008,46.90028 -17.29303,47.12322 -0.97899,0.97899 -1.69631,-11.76202 -2.73964,-48.66146 -0.61427,-21.725 -1.46126,-39.86344 -1.88218,-40.30764 -0.42093,-0.4442 -4.31689,0.0863 -8.65769,1.17878 -4.3408,1.09252 -10.04612,2.29699 -12.67849,2.6766 -9.30363,1.34164 -8.51152,-4.43152 -9.1177,66.45226 -0.29397,34.375 -0.54837,78.90893 -0.56533,98.96429 -0.0256,30.27852 -0.25478,36.21588 -1.35093,35 -1.93639,-2.1479 -11.88106,-23.93175 -16.110957,-35.29113 -7.61787,-20.45779 -13.85382,-45.73546 -17.18824,-69.67316 -2.16562,-15.54693 -2.46554,-58.37533 -0.51471,-73.5 4.76318,-36.92865 14.35412,-69.78147 29.485597,-101 29.40472,-60.66638 78.87494,-111.23271 138.99503,-142.07473 21.6523,-11.10778 33.19167,-15.71902 37.38785,-14.94054 2.62901,0.48775 4.5009,-0.16444 10,-3.48412 7.55739,-4.56222 11.4371,-5.8505 28.76552,-9.55176 23.21992,-4.959645 36.97219,-6.583255 60.67041,-7.162805 32.61412,-0.7976 57.131,1.8122 86.86269,9.246455 71.3604,17.84328 137.37254,62.89799 179.42696,122.46278 l 6.70394,9.49528 -3.30466,1.34844 c -1.81756,0.74165 -5.34196,1.37527 -7.832,1.40806 -2.92129,0.0385 -6.56712,1.09222 -10.27734,2.97046 -4.95168,2.5067 -5.75,3.3022 -5.75,5.72968 0,1.55037 -2.21555,21.65899 -4.92345,44.68582 -2.70791,23.02684 -5.73719,48.98415 -6.73174,57.68292 -1.65698,14.49261 -2.56784,18.91898 -3.63306,17.6551 -0.21836,-0.25907 -2.75412,-14.19604 -5.63503,-30.97104 -2.88091,-16.775 -7.00078,-40.625 -9.15527,-53 -2.15448,-12.375 -3.91819,-23.68765 -3.91935,-25.13922 -10e-4,-1.45156 -0.85078,-3.68729 -1.88806,-4.96827 -1.77556,-2.19273 -2.17069,-2.26188 -6.75,-1.18137 -2.67522,0.63123 -8.10787,1.89835 -12.07256,2.81583 -3.96468,0.91748 -7.6467,2.19611 -8.18225,2.84142 -0.53556,0.64531 -2.59235,12.86391 -4.57065,27.15245 -10.92398,78.89988 -13.18692,94.46084 -13.83052,95.10444 -0.38943,0.38943 -0.95903,0.45709 -1.26576,0.15035 -0.55322,-0.55322 -7.63995,-43.2193 -8.932,-53.77563 -0.37025,-3.025 -1.96856,-13.375 -3.55182,-23 -1.58325,-9.625 -3.40762,-21.55 -4.05416,-26.5 -0.64653,-4.95 -1.67699,-9.54083 -2.28991,-10.20185 -2.84767,-3.0711 -30.61441,2.69542 -30.61441,6.35792 0,2.25986 35.1355,194.75416 35.72087,195.7013 0.61141,0.98928 3.83085,0.57595 17.125,-2.19859 5.14023,-1.07279 9.76078,-2.36543 10.26789,-2.87254 1.22162,-1.22162 1.64496,-3.93535 10.41845,-66.78624 4.14589,-29.7 8.05744,-55.73431 8.69234,-57.85401 1.09435,-3.65368 1.20025,-3.73165 2.03728,-1.5 1.05145,2.80332 8.77145,43.81573 15.75871,83.71793 2.75795,15.74984 5.25463,29.70628 5.54819,31.0143 0.51512,2.29525 0.78488,2.36058 7.7325,1.87257 8.10336,-0.56918 19.90624,-5.24309 21.1007,-8.35582 0.38456,-1.00213 2.25236,-12.63846 4.15067,-25.85851 1.89832,-13.22005 4.09812,-27.18646 4.88844,-31.03646 0.79033,-3.85 1.70354,-11.13553 2.02937,-16.19007 0.32582,-5.05453 1.44141,-14.50453 2.47908,-21 1.03768,-6.49546 4.69092,-32.05993 8.11831,-56.80993 3.4274,-24.75 6.66936,-45.5625 7.20436,-46.25 1.57147,-2.0194 3.4795,-1.44719 5.00178,1.5 0.78123,1.5125 3.9418,7.475 7.02348,13.25 11.91038,22.31978 24.70258,56.43732 24.70258,65.88322 0,3.02829 0.54683,5.32572 1.44506,6.07118 2.04515,1.69733 3.32573,9.50253 4.02712,24.5456 0.33337,7.15 1.07604,16.6 1.65039,21 0.57435,4.4 1.22821,12.95 1.45303,19 0.22482,6.05 0.46975,11.45 0.54429,12 0.0745,0.55 -0.34975,4.375 -0.94287,8.5 -0.59312,4.125 -1.55982,15.6 -2.14824,25.5 -1.03457,17.40661 -2.27334,24.98402 -7.52018,46 -1.23582,4.95 -2.77896,11.25 -3.42921,14 -3.1577,13.35435 -18.11688,45.38517 -30.52957,65.3704 -12.02901,19.36747 -35.32365,48.18531 -50.65692,62.66777 -23.0107,21.73388 -51.61744,41.70405 -77.3929,54.02746 -52.28606,24.99829 -104.86439,35.69061 -161,32.74093 z m 66.5,-37.30656 c 0,-0.55 -0.45,-1 -1,-1 -0.55,0 -1,0.45 -1,1 0,0.55 0.45,1 1,1 0.55,0 1,-0.45 1,-1 z m -69,-27 c 0,-0.55 -0.47656,-1 -1.05902,-1 -0.58245,0 -0.7809,0.45 -0.44098,1 0.33992,0.55 0.81648,1 1.05902,1 0.24254,0 0.44098,-0.45 0.44098,-1 z m 101,-49 c 0,-0.55 -0.47656,-1 -1.05902,-1 -0.58245,0 -0.7809,0.45 -0.44098,1 0.33992,0.55 0.81648,1 1.05902,1 0.24254,0 0.44098,-0.45 0.44098,-1 z m -258.5,-31 c -0.33992,-0.55 -1.04147,-1 -1.55902,-1 -0.51754,0 -0.94098,0.45 -0.94098,1 0,0.55 0.70156,1 1.55902,1 0.85746,0 1.2809,-0.45 0.94098,-1 z m 137.68334,-19.21667 c -0.71757,-0.71756 -1.18334,-0.7766 -1.18334,-0.15 0,1.33478 1.18261,2.51739 1.85,1.85 0.28417,-0.28416 -0.0158,-1.04916 -0.66666,-1.7 z m -190.18334,0.21667 c 0,-0.55 -0.45,-1 -1,-1 -0.55,0 -1,0.45 -1,1 0,0.55 0.45,1 1,1 0.55,0 1,-0.45 1,-1 z m 127.68312,-18.1875 c -0.31923,-0.79773 -0.55619,-0.56078 -0.60417,0.60417 -0.0434,1.05416 0.19293,1.64479 0.52522,1.3125 0.33229,-0.33229 0.36782,-1.19479 0.079,-1.91667 z m 7.50151,-16.31557 c 15.20162,-3.12343 29.72136,-12.57798 37.96949,-24.72388 9.15202,-13.47695 11.84588,-24.15822 11.84588,-46.96943 v -15.02044 l -2.47421,0.62099 c -1.36082,0.34155 -7.6833,1.51153 -14.04996,2.59996 -6.36666,1.08844 -12.4748,2.46014 -13.57365,3.04822 -2.60635,1.39488 -3.90091,4.96059 -3.90751,10.76275 -0.008,6.63939 -3.70452,27.72314 -5.45459,31.1074 -1.83289,3.54442 -6.90052,7.87888 -10.17138,8.69981 -1.36243,0.34195 -4.78665,0.39982 -7.60936,0.12859 -5.76667,-0.55411 -8.9594,-3.26987 -8.02861,-6.82922 0.31011,-1.18585 -0.36933,-3.71319 -1.57489,-5.8582 -2.11946,-3.77107 -2.12,-3.79632 -1.35363,-63.66802 0.74654,-58.32244 0.82231,-60.00051 2.88492,-63.89546 3.88309,-7.33269 10.49053,-11.5 18.2337,-11.5 5.71487,0 8.93181,1.81833 11.406,6.44706 1.90531,3.56446 2.16757,5.64059 2.17598,17.2258 0.005,7.24507 0.337,13.50028 0.73719,13.90048 0.4002,0.40019 3.99741,-0.23659 7.99381,-1.41506 3.99641,-1.17847 9.70024,-2.59811 12.67518,-3.15474 2.97494,-0.55664 7.19751,-1.49367 9.38348,-2.08229 l 3.9745,-1.07022 -0.55962,-14.67552 c -0.3428,-8.98947 -1.15788,-16.53912 -2.10369,-19.48544 -3.9775,-12.39033 -11.27483,-20.83987 -21.45656,-24.84442 -7.10428,-2.79416 -21.94773,-3.11563 -29.6471,-0.64206 -10.08761,3.24083 -19.61459,7.66867 -24.47481,11.37513 -11.43553,8.72084 -21.06459,24.74946 -23.47188,39.0715 -1.63717,9.74025 -2.97583,120.47981 -1.5748,130.27452 1.92372,13.44891 12.25069,27.23662 22.84121,30.49568 6.19848,1.90748 20.27515,1.94416 29.36491,0.0765 z m 94.85003,-21.40754 c 3.00594,-1.05084 7.62514,-2.23028 10.26489,-2.62097 8.04652,-1.19094 7.69975,0.39711 7.70603,-35.28985 0.003,-18.40313 0.43211,-33.21424 1.0234,-35.34307 0.69756,-2.51147 0.68656,-5.14261 -0.0349,-8.36215 -0.76825,-3.42809 -0.74462,-5.06894 0.0874,-6.0715 1.41392,-1.70367 14.12902,-5.61158 15.04254,-4.62324 0.36673,0.39677 2.77114,6.57139 5.34314,13.72139 8.49968,23.62855 18.83264,48.72394 21.95629,53.32467 4.7885,7.05283 7.65482,8.69709 14.90671,8.55124 6.49348,-0.1306 21.067,-3.49568 25.84928,-5.96869 l 2.82058,-1.45858 v -13.97432 c 0,-7.68588 -0.32245,-13.97432 -0.71657,-13.97432 -0.39411,0 -2.6247,0.72872 -4.95686,1.61938 -5.9699,2.27993 -10.57911,1.22714 -13.94444,-3.18503 -1.70668,-2.23757 -5.46639,-12.12643 -10.51905,-27.66739 -4.32469,-13.30187 -7.86308,-24.70683 -7.86308,-25.34436 0,-0.63752 3.07492,-4.25854 6.83316,-8.04671 5.78343,-5.82948 7.32124,-8.15321 10.01033,-15.12626 6.64705,-17.23639 8.47466,-33.43241 5.76615,-51.09901 -1.96789,-12.83584 -5.39268,-20.77414 -11.3194,-26.23721 -6.63197,-6.11313 -12.11883,-8.15767 -23.29024,-8.6785 -8.45564,-0.39421 -12.2483,0.10908 -34.5,4.57821 -13.75,2.76162 -26.94383,5.32826 -29.31963,5.70366 -2.37579,0.3754 -4.53172,1.23524 -4.79094,1.91077 -0.83526,2.17666 -1.09183,18.36732 -1.78784,112.82245 l -0.68345,92.75 h 5.32559 c 2.92907,0 7.78499,-0.85977 10.79093,-1.91061 z m 19.45252,-120.2622 c -0.28447,-0.74132 -0.39796,-15.04927 -0.2522,-31.79544 l 0.26502,-30.44759 8.5,-1.74634 c 4.675,-0.96049 10.34595,-1.76693 12.60212,-1.79208 5.41946,-0.0604 10.27337,3.2342 13.14788,8.92422 1.93282,3.82596 2.24755,6.00987 2.23264,15.49193 -0.03,19.06413 -3.12577,28.25609 -11.62038,34.50309 -6.66699,4.90296 -23.81195,9.63269 -24.87508,6.86221 z m 11.01282,116.17281 c 0.33992,-0.55 0.14148,-1 -0.44098,-1 -0.58246,0 -1.05902,0.45 -1.05902,1 0,0.55 0.19844,1 0.44098,1 0.24255,0 0.7191,-0.45 1.05902,-1 z m -62.5,-23 c 0,-0.55 -0.45,-1 -1,-1 -0.55,0 -1,0.45 -1,1 0,0.55 0.45,1 1,1 0.55,0 1,-0.45 1,-1 z m -6,-58 c 0,-0.55 -0.19844,-1 -0.44098,-1 -0.24254,0 -0.7191,0.45 -1.05902,1 -0.33992,0.55 -0.14147,1 0.44098,1 0.58246,0 1.05902,-0.45 1.05902,-1 z m -253.316877,-3.1875 c -0.31923,-0.79773 -0.55619,-0.56078 -0.60417,0.60417 -0.0434,1.05416 0.19293,1.64479 0.52522,1.3125 0.33229,-0.33229 0.367817,-1.19479 0.079,-1.91667 z m 191.316877,-3.25348 c 0,-0.24254 -0.45,-0.7191 -1,-1.05902 -0.55,-0.33992 -1,-0.14148 -1,0.44098 0,0.58246 0.45,1.05902 1,1.05902 0.55,0 1,-0.19844 1,-0.44098 z M 94.743753,328.69123 c -0.31923,-0.79773 -0.55619,-0.56078 -0.60417,0.60417 -0.0434,1.05416 0.19293,1.64479 0.52522,1.3125 0.33229,-0.33229 0.36782,-1.19479 0.079,-1.91667 z m 110.816877,-2.8125 c 0.33992,-0.55 0.14148,-1 -0.44098,-1 -0.58246,0 -1.05902,0.45 -1.05902,1 0,0.55 0.19844,1 0.44098,1 0.24255,0 0.7191,-0.45 1.05902,-1 z m 6.5,-13 c 0,-0.55 -0.45,-1 -1,-1 -0.55,0 -1,0.45 -1,1 0,0.55 0.45,1 1,1 0.55,0 1,-0.45 1,-1 z m 56,-0.55902 c 0,-0.85746 -0.45,-1.2809 -1,-0.94098 -0.55,0.33992 -1,1.04148 -1,1.55902 0,0.51754 0.45,0.94098 1,0.94098 0.55,0 1,-0.70156 1,-1.55902 z m -81.4192,-6.19351 c -1.15374,-1.15374 -1.74564,0.65318 -0.95886,2.92717 l 0.80455,2.32536 0.36756,-2.33586 c 0.20216,-1.28473 0.1062,-2.59723 -0.21325,-2.91667 z m 162.4192,-29.68845 c 0,-0.24254 -0.45,-0.7191 -1,-1.05902 -0.55,-0.33992 -1,-0.14148 -1,0.44098 0,0.58246 0.45,1.05902 1,1.05902 0.55,0 1,-0.19844 1,-0.44098 z M 222.74375,208.69123 c -0.31923,-0.79773 -0.55619,-0.56078 -0.60417,0.60417 -0.0434,1.05416 0.19293,1.64479 0.52522,1.3125 0.33229,-0.33229 0.36782,-1.19479 0.0789,-1.91667 z m 58.31688,-8.87152 c 0,-0.51754 -0.45,-0.94098 -1,-0.94098 -0.55,0 -1,0.70156 -1,1.55902 0,0.85746 0.45,1.2809 1,0.94098 0.55,-0.33992 1,-1.04148 1,-1.55902 z m -55,-13.94098 c 0,-0.55 -0.45,-1 -1,-1 -0.55,0 -1,0.45 -1,1 0,0.55 0.45,1 1,1 0.55,0 1,-0.45 1,-1 z m 95.68312,-8.1875 c -0.31923,-0.79773 -0.55619,-0.56078 -0.60417,0.60417 -0.0434,1.05416 0.19293,1.64479 0.52522,1.3125 0.33229,-0.33229 0.36782,-1.19479 0.079,-1.91667 z m -56.68312,-40.3125 c 0,-0.825 -0.45,-1.5 -1,-1.5 -0.55,0 -1,0.675 -1,1.5 0,0.825 0.45,1.5 1,1.5 0.55,0 1,-0.675 1,-1.5 z m 60,-15.05902 c 0,-0.85746 -0.45,-1.2809 -1,-0.94098 -0.55,0.33992 -1,1.04148 -1,1.55902 0,0.51754 0.45,0.94098 1,0.94098 0.55,0 1,-0.70156 1,-1.55902 z m -57,595.55902 c 0,-0.55 -0.45,-1 -1,-1 -0.55,0 -1,0.45 -1,1 0,0.55 0.45,1 1,1 0.55,0 1,-0.45 1,-1 z m -118,-40.11803 c 0,-1.1 -0.45,-1.72189 -1,-1.38197 -0.55,0.33992 -1,1.51803 -1,2.61803 0,1.1 0.45,1.72189 1,1.38197 0.55,-0.33992 1,-1.51803 1,-2.61803 z m -29,-14.94099 c 0,-0.51754 -0.45,-0.94098 -1,-0.94098 -0.55,0 -1,0.70156 -1,1.55902 0,0.85746 0.45,1.2809 1,0.94098 0.55,-0.33992 1,-1.04148 1,-1.55902 z m 43,-3.5 c 0,-0.85746 -0.45,-1.2809 -1,-0.94098 -0.55,0.33992 -1,1.04148 -1,1.55902 0,0.51754 0.45,0.94098 1,0.94098 0.55,0 1,-0.70156 1,-1.55902 z m 536,-8.5 c 0,-0.51754 -0.45,-0.94098 -1,-0.94098 -0.55,0 -1,0.70156 -1,1.55902 0,0.85746 0.45,1.2809 1,0.94098 0.55,-0.33992 1,-1.04148 1,-1.55902 z m -639.999997,-104.5 c 0,-0.85746 -0.45734,-1.27636 -1.01631,-0.9309 -0.55897,0.34547 -0.75741,1.04702 -0.44098,1.55902 0.85724,1.38704 1.45729,1.12841 1.45729,-0.62812 z m -4.925,-12.71598 c -0.12369,-1.1957 -1.49529,-0.96413 -1.925,0.325 -0.22,0.66 0.14,1.02 0.8,0.8 0.66,-0.22 1.16625,-0.72625 1.125,-1.125 z m 10.90969,-17.53402 c -0.0132,-1.45727 -0.14929,-1.48367 -0.98469,-0.19098 -1.2656,1.95837 -1.2656,3.28218 0,2.5 0.55,-0.33992 0.99311,-1.37898 0.98469,-2.30902 z m -17.98469,-33.19098 c 0,-0.55 -0.45,-1 -1,-1 -0.55,0 -1,0.45 -1,1 0,0.55 0.45,1 1,1 0.55,0 1,-0.45 1,-1 z m -25,-134.55902 c 0,-0.85746 -0.45734,-1.27636 -1.01631,-0.9309 -0.55897,0.34547 -0.75741,1.04702 -0.44098,1.55902 0.85724,1.38704 1.45729,1.12841 1.45729,-0.62812 z m 102.999997,-204 c 0,-0.85746 -0.45734,-1.27636 -1.01631,-0.9309 -0.55897,0.34547 -0.75741,1.04702 -0.44098,1.55902 0.85724,1.38704 1.45729,1.12841 1.45729,-0.62812 z m 70,-19.94098 c 0,-1.375 -0.17254,-2.5 -0.38342,-2.5 -0.21088,0 -0.59848,1.125 -0.86133,2.5 -0.26285,1.375 -0.0903,2.5 0.38342,2.5 0.47373,0 0.86133,-1.125 0.86133,-2.5 z m 338.9682,-41.872445 c 0.0175,-0.47985 -0.6432,-0.31225 -1.4682,0.37244 -0.825,0.68469 -1.5,1.9508 -1.5,2.81358 0,1.25579 0.29285,1.1815 1.4682,-0.37245 0.80751,-1.06762 1.48251,-2.33373 1.5,-2.81357 z m -213.9682,-13.74559 c 0,-0.55 -0.45,-0.72189 -1,-0.38197 -0.55,0.33992 -1,1.06803 -1,1.61803 0,0.55 0.45,0.72189 1,0.38197 0.55,-0.33992 1,-1.06803 1,-1.61803 z m -54.53289,-18.74819 c -0.94145,-0.94145 -2.33028,2.05923 -1.70602,3.68601 0.43925,1.14466 0.77859,0.95361 1.42896,-0.8045 0.46911,-1.26811 0.59378,-2.56479 0.27706,-2.88151 z"
       id="path1" />
  </g>
</svg>
