<svg xmlns="http://www.w3.org/2000/svg" xmlns:xlink="http://www.w3.org/1999/xlink" version="1.1" id="Logo" x="0px" y="0px" style="enable-background:new 0 0 530 200;" xml:space="preserve" viewBox="96.4 33 339.5 134.5">
<style type="text/css">
	.st0{fill:#FFFFFF;}
	.st1{fill:#023B7E;}
	.st2{fill:#00A0D5;}
</style><style class="darkreader darkreader--sync" media="screen"/>
<g>
	<path class="st0" d="M432.2,90.7c-2-2.7-8.4-10.7-23.2-27.5c-9.2-10.4-17.5-19.6-23.5-26l-0.2-0.3c-2.5-2.6-5.6-3.9-9.2-3.9   c-3.7,0-6.8,1.3-9.2,3.9c-2.8,2.9-10.4,11.2-23.8,26.3c-3.5,4-6.5,7.4-9.1,10.5H106.1c-5.4,0-9.7,4.2-9.7,9.3v35.8   c0,5.1,4.4,9.3,9.7,9.3H335c2.4,2.7,5,5.8,8,9.2c13.8,15.7,21.7,24,23.7,26.2c2.5,2.7,5.6,4,9.3,4c3.7,0,6.8-1.3,9.2-3.9l0.2-0.2   c3.5-3.7,11.1-11.9,23.5-26.1c14.8-16.8,21.2-24.8,23.2-27.5c1.4-1.9,3.8-5,3.8-9.5C436,95.7,433.7,92.6,432.2,90.7z"/>
	<path class="st1" d="M99.9,82.9v35.8c0,3.2,2.8,5.8,6.2,5.8h50V77.1h-50C102.7,77.1,99.9,79.7,99.9,82.9z"/>
	<g>
		<path class="st0" d="M139,100.8c3.7-1.3,6.3-4.2,6.3-8.6c0-1.1-0.6-3.8-2.6-5.5c-1.3-1.1-3.3-2.5-9.5-2.6c-1.3,0-5.2,0.1-5.2,0.1    v0.2c1.1,0.8,2.3,2.2,2.9,3.8c0.6,0,1.5-0.1,2.4,0c2.5,0.1,3.6,0.6,4.7,1.5c1.1,0.9,1.7,2.4,1.7,3.8c0,1.9-0.9,3.8-3.6,4.9    c-2.2,0.9-4.9,1.1-4.9,1.1v0.7c0,0,1.6,0.8,3.2,2.9c1.4,1.8,9.3,13.5,9.3,13.5h6.6C150.4,116.6,139.8,101.8,139,100.8z"/>
		<g>
			<g>
				<path class="st0" d="M124.5,99.1c2.5-1.5,4.2-3.7,4.2-7c0-3.5-2.1-8.1-10.8-8.1c-4.2,0-8.9,0.2-8.9,0.2v32.4h7.4      c9.5,0,14.5-3.5,14.5-10.1C130.9,102.6,128.4,100,124.5,99.1z M117.9,112.1c0,0-3.1,0-3.7,0V88.2c0,0,1.7,0,2.7,0      c4.1,0,6.4,2.1,6.5,5c0,1.8-0.5,3.5-2.3,4.7c-1.5,1-3.5,1.3-3.5,1.3v0.8c0,0,2.9,0.4,4.3,1.1c2.7,1.3,3.5,3.2,3.5,5.7      C125.4,110.9,121.5,112.1,117.9,112.1z"/>
			</g>
		</g>
	</g>
	<path class="st1" d="M159.5,124.5H332c-7.2-8.4-10.8-13-12.2-14.8c-1.4-1.9-3.8-5-3.8-9.5s2.4-7.6,3.8-9.5   c1.3-1.8,4.6-5.9,11.1-13.6H159.5V124.5z"/>
	<g>
		<path class="st0" d="M183.6,111.9c-1.6,0-4.3,0-7.4-0.1V89c2.2,0,5.4-0.1,8.4-0.1c5.9,0,8.3,2.2,8.3,5.6c0,2.3-1.4,4.2-3.7,5.1    l0,0c2.8,0.7,4.1,2.7,4.1,5.1C193.2,108,191.2,111.9,183.6,111.9z M183.7,92.3c-0.9,0-1.9,0-2.7,0v6.2c0.7,0,1.5,0,1.8,0    c3.1,0,5.1-1.1,5.1-3.4C187.8,93.5,186.9,92.3,183.7,92.3z M183,101.6c-0.5,0-1.4,0-2,0v6.7c0.7,0.1,1.6,0.2,2.7,0.2    c3.2,0,4.6-1.5,4.6-3.6C188.2,102.5,186.1,101.6,183,101.6z"/>
		<path class="st0" d="M212.6,111.9l-1.6-4.4h-9.5l-1.7,4.4h-4.7l8.6-22.8h5.6l8.6,22.8C217.9,111.9,212.6,111.9,212.6,111.9z     M207.4,97.6c-0.4-1.2-0.9-2.5-1.2-3.6l0,0c-0.3,1.1-0.7,2.4-1.1,3.6l-2.5,6.4h7.2L207.4,97.6z"/>
		<path class="st0" d="M228.8,104.2v7.6H224v-7.6L216,89h5.2l3.4,6.5c0.7,1.3,1.3,2.7,1.8,4.2l0,0c0.6-1.6,1.4-3.1,2.1-4.4l3.3-6.3    h4.9L228.8,104.2z"/>
		<path class="st0" d="M239.8,111.9V89h13.4v3.7h-8.7v5.6h8.3v3.6h-8.3v6.1h8.7v3.8h-13.4V111.9z"/>
		<path class="st0" d="M270.4,111.9l-6.5-9.4h-0.2v9.4H259V89c1.7-0.1,4.7-0.1,7.5-0.1c5.4,0,8.6,2.1,8.6,6.3c0,3.7-2.6,6-6.2,6.5    c0.5,0.6,1.1,1.5,1.8,2.5l5.7,7.6L270.4,111.9L270.4,111.9z M265.7,92.6c-0.8,0-1.4,0-2,0.1v6.6c0.7,0,1.5,0.1,2.2,0.1    c2.5,0,4.1-1.4,4.1-3.6C270,93.7,268.4,92.6,265.7,92.6z"/>
		<path class="st0" d="M295.1,111.9l-7.9-12.4c-0.9-1.4-1.7-3-2.3-4.3l0,0c0.1,1.3,0.1,2.7,0.1,4.8v11.9h-4.6V89h6.3l7.7,12.2    c0.9,1.4,1.8,2.9,2.5,4.5l0,0c-0.1-1.4-0.1-3.6-0.1-6.6v-10h4.6v22.8C301.4,111.9,295.1,111.9,295.1,111.9z"/>
	</g>
	<path class="st2" d="M429.5,107.6c1.3-1.7,3.1-4.1,3.1-7.4s-1.8-5.7-3.1-7.4c-2-2.6-8.3-10.6-23.1-27.3   c-9.1-10.4-17.5-19.6-23.4-25.9c0,0-0.2-0.3-0.2-0.2c-0.7-0.7-2.7-2.8-6.7-2.8s-6,2.1-6.8,2.9c-2.7,2.8-10.3,11-23.6,26.1   c-14.9,16.9-21.1,24.8-23.1,27.3c-1.3,1.7-3.1,4.1-3.1,7.4s1.8,5.7,3.1,7.4c2,2.6,8.2,10.5,23.1,27.3c13.8,15.7,21.6,24,23.7,26.2   c0.7,0.7,2.7,2.8,6.7,2.8s6-2.1,6.7-2.8l0.2-0.2c3.4-3.7,11.1-11.9,23.5-26C421.1,118.2,427.4,110.3,429.5,107.6z"/>
</g>
<path class="st0" d="M383.6,68.6c-0.9,0-3.2,0.4-5.3,0.7c-4,0.7-16.4,2.9-16.4,2.9l0.5,11.3l9.6-0.2l-6.2,51l16,0.2l7.1-58.7  C388.9,75.8,389.8,68.6,383.6,68.6z"/>
</svg>