<?xml version="1.0" encoding="UTF-8" standalone="no"?>
<!-- Created with Inkscape (http://www.inkscape.org/) -->

<svg
   width="224.21327mm"
   height="69.84536mm"
   viewBox="0 0 224.21327 69.845362"
   version="1.1"
   id="svg1"
   xml:space="preserve"
   inkscape:version="1.4.3 (0d15f75042, 2025-12-25)"
   sodipodi:docname="logo_nostalgie.svg"
   xmlns:inkscape="http://www.inkscape.org/namespaces/inkscape"
   xmlns:sodipodi="http://sodipodi.sourceforge.net/DTD/sodipodi-0.dtd"
   xmlns="http://www.w3.org/2000/svg"
   xmlns:svg="http://www.w3.org/2000/svg"><sodipodi:namedview
     id="namedview1"
     pagecolor="#ffffff"
     bordercolor="#000000"
     borderopacity="0.25"
     inkscape:showpageshadow="2"
     inkscape:pageopacity="0.0"
     inkscape:pagecheckerboard="0"
     inkscape:deskcolor="#d1d1d1"
     inkscape:document-units="mm"
     inkscape:zoom="0.15685739"
     inkscape:cx="0"
     inkscape:cy="168.94327"
     inkscape:window-width="1920"
     inkscape:window-height="1131"
     inkscape:window-x="0"
     inkscape:window-y="0"
     inkscape:window-maximized="1"
     inkscape:current-layer="g24" /><defs
     id="defs1" /><g
     inkscape:label="Layer 1"
     inkscape:groupmode="layer"
     id="layer1"
     transform="translate(-0.7224082,-112.2865)"><g
       id="g24"
       transform="translate(-1.3556171,9.3770326)"><path
         style="fill:#c48719;fill-opacity:1;stroke-width:0.999999"
         d="m 22.964655,156.34078 -10.11648,-16.41403 -0.0157,13.10575 -0.0157,13.10575 -5.3693797,-0.0159 -5.36937,-0.0159 v -26.38644 -26.38642 l 4.66762,-2.73349 c 2.56719,-1.50342 4.6838197,-2.73349 4.7036097,-2.73349 0.0198,0 2.54182,6.59848 5.60451,14.6633 l 5.56851,14.6633 0.0311,-15.42472 0.0311,-15.42472 5.1957,-1.72622 c 2.85764,-0.94942 5.20391,-1.71801 5.21394,-1.70799 0.01,0.01 0.0112,15.72932 0.003,34.93175 l -0.0156,34.91351 z m 163.672235,10.46366 -3.7634,-4.21119 -0.3477,0.66712 c -0.89921,1.72528 -1.98836,2.88015 -3.33589,3.53719 l -0.56474,0.27536 -0.61811,0.16175 -0.61811,0.16174 -0.99835,0.032 -0.99835,0.032 -0.62029,-0.0984 c -2.08676,-0.33111 -3.878,-1.27529 -5.50963,-2.90418 l -0.71824,-0.71703 -0.39289,-0.58906 c -1.3322,-1.99736 -1.89469,-3.89197 -2.13548,-7.19285 l -0.0817,-1.1206 v -14.78563 -14.78564 l 0.0807,-1.18285 c 0.29257,-4.2863 0.67392,-5.80704 1.88898,-7.53289 l 0.39447,-0.5603 0.90346,-0.90346 0.90346,-0.90346 0.5592,-0.39296 c 1.4317,-1.00609 2.94506,-1.58638 4.91927,-1.8863 l 0.87157,-0.13241 1.33849,-7.1e-4 1.33849,-7e-4 0.77819,0.10448 c 2.5361,0.3405 4.39596,1.08144 6.15579,2.45233 3.04506,2.37208 4.06907,5.00444 4.29937,11.05208 0.0315,0.82822 0.0383,1.52439 0.015,1.54704 -0.032,0.0312 -9.67449,1.91985 -9.8015,1.91985 -0.0143,0 -0.045,-1.36573 -0.0683,-3.03495 -0.058,-4.15378 -0.15327,-5.29757 -0.49743,-5.97032 -0.1981,-0.38725 -0.54956,-0.72471 -0.94339,-0.90581 l -0.31127,-0.14315 h -0.62256 -0.62255 l -0.35371,0.1737 c -0.87948,0.43189 -1.16016,1.1435 -1.29722,3.28886 l -0.0691,1.08207 0.0222,16.96457 0.0222,16.96457 0.10304,0.65369 c 0.22733,1.4422 0.55337,1.99983 1.38923,2.376 l 0.30785,0.13854 0.56029,-0.003 0.5603,-0.003 0.26527,-0.0996 c 0.1459,-0.0548 0.38766,-0.18384 0.53725,-0.28676 l 0.27197,-0.18713 0.22061,-0.33236 c 0.42629,-0.64223 0.61931,-1.51406 0.7269,-3.28331 l 0.0624,-1.02667 4.7e-4,-4.06216 4.7e-4,-4.06216 h -1.12117 -1.12117 l 0.0161,-3.12686 0.0161,-3.12686 5.852,-1.28642 c 3.2186,-0.70752 5.87306,-1.26703 5.89881,-1.24334 0.0257,0.0237 0.0397,7.39351 0.0311,16.37737 l -0.0157,16.3343 z m -111.377775,0.47752 c -4.23887,-0.56997 -7.7456,-3.17381 -8.92386,-6.62617 -0.65561,-1.92097 -1.17137,-6.00622 -1.08796,-8.61743 l 0.0198,-0.62092 4.389,-1.60583 c 2.41395,-0.8832 4.45203,-1.62237 4.52907,-1.64258 l 0.14008,-0.0367 5e-5,3.69538 5e-5,3.69537 0.0648,0.68481 c 0.0887,0.93798 0.21147,1.48715 0.4333,1.93878 l 0.18783,0.38239 0.25651,0.23175 c 0.14108,0.12745 0.41396,0.30461 0.60639,0.39368 l 0.34987,0.16193 0.62376,0.002 0.62376,0.002 0.41108,-0.20232 0.41109,-0.20233 0.24751,-0.26852 c 0.49454,-0.53651 0.79781,-1.26415 0.99342,-2.38348 l 0.10772,-0.61641 -0.004,-1.71202 -0.004,-1.71202 -0.0741,-0.74707 c -0.14862,-1.49744 -0.43832,-2.76878 -0.78916,-3.46312 -0.48813,-0.96605 -2.12701,-2.59493 -5.69191,-5.65714 -2.06065,-1.77008 -3.11364,-2.72888 -4.23336,-3.85465 l -1.02721,-1.03278 -0.37948,-0.56018 c -1.57833,-2.32992 -2.34181,-5.1311 -2.51616,-9.23169 l -0.0605,-1.42159 0.061,-1.67702 c 0.19346,-5.31578 0.92683,-7.83702 2.87971,-9.90011 1.68874,-1.78403 3.92225,-2.81232 6.82548,-3.14239 l 0.64688,-0.0735 1.46981,0.0327 1.4698,0.0327 0.65368,0.10419 c 1.99033,0.31723 3.59249,0.92461 5.1268,1.94356 l 0.61329,0.4073 0.61895,0.59408 c 1.58028,1.51679 2.16553,2.85689 2.53869,5.81308 0.16373,1.2971 0.38419,4.97043 0.29831,4.97043 -0.017,0 -2.02606,0.53228 -4.46463,1.18285 -2.43858,0.65056 -4.47272,1.18285 -4.52033,1.18285 h -0.0866 l -6.3e-4,-2.22563 -6.4e-4,-2.22563 -0.0654,-0.74532 c -0.15126,-1.72433 -0.48542,-2.41828 -1.36107,-2.82649 l -0.34655,-0.16155 -0.5603,-9.4e-4 -0.56029,-9.4e-4 -0.34922,0.1715 -0.34922,0.1715 -0.3137,0.33169 c -0.49209,0.52031 -0.73142,1.07569 -0.92994,2.15793 l -0.10849,0.59142 1.9e-4,1.52526 1.8e-4,1.52525 0.0788,0.5603 c 0.19228,1.36668 0.45125,2.13643 0.99437,2.95554 l 0.34982,0.52758 0.62566,0.62414 c 0.34411,0.34328 0.96148,0.89159 1.37193,1.21846 3.78823,3.01691 4.76344,3.85375 6.41428,5.50419 1.74154,1.74111 2.72472,2.99766 3.36305,4.29813 0.89845,1.83039 1.42413,4.37444 1.65082,7.98916 l 0.0716,1.14107 -0.0328,2.68763 c -0.018,1.47819 -0.0633,2.98178 -0.10059,3.3413 -0.3784,3.64621 -1.0037,5.36011 -2.54853,6.98532 -1.77189,1.8641 -4.2518,3.07099 -7.0691,3.44031 l -0.7287,0.0955 -1.28861,-0.006 -1.28861,-0.006 z m -27.65956,-0.30537 c -1.97942,-0.2395 -3.79624,-0.8837 -5.30388,-1.88063 l -0.6233,-0.41216 -0.81382,-0.81394 -0.81381,-0.81394 -0.45363,-0.68269 c -0.83844,-1.26186 -1.5164,-2.86995 -1.81157,-4.29701 -0.24699,-1.19418 -0.34055,-2.40492 -0.43782,-5.66596 l -0.0687,-2.30344 0.0279,-12.38881 0.0279,-12.3888 0.0714,-1.18285 c 0.18213,-3.01555 0.41497,-4.2442 1.11891,-5.90435 1.51178,-3.56535 4.4265,-5.79666 8.47597,-6.48862 l 0.59142,-0.10106 1.40625,-0.0329 1.40624,-0.0329 0.64818,0.0745 c 4.29391,0.49348 7.30493,2.51266 9.05211,6.07034 0.84294,1.71641 1.14743,3.10888 1.34833,6.16608 l 0.0695,1.05834 0.0278,12.91797 0.0278,12.91798 -0.0684,2.05442 c -0.15328,4.60603 -0.39526,6.00075 -1.40494,8.09789 -1.66573,3.45975 -4.73844,5.55309 -8.85851,6.03504 l -0.78995,0.0924 -1.08985,-0.007 c -0.59942,-0.004 -1.3922,-0.0433 -1.76173,-0.0881 z m 2.9442,-7.01825 0.40466,-0.20195 0.20074,-0.26733 c 0.4013,-0.53445 0.55255,-1.50849 0.63992,-4.12118 l 0.0593,-1.77476 2.3e-4,-14.84789 2.4e-4,-14.84789 -0.0599,-1.38747 c -0.0329,-0.76311 -0.10255,-1.65959 -0.1547,-1.99217 l -0.0948,-0.6047 -0.2027,-0.40466 -0.2027,-0.40466 -0.29583,-0.19805 -0.29583,-0.19804 -0.35735,-0.0742 -0.35735,-0.0742 -0.532,0.0303 -0.53201,0.0303 -0.29783,0.13174 c -0.1638,0.0725 -0.40617,0.21755 -0.53859,0.32244 l -0.24078,0.1907 -0.15568,0.32422 c -0.18986,0.3954 -0.31982,1.02551 -0.40713,1.97398 l -0.0659,0.71594 2.3e-4,16.96457 2.4e-4,16.96457 0.062,0.87157 c 0.0769,1.08114 0.2131,1.89717 0.3671,2.19905 0.34821,0.68254 1.01639,0.96906 2.12231,0.91006 l 0.52916,-0.0282 z m 46.87824,-16.76091 v -22.94089 l -3.15945,-0.0161 -3.15946,-0.0161 -0.016,-4.03103 -0.016,-4.03103 h 11.300255 11.30024 l -0.016,4.03103 -0.016,4.03103 -3.15938,0.0161 -3.15937,0.0161 -0.0156,22.92495 -0.0156,22.92494 -4.93374,0.0159 -4.933735,0.0159 z m 14.813545,22.89381 c -0.002,-0.0259 2.38598,-12.25473 5.30612,-27.17522 l 5.30935,-27.12815 4.48108,0.016 4.48109,0.016 4.77795,27.08106 c 2.62787,14.89458 4.77911,27.11607 4.78053,27.15887 l 0.003,0.0778 h -4.8441 -4.84409 l -0.76419,-4.99598 c -0.42031,-2.7478 -0.7777,-5.04502 -0.79421,-5.10494 l -0.03,-0.10895 h -3.07462 -3.07462 l -0.0376,0.20233 c -0.0207,0.11128 -0.39493,2.4015 -0.83167,5.08938 l -0.79407,4.88704 -5.02315,0.0159 c -2.76274,0.009 -5.02461,-0.005 -5.02638,-0.0311 z m 17.48162,-18.2723 c -0.0174,-0.11128 -0.57413,-5.15186 -1.23718,-11.20129 -0.66304,-6.04942 -1.21381,-10.99067 -1.22393,-10.98054 -0.0191,0.0191 -2.56622,22.15387 -2.56622,22.30086 v 0.0833 h 2.52948 2.52949 z m 16.26398,-8.85582 v -27.17444 h 4.66915 4.66914 v 23.03394 23.03393 l 3.43961,0.0161 3.43961,0.0161 0.016,4.12441 0.016,4.12442 h -8.12476 -8.12477 z m 48.49688,-0.0311 v -27.20557 h 4.79366 4.79366 v 27.20557 27.20557 h -4.79366 -4.79366 z m 13.75842,-2.2e-4 v -27.20578 l 8.63792,0.0158 8.63793,0.0158 0.016,4.06216 0.016,4.06216 h -3.70466 -3.70465 v 7.06598 7.06598 h 3.45517 3.45517 v 3.8287 3.8287 h -3.45517 -3.45517 v 8.12386 8.12387 l 4.06216,0.016 4.06216,0.016 0.016,4.09328 0.016,4.09329 h -9.02747 -9.02747 z"
         id="path26" /></g></g></svg>
