<?xml version="1.0" encoding="UTF-8"?>
<svg width="313px" height="374px" viewBox="0 0 313 374" version="1.1" xmlns="http://www.w3.org/2000/svg" xmlns:xlink="http://www.w3.org/1999/xlink">
    <!-- Generator: Sketch 42 (36781) - http://www.bohemiancoding.com/sketch -->
    <title>q_master_stacked_cmyk</title>
    <desc>Created with Sketch.</desc>
    <g id="Page-7" stroke="none" stroke-width="1" fill="none" fill-rule="evenodd">
        <g id="q_master_stacked_cmyk">
            <path d="M295.706,360.797 C289.076,370.005 280.699,374 270.112,374 C252.661,374 239.864,360.434 239.864,343.474 C239.864,326.393 253.01,312.825 270.229,312.825 C280,312.825 288.727,317.55 293.962,324.575 L283.257,334.388 C280.233,330.268 275.697,327.361 270.229,327.361 C261.504,327.361 254.989,334.508 254.989,343.474 C254.989,352.682 261.387,359.464 270.578,359.464 C276.742,359.464 281.628,355.586 284.072,351.711 L295.706,360.797" id="Fill-1" fill="#313533"></path>
            <polygon id="Fill-2" fill="#313533" points="218.925 372.789 234.05 372.789 234.05 314.036 218.925 314.036"></polygon>
            <path d="M176.616,354.861 C180.455,358.495 186.388,360.674 192.089,360.674 C196.161,360.674 199.301,358.616 199.301,355.709 C199.301,346.866 171.962,350.015 171.962,331.116 C171.962,319.849 182.432,312.825 193.6,312.825 C200.929,312.825 208.958,315.732 212.682,318.761 L205.583,330.148 C202.676,327.967 198.837,326.151 194.765,326.151 C190.576,326.151 187.085,327.847 187.085,330.874 C187.085,338.506 214.426,335.479 214.426,355.829 C214.426,367.096 203.839,374 191.971,374 C184.178,374 175.917,371.216 169.286,366.128 L176.616,354.861" id="Fill-3" fill="#313533"></path>
            <path d="M112.739,347.702 L112.739,314.807 L127.864,314.807 L127.864,345.167 C127.864,350.498 128.909,353.162 130.655,355.223 C132.983,357.888 136.238,358.856 139.148,358.856 C144.149,358.856 151.253,356.168 151.253,344.795 L151.253,314.807 L166.378,314.807 L166.378,347.55 C166.378,363.403 155.543,373.395 138.665,373.395 C123.321,373.395 112.739,362.442 112.739,347.702" id="Fill-4" fill="#313533"></path>
            <g id="Group-8">
                <path d="M80.949,312.423 C71.57,312.423 65.891,318.016 61.66,322.968 C57.429,318.016 51.75,312.423 42.371,312.423 C27.839,312.423 16.19,322.412 16.19,338.265 L16.19,372.387 L31.115,372.387 L31.115,341.022 C31.115,329.65 38.125,326.959 43.061,326.959 C45.931,326.959 49.146,327.927 51.441,330.594 C53.164,332.653 54.195,335.319 54.195,340.648 L54.195,372.387 L69.124,372.387 L69.124,340.648 C69.124,335.319 70.156,332.653 71.879,330.594 C74.174,327.927 77.388,326.959 80.259,326.959 C85.195,326.959 92.204,329.65 92.204,341.022 L92.204,372.387 L107.129,372.387 L107.129,338.265 C107.129,322.412 95.48,312.423 80.949,312.423" id="Fill-5" fill="#313533"></path>
                <path d="M161.639,184.072 C162.016,175.901 167.316,169.985 174.319,169.985 C181.322,169.985 186.999,176.292 186.999,184.072 C186.999,185.372 186.844,186.613 186.628,187.824 C186.089,191.304 183.132,199.349 174.191,209.562 C172.692,207.792 171.258,206.051 169.91,204.365 C165.712,199.119 161.261,192.243 161.639,184.072 Z M310.244,86.649 C310.204,86.434 310.162,86.22 310.121,86.006 C310.012,85.422 309.899,84.84 309.781,84.26 C306.814,69.822 301.264,56.483 293.264,44.935 C284.125,31.742 271.977,21.163 257.158,13.491 C242.637,5.973 226.219,1.615 208.361,0.538 C200.194,0.045 191.765,0.246 183.306,1.135 C153.304,4.288 122.799,15.762 92.638,35.235 C33.487,73.428 -1.85,134.747 0.075,187.345 C0.645,202.047 4.129,216.064 10.825,228.697 C24.521,254.539 47.604,273 75.82,280.679 C89.258,284.336 103.423,285.418 117.922,283.894 C118.623,283.82 119.324,283.741 120.028,283.655 C135.638,281.738 151.234,276.826 166.382,269.055 C170.274,267.058 174.23,264.621 178.162,261.796 C189.137,270.534 199.341,277.863 206.46,282.875 C209.798,284.605 213.581,285.278 217.358,284.847 L217.359,284.847 C222.871,284.415 227.875,281.435 231.086,276.923 C234.077,272.718 235.253,267.645 234.395,262.556 C233.538,257.468 230.75,253.039 226.546,250.048 C221.581,246.515 214.095,241.072 205.817,234.601 L205.699,234.511 L205.81,234.369 C205.977,234.146 206.143,233.924 206.306,233.702 C213.444,224.024 225.358,204.877 224.997,185.335 C224.703,172.456 219.997,160.003 211.726,150.249 C202.36,139.202 189.49,132.926 175.487,132.578 C173.401,132.526 171.281,132.611 169.186,132.831 C149.631,134.887 132.319,148.379 126.108,166.406 C123.733,173.302 122.724,180.35 123.025,187.367 C123.76,202.936 130.956,218.348 144.072,231.621 C145.238,232.801 146.448,234.002 147.689,235.213 L147.842,235.364 L147.697,235.451 C136.384,241.114 125,244.578 113.843,245.751 C104.224,246.762 94.848,246.05 85.975,243.636 C68.175,238.791 53.613,227.144 44.973,210.842 C41.122,203.577 39.045,195.085 38.717,185.805 C38.195,172.299 41.39,157.112 48.24,141.601 C60.969,112.778 84.177,86.447 113.588,67.457 C138.598,51.309 163.405,41.847 187.321,39.333 C193.712,38.661 200.006,38.504 206.026,38.867 C230.38,40.336 250.078,50.22 261.494,66.699 C266.721,74.244 270.321,83.269 272.181,93.217 C272.201,93.325 272.22,93.433 272.24,93.541 C272.312,93.936 272.383,94.331 272.45,94.728 C272.524,95.164 272.593,95.602 272.661,96.041 C272.669,96.098 272.678,96.155 272.687,96.212 C274.059,105.257 274.016,115 272.484,125.096 C269.18,146.858 258.99,168.463 243.507,186.838 C238.268,194.967 239.843,205.761 247.495,212.041 C251.521,215.344 256.59,217.137 261.77,216.137 L261.771,216.137 C266.854,216.137 271.441,213.314 274.685,209.362 C295.53,183.96 308.26,154.571 311.499,124.199 C312.883,111.224 312.431,98.624 310.244,86.649 L310.244,86.649 Z" id="Fill-7" fill="#DB342A"></path>
            </g>
        </g>
    </g>
</svg>
