<?xml version="1.0" encoding="UTF-8" standalone="no"?>
<!-- Created with Inkscape (http://www.inkscape.org/) -->

<svg
   version="1.1"
   id="svg1"
   width="539.20453"
   height="314"
   viewBox="0 0 539.20453 314"
   sodipodi:docname="logo_rds.svg"
   inkscape:version="1.4.3 (0d15f75042, 2025-12-25)"
   xmlns:inkscape="http://www.inkscape.org/namespaces/inkscape"
   xmlns:sodipodi="http://sodipodi.sourceforge.net/DTD/sodipodi-0.dtd"
   xmlns="http://www.w3.org/2000/svg"
   xmlns:svg="http://www.w3.org/2000/svg">
  <defs
     id="defs1" />
  <sodipodi:namedview
     id="namedview1"
     pagecolor="#ffffff"
     bordercolor="#000000"
     borderopacity="0.25"
     inkscape:showpageshadow="2"
     inkscape:pageopacity="0.0"
     inkscape:pagecheckerboard="0"
     inkscape:deskcolor="#d1d1d1"
     inkscape:zoom="0.90430144"
     inkscape:cx="342.80605"
     inkscape:cy="209.55402"
     inkscape:window-width="1920"
     inkscape:window-height="1131"
     inkscape:window-x="0"
     inkscape:window-y="0"
     inkscape:window-maximized="1"
     inkscape:current-layer="g1" />
  <g
     inkscape:groupmode="layer"
     inkscape:label="Image"
     id="g1"
     transform="translate(-34.010654,-146.50562)">
    <path
       style="fill:#ffffff;fill-opacity:1;stroke-width:10;stroke-linecap:round"
       d="M 491.63268,440.55396 521.73264,201.57852 458.79636,193.36944 424.1358,155.0604 126.78468,156.88464 115.55956,166.70145 110.732,185.8608 92.88938,430.1663 Z"
       id="path2" />
    <path
       style="fill:#ef4036;fill-opacity:1"
       d="m 263.65433,459.25562 c 0.0166,-0.6875 0.84361,-5.41051 1.83775,-10.49558 0.99415,-5.08507 1.58056,-9.47257 1.30313,-9.75 -0.27743,-0.27743 -52.88475,-0.50442 -116.90514,-0.50442 -110.399947,0 -116.372469,-0.0902 -115.852667,-1.75 0.584371,-1.86596 44.58672,-250.95454 44.58672,-252.39659 0,-0.46937 7.425,-0.85341 16.499998,-0.85341 h 16.499999 v 100.5 100.5 h 19 19 v -42.5499 -42.54991 l 5.70332,0.29991 5.70333,0.2999 9.61283,39.5 c 5.28706,21.725 9.92914,40.7375 10.31573,42.25 l 0.70289,2.75 h 19.98095 c 10.98952,0 19.98095,-0.15305 19.98095,-0.3401 0,-0.18706 -6.075,-20.76729 -13.5,-45.73384 -7.425,-24.96655 -13.49784,-45.85101 -13.49521,-46.4099 0.003,-0.55889 2.75091,-3.65862 6.10729,-6.88829 4.28504,-4.12328 7.10495,-7.99497 9.46844,-13 5.95731,-12.61549 6.89161,-17.90879 6.90631,-39.12787 0.0117,-16.89473 -0.24233,-19.88254 -2.29272,-26.96489 -3.28742,-11.3552 -7.67722,-19.06189 -15.16741,-26.62772 -10.33309,-10.43745 -17.36766,-11.833 -59.88511,-11.88029 l -24.35841,-0.0271 0.54157,-2.25 c 0.29786,-1.2375 1.04499,-5.175 1.66029,-8.75 0.61529,-3.575 1.3507,-7.2875 1.63423,-8.25 0.48836,-1.65786 9.54201,-1.75 171.94812,-1.75 136.4836,0 171.43101,0.25483 171.42477,1.25 -0.004,0.6875 -1.35078,8.45 -2.99216,17.25 -1.64138,8.8 -2.98785,16.5625 -2.99216,17.25 -0.006,0.98579 12.31375,1.25 58.28769,1.25 h 58.29552 l -24.51398,138.5 -24.51398,138.5 H 393.90567 c -103.57469,0 -130.27536,-0.25624 -130.25134,-1.25 z m -143.03021,-50.25 c 0,-13.74678 -0.10206,-14.5 -1.96482,-14.5 -1.08065,0 -2.44363,0.89469 -3.02886,1.98819 -0.58523,1.09351 -2.20017,2.27334 -3.58877,2.62186 -3.15603,0.79211 -3.08694,4.88995 0.0824,4.88995 1.84368,0 2.02237,0.76207 2.28621,9.75 l 0.28621,9.75 h 2.96384 2.96379 z m 17.59501,12.39572 c 2.57733,-2.84695 3.28069,-16.86411 1.10723,-22.06593 -2.73938,-6.55626 -11.5073,-5.98052 -13.77967,0.90483 -1.72567,5.22884 -0.73185,18.71365 1.56634,21.25312 2.50691,2.77011 8.56044,2.71996 11.1061,-0.092 z m -6.96472,-5.14572 c -0.94988,-3.54445 -0.70054,-13.09633 0.38502,-14.75 0.87528,-1.33333 1.0941,-1.33333 1.96938,0 1.07986,1.64498 1.37771,12.89202 0.40832,15.41821 -0.86235,2.24725 -2.05897,1.95783 -2.76272,-0.66821 z m 25.29713,4.61514 c 1.73587,-2.2068 2.07019,-4.03445 2.05784,-11.25 -0.0173,-10.11108 -1.24714,-13.1852 -5.7969,-14.49005 -7.19845,-2.06449 -11.33172,6.06821 -9.70422,19.09423 0.82094,6.57064 3.14045,9.28068 7.94328,9.28068 2.51163,0 3.9812,-0.70402 5.5,-2.63486 z m -6.92742,-11.36514 c 0,-6.88889 0.31061,-9.06313 1.25,-8.75 0.86667,0.28889 1.25,2.97222 1.25,8.75 0,5.77778 -0.38333,8.46111 -1.25,8.75 -0.93939,0.31313 -1.25,-1.86111 -1.25,-8.75 z m 26.24474,-0.40727 c 3.18576,-7.63897 5.57836,-14.10296 5.3169,-14.36442 -1.53665,-1.53665 -3.83647,1.93894 -8.3083,12.55583 -6.74969,16.02495 -6.88181,16.48354 -4.62368,16.04866 1.28973,-0.24838 3.51667,-4.41272 7.61508,-14.24007 z m 9.72008,12.47301 c 3.91644,-7.31794 -3.04139,-16.84632 -8.39339,-11.49431 -1.88558,1.88557 -2.14584,10.45416 -0.37143,12.22857 1.95411,1.95411 7.5782,1.48296 8.76482,-0.73426 z m -5.96482,-5.06574 c 0,-2.95131 1.28229,-3.97029 2.50553,-1.99105 0.80485,1.30227 -0.35766,4.99105 -1.57292,4.99105 -0.51293,0 -0.93261,-1.35 -0.93261,-3 z m 35,-1.14159 v -7.85841 h -4 c -3.6,0 -4,0.25 -4,2.5 0,1.375 0.47989,2.5 1.06642,2.5 1.39898,0 0.76746,5.23632 -0.6891,5.71377 -2.05729,0.67438 -3.24783,-9.86357 -1.74703,-15.46377 0.74677,-2.78658 3.36971,-2.98118 3.36971,-0.25 0,1.55556 0.66667,2 3,2 2.66667,0 3,-0.33333 3,-3 0,-6.24098 -7.92543,-9.31022 -13.13922,-5.08835 -2.20935,1.78902 -2.36078,2.58411 -2.36078,12.39501 0,13.28902 0.88012,14.61745 9.60252,14.49378 l 5.89748,-0.0836 z m 10,2.56827 c 0,-4.768 0.25287,-5.52526 1.75,-5.24064 1.35252,0.25713 1.81865,1.523 2.05226,5.57333 0.30142,5.22611 0.31161,5.24063 3.67775,5.24063 h 3.37548 l -0.56325,-5.75 c -0.30978,-3.1625 -0.9835,-6.28373 -1.49714,-6.93608 -0.58579,-0.74397 -0.53528,-1.93088 0.13551,-3.18426 1.48241,-2.76991 1.33791,-8.38017 -0.27256,-10.58263 -1.04302,-1.42641 -2.76941,-1.85882 -7.75,-1.94113 l -6.40805,-0.1059 -0.27746,14.25 -0.27745,14.25 h 3.02745 c 3.00781,0 3.02746,-0.0362 3.02746,-5.57332 z m 0,-14.42668 c 0,-2.45853 0.3827,-3.07295 1.75,-2.80963 1.10396,0.2126 1.75,1.24982 1.75,2.80963 0,1.55981 -0.64604,2.59703 -1.75,2.80963 -1.3673,0.26332 -1.75,-0.3511 -1.75,-2.80963 z m 18.82222,16.68991 c 0.25694,-2.24076 0.76344,-2.74726 2.5,-2.5 1.53478,0.21854 2.2712,1.12203 2.4942,3.06009 0.26501,2.30314 0.79311,2.75 3.25,2.75 1.73145,0 2.93358,-0.52958 2.93358,-1.29234 0,-0.71078 -1.12255,-7.12328 -2.49455,-14.25 -1.37201,-7.12671 -2.49701,-13.09732 -2.5,-13.26803 -0.003,-0.1707 -1.67539,-0.1707 -3.71643,0 l -3.71098,0.31037 -2.74177,13.5 c -1.50797,7.425 -2.76303,13.86601 -2.78902,14.31336 -0.026,0.44735 1.41525,0.67235 3.20275,0.5 2.72709,-0.26294 3.30184,-0.76549 3.57222,-3.12345 z m 1.24807,-9.93991 c 0.0386,-1.2375 0.45702,-3.15 0.92971,-4.25 0.66561,-1.54896 0.87528,-1.04154 0.92971,2.25 0.0387,2.3375 -0.37971,4.25 -0.92971,4.25 -0.55,0 -0.96837,-1.0125 -0.92971,-2.25 z m 18.00866,6.5 c 0.0831,-7.1085 0.53743,-6.71056 2.92169,2.55929 1.04307,4.05539 1.29666,4.29107 4.30387,4 l 3.19549,-0.30929 v -14 -14 l -2.75,-0.31642 -2.75,-0.31642 -0.079,6.81642 c -0.0434,3.74903 -0.23571,6.36642 -0.42731,5.81642 -0.1916,-0.55 -1.07649,-3.61449 -1.96642,-6.80997 -1.55192,-5.5725 -1.74164,-5.79731 -4.64146,-5.5 l -3.02339,0.30997 0.0375,13.75 c 0.0206,7.5625 0.0516,13.975 0.0688,14.25 0.0172,0.275 1.15625,0.5 2.53125,0.5 2.41196,0 2.50278,-0.23772 2.57895,-6.75 z m 25.7111,6.10924 c 3.45873,-0.92651 5.20995,-5.35009 5.20995,-13.16036 0,-12.10301 -2.47469,-15.19888 -12.14922,-15.19888 h -3.85078 v 14.5 14.5 l 4.25,-0.0136 c 2.3375,-0.008 5.28052,-0.28971 6.54005,-0.62711 z m -4.79005,-13.85924 c 0,-6.48889 0.3141,-8.56197 1.25,-8.25 0.85816,0.28605 1.25,2.87222 1.25,8.25 0,5.37778 -0.39184,7.96395 -1.25,8.25 -0.9359,0.31197 -1.25,-1.76111 -1.25,-8.25 z m 19.5,0 v -14 h -3 -3 l -0.28135,12.94711 c -0.15474,7.12092 -0.0448,13.56355 0.24432,14.31698 0.31552,0.82224 1.62727,1.24314 3.28134,1.05288 l 2.75569,-0.31697 z m 25.7671,12.75 c 4.18162,-4.64013 2.91975,-10.5376 -3.46753,-16.20581 -2.51515,-2.23201 -3.85669,-4.14275 -3.41285,-4.86091 1.09542,-1.77242 2.40015,-1.43015 3.11328,0.81672 0.4056,1.27793 1.51303,2 3.06739,2 1.96971,0 2.43261,-0.50832 2.43261,-2.67126 0,-3.91683 -2.66773,-6.32874 -7,-6.32874 -4.85641,0 -7.45455,2.83392 -7.45455,8.13106 0,3.47019 0.61174,4.53299 4.84784,8.4224 4.03294,3.70288 4.64043,4.70099 3.61397,5.9378 -1.51589,1.82653 -3.00726,1.05772 -3.00726,-1.55028 0,-1.508 -0.6984,-1.94098 -3.13084,-1.94098 -3.0589,0 -3.11687,0.0861 -2.52284,3.74672 0.33441,2.0607 1.3793,4.3107 2.32198,5 2.53637,1.85464 8.74187,1.56382 10.5988,-0.49672 z m 19.15997,0.18007 c 2.32386,-2.32386 2.6863,-4.8423 2.36451,-16.43007 l -0.29158,-10.5 -2.71666,-0.3132 -2.71666,-0.31321 -0.28334,11.30123 c -0.24659,9.83561 -0.51029,11.34472 -2.03334,11.63653 -1.58517,0.30372 -1.75,-0.75475 -1.75,-11.23803 v -11.57332 h -3 -3 v 12.5 c 0,11.16667 0.21333,12.71333 2,14.5 2.46215,2.46215 9.14353,2.71361 11.42707,0.43007 z m 20.57293,-0.43007 c 1.34422,-1.34422 2,-3.33333 2,-6.06642 0,-3.84457 -0.14978,-4.04916 -2.74525,-3.75 -2.16948,0.25005 -2.85318,0.94563 -3.25982,3.31642 -0.30206,1.76101 -1.13001,3 -2.00475,3 -1.18469,0 -1.54941,-1.79378 -1.77911,-8.75 -0.26865,-8.1358 -0.1507,-8.75 1.68045,-8.75 1.28097,0 2.08108,0.7865 2.28893,2.25 0.2288,1.61101 1.10054,2.33986 3.06955,2.56642 2.44658,0.28151 2.75,-0.007 2.75,-2.61514 0,-4.72385 -3.42286,-8.20128 -8.07258,-8.20128 -2.53795,0 -4.6059,0.67848 -5.84519,1.91777 -3.88311,3.88311 -3.86473,21.29973 0.0266,25.19103 2.60715,2.60715 9.23591,2.54649 11.8912,-0.1088 z m 19.03178,0.98299 c 2.25103,-1.20471 4.59041,-8.7608 3.15635,-10.19486 -1.61711,-1.61711 -5.6392,-0.46697 -5.98646,1.71187 -0.68185,4.27807 -1.11246,4.81893 -2.75278,3.45759 -2.28125,-1.89327 -1.6588,-16.3004 0.7239,-16.7552 1.10672,-0.21125 1.78352,0.45842 2,1.97894 0.32799,2.30374 2.76507,3.44023 5.29522,2.46932 1.02365,-0.39281 1.14401,-1.43703 0.49655,-4.3078 -1.0486,-4.64934 -3.20675,-6.34285 -8.08311,-6.34285 -2.8453,0 -4.23053,0.62833 -5.80887,2.63486 -1.75677,2.23337 -2.07258,4.04131 -2.07258,11.86514 0,7.82383 0.31581,9.63177 2.07258,11.86514 2.23294,2.83872 7.28455,3.58446 10.9592,1.61785 z m 20.96822,-1.98299 c 0,-2.7619 -0.27778,-3 -3.5,-3 -3.22222,0 -3.5,-0.2381 -3.5,-3 0,-2.7619 0.27778,-3 3.5,-3 3.22222,0 3.5,-0.2381 3.5,-3 0,-2.7619 -0.27778,-3 -3.5,-3 -3.06667,0 -3.5,-0.30952 -3.5,-2.5 0,-2.19048 0.43333,-2.5 3.5,-2.5 3.23389,0 3.5,-0.23157 3.5,-3.04569 v -3.04569 l -6.75,0.29569 -6.75,0.29569 -0.28135,12.94711 c -0.15474,7.12092 -0.0564,13.53342 0.21862,14.25 0.34018,0.8865 2.58733,1.30289 7.03135,1.30289 h 6.53138 z m 16.2671,1.25 c 4.27593,-4.74478 2.97226,-11.11567 -3.30723,-16.16201 -2.45836,-1.97559 -3.67531,-3.66597 -3.31507,-4.60473 0.79872,-2.08143 2.10564,-1.8449 2.8552,0.51674 0.4056,1.27793 1.51303,2 3.06739,2 1.96971,0 2.43261,-0.50832 2.43261,-2.67126 0,-3.91683 -2.66773,-6.32874 -7,-6.32874 -4.85641,0 -7.45455,2.83392 -7.45455,8.13106 0,3.47019 0.61174,4.53299 4.84784,8.4224 4.03294,3.70288 4.64043,4.70099 3.61397,5.9378 -1.51589,1.82653 -3.00726,1.05772 -3.00726,-1.55028 0,-1.48998 -0.69707,-1.94098 -3,-1.94098 -2.36516,0 -3,0.43714 -3,2.06574 0,2.3527 1.76699,6.07876 3.3997,7.16895 2.11461,1.41195 8.26026,0.79867 9.8674,-0.98469 z m 18.27455,-0.67322 c 3.28173,-5.00856 1.97782,-11.28178 -3.05982,-14.72106 -3.80897,-2.60044 -5.04187,-4.69568 -3.60725,-6.1303 0.58685,-0.58685 1.36395,-0.14824 2.06796,1.16722 0.67868,1.26812 2.10943,2.10736 3.59264,2.10736 1.96247,0 2.46482,-0.50952 2.46482,-2.5 0,-6.32684 -8.96048,-8.90829 -13.01774,-3.75031 -3.23919,4.11796 -2.16288,8.79868 3.07287,13.36343 2.62607,2.28952 4.01614,4.2783 3.79455,5.42889 -0.49678,2.57957 -2.28925,2.38348 -2.66923,-0.29201 -0.24837,-1.74877 -0.97237,-2.25 -3.25,-2.25 -2.58939,0 -2.93045,0.34916 -2.93045,3 0,4.26682 3.11463,7 7.97695,7 3.10499,0 4.32506,-0.5313 5.5647,-2.42322 z m 11.23581,-11.82678 -0.27746,-14.25 -2.75,-0.31642 -2.75,-0.31642 v 14.56642 14.56642 h 3.02746 3.02745 z m -283.34889,-1.32143 c 0.89524,-0.89524 1.57143,-3.2619 1.57143,-5.5 0,-6.44504 -5.57905,-10.20667 -9.42857,-6.35714 -1.88558,1.88557 -2.14584,10.45416 -0.37143,12.22857 1.69902,1.69902 6.36891,1.48823 8.22857,-0.37143 z m -5.42857,-5.36955 c 0,-1.61754 0.4176,-3.19908 0.928,-3.51452 1.21982,-0.75389 2.29244,2.71747 1.48769,4.81462 -1.01408,2.64265 -2.41569,1.88831 -2.41569,-1.3001 z m 250.79216,-15.64426 c 16.43585,-3.38029 28.66835,-13.10898 36.11088,-28.71952 6.17845,-12.95918 7.54062,-19.76211 7.54778,-37.69524 0.007,-17.33747 -1.20637,-23.66134 -6.63078,-34.56066 -6.06594,-12.18837 -14.25317,-19.64766 -32.82004,-29.90199 -20.93413,-11.56173 -24.69709,-14.8403 -27.01494,-23.53735 -2.31187,-8.67464 1.0707,-22.02475 6.47824,-25.56791 1.45771,-0.95513 4.85356,-1.9483 7.54633,-2.20704 9.06728,-0.87125 16.16533,5.63211 19.9461,18.27495 0.6579,2.2 1.38515,4.59448 1.61611,5.32107 0.29542,0.92936 4.59358,-0.83842 14.4956,-5.96183 l 14.07566,-7.2829 -0.65985,-3.53817 c -1.12564,-6.03566 -6.36809,-18.55049 -10.33954,-24.68261 -8.19668,-12.6561 -18.82352,-19.4949 -33.06047,-21.27575 -14.81211,-1.8528 -26.51713,2.21878 -37.3264,12.98396 -12.25097,12.201 -18.87986,30.16269 -18.9829,51.43623 -0.0677,13.96801 1.76222,23.77468 6.20961,33.27855 6.57458,14.04954 13.29388,20.32294 36.4697,34.04951 19.36318,11.46841 22.60089,15.54854 22.85314,28.79928 0.11612,6.09959 -0.29273,7.95872 -2.83535,12.89297 -3.60071,6.98759 -7.58092,9.47969 -15.14034,9.47969 -9.05664,0 -13.68767,-2.88365 -17.89097,-11.14035 -1.29926,-2.5522 -3.1167,-7.7272 -4.03875,-11.5 -0.92205,-3.77281 -1.99155,-7.21423 -2.37667,-7.6476 -0.38512,-0.43338 -7.18564,1.86583 -15.11226,5.10934 l -14.41205,5.89729 0.23728,4.58901 c 0.31251,6.04375 5.69217,22.82781 9.43667,29.44154 6.86191,12.11988 18.04305,20.79349 29.82605,23.13713 3.025,0.60168 6.4,1.27118 7.5,1.4878 4.47941,0.88208 11.00169,0.54 18.29216,-0.9594 z m -120.67865,-3.42995 c 8.17488,-1.54072 19.20882,-7.21167 24.67925,-12.68401 11.38004,-11.38403 20.02761,-31.00359 24.45391,-55.4809 1.96725,-10.87889 2.22581,-15.65342 2.21053,-40.8199 -0.0186,-30.71235 -0.84101,-38.54853 -5.9307,-56.51189 -7.47782,-26.39197 -23.08015,-43.30992 -44.4045,-48.14877 -4.63163,-1.05099 -15.1131,-1.66696 -34.872,-2.04931 l -28.25,-0.54667 V 275.8773 384.50562 h 28.36351 c 15.59993,0 30.78743,-0.45684 33.75,-1.01519 z m -24.8703,-107.11523 0.25679,-70.36958 6.32339,-0.29962 c 8.41763,-0.39886 16.26604,1.92875 19.51236,5.78679 3.59251,4.26946 6.52884,12.84706 8.36731,24.44256 2.02934,12.79933 2.3294,61.82829 0.4778,78.07027 -2.95551,25.92532 -7.43427,31.50761 -25.93765,32.32849 l -9.25679,0.41066 z m 218.45246,-36.82558 c 6.71019,-4.09146 8.74908,-10.98947 5.4516,-18.44398 -1.69109,-3.82298 -2.90792,-5.04895 -6.65762,-6.70762 -9.73984,-4.3084 -19.47669,2.18232 -19.48591,12.98957 -0.009,10.88531 11.59738,17.70733 20.69193,12.16203 z m -9.41154,-1.74526 c -3.87224,-0.7495 -7.28413,-5.8796 -7.28413,-10.95239 0,-10.54909 13.02042,-14.35325 18.33473,-5.35685 3.34916,5.66968 1.01939,13.12894 -4.86903,15.58928 -1.8708,0.78167 -3.52842,1.35994 -3.68358,1.28504 -0.15517,-0.0749 -1.27926,-0.32919 -2.49799,-0.56508 z m -0.28413,-5.23972 c 0,-4.37432 1.7278,-4.63469 4.09797,-0.61754 1.15477,1.95719 2.73013,3.55852 3.50081,3.55852 1.82316,0 1.77001,-1.02846 -0.19836,-3.83871 -1.46612,-2.09317 -1.46612,-2.43121 0,-4.05125 2.1754,-2.4038 2.0139,-5.81794 -0.33468,-7.07486 -1.06384,-0.56935 -3.76384,-1.03518 -6,-1.03518 h -4.06574 v 8 c 0,6.44444 0.29167,8 1.5,8 0.99331,0 1.5,-0.99344 1.5,-2.94098 z m 0.66667,-6.72569 c -1.6595,-1.65949 -0.48781,-3.33333 2.33333,-3.33333 1.89759,0 3,0.51189 3,1.39301 0,1.98063 -3.88106,3.3926 -5.33333,1.94032 z m -330.66667,7.16667 v -30.5 h 7.28811 c 17.43722,0 23.46173,8.9852 22.52003,33.58733 -0.37693,9.84727 -0.7678,11.82372 -3.36728,17.02656 -4.0289,8.06382 -8.14474,10.34727 -18.69086,10.36966 l -7.75,0.0165 z"
       id="path1" />
  </g>
</svg>
