<svg xmlns="http://www.w3.org/2000/svg" width="130" height="65" viewBox="0 0 130 65">
    <g fill="none" fill-rule="evenodd">
        <g>
            <path fill="#0943B9" fill-rule="nonzero" d="M92.216 28.207l1.078 2.373h-2.088l1.01-2.373zm-9.345-1.512h-1.675v2.268h1.675c1.247.022 1.33-2.23 0-2.237v-.03zm30.986 2.464c0 1.253 1.027 2.268 2.294 2.268 1.267 0 2.294-1.015 2.294-2.268-.008-1.252-1.042-2.26-2.31-2.252-1.266.008-2.286 1.03-2.278 2.283v-.03zm15.846-.106c-.12 3.686-2.14 7.055-5.354 8.927l-.643.37c-11.294 6.303-55.44 21.36-79.537 22.87-8.06.515-13.497-.823-19.117-4.836-2.077-1.5-4.023-3.17-5.82-4.989l.299-.105c2.698-.943 5.101-2.563 6.974-4.702 1.911-2.267 5.062-7.233.206-11.496-2.057-1.806-4.336-3.665-5.934-5.2-1.439-1.243-1.776-3.324-.803-4.95 3.67-6.651 10.484-9.932 18.017-13.605.611-.295 1.529-1.088 1.063-2.048-.581-1.515-1.815-2.695-3.365-3.22-1.146-.172-2.318 0-3.365.491-5.936 2.646-11.17 6.614-15.294 11.595-2.294 2.819-4.588 6.477-3.762 10.513.462 1.94 1.585 3.664 3.18 4.883 2.295 1.776 3.824 3.023 5.858 4.822 2.249 1.972.888 4.535-.114 5.48-1.794 1.786-4.064 3.034-6.546 3.597-7.93-9.448-13.214-21.072-14.338-26.287C-1.698 7.347 7.173.688 22.719.68c22.123.03 75.928 11.126 96.575 17.528 8.565 2.668 10.454 6.734 10.409 10.876v-.03zm-77.32-7.248c-.72-1.375-1.805-1.224-2.761-.506-3.206 2.456-6.081 5.305-8.557 8.48-.047.073-.142.099-.22.06-.077-.04-.111-.131-.079-.211.528-1.572 1.645-5.064 2.914-8.465 1.27-3.401 2.914-6.636 3.579-8.11 1.055-2.336-.88-2.51-2.455-2.729-1.361-.189-2.462-.582-3.334.892-2.348 3.9-8.358 22.561-9.811 35.644-.086.59.279 1.153.856 1.323 1.083.245 2.175-.369 2.516-1.413 1.193-2.487 2.363-6.35 3.824-10.703.027-.059.087-.097.153-.097.065 0 .125.038.153.097.764 1.225 3.953 5.896 7.195 7.347 1.079.484 3.472 1.043 4.711-.181 1.53-1.512 1.117-1.996-.268-2.66-.68-.326-.986-.568-2.294-1.898-1.53-1.512-4.099-3.862-4.527-5.2-.09-.345.001-.712.245-.975 1.69-2.585 5.536-4.535 7.884-6.326 1.178-.87 1.063-2.88.275-4.369zm19.675-3.431c-3.28-.53-3.946-.975-4.305 1.511-.467 3.25-4.168 13.288-8.779 17.936-.16.159-.398.287-.535.181-.383-.294.612-3.937 1.4-6.364.787-2.426 1.529-5.502 1.659-5.955.764-2.895 1.14-3.916-.207-4.641-.993-.528-2.093-.833-3.22-.892-1.445-.12-1.842.37-1.888 1.806-.092 2.578-1.858 8.45-2.157 9.826-.244 1.126-.978 3.424-.802 5.517.098 1.013.442 1.988 1.001 2.842.704.975 2.394 1.761 4.512 1.247 1.812-.446 3.625-2.63 4.474-3.779.047-.062.132-.083.204-.05.072.033.11.11.094.186-1.33 5.27-3.368 10.342-6.057 15.079-.764 1.436.062 2.04 1.33 1.511 2.15-.937 4.33-3.25 6.6-7.95 2.118-4.474 3.842-9.12 5.154-13.885 1.476-5.215 2.96-10.34 3.136-11.012.405-1.542.084-2.842-1.614-3.114zm14.53 14.988l-1.79-2.872c2.294-1.55 1.66-5.82-1.934-5.835h-4.015v9.07h2.34v-2.691h1.216l1.53 2.66h2.614l.039-.332zm10.254 0l-4.13-8.82h-1l-4.115 8.82v.332h2.294l.543-1.134h3.625l.535 1.134h2.294l-.046-.332zm4.757-8.707H98.15v9.07h3.449c5.965-.053 5.965-9.04.007-9.07h-.007zm8.343 0h-2.294v9.07h2.294v-9.07zm10.882 4.535c0-6.251-9.376-6.251-9.376 0 0 6.25 9.376 6.258 9.376 0zm-19.225-2.427h-1.109v4.83h1.109c2.921 0 2.921-4.83.007-4.83h-.007z" transform="translate(-.5)"/>
            <path fill="#C9FF01" fill-rule="nonzero" d="M123.699 38.38c-10.783 7.347-47.114 21.919-75.04 26.197-9.33 1.42-16.021-.885-22.766-6.644-2.952-2.524-4.344-3.62-6.775-6.681l.137.143c1.801 1.825 3.753 3.5 5.835 5.004 5.605 4.013 11.042 5.351 19.118 4.837 24.057-1.527 68.204-16.583 79.49-22.856zm-42.503-4.686h-2.34v-9.07h4.015c3.594 0 4.244 4.286 1.935 5.835l1.79 2.872v.333H83.98l-1.53-2.66h-1.215l-.039 2.69zm0-4.709h1.675c1.262 0 1.33-2.267 0-2.267h-1.675v2.267zm8.688 4.71h-2.295v-.333l4.115-8.82h1.001l4.13 8.82v.332H94.54l-.536-1.134h-3.601l-.52 1.134zm1.3-3.115h2.11l-1.055-2.373-1.055 2.373zm20.272-1.39c0-6.251 9.375-6.251 9.375 0 0 6.25-9.375 6.258-9.375 0zm2.401 0c0 1.252 1.027 2.267 2.294 2.267 1.267 0 2.294-1.015 2.294-2.267 0-.81-.437-1.56-1.147-1.964-.71-.405-1.584-.405-2.294 0s-1.147 1.153-1.147 1.964zm-12.235 4.534h-3.45v-9.07h3.45c5.942.03 5.942 9.018-.016 9.04l.016.03zm-1.11-2.1h1.11c2.913 0 2.913-4.83 0-4.83h-1.11v4.83zm9.453-6.94h-2.294v9.07h2.294v-9.07z" transform="translate(-.5)"/>
            <path fill="#FFF" fill-rule="nonzero" d="M26.505 46.588c-1.873 2.14-4.276 3.76-6.974 4.702l-.299.105-.114-.143c-1.186-1.194-2.294-2.45-3.41-3.78 2.481-.563 4.751-1.81 6.545-3.597 1.002-.93 2.363-3.507.115-5.48-2.02-1.768-3.572-3.023-5.858-4.822-1.598-1.207-2.729-2.92-3.204-4.852-.857-4.036 1.53-7.694 3.762-10.513 4.124-4.98 9.359-8.95 15.294-11.595 1.047-.492 2.219-.663 3.365-.49 1.55.524 2.784 1.704 3.365 3.219.466.96-.451 1.753-1.063 2.048-7.533 3.643-14.346 6.923-18.017 13.605-.96 1.62-.624 3.687.803 4.928 1.599 1.511 3.877 3.393 5.934 5.2 4.818 4.232 1.667 9.236-.244 11.465zm23.117-25.29c-3.206 2.457-6.081 5.306-8.557 8.481-.047.073-.142.099-.22.06-.077-.04-.111-.131-.079-.211.528-1.572 1.645-5.064 2.914-8.465 1.27-3.401 2.914-6.636 3.579-8.11 1.055-2.336-.88-2.51-2.455-2.729-1.361-.189-2.462-.582-3.334.892-2.348 3.9-8.358 22.561-9.811 35.644-.086.59.279 1.153.856 1.323 1.083.245 2.175-.369 2.516-1.413 1.193-2.487 2.363-6.35 3.824-10.703.027-.059.087-.097.153-.097.065 0 .125.038.153.097.764 1.225 3.953 5.896 7.195 7.347 1.079.484 3.472 1.043 4.711-.181 1.53-1.512 1.117-1.996-.268-2.66-.68-.326-.986-.568-2.294-1.898-1.53-1.512-4.099-3.862-4.527-5.2-.09-.345.001-.712.245-.975 1.69-2.585 5.536-4.535 7.884-6.326 1.178-.9 1.063-2.91.275-4.399-.787-1.489-1.804-1.194-2.76-.476zm22.436-2.924c-3.28-.53-3.946-.975-4.305 1.511-.467 3.25-4.168 13.288-8.779 17.936-.16.159-.398.287-.535.181-.383-.294.612-3.937 1.4-6.364.787-2.426 1.529-5.502 1.659-5.955.764-2.895 1.14-3.916-.207-4.641-.993-.528-2.093-.833-3.22-.892-1.445-.12-1.842.37-1.888 1.806-.092 2.578-1.858 8.45-2.157 9.826-.244 1.126-.978 3.424-.802 5.517.098 1.013.442 1.988 1.001 2.842.704.975 2.394 1.761 4.512 1.247 1.812-.446 3.625-2.63 4.474-3.779.047-.062.132-.083.204-.05.072.033.11.11.094.186-1.33 5.27-3.368 10.342-6.057 15.079-.764 1.436.062 2.04 1.33 1.511 2.15-.937 4.33-3.25 6.6-7.95 2.118-4.474 3.842-9.12 5.154-13.885 1.476-5.215 2.96-10.34 3.136-11.012.405-1.542.084-2.842-1.614-3.114z" transform="translate(-.5)"/>
            <path d="M72.058 18.374c-3.28-.53-3.946-.975-4.305 1.511-.467 3.25-4.168 13.288-8.779 17.936-.16.159-.398.287-.535.181-.383-.294.612-3.937 1.4-6.364.787-2.426 1.529-5.502 1.659-5.955.764-2.895 1.14-3.916-.207-4.641-.993-.528-2.093-.833-3.22-.892-1.445-.12-1.842.37-1.888 1.806-.092 2.578-1.858 8.45-2.157 9.826-.244 1.126-.978 3.424-.802 5.517.098 1.013.442 1.988 1.001 2.842.704.975 2.394 1.761 4.512 1.247 1.812-.446 3.625-2.63 4.474-3.779.047-.062.132-.083.204-.05.072.033.11.11.094.186-1.33 5.27-3.368 10.342-6.057 15.079-.764 1.436.062 2.04 1.33 1.511 2.15-.937 4.33-3.25 6.6-7.95 2.118-4.474 3.842-9.12 5.154-13.885 1.476-5.215 2.96-10.34 3.136-11.012.405-1.542.084-2.842-1.614-3.114zM49.622 21.299c-3.206 2.456-6.081 5.305-8.557 8.48-.047.073-.142.099-.22.06-.077-.04-.111-.131-.079-.211.528-1.572 1.645-5.064 2.914-8.465 1.27-3.401 2.914-6.636 3.579-8.11 1.055-2.336-.88-2.51-2.455-2.729-1.361-.189-2.462-.582-3.334.892-2.348 3.9-8.358 22.561-9.811 35.644-.086.59.279 1.153.856 1.323 1.083.245 2.175-.369 2.516-1.413 1.193-2.487 2.363-6.35 3.824-10.703.027-.059.087-.097.153-.097.065 0 .125.038.153.097.764 1.225 3.953 5.896 7.195 7.347 1.079.484 3.472 1.043 4.711-.181 1.53-1.512 1.117-1.996-.268-2.66-.68-.326-.986-.568-2.294-1.898-1.53-1.512-4.099-3.862-4.527-5.2-.09-.345.001-.712.245-.975 1.69-2.585 5.536-4.535 7.884-6.326 1.178-.9 1.063-2.91.275-4.399-.787-1.489-1.804-1.194-2.76-.476z" transform="translate(-.5)"/>
        </g>
    </g>
</svg>
