<?xml version="1.0" encoding="UTF-8" standalone="no"?>
<svg
   viewBox="0 0 177.77957 65.933334"
   class="c0140 c0120"
   icon="icon-logo"
   data-testid="homeLogo"
   version="1.1"
   id="svg9"
   sodipodi:docname="logo_radio_10.svg"
   width="177.77957"
   height="65.933334"
   inkscape:version="1.4.3 (0d15f75042, 2025-12-25)"
   xmlns:inkscape="http://www.inkscape.org/namespaces/inkscape"
   xmlns:sodipodi="http://sodipodi.sourceforge.net/DTD/sodipodi-0.dtd"
   xmlns="http://www.w3.org/2000/svg"
   xmlns:svg="http://www.w3.org/2000/svg">
  <defs
     id="defs9" />
  <sodipodi:namedview
     id="namedview9"
     pagecolor="#ffffff"
     bordercolor="#000000"
     borderopacity="0.25"
     inkscape:showpageshadow="2"
     inkscape:pageopacity="0.0"
     inkscape:pagecheckerboard="0"
     inkscape:deskcolor="#d1d1d1"
     inkscape:zoom="2.6946822"
     inkscape:cx="96.857434"
     inkscape:cy="28.018147"
     inkscape:window-width="1920"
     inkscape:window-height="1131"
     inkscape:window-x="0"
     inkscape:window-y="0"
     inkscape:window-maximized="1"
     inkscape:current-layer="svg9" />
  <g
     id="g9"
     transform="matrix(0.22222222,0,0,0.22222222,-11.108985,-11.477778)">
    <path
       fill="#00c882"
       d="m 555.04,58.37 c -2.11,0 -4.64,0.39 -7.67,1.3 l -79.82,22.08 c -5.99,1.68 -9.76,6.95 -10.61,12.95 l -3.17,16.73 c -1.25,8.88 4.02,16.08 12.9,16.08 h 13.48 l -33.23,189.91 c -1.75,12.45 6.93,22.54 19.38,22.54 h 30.01 c 12.75,0 24.54,-10.33 26.33,-23.09 L 564.95,73.03 c 0,-0.01 3.05,-14.66 -9.91,-14.66"
       id="path1" />
    <path
       fill="#00c882"
       d="m 711.65,51.65 c -49.25,0 -94.54,24.02 -124.1,60.96 l -25.89,148.04 c 19.58,51.68 68.92,87.7 129.24,87.7 81.93,0 153,-66.42 158.73,-148.35 C 855.36,118.07 793.59,51.65 711.65,51.65 M 775.45,200 c -2.86,40.9 -38.46,74.18 -79.36,74.18 -40.9,0 -71.85,-33.28 -68.99,-74.18 2.86,-40.9 38.46,-74.18 79.36,-74.18 40.9,0 71.85,33.28 68.99,74.18"
       id="path2" />
    <path
       fill="#1e1e1e"
       d="M 448.12,148.76 H 86.22 c -8.75,0 -15.25,5.93 -16.62,13.78 l -19.35,110.8 c -1.83,11.46 6.27,18.9 16.31,18.9 H 423 Z"
       id="path3" />
    <path
       fill="#ffffff"
       d="m 104.22,258.28 c -1.44,0 -2.17,-0.96 -1.93,-2.29 l 9.51,-54.68 c 0.24,-1.08 0.85,-1.8 1.81,-2.29 6.98,-3.25 14.69,-5.06 22.28,-5.06 3.25,0 6.5,0.36 10,1.08 1.32,0.24 1.93,1.21 1.68,2.41 l -2.17,11.8 c -0.12,1.32 -1.08,1.93 -2.41,1.81 -2.05,-0.36 -4.46,-0.6 -6.99,-0.6 -3.13,0 -5.78,0.6 -7.83,1.45 l -7.83,44.44 c -0.24,1.21 -0.96,1.93 -2.17,1.93 z"
       id="path4" />
    <path
       fill="#ffffff"
       d="m 174.63,259.25 c -16.86,0 -25.41,-9.63 -23,-22.76 2.04,-11.68 11.92,-16.86 27.33,-16.86 3.61,0 7.23,0.36 10.24,0.96 l 0.24,-1.93 c 0.82,-6.24 -0.6,-9.15 -8.19,-9.15 -5.3,0 -10.72,1.08 -14.33,2.77 -1.32,0.6 -2.29,0.36 -2.77,-0.96 l -3.73,-9.87 c -0.36,-1.09 -0.36,-1.93 0.36,-2.41 5.78,-3.49 14.81,-5.66 24.57,-5.66 16.38,0 24.8,10.84 21.56,28.9 l -5.42,30.47 c -0.24,1.09 -0.72,1.93 -1.81,2.29 -6.87,2.4 -15.78,4.21 -25.05,4.21 m 2.29,-15.05 c 2.77,0 6.14,-0.48 8.31,-0.96 l 1.69,-10.48 c -2.29,-0.48 -5.06,-0.84 -7.71,-0.84 -5.9,0 -9.03,1.93 -9.63,5.54 -0.85,4.57 2.04,6.74 7.34,6.74"
       id="path5" />
    <path
       fill="#ffffff"
       d="m 244.26,259.25 c -17.46,0 -27.09,-11.92 -24.32,-27.94 l 2.53,-13.85 c 2.53,-14.33 13.49,-24.08 27.82,-24.08 4.45,0 8.67,0.96 11.68,2.53 l 3.72,-21.26 c 0.24,-1.21 1.39,-1.93 2.59,-1.93 h 13.51 c 1.44,0 2.17,0.96 1.93,2.29 l -13.56,77.62 c -0.12,1.08 -0.72,1.81 -1.81,2.17 -6.86,2.76 -16.14,4.45 -24.09,4.45 m 1.69,-16.02 c 2.89,0 6.02,-0.48 7.95,-1.32 l 5.42,-31.07 c -1.93,-1.32 -4.94,-2.05 -7.95,-2.05 -5.78,0 -9.52,3.61 -10.84,10.96 l -2.29,12.88 c -1.44,7.59 1.21,10.6 7.71,10.6"
       id="path6" />
    <path
       fill="#ffffff"
       d="m 288.89,258.55 c -1.32,0 -2.05,-0.96 -1.81,-2.29 l 10.19,-58.42 c 0.12,-1.2 0.96,-1.81 2.17,-1.81 h 13.97 c 1.44,0 2.17,0.84 1.93,2.17 l -10.09,58.41 c -0.24,1.21 -0.96,1.93 -2.29,1.93 h -14.07 z"
       id="path7" />
    <path
       fill="#ffffff"
       d="m 301.42,186.37 c -1.33,0 -2.05,-0.96 -1.81,-2.29 l 1.91,-10.9 c 0.12,-1.2 0.96,-1.81 2.17,-1.81 h 14.06 c 1.45,0 2.17,0.84 1.93,2.17 l -1.91,10.9 c -0.24,1.21 -0.96,1.93 -2.29,1.93 z"
       id="path8" />
    <path
       fill="#ffffff"
       d="m 349.31,259.25 c -16.13,0 -25.89,-12.04 -23.12,-27.34 l 2.53,-14.93 c 2.65,-14.57 14.45,-23.6 31.19,-23.6 16.5,0 26.13,12.16 23.6,26.86 l -2.77,15.17 c -2.77,15.17 -13.73,23.84 -31.43,23.84 m 2.05,-15.78 c 6.26,0 10.11,-3.37 11.08,-9.03 l 2.77,-15.41 c 0.96,-5.42 -1.57,-9.87 -7.34,-9.87 -5.78,0 -9.87,3.61 -10.84,9.03 l -2.77,15.54 c -1.09,5.89 1.44,9.74 7.1,9.74"
       id="path9" />
  </g>
</svg>
