<?xml version="1.0" encoding="UTF-8" standalone="no"?>
<!-- Generator: Adobe Illustrator 23.0.1, SVG Export Plug-In . SVG Version: 6.00 Build 0)  -->

<svg
   version="1.1"
   id="Livello_3"
   x="0px"
   y="0px"
   viewBox="0 0 199.99999 200"
   xml:space="preserve"
   sodipodi:docname="logo_rai_radio_3.svg"
   width="200"
   height="200"
   inkscape:version="1.4.3 (0d15f75042, 2025-12-25)"
   xmlns:inkscape="http://www.inkscape.org/namespaces/inkscape"
   xmlns:sodipodi="http://sodipodi.sourceforge.net/DTD/sodipodi-0.dtd"
   xmlns="http://www.w3.org/2000/svg"
   xmlns:svg="http://www.w3.org/2000/svg"
   xmlns:ns="http://ns.adobe.com/SaveForWeb/1.0/"><defs
   id="defs9" /><sodipodi:namedview
   id="namedview9"
   pagecolor="#ffffff"
   bordercolor="#000000"
   borderopacity="0.25"
   inkscape:showpageshadow="2"
   inkscape:pageopacity="0.0"
   inkscape:pagecheckerboard="0"
   inkscape:deskcolor="#d1d1d1"
   inkscape:zoom="0.40393989"
   inkscape:cx="247.56158"
   inkscape:cy="139.87229"
   inkscape:window-width="1920"
   inkscape:window-height="1131"
   inkscape:window-x="0"
   inkscape:window-y="0"
   inkscape:window-maximized="1"
   inkscape:current-layer="g9" />
<style
   type="text/css"
   id="style1">
	.st0{fill:#01B46E;}
	.st1{fill:#FFFFFF;}
</style>
<metadata
   id="metadata1">
	<ns:sfw>
		<ns:slices />
		<ns:sliceSourceBounds
   bottomLeftOrigin="true"
   height="200"
   width="626.9"
   x="0"
   y="0" />
	</ns:sfw>
</metadata>
<g
   id="g9">
	<polygon
   class="st0"
   points="200,200 200,0 0,0 0,200 "
   id="polygon1" />
	<path
   class="st1"
   d="m 167.2,55.1 c -5.8,0 -10.6,4.8 -10.6,10.6 0,5.8 4.8,10.6 10.6,10.6 5.8,0 10.6,-4.8 10.6,-10.6 0,-5.9 -4.8,-10.6 -10.6,-10.6"
   id="path1" />
	<rect
   x="157.8"
   y="86.099998"
   class="st1"
   width="18.9"
   height="53.299999"
   id="rect1" />
	<path
   class="st1"
   d="M 63.4,107.3 C 74.5,105.3 80.5,96 80.5,85.2 80.5,68.5 68.8,61.1 53.3,61.1 H 22.9 v 78.3 h 20.4 v -30.1 h 0.2 l 19.2,30.1 H 88 Z M 45.3,96.2 h -2 V 76.7 h 2 c 6.6,0 14.1,1.2 14.1,9.8 0,8.6 -7.5,9.7 -14.1,9.7"
   id="path2" />
	<path
   class="st1"
   d="m 128,86.1 v 5.2 c -4,-4.7 -10.4,-7 -16.5,-7 -15.8,0 -26.7,13.1 -26.7,28.4 0,15.3 11.1,28.5 26.9,28.5 6.2,0 12.8,-2.4 16.1,-7.7 h 0.2 v 5.9 h 18.9 V 86.1 Z m -11.6,38.7 c -7.7,0 -12.1,-5.2 -12.1,-11.9 0,-6.5 4.5,-12.1 12.1,-12.1 7.7,0 12.1,5.5 12.1,12.1 0.1,6.7 -4.4,11.9 -12.1,11.9"
   id="path3" />
	
	
	
	
	
	
</g>
</svg>
