<?xml version="1.0" encoding="UTF-8" standalone="no"?>
<!-- Created with Inkscape (http://www.inkscape.org/) -->
<svg
   xmlns:svg="http://www.w3.org/2000/svg"
   xmlns="http://www.w3.org/2000/svg"
   version="1.0"
   width="602.36218"
   height="253.41731"
   id="svg1881">
  <defs
     id="defs1883" />
  <g
     id="g8098">
    <rect
       width="141.71101"
       height="124.05968"
       x="266.72137"
       y="17.708649"
       style="fill:white;fill-opacity:1;fill-rule:evenodd"
       id="_96480216" />
    <path
       d="M 17.716531,17.708826 L 294.77586,17.708826 C 292.00463,19.53611 289.23802,21.482448 286.46184,23.548551 L 302.59841,45.574101 C 319.24381,33.791188 329.74794,28.414928 340.76196,28.414928 C 351.00849,28.414928 358.17554,33.280243 358.17554,41.47733 C 358.17554,53.257408 349.72404,65.040676 304.13302,88.092014 C 287.23038,96.796856 284.9244,97.565045 274.93617,102.17701 L 268.27582,133.42225 L 375.08137,133.42225 L 388.65577,104.73741 L 348.44491,104.73741 C 339.99341,104.73741 325.65082,105.25119 320.01625,106.02079 L 331.79207,100.38304 C 344.85873,93.210675 355.61196,88.602958 366.36944,81.688903 C 385.3279,69.395046 397.87652,52.7454 397.87652,32.000046 C 397.87652,26.814771 396.7827,21.993393 394.68861,17.708826 L 493.87782,17.708826 L 493.87782,160.12248 L 255.33743,160.12248 L 255.33743,208.1676 L 17.716531,208.1676 L 17.716531,17.708826 L 17.716531,17.708826 z "
       style="fill:#005ea8;fill-opacity:1;fill-rule:evenodd;stroke:none"
       id="_96029776" />
    <path
       d="M 254.65625,159.4375 L 254.65625,160.125 L 254.65625,235.71875 L 254.65625,236.375 L 255.34375,236.375 L 584.65625,236.375 L 585.3125,236.375 L 585.3125,235.71875 L 585.3125,160.125 L 585.3125,159.4375 L 584.65625,159.4375 L 255.34375,159.4375 L 254.65625,159.4375 z "
       style="fill:#d61836;fill-opacity:1;fill-rule:evenodd;stroke:none;stroke-width:38410.4453125;stroke-miterlimit:4;stroke-dasharray:none;stroke-opacity:1"
       id="_47375400" />
    <path
       d="M 153.90625,72.5625 C 147.61794,72.5625 140.00902,72.746871 135.25,72.9375 L 135.25,133.3125 C 141.1567,133.50348 147.25807,133.68751 153.15625,133.6875 C 170.87137,133.6875 184.40626,124.34878 184.40625,101.875 C 184.40625,75.590748 168.19037,72.562501 153.90625,72.5625 z M 213.15625,72.5625 C 205.91515,72.5625 199.05108,72.746871 193.71875,72.9375 L 193.71875,133.3125 L 209.34375,133.3125 L 209.34375,111.21875 L 210.09375,111.21875 C 211.80729,111.21875 212.19235,111.41177 213.90625,115.03125 L 222.28125,133.3125 L 241.71875,133.3125 L 230.09375,112 C 228.37985,108.76 226.86702,107.42155 225.34375,106.46875 C 232.00836,104.75485 236.96875,98.459795 236.96875,91.03125 C 236.96875,78.652707 228.96649,72.562501 213.15625,72.5625 z M 50.875,72.9375 L 64.96875,133.3125 L 81.90625,133.3125 L 86.5,109.6875 C 87.452795,104.54722 88.207944,100.16325 88.78125,93.6875 C 89.539164,101.49447 90.301749,105.90066 91.0625,110.28125 L 95.25,133.3125 L 112.78125,133.3125 L 126.875,72.9375 L 111.25,72.9375 L 106.6875,96.375 C 105.73896,101.13792 105.17161,105.12001 104.40625,111.21875 C 103.84039,104.35891 103.07041,100.36919 102.3125,96.9375 L 96.78125,72.9375 L 81.90625,72.9375 L 76.40625,97.875 C 75.450265,102.06673 74.695474,106.63956 74.125,111.78125 C 73.930118,106.44893 73.35804,101.31047 72.59375,97.5 L 67.4375,72.9375 L 50.875,72.9375 z M 213.34375,85.3125 C 218.86776,85.3125 220.78124,88.369763 220.78125,92.75 C 220.78125,97.512204 217.15735,100.5625 213.15625,100.5625 C 212.58295,100.5625 211.05763,100.56599 209.34375,100.375 L 209.34375,85.5 C 210.86985,85.30937 212.19678,85.312498 213.34375,85.3125 z M 155.25,85.6875 C 165.72366,85.6875 167.625,93.506134 167.625,103.03125 C 167.625,114.84074 161.91786,120.1875 155.4375,120.1875 C 153.91884,120.1875 152.58122,120.19099 151.25,120 L 151.25,85.90625 C 152.9639,85.71562 154.48784,85.687501 155.25,85.6875 z M 497.5625,172.40625 L 497.5625,183.6875 C 497.5625,185.6108 497.71442,187.85667 497.84375,188.5625 C 496.24359,187.27911 494.37153,186.6875 492,186.6875 C 483.66649,186.68749 477.96875,193.73894 477.96875,204 C 477.96874,214.19445 483.22899,220.6875 491.5625,220.6875 C 494.51159,220.6875 497.00646,219.79915 499.125,217.9375 C 499.25009,218.83502 499.36776,219.33281 499.625,219.84375 L 507.3125,219.84375 C 506.7392,218.56462 506.09375,215.95409 506.09375,207.875 L 506.09375,173.75 L 497.5625,172.40625 z M 393.65625,173.9375 C 384.22717,173.93751 377.6875,179.57694 377.6875,187.71875 C 377.68751,190.21997 378.34148,192.54523 379.5625,194.53125 C 381.16585,197.227 383.92348,198.93522 388.34375,200.15625 L 393.28125,201.5 C 397.25613,202.58815 399.125,204.39452 399.125,207.28125 C 399.125,211.25719 396.41231,213.375 391.28125,213.375 C 386.79435,213.37499 383.19818,211.96215 379.03125,209.78125 L 375.71875,216.78125 C 380.20565,219.34768 385.84181,220.8125 390.90625,220.8125 C 402.00141,220.8125 409.3125,214.85324 409.3125,205.8125 C 409.3125,199.20849 405.34251,194.51727 398.03125,192.53125 L 392.625,191.0625 C 388.9095,190.03671 387.6875,188.86848 387.6875,186.5625 C 387.68751,183.5468 390.25027,181.4375 393.90625,181.4375 C 397.2412,181.4375 400.27384,182.4056 404.3125,184.84375 L 408.53125,178.4375 C 404.62618,175.61632 399.10338,173.9375 393.65625,173.9375 z M 272.0625,175.28125 L 272.0625,219.84375 L 282.90625,219.84375 C 285.53646,219.84375 287.64679,219.72202 289.3125,219.59375 C 293.47943,219.27379 297.46758,216.84242 300.15625,213.1875 C 303.17515,209.14885 304.65625,203.81218 304.65625,197.71875 C 304.65624,189.7052 302.66671,184.00741 298.5625,179.96875 C 295.87065,177.2769 292.5925,175.85121 288.8125,175.53125 C 287.0171,175.40299 283.62998,175.28125 281.0625,175.28125 L 272.0625,175.28125 z M 281.1875,182.34375 L 285.28125,182.34375 C 288.80508,182.34374 290.87293,183.62825 292.34375,186.0625 C 294.14622,189.01266 294.59375,193.36872 294.59375,198.5625 C 294.59375,207.98733 291.89961,212.53125 286,212.53125 L 281.1875,212.53125 L 281.1875,182.34375 z M 453.84375,186.1875 L 446.21875,188.375 C 446.98409,190.55591 447.375,193.24167 447.375,196.0625 L 447.375,219.84375 L 455.96875,219.84375 L 455.96875,196.65625 C 457.95477,194.8612 460.20483,193.6875 461.9375,193.6875 C 464.18111,193.6875 464.8125,194.78272 464.8125,198.5 L 464.8125,219.84375 L 473.28125,219.84375 L 473.28125,195.875 C 473.28126,193.82342 473.10873,192.40391 472.65625,191.1875 C 471.63436,188.36667 468.40599,186.4375 464.75,186.4375 C 462.83058,186.4375 460.57961,186.94623 458.84375,187.84375 C 457.43529,188.61619 456.37288,189.38373 455.09375,190.28125 C 455.09375,188.9355 454.61938,187.53324 453.84375,186.1875 z M 349.78125,186.25 L 342.0625,188.3125 C 342.76834,190.17345 343.28125,193.51333 343.28125,197.9375 L 343.28125,219.84375 L 351.875,219.84375 L 351.875,196.65625 C 353.47517,194.79565 355.23294,193.875 357.15625,193.875 C 358.1165,193.875 358.82144,194.08196 359.65625,194.53125 L 362,186.96875 C 360.65069,186.3912 360.09553,186.25 358.8125,186.25 C 357.84907,186.25001 356.70689,186.46094 356,186.78125 C 354.39667,187.48673 352.34248,189.27073 351.125,190.9375 C 350.99568,189.07974 350.5466,187.59893 349.78125,186.25 z M 552.09375,186.25 L 544.40625,188.3125 C 545.11316,190.17345 545.625,193.51333 545.625,197.9375 L 545.625,219.84375 L 554.21875,219.84375 L 554.21875,196.65625 C 555.82635,194.79565 557.54544,193.875 559.46875,193.875 C 560.43217,193.875 561.13784,194.08196 561.96875,194.53125 L 564.34375,186.96875 C 562.99376,186.3912 562.43964,186.25 561.15625,186.25 C 560.196,186.25001 559.04533,186.46094 558.34375,186.78125 C 556.73935,187.48673 554.68942,189.27073 553.46875,190.9375 C 553.34367,189.07974 552.86938,187.59893 552.09375,186.25 z M 323.5,186.3125 C 319.14209,186.3125 315.85519,187.73393 313.15625,190.75 C 310.27272,193.9567 309.0625,197.85075 309.0625,203.75 C 309.06249,214.07272 315.16324,220.75 324.59375,220.75 C 329.20856,220.75 333.18768,219.26593 336.96875,216.1875 L 333.625,211.0625 C 330.99586,213.24057 328.2307,214.34375 325.28125,214.34375 C 320.85708,214.34375 318.375,211.43944 318.375,206.375 L 318.375,206.125 L 337.34375,206.125 C 337.34375,205.54744 337.34375,204.85889 337.34375,204.15625 C 337.34375,197.29464 335.98446,192.86003 332.96875,189.78125 C 330.8502,187.60353 327.28815,186.3125 323.5,186.3125 z M 427.53125,186.3125 C 423.17264,186.3125 419.88644,187.73393 417.1875,190.75 C 414.30715,193.9567 413.09375,197.85075 413.09375,203.75 C 413.09375,214.07272 419.17175,220.75 428.59375,220.75 C 433.21282,220.75 437.18486,219.26593 440.96875,216.1875 L 437.65625,211.0625 C 435.02605,213.24057 432.26159,214.34375 429.3125,214.34375 C 424.88832,214.34375 422.40625,211.43944 422.40625,206.375 L 422.40625,206.125 L 441.375,206.125 C 441.37501,205.54744 441.375,204.85889 441.375,204.15625 C 441.37501,197.29464 440.00756,192.86003 437,189.78125 C 434.88181,187.60353 431.31125,186.3125 427.53125,186.3125 z M 525.84375,186.3125 C 521.48616,186.3125 518.19149,187.73393 515.5,190.75 C 512.61645,193.9567 511.40625,197.85075 511.40625,203.75 C 511.40626,214.07272 517.51549,220.75 526.9375,220.75 C 531.55688,220.75 535.5325,219.26593 539.3125,216.1875 L 535.96875,211.0625 C 533.33534,213.24057 530.5741,214.34375 527.625,214.34375 C 523.20048,214.34375 520.71875,211.43944 520.71875,206.375 L 520.71875,206.125 L 539.6875,206.125 C 539.68748,205.54744 539.6875,204.85889 539.6875,204.15625 C 539.68748,197.29464 538.32821,192.86003 535.3125,189.78125 C 533.20141,187.60353 529.628,186.3125 525.84375,186.3125 z M 323.625,192.59375 C 325.35767,192.59375 326.57215,193.25105 327.40625,194.53125 C 328.17551,195.75192 328.4375,197.0313 328.4375,199.46875 L 328.4375,199.84375 L 318.5,199.84375 L 318.5,199.71875 C 318.50001,195.16597 320.35594,192.59375 323.625,192.59375 z M 427.65625,192.59375 C 429.38468,192.59375 430.60553,193.25105 431.4375,194.53125 C 432.20889,195.75192 432.46875,197.0313 432.46875,199.46875 L 432.46875,199.84375 L 422.53125,199.84375 L 422.53125,199.71875 C 422.53124,195.16597 424.38294,192.59375 427.65625,192.59375 z M 525.96875,192.59375 C 527.6972,192.59375 528.91945,193.25105 529.75,194.53125 C 530.52279,195.75192 530.78125,197.0313 530.78125,199.46875 L 530.78125,199.84375 L 520.84375,199.84375 L 520.84375,199.71875 C 520.84376,195.16597 522.69863,192.59375 525.96875,192.59375 z M 493.03125,193.5625 C 494.57187,193.56249 496.11966,194.27904 497.71875,195.6875 L 497.71875,211.3125 C 496.88784,212.33828 495.06891,213.4375 493.46875,213.4375 C 488.97868,213.43749 487.5,211.1158 487.5,204.0625 C 487.5,196.75442 489.18039,193.5625 493.03125,193.5625 z M 566.0625,209.59375 C 562.98087,209.59376 560.5,212.08102 560.5,215.15625 C 560.50002,218.30023 562.98386,220.875 566.125,220.875 C 569.20662,220.875 571.78125,218.30023 571.78125,215.15625 C 571.78125,212.08102 569.20364,209.59375 566.0625,209.59375 z "
       style="fill:white;fill-opacity:1;fill-rule:evenodd"
       id="_94297792" />
  </g>
</svg>
