<?xml version="1.0" encoding="UTF-8" standalone="no"?>
<svg
   version="1.2"
   viewBox="0 0 695.59998 695.59998"
   width="695.59998"
   height="695.59998"
   id="svg10"
   sodipodi:docname="logo_bfm_business.svg"
   inkscape:version="1.4.3 (0d15f75042, 2025-12-25)"
   xmlns:inkscape="http://www.inkscape.org/namespaces/inkscape"
   xmlns:sodipodi="http://sodipodi.sourceforge.net/DTD/sodipodi-0.dtd"
   xmlns="http://www.w3.org/2000/svg"
   xmlns:svg="http://www.w3.org/2000/svg"
   xmlns:rdf="http://www.w3.org/1999/02/22-rdf-syntax-ns#"
   xmlns:cc="http://creativecommons.org/ns#"
   xmlns:dc="http://purl.org/dc/elements/1.1/">
  <defs
     id="defs10" />
  <sodipodi:namedview
     id="namedview10"
     pagecolor="#ffffff"
     bordercolor="#000000"
     borderopacity="0.25"
     inkscape:showpageshadow="2"
     inkscape:pageopacity="0.0"
     inkscape:pagecheckerboard="0"
     inkscape:deskcolor="#d1d1d1"
     inkscape:zoom="1.2425952"
     inkscape:cx="327.94268"
     inkscape:cy="348.86663"
     inkscape:window-width="1920"
     inkscape:window-height="1131"
     inkscape:window-x="0"
     inkscape:window-y="0"
     inkscape:window-maximized="1"
     inkscape:current-layer="&lt;Group&gt;" />
  <title
     id="title1">BFMBUSINESS-CMJN-CONTOUR-ai</title>
  <style
     id="style1">
		.s0 { fill: #1b1955 } 
		.s1 { fill: #fefefe } 
		.s2 { fill: #ed9320 } 
	</style>
  <g
     id="Calque 1"
     transform="translate(-6.7,-6.7)">
    <g
       id="&lt;Group&gt;">
      <path
         id="&lt;Path&gt;"
         class="s0"
         d="M 6.7,6.7 H 702.3 V 702.3 H 6.7 Z" />
      <path
         id="path1"
         fill-rule="evenodd"
         class="s1"
         d="m 16.3,354.9 h 37 q 14,0.1 25.6,4 c 7.6,2.6 13.8,7 18.5,13.4 q 7,9.2 7,24.7 0,11.7 -4.6,20.4 -4.6,8.9 -12.5,13.1 v 0.6 q 4.5,2.3 8.4,6.1 3.8,3.7 6.7,8.9 2.7,5 4.4,11.2 1.4,6.3 1.4,13.3 0,20.1 -11.7,32.4 -11.7,12.3 -35.6,12.3 H 16.3 Z m 32.4,31.4 v 32.4 h 8.2 c 5,0 8.8,-1.5 11.3,-4.4 q 3.9,-4.2 3.8,-12.2 0,-8.5 -4.8,-12.2 -4.8,-3.6 -11.5,-3.6 z m 0,63.9 v 33.5 h 8.7 q 18.5,0 18.5,-16.4 0,-10.3 -5,-13.7 -4.9,-3.4 -14,-3.4 z" />
      <path
         id="path2"
         class="s1"
         d="m 216.1,355.1 v 104.6 q 0,18.2 -6.9,31.6 -6.9,13.6 -19.1,20.6 c -8.1,4.7 -17.5,7.1 -28,7.1 -9.9,0 -18.5,-2 -25.9,-6.1 -7.5,-4.1 -13.2,-10.3 -17.3,-18.8 -4.2,-8.4 -6.2,-18.9 -6.2,-31.6 V 354.9 l 30.9,0.2 v 96.1 c 0,6.2 0.6,11.7 1.7,16.2 1.2,4.7 3.2,8.4 6.1,11.1 q 4.1,4.1 11.5,4.1 c 9.2,0 15.2,-3.4 18.1,-10.3 q 4.3,-10.3 4.3,-29.7 v -87.7 z" />
      <path
         id="path3"
         class="s1"
         d="m 284.4,397.4 q -5.5,-6.7 -9.6,-9.4 -4.5,-3 -10.3,-3 -4.4,0 -8.2,3.5 -4,3.5 -4,9.3 0,8.1 8.7,12.8 8.9,4.9 18.2,9.4 c 6.3,3.2 11.7,8.2 16.3,15 4.6,7 6.8,17.1 6.8,30.6 q 0,25.7 -12.1,39.5 -12.1,13.9 -30.8,13.9 -10.8,0 -20.9,-4.8 c -6.8,-3.1 -12.8,-7.8 -17.9,-14.2 l 16.6,-30.3 q 8,12.9 21.1,12.9 5.2,0 10,-3.7 4.7,-3.6 4.7,-10.6 0,-8.3 -8.8,-13.1 c -2.6,-1.5 -5.6,-3.1 -9.1,-4.9 l -4.6,-2.3 -4.7,-2.6 q -9.4,-4.9 -16.2,-15 -6.7,-9.9 -6.7,-29.7 0,-15.1 5.8,-26.4 c 3.8,-7.4 8.9,-13.2 15.2,-17.2 q 9.2,-5.9 19.8,-5.9 9.7,0 19.1,4.8 c 6.4,3.3 12,7.9 16.8,13.8 z" />
      <path
         id="path4"
         class="s1"
         d="m 306.8,368.9 30.9,-17.2 v 163.6 l -30.9,-0.1 z" />
      <path
         id="path5"
         class="s1"
         d="m 449.1,515.4 -70.7,-76.5 0.1,76 H 347.4 V 352.7 l 70.8,76.3 v -73.9 h 30.9 z" />
      <path
         id="path6"
         class="s1"
         d="M 520.4,515.3 H 457.6 V 354.9 h 69 V 389 h -38.1 v 27.8 h 31.9 v 33.7 h -31.9 v 31 h 31.9 z" />
      <path
         id="path7"
         class="s1"
         d="m 592.6,397.4 q -5.6,-6.7 -9.7,-9.4 -4.4,-3 -10.3,-3 -4.3,0 -8.2,3.5 -4,3.5 -4,9.3 0,8.1 8.7,12.8 8.9,4.9 18.2,9.4 c 6.3,3.2 11.7,8.2 16.3,15 4.6,7 6.9,17.1 6.9,30.6 q 0,25.7 -12.2,39.5 -12.1,13.9 -30.8,13.9 c -7.2,0 -14.2,-1.6 -20.9,-4.8 -6.8,-3.1 -12.8,-7.8 -17.9,-14.2 l 16.7,-30.3 q 7.9,12.9 21,12.9 5.2,0 10,-3.7 c 3.2,-2.4 4.7,-6 4.7,-10.6 q 0,-8.3 -8.8,-13.1 -3.9,-2.2 -9,-4.9 l -4.7,-2.3 -4.6,-2.6 q -9.5,-4.9 -16.3,-15 -6.7,-9.9 -6.7,-29.7 c 0,-10.1 1.9,-18.9 5.8,-26.4 q 5.7,-11.2 15.2,-17.2 9.2,-5.9 19.8,-5.9 c 6.5,0 12.9,1.6 19.1,4.8 q 9.7,5 16.8,13.8 z" />
      <path
         id="path8"
         class="s1"
         d="m 673.4,397.4 q -5.5,-6.7 -9.7,-9.4 -4.4,-3 -10.3,-3 -4.3,0 -8.1,3.5 c -2.7,2.4 -4.1,5.4 -4.1,9.3 0,5.4 3,9.7 8.8,12.8 q 8.8,4.9 18.1,9.4 c 6.3,3.2 11.7,8.2 16.4,15 4.5,7 6.8,17.1 6.8,30.6 q 0,25.7 -12.2,39.5 -12,13.9 -30.7,13.9 -10.9,0 -21,-4.8 -10.2,-4.7 -17.9,-14.2 l 16.7,-30.3 q 8,12.9 21,12.9 c 3.5,0 6.8,-1.2 10,-3.7 q 4.7,-3.6 4.7,-10.6 c 0,-5.5 -2.9,-9.9 -8.8,-13.1 -2.6,-1.5 -5.6,-3.1 -9,-4.9 l -4.6,-2.3 -4.7,-2.6 q -9.5,-4.9 -16.2,-15 c -4.6,-6.6 -6.8,-16.5 -6.8,-29.7 q 0,-15.1 5.8,-26.4 5.7,-11.2 15.2,-17.2 9.3,-5.9 19.8,-5.9 9.8,0 19.2,4.8 9.6,5 16.7,13.8 z" />
      <path
         id="path9"
         class="s2"
         d="m 633.1,530.1 -121.5,101 -91.4,-58.9 -99.9,68.1 -85.6,-35.9 -167.9,98 H 6.6 v -1.9 l 223.5,-132.8 86.6,34.1 103.6,-70.3 90.1,58.1 c 0,0 92.4,-75.8 92.7,-75.8 8,7.8 11.1,10.7 30,16.3 z" />
      <path
         id="path10"
         fill-rule="evenodd"
         class="s1"
         d="M 691.8,85.8 V 328.2 H 621.7 V 172.7 H 621 L 579.2,328.2 H 523.9 L 482.2,172.7 h -0.7 V 328.2 H 411.4 V 143.5 H 307.2 v 36.7 H 375 v 55.7 h -67.7 v 92.3 h -74.1 v -48.6 c -11.7,31.9 -45.2,48.6 -79.5,48.6 H 17.2 V 85.8 H 149 c 63.3,0 76.8,36 76.8,60.8 0,24.5 -11.8,37.7 -29.6,47.5 15.3,5.3 29.9,15.8 37,34.2 V 85.8 h 283.7 l 34.4,142.6 h 0.6 L 586.3,85.8 Z M 91.2,180.2 h 39.3 c 15.5,0 25.3,-4.4 25.3,-20 0,-12.3 -10.1,-16.7 -25.3,-16.7 H 91.2 Z m 72.6,67.3 c 0,-14.3 -8.4,-22.1 -25.9,-22.1 H 91.4 v 45.1 h 43.4 c 15.6,0 29,-4.4 29,-23 z" />
    </g>
  </g>
  <metadata
     id="metadata10">
    <rdf:RDF>
      <cc:Work
         rdf:about="">
        <dc:title>BFMBUSINESS-CMJN-CONTOUR-ai</dc:title>
      </cc:Work>
    </rdf:RDF>
  </metadata>
</svg>
