<?xml version="1.0" encoding="UTF-8" standalone="no"?>
<!-- Created with Inkscape (http://www.inkscape.org/) -->

<svg
   version="1.1"
   id="svg1"
   width="468"
   height="468"
   viewBox="0 0 468 468"
   sodipodi:docname="logo_tsf_jazz.svg"
   inkscape:version="1.4.3 (0d15f75042, 2025-12-25)"
   xmlns:inkscape="http://www.inkscape.org/namespaces/inkscape"
   xmlns:sodipodi="http://sodipodi.sourceforge.net/DTD/sodipodi-0.dtd"
   xmlns="http://www.w3.org/2000/svg"
   xmlns:svg="http://www.w3.org/2000/svg">
  <defs
     id="defs1" />
  <sodipodi:namedview
     id="namedview1"
     pagecolor="#ffffff"
     bordercolor="#000000"
     borderopacity="0.25"
     inkscape:showpageshadow="2"
     inkscape:pageopacity="0.0"
     inkscape:pagecheckerboard="0"
     inkscape:deskcolor="#d1d1d1"
     inkscape:zoom="0.33321922"
     inkscape:cx="354.12123"
     inkscape:cy="-82.528253"
     inkscape:window-width="1920"
     inkscape:window-height="1131"
     inkscape:window-x="0"
     inkscape:window-y="0"
     inkscape:window-maximized="1"
     inkscape:current-layer="g1" />
  <g
     inkscape:groupmode="layer"
     inkscape:label="Image"
     id="g1"
     transform="translate(-15.001555,13.784732)">
    <g
       id="g2"
       transform="translate(50.15622,-135.26488)">
      <path
         style="fill:#000000"
         d="m 164.84533,471.08318 c -2.43453,-0.73675 -2.50738,-1.03132 -2.78165,-11.24784 l -0.28164,-10.49126 6.78164,0.32444 c 8.0695,0.38606 11.08849,-0.90127 13.5301,-5.7694 1.61415,-3.21834 1.74856,-8.8049 1.75,-72.73609 l 0.002,-69.25 h 13.04958 13.04957 l -0.33328,70.75 c -0.37182,78.93177 -0.13696,76.19011 -7.45236,86.9959 -2.79245,4.12481 -4.9161,5.91773 -9.93716,8.38959 -5.50268,2.70896 -7.66427,3.18847 -15.63105,3.46746 -5.08492,0.17807 -10.3703,-0.0167 -11.7453,-0.4328 z m 56,-1.52644 c 0,-1.69506 24.76404,-162.31343 25.5003,-165.39371 0.52177,-2.18291 0.90621,-2.25 12.89329,-2.25 h 12.35549 l 1.60542,10.25 c 0.88299,5.6375 4.55153,28.7 8.15231,51.25 3.60079,22.55 7.20411,45.275 8.00737,50.5 0.80327,5.225 3.04119,19.3357 4.97315,31.35711 1.93197,12.02141 3.51267,22.70891 3.51267,23.75 0,1.74727 -0.88322,1.89289 -11.48095,1.89289 -11.09556,0 -11.49725,-0.0755 -11.96675,-2.25 -0.45039,-2.08597 -5.5523,-42.65442 -5.5523,-44.14976 0,-0.36861 -4.6125,-0.54196 -10.25,-0.38522 l -10.25,0.28498 -2.30698,21 c -1.26885,11.55 -2.51492,22.0125 -2.76906,23.25 -0.44536,2.16868 -0.85894,2.25 -11.44301,2.25 -8.57706,0 -10.98095,-0.29691 -10.98095,-1.35629 z m 45,-68.43525 c 0,-1.53534 -0.67304,-7.94784 -1.49565,-14.25 -0.8226,-6.30215 -2.60631,-21.30467 -3.96379,-33.33892 -2.41402,-21.40063 -3.54056,-27.32284 -3.54056,-18.61262 0,3.94215 -4.06603,46.55292 -5.89272,61.75388 -0.4138,3.44343 -0.53221,6.48093 -0.26315,6.75 0.26906,0.26906 3.7892,0.4892 7.82254,0.4892 h 7.33333 z m 36,57.61747 v -12.20297 l 11.08489,-38.06148 c 9.00282,-30.91242 21.96962,-75.21832 24.52872,-83.81148 0.48205,-1.61867 -0.7597,-1.75 -16.54622,-1.75 h -17.06739 v -10.5 -10.5 h 29 29 l -0.066,9.75 c -0.0648,9.572 -0.39891,10.90925 -18.30055,73.25 l -18.23453,63.5 19.33417,0.27125 19.33417,0.27125 -0.28361,10.72875 -0.28365,10.72875 -30.75,0.26445 -30.75,0.26445 z m 69,0.34574 v -11.82832 l 12.42309,-42.42168 c 6.8327,-23.33192 14.9327,-50.96377 18,-61.40412 3.0673,-10.44036 5.57691,-19.32786 5.57691,-19.75001 0,-0.42215 -7.65,-0.76754 -17,-0.76754 h -17 v -10.5 -10.5 h 29.5 29.5 v 8.06632 c 0,7.47288 -1.36105,12.81272 -18.5,72.58147 -10.175,35.48333 -18.5,64.92848 -18.5,65.43368 0,0.52581 8.12342,0.91853 19,0.91853 h 19 v 11 11 h -31 -31 z M 56.845335,424.5801 c -15.358892,-3.55717 -23.244066,-13.99377 -25.548364,-33.81511 -0.752551,-6.47336 -1.243325,-6.16092 11.548364,-7.35196 3.575,-0.33287 7.7375,-0.8423 9.25,-1.13206 2.692558,-0.51585 2.750116,-0.42597 2.755577,4.3026 0.01308,11.32228 3.686185,17.32946 10.596153,17.32946 7.97746,0 10.81389,-6.93827 10.20938,-24.97351 -0.49812,-14.86141 -2.11532,-18.62327 -11.942355,-27.77975 -20.041564,-18.67402 -22.83531,-22.31461 -27.515928,-35.85659 -2.30366,-6.66496 -2.735584,-9.59824 -2.781567,-18.89015 -0.140331,-28.35697 11.200977,-43.68251 32.31937,-43.67326 13.21161,0.006 21.38084,4.57681 26.99101,15.10258 3.13989,5.89103 6.6689,19.97553 5.30615,21.17713 -0.61746,0.54445 -18.03675,2.89355 -21.45652,2.89355 -0.92199,0 -1.79859,-2.25839 -2.62003,-6.75 -1.69965,-9.2936 -3.24161,-11.44587 -7.92149,-11.05677 -5.556608,0.46198 -7.421221,4.97398 -7.498605,18.14514 -0.07983,13.58808 1.696535,17.58594 12.041305,27.09995 18.38807,16.91137 22.93556,22.58533 27.10902,33.82426 4.382995,11.80322 4.696525,33.43224 0.68475,47.23742 -3.37009,11.59702 -11.8479,20.9016 -21.36888,23.45283 -6.4779,1.73581 -14.516622,2.02064 -20.15734,0.71424 z m -73,-74.63629 v -74.03078 h -9.5 -9.5 v -11.01425 -11.01424 l 31.2499999,0.26424 31.2500001,0.26425 0.283832,10.75 0.283831,10.75 H 18.385615 8.8582309 l -0.256448,73.75 -0.256448,73.75 -12.25,0.28078 -12.2499999,0.28078 z M 115.3057,422.66303 c -0.26227,-0.6875 -0.36065,-38.825 -0.21862,-84.75 l 0.25825,-83.5 h 28 28 v 10.5 10.5 l -15.75,0.27539 -15.75,0.27539 v 24.47461 24.47461 h 12.5 12.5 v 11 11 h -12.5 -12.5 v 38.5 38.5 h -12.03138 c -8.70412,0 -12.16327,-0.34569 -12.50825,-1.25 z"
         id="path1"
         sodipodi:nodetypes="cscssccccssssccssscssssssssscssssssssssscsccssscccccssccccccccccsssscccccssssccccccsssssssssscssssssssssscccccccccccccccccsscccccccccccccccccss" />
      <path
         d="m 211.80642,293.19479 c -3.55843,-1.41216 -5.95193,-4.87701 -5.97776,-8.65346 -0.0292,-4.2723 3.40639,-4.66266 4.44975,-0.5056 0.99663,3.97092 2.39031,5.2556 5.70148,5.2556 2.4347,0 3.19069,-0.62732 4.48283,-3.71984 0.99252,-2.37543 1.37052,-5.34988 1.04588,-8.23003 -0.44922,-3.98551 -1.21654,-5.15236 -6.59575,-10.03017 -6.0768,-5.51036 -9.10643,-10.67372 -9.10643,-15.51996 0,-7.62797 6.5977,-13.79393 12.62425,-11.79816 3.1262,1.03528 7.37575,6.47764 7.37575,9.44604 0,2.5336 -4.98578,2.63478 -5.0318,0.10212 -0.0896,-4.92957 -5.67193,-6.93878 -8.4115,-3.0275 -3.29975,4.71107 -1.25168,10.32824 5.90353,16.1914 5.6448,4.62549 8.53977,10.05829 8.53977,16.02602 0,5.31371 -2.30041,11.64209 -4.79926,13.20264 -2.81609,1.75868 -7.49047,2.33647 -10.20074,1.2609 z m 144.35443,0.37893 c -1.18006,-0.21677 -2.94574,-1.2783 -3.92373,-2.35897 -5.4024,-5.96958 -5.97053,-39.59133 -0.80229,-47.47905 3.18766,-4.86499 10.19397,-5.41271 14.19578,-1.10976 2.25308,2.42261 4.02821,9.66539 2.36889,9.66539 -0.56623,0 -1.74131,0.27314 -2.61129,0.60699 -1.18204,0.45359 -1.58179,-0.0238 -1.58179,-1.88922 0,-1.37291 -0.84714,-3.54237 -1.88253,-4.82103 -1.64816,-2.03539 -2.20167,-2.17941 -4.44605,-1.1568 -3.47466,1.58316 -4.18103,5.56347 -4.12784,23.26006 0.032,10.63403 0.43438,15.29985 1.50936,17.5 2.67557,5.47603 8.94706,3.94015 8.94706,-2.19113 0,-1.6188 0.58011,-2.30887 1.94098,-2.30887 2.69775,0 3.13732,1.13254 2.01592,5.19394 -1.50927,5.46611 -5.88408,8.13887 -11.60247,7.08845 z m -165.58665,-24.53239 -0.26778,-24.25 -3.25,-0.31336 c -2.44002,-0.23526 -3.25,-0.79602 -3.25,-2.25 0,-1.77962 0.77027,-1.93664 9.5,-1.93664 8.83333,0 9.5,0.14035 9.5,2 0,1.61905 -0.66667,2 -3.5,2 h -3.5 v 24.5 24.5 h -2.48222 -2.48222 z m 42.23222,-2.25 v -26.5 h 8.5 c 7.76083,0 8.5,0.16958 8.5,1.95009 0,1.6726 -0.81824,1.99278 -5.75,2.25 l -5.75,0.29991 -0.28753,9.25 -0.28752,9.25 h 5.10708 c 4.72424,0 5.08312,0.16866 4.78752,2.25 -0.27269,1.92007 -1.01606,2.29469 -5.06955,2.55479 l -4.75,0.30479 v 12.44521 12.44521 h -2.5 -2.5 z m 18,24.7068 c 0,-1.16017 1.14731,-2.13098 3.25,-2.75 l 3.25,-0.9568 0.2681,-23.75 0.2681,-23.75 h 2.4819 2.4819 v 24.27749 c 0,28.21509 -0.1335,28.72251 -7.5567,28.72251 -3.60583,0 -4.4433,-0.33798 -4.4433,-1.7932 z m 19.03425,-0.88348 c 0.0188,-1.55283 1.71893,-13.39832 3.77799,-26.32332 3.67779,-23.086 3.78729,-23.50513 6.21575,-23.79133 2.41786,-0.28495 2.51246,-0.0331 4.31848,11.5 1.01556,6.48523 2.92806,18.18763 4.25,26.00533 1.32194,7.81771 2.40353,14.45521 2.40353,14.75 0,0.2948 -1.125,0.536 -2.5,0.536 -1.66752,0 -2.5,-0.55546 -2.5,-1.66809 0,-0.91745 -0.49619,-4.51745 -1.10265,-8 l -1.10266,-6.33191 h -3.85203 c -4.2278,0 -3.81731,-0.78388 -5.75571,10.99135 -0.50672,3.07822 -1.28171,4.5958 -2.46315,4.82332 -1.30886,0.25207 -1.71556,-0.34763 -1.68955,-2.49135 z m 12.96575,-19.52142 c 0,-2.57663 -2.05481,-18.66321 -2.64346,-20.69503 -0.71134,-2.45526 -1.13728,-0.81311 -2.30668,8.89313 -0.62951,5.225 -1.39704,10.5125 -1.70562,11.75 -0.50403,2.02129 -0.19427,2.25 3.04735,2.25 3.05014,0 3.60841,-0.34008 3.60841,-2.1981 z m 12,19.57866 c 0,-1.44069 2.925,-11.96194 6.5,-23.38056 3.575,-11.41862 6.5,-21.26488 6.5,-21.88057 0,-0.70153 -2.23989,-1.11943 -6,-1.11943 -5.33333,0 -6,-0.22222 -6,-2 0,-1.85185 0.66667,-2 9,-2 8.26105,0 9,0.16035 9,1.95295 0,1.07412 -0.42833,2.98662 -0.95184,4.25 -0.52352,1.26337 -2.82042,8.37205 -5.10422,15.79705 -2.28381,7.425 -5.00548,16.0733 -6.04816,19.21845 -1.04268,3.14515 -1.89578,6.18265 -1.89578,6.75 0,0.61049 2.85729,1.03155 7,1.03155 6.33333,0 7,0.19047 7,2 0,1.85965 -0.66667,2 -9.5,2 h -9.5 z m 21,0.44425 c 0,-1.901 3.39271,-13.23405 11.47307,-38.32481 1.23988,-3.85 2.0641,-7.3375 1.83161,-7.75 -0.23249,-0.4125 -3.09616,-0.75 -6.3637,-0.75 -5.27431,0 -5.94098,-0.22443 -5.94098,-2 0,-1.85185 0.66667,-2 9,-2 8.55298,0 9,0.10718 9,2.15799 0,1.77683 -5.6095,20.3159 -12.59537,41.62696 -0.77255,2.35672 -1.40463,4.49422 -1.40463,4.75 0,0.25577 3.15,0.46505 7,0.46505 6.33333,0 7,0.19047 7,2 0,1.85965 -0.66667,2 -9.5,2 -9.08838,0 -9.5,-0.0942 -9.5,-2.17519 z m 24,-1.82481 c 0,-3.6 0.25,-4 2.5,-4 2.25,0 2.5,0.4 2.5,4 0,3.6 -0.25,4 -2.5,4 -2.25,0 -2.5,-0.4 -2.5,-4 z m 39.02544,2.02543 c -3.08608,-3.08607 -3.52544,-6.26721 -3.52544,-25.52543 0,-15.96631 0.21639,-18.35757 1.91527,-21.16479 4.7935,-7.92076 13.7438,-6.67844 17.24389,2.39349 1.49799,3.88267 1.83722,7.56497 1.82139,19.7713 -0.0197,15.22677 -1.02063,21.0391 -4.26196,24.75 -2.22353,2.54564 -10.56493,2.40366 -13.19315,-0.22457 z m 10.41786,-4.24794 c 2.24995,-3.21226 2.27509,-35.4876 0.031,-39.82715 -2.86188,-5.53427 -7.88616,-3.05526 -9.01106,4.4461 -1.07112,7.14276 -0.10204,32.81324 1.33463,35.35356 1.6536,2.9239 5.60672,2.93812 7.64541,0.0275 z m 14.5567,-20.27749 v -26.5 h 3.4121 c 3.24421,0 3.44453,0.20913 4.07106,4.25 0.36243,2.3375 1.26173,7.4 1.99845,11.25 0.73672,3.85 1.86639,10.375 2.51038,14.5 1.62108,10.3836 2.03705,12.30429 2.55303,11.78832 0.24622,-0.24623 1.80408,-8.51183 3.46191,-18.368 4.2732,-25.40514 3.67382,-23.42032 7.07253,-23.42032 h 2.92054 v 26.5 c 0,25.83333 -0.0503,26.5 -2,26.5 -1.93548,0 -2,-0.66667 -2,-20.66667 0,-11.36666 -0.19519,-20.47147 -0.43376,-20.23291 -0.38401,0.38401 -2.80389,13.79317 -5.66652,31.39958 -1.3787,8.47962 -1.79719,9.5 -3.89621,9.5 -2.09675,0 -2.48156,-1.51549 -6.09396,-24 -1.19291,-7.425 -2.53204,-14.4 -2.97585,-15.5 -0.45027,-1.11601 -0.83494,7.17146 -0.87031,18.75 -0.0613,20.0622 -0.12968,20.75 -2.06339,20.75 -1.94969,0 -2,-0.66667 -2,-26.5 z"
         style="fill:#096dbb;fill-opacity:1"
         id="path1-3" />
    </g>
  </g>
</svg>
