<?xml version="1.0" encoding="utf-8"?>
<!-- Generator: Adobe Illustrator 23.0.1, SVG Export Plug-In . SVG Version: 6.00 Build 0)  -->
<svg version="1.1" id="Livello_1" xmlns="http://www.w3.org/2000/svg" xmlns:xlink="http://www.w3.org/1999/xlink" x="0px" y="0px"
	 viewBox="0 0 500 500" enable-background="new 0 0 500 500" xml:space="preserve">
<circle fill="#FF0000" cx="250" cy="250" r="250"/>
<polygon points="249.3,500 48.8,102.3 451.4,102.3 "/>
<g>
	<path fill="#FFFFFF" d="M99.2,134.7h55.3c28.4,0,52.5,12,52.5,43.8c0,19-7.4,27.1-24.4,32.8v1c2.3,1.8,5.2,3.9,7.7,7.5l27.4,41
		h-52.8l-20.1-40.5H144v40.5H99.2V134.7z M144,190.5h3.2c7.5,0,15-1.2,15-10.5c0-9.7-6.8-10.8-14.7-10.8H144L144,190.5L144,190.5z"
		/>
	<path fill="#FFFFFF" d="M210.5,134.7h96.3v41l-25.2-1.2v86.2h-45.8v-86.3l-25.2,1.2L210.5,134.7L210.5,134.7z"/>
	<path fill="#FFFFFF" d="M316,134.7h45.8v85.6h38.5v40.5H316V134.7z"/>
</g>
<g>
	<path fill="#FFFFFF" d="M99.8,280.2l38.7-1.2v75.2h-27.1v-51.1L99.8,304V280.2z"/>
	<path fill="#FFFFFF" d="M217.4,315.9c0,22.5-12.7,39.5-35.9,39.5s-35.9-16.9-35.9-39.5c0-21.3,13.2-38.1,35.9-38.1
		S217.4,294.6,217.4,315.9z M171.7,316.6c0,5.8,2.1,16.6,9.8,16.6s9.8-10.8,9.8-16.6c0-6.2-1.6-15.5-9.8-15.5
		C173.3,301.2,171.7,310.4,171.7,316.6z"/>
	<path fill="#FFFFFF" d="M215.8,354.3l30-26.6c4.7-4.2,16.6-14.8,16.6-21.5c0-3.4-2.8-6-6.2-6c-5.8,0-6.5,4.9-6.7,9.4h-26.7
		c2-21.9,11.8-31.8,34.4-31.8c15.6,0,32.2,9.1,32.2,26.5c0,15.2-13.2,24.5-26.4,28.6v0.8l12.8-1.8l14.7-0.9v23.2H215.8z"/>
	<path fill="#FFFFFF" d="M330.4,343.1c0,7.9-7.6,12.4-14.8,12.4c-7.3,0-14.8-4.5-14.8-12.4c0-8,7.6-12.7,14.8-12.7
		C322.8,330.4,330.4,335.1,330.4,343.1z"/>
	<path fill="#FFFFFF" d="M400.2,279v21H368c-0.5,2.9-1.1,6-2.4,8.7h0.7c2.5-3.3,9-4,12.8-4c13.8,0,25.7,9.2,25.7,23.6
		c0,18.4-20.1,27.1-36,27.1c-7.9,0-22.9-2.6-30-6.1l3-20.3c5.5,3,16.2,6.2,22.4,6.2c4.6,0,13.3-1.6,13.3-7.5c0-6.1-10.8-7.5-15-7.5
		c-6.8,0-13.6,1.1-19.9,3.3l6.6-44.5H400.2z"/>
</g>
<path fill="#FFFFFF" d="M372.5,148.8c0-1.9,0.4-3.7,1.1-5.4c0.7-1.7,1.7-3.2,3-4.4c1.3-1.3,2.7-2.2,4.4-3c1.7-0.7,3.5-1.1,5.4-1.1
	s3.7,0.4,5.4,1.1c1.7,0.7,3.2,1.7,4.4,3c1.3,1.3,2.2,2.7,3,4.4c0.7,1.7,1.1,3.5,1.1,5.4c0,1.9-0.4,3.7-1.1,5.4
	c-0.7,1.7-1.7,3.2-3,4.4c-1.3,1.3-2.7,2.2-4.4,3c-1.7,0.7-3.5,1.1-5.4,1.1s-3.7-0.4-5.4-1.1c-1.7-0.7-3.2-1.7-4.4-3
	c-1.3-1.3-2.2-2.7-3-4.4C372.9,152.5,372.5,150.7,372.5,148.8z M375.2,148.8c0,1.5,0.3,3,0.9,4.3c0.6,1.3,1.4,2.5,2.4,3.5
	c1,1,2.2,1.8,3.5,2.4c1.3,0.6,2.8,0.9,4.3,0.9s3-0.3,4.3-0.9c1.3-0.6,2.5-1.4,3.5-2.4c1-1,1.8-2.2,2.4-3.5c0.6-1.3,0.9-2.8,0.9-4.3
	s-0.3-3-0.9-4.3c-0.6-1.3-1.4-2.5-2.4-3.5c-1-1-2.2-1.8-3.5-2.4s-2.8-0.9-4.3-0.9s-3,0.3-4.3,0.9s-2.5,1.4-3.5,2.4
	c-1,1-1.8,2.2-2.4,3.5C375.5,145.8,375.2,147.3,375.2,148.8z M394.2,156.5h-5.9l-3.6-5.2v5.2H380v-15.6h6.8c1.7,0,3,0.5,4,1.3
	c1,0.9,1.5,2.1,1.5,3.6c0,2.3-1.1,3.7-3.3,4.4L394.2,156.5z M384.7,147.7h0.5c1.5,0,2.3-0.6,2.3-1.6c0-1.1-0.8-1.6-2.3-1.6h-0.5
	V147.7z"/>
</svg>
