<?xml version="1.0" encoding="UTF-8" standalone="no"?>
<!-- Created with Inkscape (http://www.inkscape.org/) -->

<svg
   xmlns:dc="http://purl.org/dc/elements/1.1/"
   xmlns:cc="http://creativecommons.org/ns#"
   xmlns:rdf="http://www.w3.org/1999/02/22-rdf-syntax-ns#"
   xmlns:svg="http://www.w3.org/2000/svg"
   xmlns="http://www.w3.org/2000/svg"
   xmlns:sodipodi="http://sodipodi.sourceforge.net/DTD/sodipodi-0.dtd"
   xmlns:inkscape="http://www.inkscape.org/namespaces/inkscape"
   width="477.56812"
   height="241.99199"
   viewBox="0 0 126.35656 64.027046"
   version="1.1"
   id="svg602"
   inkscape:version="0.92.3 (2405546, 2018-03-11)"
   sodipodi:docname="lbc_sqr.svg">
  <defs
     id="defs596" />
  <sodipodi:namedview
     id="base"
     pagecolor="#ffffff"
     bordercolor="#666666"
     borderopacity="1.0"
     inkscape:pageopacity="0.0"
     inkscape:pageshadow="2"
     inkscape:zoom="1.4"
     inkscape:cx="207.64049"
     inkscape:cy="101.36092"
     inkscape:document-units="mm"
     inkscape:current-layer="layer1"
     showgrid="false"
     units="px"
     inkscape:window-width="1853"
     inkscape:window-height="1025"
     inkscape:window-x="1987"
     inkscape:window-y="27"
     inkscape:window-maximized="1"
     fit-margin-top="30"
     fit-margin-left="30"
     fit-margin-right="30"
     fit-margin-bottom="30" />
  <metadata
     id="metadata599">
    <rdf:RDF>
      <cc:Work
         rdf:about="">
        <dc:format>image/svg+xml</dc:format>
        <dc:type
           rdf:resource="http://purl.org/dc/dcmitype/StillImage" />
        <dc:title></dc:title>
      </cc:Work>
    </rdf:RDF>
  </metadata>
  <g
     inkscape:label="Layer 1"
     inkscape:groupmode="layer"
     id="layer1"
     transform="translate(-0.32171595,-200.73053)">
    <g
       id="g22"
       transform="matrix(0.35277777,0,0,-0.35277777,16.127219,251.72036)">
      <path
         d="m 0,0 c 0,3.909 -2.544,5.398 -6.763,5.398 h -3.722 V -5.149 h 3.102 C -3.041,-5.149 0,-4.281 0,0 m -10.485,21.777 v -8.996 h 2.978 c 4.032,0 5.894,1.427 5.894,4.715 0,3.102 -1.924,4.281 -6.453,4.281 z M 11.85,-0.682 c 0,-9.989 -8.252,-12.657 -19.295,-12.657 H -21.963 V 29.78 h 12.842 c 11.788,0 19.172,-2.853 19.172,-11.105 0,-5.522 -3.971,-8.19 -7.88,-9.182 C 6.948,8.5 11.85,6.205 11.85,-0.682"
         style="fill:#1d1d1b;fill-opacity:1;fill-rule:nonzero;stroke:none"
         id="path24"
         inkscape:connector-curvature="0" />
    </g>
    <path
       d="m 26.353082,256.42588 h -4.049183 v -15.21142 h 4.049183 z"
       style="fill:#1d1d1b;fill-opacity:1;fill-rule:nonzero;stroke:none;stroke-width:0.35277778"
       id="path26"
       inkscape:connector-curvature="0" />
    <g
       id="g28"
       transform="matrix(0.35277777,0,0,-0.35277777,40.343155,242.54951)">
      <path
         d="m 0,0 -5.584,-6.515 c -2.171,1.924 -4.467,3.04 -7.445,3.04 -5.15,0 -8.624,-4.342 -8.624,-14.207 0,-9.741 3.474,-14.084 8.872,-14.084 3.226,0 5.646,1.675 8.19,3.599 l 5.087,-6.515 c -3.04,-3.04 -7.879,-5.77 -13.897,-5.77 -12.161,0 -20.164,7.942 -20.164,22.77 0,14.393 8.314,22.583 19.854,22.583 C -7.817,4.901 -3.661,3.04 0,0"
         style="fill:#1d1d1b;fill-opacity:1;fill-rule:nonzero;stroke:none"
         id="path30"
         inkscape:connector-curvature="0" />
    </g>
    <g
       id="g32"
       transform="matrix(0.35277777,0,0,-0.35277777,49.627842,250.75727)">
      <path
         d="M 0,0 V -16.069 H -11.478 V -0.062 L -25.251,27.05 h 12.532 L -5.584,8.748 1.613,27.05 h 12.16 z"
         style="fill:#1d1d1b;fill-opacity:1;fill-rule:nonzero;stroke:none"
         id="path34"
         inkscape:connector-curvature="0" />
    </g>
    <g
       id="g36"
       transform="matrix(0.35277777,0,0,-0.35277777,67.711337,242.54951)">
      <path
         d="m 0,0 -5.584,-6.515 c -2.172,1.924 -4.467,3.04 -7.445,3.04 -5.15,0 -8.624,-4.342 -8.624,-14.207 0,-9.741 3.474,-14.084 8.872,-14.084 3.226,0 5.646,1.675 8.189,3.599 l 5.088,-6.515 c -3.04,-3.04 -7.879,-5.77 -13.897,-5.77 -12.161,0 -20.164,7.942 -20.164,22.77 0,14.393 8.314,22.583 19.853,22.583 C -7.817,4.901 -3.661,3.04 0,0"
         style="fill:#1d1d1b;fill-opacity:1;fill-rule:nonzero;stroke:none"
         id="path38"
         inkscape:connector-curvature="0" />
    </g>
    <g
       id="g40"
       transform="matrix(0.35277777,0,0,-0.35277777,73.494246,253.27427)">
      <path
         d="M 0,0 H 16.565 L 15.324,-8.934 H -11.478 V 34.185 H 0 Z"
         style="fill:#1d1d1b;fill-opacity:1;fill-rule:nonzero;stroke:none"
         id="path42"
         inkscape:connector-curvature="0" />
    </g>
    <g
       id="g44"
       transform="matrix(0.35277777,0,0,-0.35277777,90.373851,244.08173)">
      <path
         d="m 0,0 h -14.704 v -9.182 h 12.843 v -7.88 h -12.843 v -9.802 H 0.992 v -8.128 H -26.182 V 8.127 H 1.179 Z"
         style="fill:#1d1d1b;fill-opacity:1;fill-rule:nonzero;stroke:none"
         id="path46"
         inkscape:connector-curvature="0" />
    </g>
    <g
       id="g48"
       transform="matrix(0.35277777,0,0,-0.35277777,106.14238,214.4091)"
       style="fill:#d40000">
      <path
         d="m 0,0 c 0,4.005 -1.417,5.854 -4.683,5.854 -3.081,0 -4.252,-1.91 -4.252,-6.409 V -2.958 H 0 Z"
         style="fill:#d40000;fill-opacity:1;fill-rule:evenodd;stroke:none"
         id="path50"
         inkscape:connector-curvature="0" />
    </g>
    <g
       id="g52"
       transform="matrix(0.35277777,0,0,-0.35277777,107.29445,211.01791)">
      <path
         d="M 0,0 C 0.491,2.363 1.305,4.756 2.842,6.564 H -4.396 C -2.006,5.092 -0.644,2.537 0,0"
         style="fill:#d40000;fill-opacity:1;fill-rule:evenodd;stroke:none"
         id="path54"
         inkscape:connector-curvature="0" />
    </g>
    <g
       id="g56"
       transform="matrix(0.35277777,0,0,-0.35277777,108.72965,214.14815)"
       style="fill:#d40000">
      <path
         d="m 0,0 v -3.697 h 10.475 v 3.08 C 10.475,3.697 9.611,6.716 5.36,6.716 1.478,6.716 0,4.19 0,0"
         style="fill:#d40000;fill-opacity:1;fill-rule:evenodd;stroke:none"
         id="path58"
         inkscape:connector-curvature="0" />
    </g>
    <g
       id="g60"
       transform="matrix(0.35277777,0,0,-0.35277777,110.22931,233.75677)"
       style="fill:#d40000">
      <path
         d="M 0,0 H -28.468 V 11.399 H -0.37 c 5.054,0 7.517,1.664 7.517,5.854 0,4.129 -2.463,5.793 -7.517,5.793 H -28.468 V 34.507 H 0 c 8.688,0 15.467,-5.669 15.467,-17.254 C 15.467,5.607 9.181,0 0,0 m 14.357,-31.244 h -42.825 v 11.4 H 5.484 v 16.452 l 8.873,-1.233 z M 9.989,71.021 c 3.298,-3.345 4.368,-9.17 4.368,-16.116 V 40.486 h -42.825 v 12.756 c 0,8.866 1.631,15.215 5.979,17.779 H -38.237 V -64.432 h 16.276 c -4.948,3.515 -7.617,9.01 -7.617,15.562 0,5.854 1.849,9.983 4.868,13.618 l 6.471,-5.545 c -1.911,-2.157 -3.02,-4.437 -3.02,-7.395 0,-5.114 4.314,-8.565 14.112,-8.565 9.673,0 13.987,3.451 13.987,8.812 0,3.204 -1.664,5.607 -3.574,8.133 l 6.469,5.053 c 3.02,-3.019 5.732,-7.825 5.732,-13.803 0,-6.854 -2.547,-12.373 -7.437,-15.87 H 24.127 V 71.021 Z"
         style="fill:#d40000;fill-opacity:1;fill-rule:evenodd;stroke:none"
         id="path62"
         inkscape:connector-curvature="0" />
    </g>
    <g
       id="g64"
       transform="matrix(0.35277777,0,0,-0.35277777,15.958238,231.59823)">
      <path
         d="M 0,0 H 31.497 L 29.138,-16.987 H -21.824 V 64.999 H 0 Z"
         style="fill:#1d1d1b;fill-opacity:1;fill-rule:nonzero;stroke:none"
         id="path66"
         inkscape:connector-curvature="0" />
    </g>
    <g
       id="g68"
       transform="matrix(0.35277777,0,0,-0.35277777,45.077573,237.59097)">
      <path
         d="m 0,0 h -27.84 l -22.767,81.986 h 23.003 L -13.566,15.925 -0.59,81.986 h 22.296 z"
         style="fill:#1d1d1b;fill-opacity:1;fill-rule:nonzero;stroke:none"
         id="path70"
         inkscape:connector-curvature="0" />
    </g>
    <path
       d="M 64.495062,237.59108 H 56.79604 v -28.92284 h 7.699022 z"
       style="fill:#1d1d1b;fill-opacity:1;fill-rule:nonzero;stroke:none;stroke-width:0.35277778"
       id="path72"
       inkscape:connector-curvature="0" />
    <g
       id="g74"
       transform="matrix(0.35277777,0,0,-0.35277777,86.408876,237.59097)">
      <path
         d="m 0,0 h -27.84 l -22.767,81.986 h 23.003 L -13.566,15.925 -0.59,81.986 h 22.295 z"
         style="fill:#1d1d1b;fill-opacity:1;fill-rule:nonzero;stroke:none"
         id="path76"
         inkscape:connector-curvature="0" />
    </g>
  </g>
</svg>
