<?xml version="1.0" encoding="UTF-8"?><svg id="RMF" xmlns="http://www.w3.org/2000/svg" viewBox="0 0 340.16 340.16"><defs><style>.cls-1{fill:#fc0;}.cls-2{fill:#1b3380;fill-rule:evenodd;}</style></defs><rect class="cls-1" y="0" width="340.16" height="340.16"/><path class="cls-2" d="M96.92,132.36l-39.64.1c-2.53,0-4.69,1.83-5.11,4.32l-13.43,78.27c-.44,2.59,1.62,4.92,4.25,4.8l10.58-.51c2.55-.12,4.67-2.01,5.09-4.52l3.49-20.81c.11-.63.65-1.09,1.29-1.09h22.7c.64,0,1.18.46,1.29,1.09l3.19,18.93c.44,2.6,2.75,4.46,5.38,4.33l9.11-.45c3.04-.15,5.22-3,4.56-5.97l-4.77-21.51c-.13-.58.15-1.16.67-1.44,5.84-3.11,13.21-10.13,15.78-23.74,3.03-17.96-7.67-31.8-24.41-31.8ZM101.01,164.1c-1.36,6.91-5.98,12.12-15.9,12.12h-18.41c-.81,0-1.42-.73-1.29-1.53l3.64-21.37c.17-.98,1.02-1.7,2.01-1.7h19.52c7.5,0,12.51,4.14,10.43,12.48Z"/><path class="cls-2" d="M165.1,136.9c-.48-2.57-2.73-4.44-5.35-4.44h-16.87c-2.53,0-4.7,1.83-5.13,4.32l-12.71,74.05c-.44,2.59,1.62,4.93,4.25,4.8l10.6-.52c2.54-.12,4.65-2,5.08-4.5l7.49-43.87c.16-.91,1.47-.91,1.62,0l7.27,43.68c.34,2.06,2.17,3.53,4.25,3.43l9.41-.46c2.11-.1,3.99-1.35,4.9-3.26l20.53-42.83c.41-.86,1.71-.45,1.55.49l-6.74,39.6c-.44,2.59,1.62,4.93,4.25,4.8l10.67-.52c2.54-.12,4.66-2,5.08-4.5l11.76-68.6c.54-3.18-1.9-6.08-5.13-6.08h-18.12c-1.98,0-3.78,1.12-4.66,2.89l-24.36,50.68c-.33.68-1.33.54-1.46-.21l-8.2-48.96Z"/><path class="cls-2" d="M304.36,147.35l1.61-9.42c.49-2.86-1.71-5.47-4.61-5.47h-54.72c-2.53,0-4.7,1.83-5.13,4.32l-11.83,68.94c-.44,2.59,1.62,4.93,4.25,4.8l10.6-.52c2.54-.12,4.65-2,5.08-4.5l3.52-20.53c.11-.63.65-1.09,1.29-1.08h31.65c2.53,0,4.7-1.82,5.13-4.31l1.32-7.61c.41-2.35-1.41-4.51-3.8-4.51h-31.03c-.81,0-1.42-.73-1.29-1.53l2.16-12.56c.17-.98,1.02-1.69,2.01-1.69h38.66c2.53,0,4.7-1.83,5.13-4.32Z"/></svg>