<?xml version="1.0" encoding="UTF-8" standalone="no"?>
<svg
   width="247.2292pt"
   height="134.93521pt"
   version="1.1"
   viewBox="0 0 247.2292 134.93521"
   id="svg20"
   sodipodi:docname="logo_los40.svg"
   inkscape:version="1.4.3 (0d15f75042, 2025-12-25)"
   xmlns:inkscape="http://www.inkscape.org/namespaces/inkscape"
   xmlns:sodipodi="http://sodipodi.sourceforge.net/DTD/sodipodi-0.dtd"
   xmlns="http://www.w3.org/2000/svg"
   xmlns:svg="http://www.w3.org/2000/svg">
  <defs
     id="defs20" />
  <sodipodi:namedview
     id="namedview20"
     pagecolor="#ffffff"
     bordercolor="#000000"
     borderopacity="0.25"
     inkscape:showpageshadow="2"
     inkscape:pageopacity="0.0"
     inkscape:pagecheckerboard="0"
     inkscape:deskcolor="#d1d1d1"
     inkscape:document-units="pt"
     inkscape:zoom="1.4180447"
     inkscape:cx="80.392388"
     inkscape:cy="-4.5837765"
     inkscape:window-width="1920"
     inkscape:window-height="1131"
     inkscape:window-x="0"
     inkscape:window-y="0"
     inkscape:window-maximized="1"
     inkscape:current-layer="svg20" />
  <g
     fill-rule="evenodd"
     id="g20"
     transform="translate(-0.7774,7e-4)">
    <path
       d="m 206.1,96.184 c -8.2188,-8.2461 -23.746,-23.828 -31.953,-32.066 8.207,-8.2383 23.734,-23.82 31.953,-32.07 8.2227,8.2539 23.746,23.832 31.953,32.07 -8.207,8.2383 -23.734,23.82 -31.953,32.066 M 164.194,50.051 v 28.168 c 0,4.75 1.7461,6.9766 4.6016,9.8398 1.1797,1.1836 12.289,12.332 13.465,13.516 2.8555,2.8633 5.0742,4.6172 9.8047,4.6172 h 28.07 c -4.1484,0 -4.1484,0 0,0 4.7305,0 6.9492,-1.7539 9.8047,-4.6172 1.1758,-1.1836 12.289,-12.332 13.465,-13.516 2.8555,-2.8633 4.6016,-5.0898 4.6016,-9.8398 V 50.012 c 0,-4.7461 -1.7461,-6.9727 -4.6016,-9.8398 L 229.94,26.6602 c -2.8555,-2.8633 -5.0742,-4.6211 -9.8047,-4.6211 h -28.07 c -4.7305,0 -6.9492,1.7578 -9.8047,4.6211 -1.1758,1.1797 -12.285,12.332 -13.465,13.512 -2.8555,2.8672 -4.6016,5.0938 -4.6016,9.8398 v 0.03906"
       fill="#fdfdfd"
       id="path1" />
    <path
       d="m 113.26,85.641 0.008,-0.0078 c -0.12109,0.12891 -0.0664,0.07031 -0.008,0.0078 z m 46.074,3.2734 h 0.004 c -1.8594,-2.0977 -4.5234,-3.3008 -7.3242,-3.3008 h -38.773 c 0,-0.0039 0,-0.0039 0.004,-0.0078 13.938,-14.219 42.688,-42.965 63.332,-63.566 h -28.812 c -16.754,16.82 -46.34,46.414 -48.335998,48.414 -2.6836,2.6953 -11.52,10.914 -8.5703,15.77 4.0312,6.6484 9.0664,15.062 10.198998,17 0.0664,0.11328 0.20312,0.31641 0.20312,0.31641 1.4102,2.1367 4.1602,2.6523 6.3281,2.6523 h 54.617 v 28.742 h 20.652 v -15.875 c 0,-4.0508 -0.33203,-6.8672 -3.6758,-10.223 z"
       fill="#fdfdfd"
       id="path2" />
    <path
       d="m 248,50.012 c 0,-4.7461 -1.7461,-6.9727 -4.6016,-9.8398 -1.1758,-1.1797 -12.289,-12.332 -13.465,-13.512 -2.8555,-2.8633 -5.0742,-4.6211 -9.8047,-4.6211 -4.1484,0 -5.8125,1.7578 -8.668,4.6211 -0.34375,0.34766 -2.375,2.3867 -5.3672,5.3867 8.2227,8.2539 23.746,23.832 31.953,32.07 2.9844,-2.9961 5.0078,-5.0234 5.3516,-5.3711 2.8555,-2.8633 4.6016,-4.5352 4.6016,-8.6953"
       fill="#5a7dbe"
       id="path3" />
    <path
       d="m 174.14,64.117 c 11.199,-11.238 36.023,-36.156 37.32,-37.457 2.8555,-2.8633 4.5195,-4.6211 8.668,-4.6211 h -28.07 c -4.7305,0 -6.9492,1.7578 -9.8047,4.6211 -1.1758,1.1797 -12.289,12.332 -13.465,13.512 -2.8516,2.8672 -4.6016,5.0938 -4.6016,9.8398 v 0.03906 c 0,4.1602 1.75,5.832 4.6016,8.6953 l 5.3516,5.3711"
       fill="#9ec53b"
       id="path4" />
    <path
       d="m 243.4,58.746 c -1.2969,1.3047 -26.098,26.191 -37.305,37.438 2.9961,3.0078 5.0234,5.043 5.3672,5.3906 2.8555,2.8633 4.5195,4.6172 8.668,4.6172 4.7305,0 6.9492,-1.7539 9.8047,-4.6172 1.1758,-1.1836 12.289,-12.332 13.465,-13.516 2.8555,-2.8633 4.6016,-5.0898 4.6016,-9.8398 v -28.168 c 0,4.1602 -1.7461,5.832 -4.6016,8.6953"
       fill="#64c3d9"
       id="path5" />
    <path
       d="m 211.46,101.57 c -1.6406,-1.6484 -41.027,-41.18 -42.672,-42.828 -2.8516,-2.8633 -4.6016,-4.5352 -4.6016,-8.6953 v 28.168 c 0,4.75 1.75,6.9766 4.6016,9.8398 l 13.465,13.516 c 2.8555,2.8633 5.0742,4.6172 9.8047,4.6172 h 28.07 c -4.1484,0 -5.8125,-1.7539 -8.668,-4.6172"
       fill="#ffd600"
       id="path6" />
    <path
       d="m 162.21,99.977 v 34.957 h 20.652 v -15.875 c 0,-4.0508 -0.33203,-6.8672 -3.6758,-10.223 l -19.848,-19.922 c 2.9336,2.9453 2.8711,7.0117 2.8711,11.062"
       fill="#f5a300"
       id="path7" />
    <path
       d="m 3.1602,46.773 c 1.9023,1.9023 3.4609,1.8633 6.0781,1.8633 h 4.9141 V -7e-4 H 0.7774 v 40.148 c 0,2.625 0.21875,4.4492 2.3828,6.6211 z"
       fill="#f5a300"
       id="path8" />
    <path
       d="M 31.082,48.637 H 9.238 c -2.6172,0 -4.1797,0.03906 -6.0781,-1.8672 l 12.855,12.902 c 2.1641,2.1719 3.9805,2.3906 6.5977,2.3906 h 21.852 z"
       fill="#ed7d00"
       id="path9" />
    <path
       d="M 101.82,32.832 V 53.57 c 0,2.625 0.0195,4.1953 -1.8789,6.1016 l 12.852,-12.902 c 0.9375,-0.89844 1.5391,-2.1641 1.5391,-3.5703 0,-1.418 -0.58203,-2.6992 -1.5391,-3.6016 l -12.82,-12.867 c 1.9023,1.9062 1.8477,3.4766 1.8477,6.1016"
       fill="#f5a300"
       id="path10" />
    <path
       d="M 92.805,0 C 90.1917,0 88.3714,0.21875 86.2073,2.3906 84.305,4.2968 84.3479,5.8672 84.3479,8.4883 l -0.0039,4.9336 h 20.07799 V -1e-4 H 92.804994"
       fill="#ed7d00"
       id="path11" />
    <path
       d="m 79.43,24.297 c 0.17187,0 2.3164,0 4.918,0.0039 V 8.4889 c 0,-2.625 -0.03906,-4.1914 1.8594,-6.0977 l -12.855,12.898 c -0.93359,0.90234 -1.5156,2.168 -1.5156,3.5703 0,1.4102 0.58984,2.6836 1.5312,3.582 1.8906,1.8945 3.4531,1.8555 6.0625,1.8555"
       fill="#f5a300"
       id="path12" />
    <path
       d="m 101.82,32.832 c 0,-2.625 0.0547,-4.1953 -1.8477,-6.0977 l -0.03125,-0.03516 c -2.168,-2.1758 -3.1914,-2.3906 -5.8047,-2.3906 -1.0781,0 -14.27,-0.01172 -14.707,-0.01172 -2.6172,0 -4.1797,0.03906 -6.0781,-1.8672 l 12.855,12.898 c 2.1641,2.1758 5.0391,2.3906 6.1172,2.3906 0.5625,0 5.5664,0.0039 9.4961,0.0078 z"
       fill="#ed7d00"
       id="path13" />
    <path
       d="m 99.941,59.672 c 1.8984,-1.9062 1.8789,-3.4766 1.8789,-6.1016 v -4.9336 h -20.004 l -13.383,13.426 h 24.906 c 2.6172,0 4.4336,-0.21875 6.6016,-2.3906"
       fill="#ed7d00"
       id="path14" />
    <path
       d="m 62.32,24.109 c 0,-3.2969 -2.6641,-5.9688 -5.9531,-5.9688 -3.2891,0 -5.9531,2.6719 -5.9531,5.9688 v 7.0156 h 11.91 V 24.109 Z"
       fill="#ed7d00"
       id="path15" />
    <path
       d="m 50.414,55.5 c 0,3.2969 2.6641,5.9688 5.9531,5.9688 3.2891,0 5.9531,-2.6719 5.9531,-5.9688 v -7.0195 h -11.906 z"
       fill="#ed7d00"
       id="path16" />
    <path
       d="M 73.293,32.887 61.453,21.004 c 0.53125,0.875 0.84766,1.8984 0.86719,2.9961 v 0.10938 2.8594 l 0.0039,12.836 -0.0039,11.836 v 3.8594 0.12891 c -0.02344,1.0898 -0.33984,2.1055 -0.86719,2.9766 l 11.84,-11.883 c 0,0 2.4023,-2.4688 2.4023,-6.918 0,-4.4531 -2.4023,-6.918 -2.4023,-6.918"
       fill="#f5a300"
       id="path17" />
    <path
       d="M 50.414,55.5 V 24.109 c 0,-0.04297 0,-0.08594 0.0039,-0.13281 0.01953,-1.0859 0.33594,-2.1055 0.86719,-2.9727 l -11.844,11.883 c 0,0 -2.4023,2.4648 -2.4023,6.918 0,4.4492 2.4023,6.918 2.4023,6.918 l 11.844,11.883 c -0.53516,-0.875 -0.85156,-1.9023 -0.87109,-2.9961 v -0.10938"
       fill="#f5a300"
       id="path18" />
    <path
       d="m 159.34,88.914 c -1.8594,-2.0977 -4.5273,-3.3008 -7.3242,-3.3008 h -38.773 c -0.23047,0.23047 0.21875,-0.22656 0,0 -10.406,10.426 -12.988,14.27 -12.012,17.824 0.0156,0.0664 0.0273,0.0937 0.0312,0.10156 1.4102,2.1367 4.1602,2.6523 6.3281,2.6523 h 54.617 v -6.2148 c 0,-4.0547 0.0625,-8.1172 -2.8711,-11.062 z"
       fill="#ed7d00"
       id="path19" />
    <path
       d="m 147.77,22.039 c -16.754,16.82 -46.34,46.414 -48.336,48.414 -2.6836,2.6953 -11.52,10.91 -8.5703,15.77 4.0273,6.6484 9.0664,15.062 10.199,17 0.0664,0.11328 0.20312,0.31641 0.20312,0.31641 0,0 -0.0117,-0.0273 -0.0312,-0.10156 -0.97656,-3.5547 1.6055,-7.3984 12.008,-17.824 13.938,-14.219 42.695,-42.969 63.344,-63.574 z"
       fill="#e74634"
       id="path20" />
  </g>
</svg>
