<?xml version="1.0" encoding="UTF-8" standalone="no"?>
<!-- Created with Inkscape (http://www.inkscape.org/) -->

<svg
   version="1.0"
   width="425"
   height="425"
   id="svg2"
   xml:space="preserve"
   sodipodi:docname="logo_radio_538.svg"
   inkscape:version="1.4.3 (0d15f75042, 2025-12-25)"
   xmlns:inkscape="http://www.inkscape.org/namespaces/inkscape"
   xmlns:sodipodi="http://sodipodi.sourceforge.net/DTD/sodipodi-0.dtd"
   xmlns="http://www.w3.org/2000/svg"
   xmlns:svg="http://www.w3.org/2000/svg"><sodipodi:namedview
     id="namedview1"
     pagecolor="#ffffff"
     bordercolor="#000000"
     borderopacity="0.25"
     inkscape:showpageshadow="2"
     inkscape:pageopacity="0.0"
     inkscape:pagecheckerboard="0"
     inkscape:deskcolor="#d1d1d1"
     inkscape:zoom="2.0729412"
     inkscape:cx="-55.959137"
     inkscape:cy="212.5"
     inkscape:window-width="1920"
     inkscape:window-height="1131"
     inkscape:window-x="0"
     inkscape:window-y="0"
     inkscape:window-maximized="1"
     inkscape:current-layer="g15" /><defs
     id="defs5"><inkscape:perspective
       id="perspective9" /><clipPath
       id="clipPath19"><path
         d="M 4230.88,2.08594 L 4230.88,7014.59 L 719.125,7014.59 L 719.125,2.08594 L 4230.88,2.08594 z"
         id="path21" /></clipPath></defs><g
     transform="matrix(1.25,0,0,-1.25,-164.81591,690.71574)"
     id="g11"><g
       transform="matrix(0,-9.1908147e-2,9.1908147e-2,0,-7.4634803,622.79621)"
       id="g13"><g
         id="g15"><path
           d="M 3495.0743,1580.1728 C 3041.9843,1580.1728 2674.6643,1947.8228 2674.6643,2400.9228 C 2674.6643,2854.3528 3041.9843,3221.6628 3495.0743,3221.6628 C 3948.5043,3221.6628 4315.8243,2854.3528 4315.8243,2400.9228 C 4315.8243,1947.8228 3948.5043,1580.1728 3495.0743,1580.1728"
           id="path29"
           style="fill:#4c1e81;fill-opacity:1;fill-rule:nonzero;stroke:none" /><path
           d="M 3495.0743,3509.6628 C 3041.9843,3509.6628 2674.6643,3876.9728 2674.6643,4330.0628 C 2674.6643,4783.5028 3041.9843,5150.8128 3495.0743,5150.8128 C 3948.5043,5150.8128 4315.8243,4783.5028 4315.8243,4330.0628 C 4315.8243,3876.9728 3948.5043,3509.6628 3495.0743,3509.6628"
           id="path31"
           style="fill:#58b71e;fill-opacity:1;fill-rule:nonzero;stroke:none" /><path
           d="M 1427.3743,1798.7528 L 1338.1843,1798.7528"
           id="I"
           style="fill:none;stroke:#231f20;stroke-width:340.48599243;stroke-linecap:butt;stroke-linejoin:miter;stroke-miterlimit:10;stroke-dasharray:none;stroke-opacity:1" /><path
           d="M 911.64734,2189.8628 L 911.64734,2996.3128 L 1232.3143,2996.3128 L 1232.3143,2449.9428 L 1449.5043,2421.0028 C 1428.4043,2458.7928 1412.3943,2495.8928 1401.8543,2533.0028 C 1391.2943,2570.1128 1386.1843,2606.5328 1386.1843,2642.6228 C 1386.1843,2764.8328 1430.1043,2864.2328 1517.5943,2940.4828 C 1605.0743,3016.3928 1715.0343,3054.5228 1848.1343,3054.5228 C 1941.4143,3054.5228 2031.2843,3035.1228 2117.4043,2995.9728 C 2203.5343,2956.4828 2269.2343,2900.9928 2314.8443,2829.1628 C 2360.1243,2756.9928 2382.9243,2664.7428 2382.9243,2552.7428 C 2382.9243,2472.0628 2373.7343,2402.9628 2355.7043,2345.4328 C 2337.6543,2287.9028 2310.7543,2238.8828 2274.6743,2198.7128 C 2238.9243,2158.2028 2198.4243,2125.5228 2152.8143,2100.6728 C 2107.5343,2075.4828 2051.0243,2054.7128 1983.2743,2038.0328 L 1938.6843,2381.5128 C 2004.0443,2390.0228 2053.4143,2409.4328 2087.4443,2440.0628 C 2121.1443,2470.7128 2138.1743,2507.1328 2138.1743,2549.3428 C 2138.1743,2596.6628 2117.0643,2635.4628 2074.5043,2666.4428 C 2031.9643,2697.4228 1968.6343,2712.7428 1884.5643,2712.7428 C 1798.4243,2712.7428 1735.1243,2697.0828 1694.9443,2666.1028 C 1654.7743,2634.7828 1634.6943,2593.6028 1634.6943,2541.8528 C 1634.6943,2508.8328 1644.5643,2477.1728 1663.6243,2446.5328 C 1677.2443,2423.7328 1702.4343,2398.8728 1738.5143,2371.6428 L 1689.1643,2082.2928 L 911.64734,2189.8628 M 1373.2443,3432.7328 L 1305.1743,3111.7128 C 1183.9743,3138.2628 1091.3813,3189.6728 1026.7013,3265.5828 C 962.36534,3341.4928 930.02234,3448.7228 930.02234,3587.9628 C 930.02234,3747.2728 965.08434,3862.6728 1035.5533,3933.8228 C 1106.0223,4004.9728 1194.5343,4040.7128 1301.0743,4040.7128 C 1363.7243,4040.7128 1420.2243,4026.0728 1470.9543,3997.1428 C 1521.3243,3968.2028 1565.9243,3924.6328 1604.0543,3866.4228 C 1618.0043,3913.7328 1634.0043,3949.8128 1652.3943,3974.6728 C 1682.0143,4015.1828 1720.8143,4046.8428 1769.1543,4069.3128 C 1817.8343,4091.7728 1875.3643,4103.3528 1942.4243,4103.3528 C 2026.8543,4103.3528 2107.5343,4084.6228 2184.8043,4047.1828 C 2262.0743,4010.0728 2321.6543,3956.2928 2363.5243,3886.5028 C 2405.0643,3816.3728 2426.1743,3724.4628 2426.1743,3610.4228 C 2426.1743,3499.1028 2410.4943,3411.6228 2379.5243,3347.2828 C 2348.8843,3282.9428 2303.6043,3230.1728 2244.0443,3188.6428 C 2184.4643,3147.4628 2109.5643,3115.4628 2019.3643,3093.3328 L 1966.2543,3432.7328 C 2047.2843,3446.0028 2103.1043,3466.7628 2134.4243,3494.6828 C 2165.7443,3522.9328 2181.3943,3558.6828 2181.3943,3601.9128 C 2181.3943,3647.5328 2161.6643,3685.6528 2122.1743,3715.9528 C 2082.6843,3746.2528 2029.9243,3761.2328 1964.2143,3761.2328 C 1897.1543,3761.2328 1845.0743,3746.5928 1808.3143,3717.6528 C 1771.5443,3688.3828 1753.1543,3648.5528 1753.1543,3598.5128 C 1753.1543,3571.9528 1760.9943,3535.1928 1776.6443,3488.5528 L 1489.6743,3506.2628 C 1492.7443,3524.9828 1494.4443,3539.6228 1494.4443,3550.1728 C 1494.4443,3594.7628 1477.7543,3631.8728 1444.0643,3661.4828 C 1410.7043,3691.4428 1370.8743,3706.0828 1324.9143,3706.0828 C 1280.6543,3706.0828 1245.5943,3695.1928 1219.0343,3672.7228 C 1192.8243,3650.5928 1179.5543,3619.9628 1179.5543,3581.1428 C 1179.5543,3540.9828 1193.8543,3508.6428 1222.7843,3483.4528 C 1251.3843,3458.5928 1301.4243,3441.5828 1373.2443,3432.7328 M 1339.5443,4496.8728 C 1389.5943,4496.8728 1429.7643,4510.1428 1460.3943,4536.3528 C 1491.0343,4562.9128 1506.3543,4597.9728 1506.3543,4641.8928 C 1506.3543,4681.0328 1491.3843,4712.6928 1461.0743,4737.8928 C 1430.7843,4762.7328 1391.6343,4775.3328 1343.6343,4775.3328 C 1293.5943,4775.3328 1252.7443,4762.3928 1221.7643,4736.1828 C 1190.4543,4709.9728 1174.7843,4676.6128 1174.7843,4636.1028 C 1174.7843,4594.9128 1190.1043,4561.5528 1220.7443,4535.6728 C 1251.3843,4509.8028 1290.8643,4496.8728 1339.5443,4496.8728 z M 1962.1743,4478.4928 C 2026.1743,4478.4928 2078.2543,4494.8328 2118.7643,4527.8528 C 2159.2743,4560.5328 2179.3643,4597.9728 2179.3643,4640.1828 C 2179.3643,4681.0328 2158.9343,4717.1228 2117.7443,4749.4628 C 2076.5543,4781.8028 2024.4643,4797.8028 1961.1443,4797.8028 C 1897.4943,4797.8028 1845.0743,4781.8028 1804.2143,4749.1228 C 1763.7143,4716.7828 1743.2843,4678.9928 1743.2843,4636.1028 C 1743.2843,4593.8928 1763.0243,4557.1228 1802.5243,4525.4628 C 1842.0043,4494.1428 1895.1043,4478.4928 1962.1743,4478.4928 z M 1623.7943,4344.3628 C 1590.0943,4290.9128 1552.6543,4252.1128 1511.1143,4227.6028 C 1454.6143,4194.2428 1389.5943,4177.5628 1315.7143,4177.5628 C 1194.8743,4177.5628 1095.8113,4225.5628 1018.8813,4321.8928 C 959.64734,4396.7828 930.02234,4496.1928 930.02234,4619.4228 C 930.02234,4782.8228 966.78734,4903.6728 1040.6623,4981.9628 C 1114.1933,5059.9228 1207.1243,5099.0628 1318.7843,5099.0628 C 1384.1443,5099.0628 1444.7343,5083.4128 1501.2443,5052.4328 C 1543.4643,5028.9428 1584.3043,4992.1728 1623.7943,4942.1428 C 1661.2443,5008.1728 1710.9443,5057.5428 1772.9043,5090.2228 C 1834.5243,5122.5528 1902.9343,5138.9028 1978.1743,5138.9028 C 2050.3443,5138.9028 2118.0943,5124.9428 2180.7243,5097.0328 C 2243.7043,5068.7728 2292.0343,5034.3928 2326.4243,4993.5428 C 2360.4643,4952.6928 2385.6543,4901.6228 2401.9943,4840.6928 C 2417.9943,4780.1028 2426.1743,4715.0828 2426.1743,4645.9728 C 2426.1743,4516.6128 2408.1243,4417.5528 2371.7043,4349.1328 C 2335.6043,4280.7028 2282.1743,4228.9628 2212.0343,4193.2228 C 2141.5743,4157.8128 2062.9343,4139.7728 1976.1343,4139.7728 C 1891.3643,4139.7728 1819.1943,4156.4528 1760.3043,4189.8128 C 1701.4043,4223.1728 1656.1343,4274.9228 1623.7943,4344.3628 M 2278.4243,1766.7228 L 2240.9743,1766.7228 C 2236.8943,1766.7228 2229.0643,1765.0228 2217.4943,1761.9628 C 2211.3543,1760.5928 2206.5943,1756.8528 2202.8543,1751.4028 C 2199.1043,1745.6128 2197.3943,1738.8128 2197.3943,1731.6528 C 2197.3943,1720.4228 2200.1343,1711.9128 2206.2443,1706.1328 C 2212.0343,1700.3428 2223.2743,1697.2828 2239.2743,1697.2828 L 2278.4243,1697.2828 L 2278.4243,1766.7228 z M 2367.6043,1969.2728 L 2367.6043,1628.5128 L 2219.5243,1628.5128 C 2191.9543,1628.5128 2171.1843,1631.2328 2156.5443,1637.0228 C 2141.9143,1642.4728 2130.3343,1653.0228 2121.4843,1668.0028 C 2112.2943,1682.9828 2107.8643,1701.3628 2107.8643,1723.1528 C 2107.8643,1741.8728 2111.2743,1758.2128 2118.0943,1772.1728 C 2124.8943,1785.7828 2134.4243,1796.6828 2146.3343,1805.1928 C 2153.8243,1810.6428 2164.3843,1815.4028 2177.6543,1818.8028 C 2167.1043,1822.8928 2159.2743,1827.3128 2154.5143,1831.4028 C 2151.1043,1834.1228 2146.3343,1840.2528 2140.2143,1849.4428 C 2134.0843,1858.2928 2129.6643,1865.4428 2127.6143,1870.5528 L 2084.7143,1969.2728 L 2185.1443,1969.2728 L 2232.8043,1865.1028 C 2238.5943,1851.4928 2244.0443,1842.9828 2248.8043,1838.8928 C 2255.2743,1833.4428 2262.4243,1831.0628 2270.5943,1831.0628 L 2278.4243,1831.0628 L 2278.4243,1969.2728 L 2367.6043,1969.2728 M 1897.8443,1839.2328 L 1929.4943,1717.0228 L 1960.8143,1839.2328 L 1897.8443,1839.2328 z M 1879.4543,1912.7628 L 1980.2143,1912.7628 L 1994.1743,1969.2728 L 2085.0643,1969.2728 L 1976.8143,1628.5128 L 1879.7943,1628.5128 L 1771.8743,1969.2728 L 1864.8143,1969.2728 L 1879.4543,1912.7628 M 1653.4143,1705.7928 L 1653.4143,1891.6528 L 1631.6343,1891.6528 C 1613.2443,1891.6528 1599.9743,1889.2728 1592.1343,1884.5128 C 1584.3043,1879.4028 1577.8443,1870.8928 1573.4243,1858.9728 C 1568.9943,1846.7228 1566.9443,1826.9728 1566.9443,1799.7428 C 1566.9443,1763.6528 1571.7143,1739.1528 1581.9243,1725.5328 C 1591.7943,1712.2528 1608.1343,1705.7928 1631.2843,1705.7928 L 1653.4143,1705.7928 z M 1742.2643,1628.5128 L 1610.1843,1628.5128 C 1584.3043,1628.5128 1563.2143,1632.9428 1547.2143,1641.1028 C 1531.2043,1649.6228 1517.9343,1661.5328 1507.3843,1677.1928 C 1496.8243,1692.8528 1489.3343,1710.8928 1484.5643,1731.6528 C 1479.8043,1752.4228 1477.4243,1774.5528 1477.4243,1797.7028 C 1477.4243,1834.1228 1481.1743,1862.3828 1487.9743,1882.4628 C 1495.1243,1902.5528 1504.6543,1919.2328 1517.2443,1932.8528 C 1529.5043,1946.4628 1543.1143,1955.3128 1557.4243,1959.7428 C 1576.8143,1965.8728 1594.5243,1969.2728 1610.1843,1969.2728 L 1742.2643,1969.2728 L 1742.2643,1628.5128 M 1112.4903,1704.7628 C 1162.8843,1704.7628 1203.7243,1745.6128 1203.7243,1796.3428 C 1203.7243,1846.7228 1162.8843,1887.5728 1112.4903,1887.5728 C 1061.7643,1887.5728 1020.9123,1846.7228 1020.9123,1796.3428 C 1020.9123,1745.6128 1061.7643,1704.7628 1112.4903,1704.7628 z M 1112.4903,1607.0628 C 1007.9823,1607.0628 923.21734,1691.4928 923.21734,1796.3428 C 923.21734,1900.8528 1007.9823,1985.2728 1112.4903,1985.2728 C 1217.0043,1985.2728 1301.7643,1900.8528 1301.7643,1796.3428 C 1301.7643,1691.4928 1217.0043,1607.0628 1112.4903,1607.0628"
           id="RAD_O538"
           style="fill:#231f20;fill-opacity:1;fill-rule:nonzero;stroke:none" /></g></g></g></svg>
