<?xml version="1.0" encoding="UTF-8" standalone="no"?>
<!-- Generator: Adobe Illustrator 12.0.0, SVG Export Plug-In  -->

<svg
   version="1.1"
   width="32"
   height="19.881001"
   viewBox="-0.972 -0.763 32 19.881001"
   enable-background="new -0.972 -0.763 50 21"
   xml:space="preserve"
   id="svg16"
   sodipodi:docname="logo_bbc_6music.svg"
   inkscape:version="1.4.3 (0d15f75042, 2025-12-25)"
   xmlns:inkscape="http://www.inkscape.org/namespaces/inkscape"
   xmlns:sodipodi="http://sodipodi.sourceforge.net/DTD/sodipodi-0.dtd"
   xmlns="http://www.w3.org/2000/svg"
   xmlns:svg="http://www.w3.org/2000/svg"><sodipodi:namedview
   id="namedview16"
   pagecolor="#ffffff"
   bordercolor="#000000"
   borderopacity="0.25"
   inkscape:showpageshadow="2"
   inkscape:pageopacity="0.0"
   inkscape:pagecheckerboard="0"
   inkscape:deskcolor="#d1d1d1"
   inkscape:zoom="12.451951"
   inkscape:cx="3.2123481"
   inkscape:cy="12.166769"
   inkscape:window-width="1920"
   inkscape:window-height="1131"
   inkscape:window-x="0"
   inkscape:window-y="0"
   inkscape:window-maximized="1"
   inkscape:current-layer="svg16" />
<defs
   id="defs1">
</defs>












<path
   fill="#2b7a82"
   d="m 22.098,12.34 c -0.005,0.173 -0.012,0.332 -0.215,0.455 -0.143,0.08 -0.271,0.08 -0.326,0.08 -0.191,0 -0.32,-0.086 -0.376,-0.159 -0.073,-0.099 -0.073,-0.241 -0.073,-0.382 v -1.996 h -0.955 v 2.021 c 0,0.523 0.03,0.714 0.196,0.948 0.224,0.309 0.61,0.339 0.82,0.339 0.209,0 0.419,-0.05 0.608,-0.147 0.174,-0.086 0.229,-0.147 0.32,-0.254 v 0.309 h 0.949 v -3.215 h -0.949 v 2.001 z"
   id="path12" />
<path
   fill="#2b7a82"
   d="m 25.048,11.452 c -0.308,-0.056 -0.513,-0.093 -0.513,-0.277 0,-0.092 0.088,-0.239 0.457,-0.239 0.222,0 0.506,0.086 0.807,0.319 l 0.585,-0.541 c -0.222,-0.155 -0.677,-0.481 -1.435,-0.481 -0.898,0 -1.355,0.549 -1.355,1.078 0,0.24 0.1,0.463 0.241,0.604 0.141,0.143 0.339,0.222 0.534,0.277 0.143,0.043 0.291,0.074 0.433,0.1 0.185,0.029 0.405,0.049 0.548,0.123 0.055,0.031 0.122,0.072 0.122,0.184 0,0.24 -0.344,0.314 -0.571,0.314 -0.357,0 -0.678,-0.191 -0.937,-0.444 l -0.597,0.542 c 0.203,0.192 0.664,0.623 1.558,0.623 0.758,0 1.521,-0.369 1.521,-1.126 0,-0.766 -0.752,-0.94 -1.398,-1.056"
   id="path13" />
<rect
   x="26.712999"
   y="10.332001"
   fill="#2b7a82"
   width="0.93699998"
   height="3.221"
   id="rect13" />
<rect
   x="26.712999"
   y="9.1990004"
   fill="#2b7a82"
   width="0.93699998"
   height="0.73100001"
   id="rect14" />
<path
   fill="#2b7a82"
   d="m 30.172,12.684 c -0.199,0.221 -0.433,0.221 -0.481,0.221 -0.505,0 -0.714,-0.534 -0.714,-0.96 0,-0.388 0.172,-0.973 0.683,-0.973 0.147,0 0.265,0.049 0.357,0.111 0.155,0.11 0.216,0.221 0.271,0.338 l 0.703,-0.4 c -0.406,-0.672 -1.018,-0.77 -1.374,-0.77 -1.071,0 -1.612,0.787 -1.612,1.725 0,1.311 0.979,1.682 1.594,1.682 0.363,0 0.677,-0.119 0.924,-0.289 0.259,-0.186 0.388,-0.389 0.505,-0.574 l -0.713,-0.369 c -0.033,0.091 -0.064,0.165 -0.143,0.258"
   id="path14" />
<path
   fill="#2b7a82"
   d="m 17.837,10.804 c -0.172,-0.179 -0.205,-0.547 -0.846,-0.547 -0.555,0 -0.802,0.289 -0.912,0.418 v -0.332 h -0.937 v 3.209 h 0.937 v -1.83 c 0,-0.221 0.006,-0.48 0.215,-0.621 0.086,-0.056 0.185,-0.074 0.259,-0.074 0.155,0 0.296,0.068 0.37,0.166 0.086,0.123 0.092,0.315 0.092,0.457 v 1.902 h 0.936 v -1.75 c 0,-0.351 0,-0.535 0.18,-0.676 0.092,-0.075 0.216,-0.1 0.308,-0.1 0.073,0 0.326,0.019 0.412,0.289 0.037,0.123 0.037,0.364 0.037,0.549 v 1.688 h 0.937 v -2.095 c 0,-0.345 -0.006,-0.565 -0.087,-0.738 -0.098,-0.196 -0.368,-0.452 -0.897,-0.462 -0.686,-0.009 -0.819,0.393 -1.004,0.547"
   id="path15" />
<path
   fill="#2b7a82"
   d="m 10.016,7.774 c 1.158,0.668 1.553,2.147 0.887,3.305 -0.668,1.159 -2.148,1.556 -3.306,0.886 C 6.44,11.299 6.042,9.819 6.711,8.66 7.379,7.504 8.86,7.106 10.016,7.774 M 8.969,19.118 c 3.443,0 6.594,-1.749 8.43,-4.676 0,-10e-4 0,-0.002 0.002,-0.002 v 0 -10e-4 c 0.01,-0.016 0.014,-0.033 0.014,-0.051 0,-0.031 -0.016,-0.062 -0.045,-0.079 -0.045,-0.028 -0.102,-0.017 -0.131,0.028 -1.642,2.585 -4.887,4.256 -8.27,4.256 -5.192,0 -9.416,-4.225 -9.416,-9.416 0,-4.902 3.768,-8.94 8.559,-9.375 L 3.749,7.365 c -1.315,2.649 -0.365,5.897 2.232,7.397 2.703,1.562 6.157,0.636 7.719,-2.067 C 15.262,9.992 14.335,6.535 11.633,4.973 10.803,4.495 9.904,4.254 9.011,4.223 l 2.393,-4.15 c 4.08,1.063 7.27,4.729 7.27,9.077 0,0.053 0.042,0.095 0.096,0.095 0.051,0 0.094,-0.042 0.094,-0.095 V 9.095 c -0.002,-5.528 -4.443,-9.858 -9.895,-9.858 -5.481,0 -9.941,4.459 -9.941,9.94 0,5.481 4.46,9.941 9.941,9.941"
   id="path16" />
</svg>
