<?xml version="1.0" encoding="utf-8"?>
<!-- Generator: Adobe Illustrator 23.0.1, SVG Export Plug-In . SVG Version: 6.00 Build 0)  -->
<svg version="1.1" id="svg31141" xmlns:svg="http://www.w3.org/2000/svg"
	 xmlns="http://www.w3.org/2000/svg" xmlns:xlink="http://www.w3.org/1999/xlink" x="0px" y="0px" width="708.7px" height="181.3px"
	 viewBox="0 0 708.7 181.3" enable-background="new 0 0 708.7 181.3" xml:space="preserve">
<g>
	<rect y="0.1" fill="#EC1B24" width="708.7" height="57.9"/>
	<path fill="#2199DD" d="M147.8,99.9c-4.6,17.2,4.6,20.9,19.5,20.9c14.2,0,24.7-8,27-18.7c4.2-19.7-26.1-19.2-24-29
		c0.9-4.1,3.5-6.6,7.2-6.6c1.8,0,3.2,0.2,4.1,1.3c1,1.1,0.9,3.7,0,7.9h16.8c3.8-13.3-5.6-18.9-17.3-18.9c-11.1,0-25.1,4-27.9,17.3
		c-4.2,19.6,26.6,16.7,23.9,29.7c-0.9,4.1-4.3,6.3-7.7,6.3c-3.4,0-5-1-5.6-2.9c-0.4-1.9,0-4.6,0.7-7.4H147.8z"/>
	<polygon fill="#2199DD" points="210.8,143.8 220,143.8 232.9,91.2 233.1,91.2 246.6,143.8 255.7,143.8 272.7,82.3 265.4,82.3 
		251.6,136.1 251.4,136.1 237.7,82.3 228.7,82.3 215.7,136.1 215.5,136.1 201.7,82.3 193.9,82.3 	"/>
	<path fill-rule="evenodd" clip-rule="evenodd" fill="#2199DD" d="M289.3,82.3h-17.2v61.4h17.2V82.3z M272.2,69.4h17.2V55.9h-17.2
		V69.4z"/>
	<path fill="#2199DD" d="M294,99.9c-4.6,17.2,4.6,20.9,19.5,20.9c14.2,0,24.7-8,27-18.7c4.2-19.7-26.1-19.2-24-29
		c0.9-4.1,3.5-6.6,7.2-6.6c1.8,0,3.2,0.2,4.1,1.3c1,1.1,0.9,3.7,0,7.9h16.8c3.8-13.3-5.6-18.9-17.3-18.9c-11.1,0-25.1,4-27.9,17.3
		c-4.2,19.6,26.6,16.7,23.9,29.7c-0.9,4.1-4.3,6.3-7.7,6.3c-3.4,0-5-1-5.6-2.9c-0.4-1.9,0-4.6,0.7-7.4H294z"/>
	<path fill="#2199DD" d="M393.9,121.4c0-28.8-38.7-23-38.7-44.5c0-7.7,5.8-12.4,13.1-12.4c11.6,0,14.5,5.8,15,16.7h10.1
		c0-13.1-5.5-24.9-22.5-24.9c-15,0-25.9,5.6-25.9,21.5c0,28.4,38.7,22.7,38.7,45.1c0,9.5-4.8,15.2-14.7,15.2
		c-13.1,0-15.8-7.8-15.8-19.6h-10.4c-0.2,18.2,7.2,27.3,25.7,27.3C384.5,145.8,393.9,137.6,393.9,121.4"/>
	<path fill-rule="evenodd" clip-rule="evenodd" fill="#19AE58" d="M431.8,96.1l-14.6,68.8c-1.7,8-3.2,10.5-12.1,9.9l-1.3,6.1
		c0.6,0.2,2.6,0.5,5.3,0.5c10.5,0,13.6-7.9,14.6-12.4l15.5-72.8H431.8z M443.6,78.9l2-9.3h-9l-2,9.3H443.6z"/>
	<path fill-rule="evenodd" clip-rule="evenodd" fill="#19AE58" d="M489.3,115.4c-2.4,11.2-14.2,21.8-25.9,21.8
		c-10.6,0-13.8-8-11.7-17.7c4.5-21,26.2-19.3,41-19.8L489.3,115.4z M483.9,143.6h10.6c1.1-10,2.3-15.5,3.6-21.6l9.2-43.3
		c4.7-22-13.2-22.8-21.9-22.8c-15,0-29.2,6.5-33.5,23h10.9c2.2-10.2,10.7-14.8,20-14.8c13.6,0,15.7,7.7,13.1,20.3l-1.5,7.1
		c-17.7,1.4-47.3-1.7-53.7,28.5c-3.2,15,3,25.4,18.3,25.4c10.6,0,19.8-4.1,27-12.3h0.3L483.9,143.6z"/>
	<polygon fill="#19AE58" points="559.7,58.1 519.2,58.1 516.9,69 540.1,69 507.9,107.3 505.3,119.5 547,119.5 549.4,108.6 
		524.5,108.6 557.1,70.2 	"/>
	<polygon fill="#19AE58" points="527.4,143.8 561,143.8 562.2,137.9 536.6,137.9 572.1,88.4 573.4,82.3 541.9,82.3 540.6,88.1 
		564.7,88.1 528.6,137.8 	"/>
	<path fill="#FFFFFF" d="M221.8,17.7h-15.5c0.4,4.3,0.5,6.8,0.5,10.4v30H222V41.9c-0.2-7.7,2.5-12.5,10.4-12.5c1,0,2.1,0,3.2,0.1
		V16.5c-6.7-0.2-11.7,2.1-13.5,8.8H222L221.8,17.7z"/>
	<path fill-rule="evenodd" clip-rule="evenodd" fill="#FFFFFF" d="M276.3,45.1c0-2.8,1.8-4.3,4-5.4c2.1-1,5.1-0.9,8.4-0.9
		c0,5.4-0.6,11.6-7.1,11.6C278.6,50.4,276.3,48,276.3,45.1 M303.8,58c-0.6-4.8-0.9-6.6-0.9-8.3V29c0.2-9.1-9.7-12.5-17.9-12.5
		c-4.5,0-9.7,0.5-13.9,2.4c-4.1,1.9-7.1,5.1-7,10.9h14.4c-0.1-2.4,1.1-6,4.8-6.2c6.1-0.2,5.3,4.9,5.3,8.4h-4.8
		c-13.2,0-22.2,4-22.3,13.8c-0.2,8.3,4.8,13.4,14.4,13.4c7.5,0,11-3.8,12.9-6.7h0.2c0,2.9,0,4.2,0.3,5.5H303.8z"/>
	<path fill-rule="evenodd" clip-rule="evenodd" fill="#FFFFFF" d="M364.1,58H379V0h-15.3v22.4h-0.2c-3-4.2-8-5.9-13.1-5.9
		c-12,0-17.4,10.9-17.4,21.5c0,10,5.4,21.2,16.9,21.2c5.7,0,11.3-2.3,13.4-7.2h0.3L364.1,58z M356.2,25.3c6.7,0,7.5,7.1,7.5,12.5
		c0,5.3-1.2,12.5-7.5,12.5c-6.3,0-7.5-7.2-7.5-12.5C348.8,32.5,349.5,25.3,356.2,25.3"/>
	<path fill-rule="evenodd" clip-rule="evenodd" fill="#FFFFFF" d="M426.2,17.7H411V58h15.3V17.7z M426.3,0h-15.4v10.8h15.4V0z"/>
	<path fill-rule="evenodd" clip-rule="evenodd" fill="#FFFFFF" d="M472.8,37.8c0-5.7,1.4-12.5,7.8-12.5c6.4,0,7.8,6.8,7.8,12.5
		c0,5.7-1.4,12.5-7.8,12.5C474.1,50.4,472.8,43.6,472.8,37.8 M480.6,16.5c-12.6,0-23.5,6.5-23.5,21.4c0,14.9,10.9,21.4,23.5,21.4
		c12.6,0,23.5-6.5,23.5-21.4C504,23,493.2,16.5,480.6,16.5"/>
</g>
</svg>
