<?xml version="1.0" encoding="UTF-8" standalone="no"?>
<!-- Created with Inkscape (http://www.inkscape.org/) -->

<svg
   width="111.62787mm"
   height="116.92789mm"
   viewBox="0 0 111.62787 116.92789"
   version="1.1"
   id="svg1"
   xml:space="preserve"
   inkscape:version="1.4.3 (0d15f75042, 2025-12-25)"
   sodipodi:docname="logo_nrj.svg"
   xmlns:inkscape="http://www.inkscape.org/namespaces/inkscape"
   xmlns:sodipodi="http://sodipodi.sourceforge.net/DTD/sodipodi-0.dtd"
   xmlns="http://www.w3.org/2000/svg"
   xmlns:svg="http://www.w3.org/2000/svg"><sodipodi:namedview
     id="namedview1"
     pagecolor="#ffffff"
     bordercolor="#000000"
     borderopacity="0.25"
     inkscape:showpageshadow="2"
     inkscape:pageopacity="0.0"
     inkscape:pagecheckerboard="0"
     inkscape:deskcolor="#d1d1d1"
     inkscape:document-units="mm"
     inkscape:zoom="0.57672289"
     inkscape:cx="258.35632"
     inkscape:cy="401.40595"
     inkscape:window-width="1920"
     inkscape:window-height="1131"
     inkscape:window-x="0"
     inkscape:window-y="0"
     inkscape:window-maximized="1"
     inkscape:current-layer="g24" /><defs
     id="defs1" /><g
     inkscape:label="Layer 1"
     inkscape:groupmode="layer"
     id="layer1"
     transform="translate(-51.479972,-85.386244)"><g
       id="g24"
       transform="translate(-1.3556171,9.3770326)"><path
         style="fill:#e00d20"
         d="m 52.9067,183.15153 0.0715,-5.63091 2.976562,-1.0505 2.976563,-1.0505 v -15.04479 c 0,-8.27463 -0.04339,-15.04478 -0.09641,-15.04478 -0.05303,0 -1.364326,0.47625 -2.913997,1.05833 -1.549672,0.58208 -2.875505,1.05833 -2.946296,1.05833 -0.07079,0 -0.128712,-2.36851 -0.128712,-5.26336 v -5.26336 l 0.463021,-0.1846 c 0.254661,-0.10153 4.213489,-1.49524 8.797396,-3.09712 4.583906,-1.60189 8.954464,-3.13077 9.712351,-3.39752 l 1.377977,-0.48499 9.866815,9.23716 9.866814,9.23717 0.07047,-7.17834 c 0.03876,-3.94808 0.02445,-7.22436 -0.0318,-7.28061 -0.05625,-0.0563 -1.070227,0.25099 -2.253283,0.68275 l -2.15101,0.78502 v -5.34779 -5.34779 l 2.447396,-0.82155 c 1.346067,-0.45184 8.460052,-2.93195 15.808853,-5.51134 l 13.36146,-4.6898 2.51354,-0.12938 2.51354,-0.12938 1.82483,0.42888 c 1.00365,0.23588 2.55144,0.81348 3.43954,1.28356 l 1.61472,0.85468 1.5973,1.59236 c 0.87851,0.8758 2.04154,2.32366 2.58449,3.21746 l 0.9872,1.62509 0.5244,2.05039 c 0.91214,3.56647 0.5299,6.58416 -1.26753,10.00675 l -0.9862,1.87786 -1.68873,1.79067 c -2.04463,2.16804 -3.70984,3.4187 -6.45988,4.85168 l -2.07856,1.0831 4.04551,2.84291 c 5.52883,3.88528 7.23885,4.64819 10.41864,4.64819 h 1.34767 l 1.31019,-0.6529 1.3102,-0.6529 0.71537,-1.10326 c 0.39345,-0.60679 0.80951,-1.65244 0.92456,-2.32366 0.23544,-1.37351 0.22939,-30.39257 -0.006,-30.62835 -0.0833,-0.0833 -1.70843,0.39565 -3.61134,1.06438 l -3.45983,1.21587 0.0715,-5.45531 0.0715,-5.45531 3.30729,-1.13234 c 1.81901,-0.62278 7.64219,-2.63192 12.9404,-4.46475 5.29821,-1.832825 9.67571,-3.289805 9.72778,-3.237731 0.0521,0.05207 -0.0103,11.274671 -0.13866,24.939121 l -0.23334,24.84443 -0.43644,1.5875 c -0.24005,0.87313 -0.86824,2.47168 -1.396,3.55235 l -0.95956,1.96484 -1.74844,1.74203 -1.74845,1.74203 -1.85208,0.9569 c -3.26092,1.6848 -6.25396,2.37935 -10.29361,2.38871 l -2.40639,0.006 -1.69688,-0.43997 c -3.23009,-0.83751 -6.59823,-2.75638 -13.52649,-7.7062 -7.48449,-5.34722 -9.82687,-6.60254 -13.83585,-7.41486 l -2.14194,-0.43402 -3.44942,0.14385 -3.44942,0.14384 -2.28562,0.67558 c -5.665707,1.67465 -9.812525,4.59444 -15.753183,11.09189 -2.13086,2.33057 -1.966333,2.27006 -2.870262,1.05555 -0.409932,-0.55078 -0.781543,-1.04815 -0.825802,-1.10527 -0.16072,-0.20741 -0.933409,0.61568 -1.367966,1.45719 l -0.445084,0.8619 -2.645833,-2.3987 -2.645834,-2.39871 -0.07084,6.21155 -0.07084,6.21155 -1.099706,0.32948 c -0.907244,0.27181 -8.053381,1.31682 -9.122351,1.33399 -0.170262,0.003 -1.092997,0.67376 -2.050521,1.49116 l -1.740952,1.48619 v 1.28993 1.28992 l 0.506779,0.59733 c 2.836421,3.3432 5.888439,7.12015 5.809402,7.18929 -0.05416,0.0474 -3.372692,1.22191 -7.374515,2.61008 -4.001823,1.38817 -7.486808,2.60793 -7.744412,2.71058 l -0.468371,0.18663 z m 61.35687,-46.4379 c 4.59433,-1.66372 5.07628,-1.92188 5.79814,-3.10577 l 0.51555,-0.84552 9.9e-4,-1.92673 9.9e-4,-1.92673 -0.3609,-0.86375 c -0.1985,-0.47506 -0.74341,-1.18561 -1.21093,-1.579 l -0.85002,-0.71525 h -0.67265 c -0.36995,0 -2.26582,0.55151 -4.21303,1.22559 l -3.54039,1.22559 v 4.99212 4.99212 h 0.23277 c 0.12803,0 2.06279,-0.6627 4.29948,-1.47267 z m 35.54867,-38.955342 c -3.94075,-1.36268 -6.60319,-4.266899 -7.53439,-8.218597 l -0.33426,-1.418479 0.13459,-1.756521 c 0.25854,-3.374026 1.97096,-6.406814 4.69017,-8.306539 l 1.435,-1.002533 1.69394,-0.523204 1.69393,-0.523204 1.49349,0.0031 c 4.992,0.0105 9.40157,3.304774 10.76283,8.040648 l 0.44883,1.561498 -0.12156,2.274961 -0.12156,2.274961 -0.68844,1.522187 -0.68844,1.522187 -1.36987,1.448432 c -1.58749,1.678537 -2.97341,2.553695 -4.99039,3.151239 l -1.43709,0.425747 -1.8702,-0.0086 -1.87021,-0.0086 z"
         id="path26" /><path
         style="fill:#ad0f15"
         d="m 65.817657,179.93277 c -1.483778,-1.78728 -2.932833,-3.52645 -3.220123,-3.86483 l -0.522344,-0.61522 0.117165,-0.44311 0.117165,-0.44311 0.03069,0.45472 0.03069,0.45472 0.389082,-0.14931 0.389083,-0.1493 0.45987,0.96436 0.45987,0.96435 0.437786,-0.58038 0.437786,-0.58039 0.615102,0.83197 c 0.771383,1.04335 0.8639,1.03814 1.265086,-0.0713 0.17965,-0.49682 0.809018,-1.3391 1.398596,-1.87175 l 1.071959,-0.96845 0.38809,0.14892 0.38809,0.14893 -0.143332,-0.23192 -0.143332,-0.23191 1.121778,-0.15057 c 0.616977,-0.0828 2.047868,-0.22952 3.179756,-0.32601 l 2.05798,-0.17543 -0.07361,3.7646 -0.0736,3.76461 -3.304411,1.16422 c -1.817426,0.64032 -3.500766,1.22654 -3.740755,1.30271 l -0.436344,0.13849 z"
         id="path25" /><path
         id="path24"
         style="fill:#0e0e0e"
         d="m 106.42383,146.32031 a 0.24759435,0.24759435 0 0 0 -0.0547,0.006 l -1.87695,0.42774 c -6.34591,1.44222 -9.788938,3.59935 -16.195315,10.14453 l -3.210938,3.28125 -0.83789,-0.9375 a 0.24759435,0.24759435 0 0 0 -0.002,-0.002 l -1.017578,-1.13671 a 0.24759435,0.24759435 0 0 0 -0.396485,0.041 l -0.679687,1.16016 c -0.751791,1.28283 -0.855461,2.107 -0.445313,3.53711 l 0.222656,0.77734 -0.214843,0.25977 a 0.24759435,0.24759435 0 0 0 -0.002,0 l -0.13086,0.1582 -0.378906,-0.35742 c -0.18755,-0.1762 -0.333517,-0.31204 -0.472656,-0.41016 -0.139139,-0.0981 -0.296815,-0.1789 -0.480469,-0.14062 -0.183654,0.0383 -0.294366,0.17647 -0.380859,0.32226 -0.08649,0.14579 -0.163986,0.32655 -0.261719,0.5625 a 0.24759435,0.24759435 0 0 0 0,0.002 l -0.326172,0.78907 a 0.24759435,0.24759435 0 0 0 -0.01172,0.15234 l 0.15625,0.63086 a 0.24759435,0.24759435 0 0 0 0,0.002 l 0.121094,0.48243 -0.345703,0.30468 c -1.694352,1.49327 -4.54118,2.40069 -9.744141,3.03516 l -3.943359,0.48047 a 0.24759435,0.24759435 0 0 0 -0.13086,0.0566 l -1.214843,1.02344 c -0.665543,0.56023 -1.447464,1.19056 -1.703125,1.375 l -0.503907,0.36328 a 0.24759435,0.24759435 0 0 0 -0.103515,0.20312 l 0.0039,0.69531 c 0.0021,0.41184 0.07253,0.9781 0.167969,1.33399 l 0.15625,0.57617 a 0.24759435,0.24759435 0 0 0 0.326172,0.16602 l 0.361328,-0.13868 0.15039,-0.0566 0.363282,0.75977 0.458984,0.96289 a 0.24759435,0.24759435 0 0 0 0.419922,0.041 l 0.4375,-0.58008 0.240234,-0.31446 0.416016,0.56446 c 0.188263,0.25464 0.343789,0.45197 0.484375,0.59765 0.140586,0.14569 0.261565,0.25815 0.451172,0.28711 0.0948,0.0145 0.206332,-0.009 0.287109,-0.0605 0.08078,-0.052 0.133213,-0.12106 0.175781,-0.19336 0.08514,-0.14461 0.137291,-0.31762 0.19336,-0.54102 0.0832,-0.33147 0.468065,-0.94293 0.949219,-1.49219 0.481153,-0.54925 1.063624,-1.05767 1.492187,-1.27929 l 0.703125,-0.36328 2.541016,-0.2461 c 1.420156,-0.13675 3.764165,-0.32907 5.199218,-0.42773 l 2.294922,-0.15821 -0.126953,0.68165 -0.1875,0.99414 a 0.24759435,0.24759435 0 0 0 0.06641,0.21679 l 0.865235,0.89258 c 0.500847,0.51675 0.933281,0.83542 1.404297,0.91602 0.471016,0.0806 0.925518,-0.10639 1.388672,-0.47071 l 0.595703,-0.46875 a 0.24759435,0.24759435 0 0 0 0.05859,-0.32422 l -0.289062,-0.47265 -0.169922,-0.2793 0.330078,-0.24609 c 0.212418,-0.15773 0.75362,-0.33399 1.0625,-0.33399 h 0.589844 l 0.523437,0.55664 0.515625,0.54883 -0.07227,0.63086 -0.06641,0.57422 -0.410157,0.10156 -0.576172,0.14258 a 0.24759435,0.24759435 0 0 0 -0.140625,0.38672 l 0.376954,0.51172 0.376953,0.51367 a 0.24759435,0.24759435 0 0 0 0.30664,0.0762 l 1.583985,-0.75781 c 0.89577,-0.42814 1.914934,-1.07907 2.359375,-1.54297 l 0.705078,-0.73633 a 0.24759435,0.24759435 0 0 0 0.02734,-0.30664 l -0.433594,-0.66406 c -0.205174,-0.31313 -0.394531,-0.91809 -0.394531,-1.19922 v -0.56641 l 0.457031,-0.45703 0.457031,-0.45703 h 0.734375 0.744141 l 0.414062,0.37305 0.400391,0.36328 v 0.86719 0.88672 l -1.63086,1.91406 c -4.395916,5.15199 -9.370343,8.39031 -13.410156,8.81836 l -1.638672,0.17383 a 0.24759435,0.24759435 0 0 0 -0.136718,0.0586 l -1.470704,1.27148 -1.470703,1.27149 a 0.24759435,0.24759435 0 0 0 -0.08594,0.1875 v 1.05859 1.0586 a 0.24759435,0.24759435 0 0 0 0.376953,0.21093 l 0.232422,-0.14257 0.226562,0.75781 c 0.166152,0.55456 0.291575,0.90296 0.533203,1.11328 0.06041,0.0526 0.136563,0.10026 0.232422,0.11328 0.09586,0.013 0.198955,-0.0172 0.271485,-0.0664 0.138359,-0.0939 0.20178,-0.22728 0.263672,-0.38867 l 0.617187,0.59961 0.882813,0.85938 a 0.24759435,0.24759435 0 0 0 0.404296,-0.0918 l 0.216797,-0.58594 c 0.07905,-0.2137 0.141793,-0.36946 0.1875,-0.44922 0.04571,-0.0797 0.03687,-0.0527 0.01367,-0.0508 -0.0232,0.002 0.03569,0.007 0.154297,0.0879 0.118609,0.0812 0.287703,0.21971 0.511719,0.40821 0.258972,0.2179 0.475218,0.38424 0.662109,0.5039 0.186891,0.11967 0.340862,0.2012 0.523438,0.21094 0.182576,0.01 0.382027,-0.1254 0.453125,-0.28516 0.0711,-0.15975 0.08398,-0.33297 0.08398,-0.54882 v -0.51172 l 1.966797,-1.76172 2.029297,-1.81445 3.410156,-1.93165 c 2.843371,-1.60946 6.494278,-3.96624 9.517578,-6.07226 1.51165,-1.05301 2.864866,-2.0422 3.884766,-2.8457 0.50996,-0.40175 0.93693,-0.75687 1.25977,-1.05274 0.32283,-0.29587 0.53947,-0.51396 0.65429,-0.72851 l 0.24415,-0.45508 a 0.24759435,0.24759435 0 0 0 -0.0488,-0.29688 l -0.81641,-0.76562 c -0.44494,-0.41787 -0.95908,-1.18198 -1.3457,-1.95703 -0.38662,-0.77505 -0.64482,-1.58088 -0.64649,-2.01368 -0.003,-0.87747 0.52383,-1.93172 1.47657,-2.95703 0.95274,-1.0253 2.31918,-2.01958 3.9375,-2.79882 l 1.93359,-0.93165 h 2.58984 2.58985 l 1.44922,0.67969 c 0.80327,0.37657 2.17678,1.16515 3.00976,1.73047 3.40138,2.30848 8.26843,4.34815 12.60938,5.28516 l 2.24804,0.48437 a 0.24759435,0.24759435 0 0 0 0.0547,0.006 l 4.10156,-0.0176 4.10157,-0.0176 a 0.24759435,0.24759435 0 0 0 0.041,-0.004 l 2.51367,-0.45117 c 9.65532,-1.73336 15.24841,-5.80226 18.89453,-13.76367 0.55044,-1.2019 1.10223,-2.83881 1.51563,-4.37696 0.4134,-1.53814 0.69195,-2.95726 0.67578,-3.79687 l -0.0215,-1.08985 a 0.24759435,0.24759435 0 0 0 -0.49024,-0.0488 l -0.36523,1.68359 c -1.28431,5.91895 -5.72141,10.36372 -12.07813,12.07031 l -1.99023,0.5332 -3.54102,0.0352 -3.52929,0.0332 -1.41407,-0.47656 h -0.002 c -3.42391,-1.15742 -6.96805,-3.30013 -15.54492,-9.41601 -4.02235,-2.8682 -7.27112,-4.60196 -10.0625,-5.35352 l -2.05664,-0.55469 a 0.24759435,0.24759435 0 0 0 -0.0645,-0.01 l -3.43945,-0.008 z m -23.320314,21.12305 c 0.126231,0.0237 1.146628,0.20386 0.609375,0.125 -0.0053,0.0448 -0.03607,0.16683 -0.126954,0.37305 -0.09659,0.21914 -0.24605,0.52144 -0.445312,0.92773 -0.259351,0.5288 -0.469948,0.89994 -0.630859,1.13477 0.0023,-0.0223 -0.001,-0.0286 0.002,-0.0527 0.03911,-0.31692 0.138535,-0.79204 0.300781,-1.4082 z" /></g></g></svg>
