<?xml version="1.0" encoding="UTF-8" standalone="no"?>
<svg
   xml:space="preserve"
   width="471.67999"
   height="471.67999"
   version="1.1"
   id="svg2"
   sodipodi:docname="logo_classic_fm.svg"
   inkscape:version="1.4.3 (0d15f75042, 2025-12-25)"
   xmlns:inkscape="http://www.inkscape.org/namespaces/inkscape"
   xmlns:sodipodi="http://sodipodi.sourceforge.net/DTD/sodipodi-0.dtd"
   xmlns="http://www.w3.org/2000/svg"
   xmlns:svg="http://www.w3.org/2000/svg"><defs
   id="defs2" /><sodipodi:namedview
   id="namedview2"
   pagecolor="#ffffff"
   bordercolor="#000000"
   borderopacity="0.25"
   inkscape:showpageshadow="2"
   inkscape:pageopacity="0.0"
   inkscape:pagecheckerboard="0"
   inkscape:deskcolor="#d1d1d1"
   inkscape:zoom="0.80413184"
   inkscape:cx="437.11738"
   inkscape:cy="122.49235"
   inkscape:window-width="1920"
   inkscape:window-height="1131"
   inkscape:window-x="0"
   inkscape:window-y="0"
   inkscape:window-maximized="1"
   inkscape:current-layer="svg2" />
  
  <g
   id="g2"
   transform="translate(0,182.10506)"><path
     fill="#010101"
     d="M 41.039,40.81 H 39.664 C 37.398,31.583 32.281,27.13 24.25,27.13 c -10.703,0 -17.352,8.641 -17.352,22.406 0,14.625 7.141,24.461 17.844,24.461 7.297,0 12.734,-3.586 16.297,-10.781 l 1.227,1.195 C 39.18,72.208 31.797,77.067 22.875,77.067 9.57,77.068 0,66.818 0,52.708 0,37.052 10.141,25.677 24.008,25.677 c 3.328,0 5.602,0.352 10.148,1.633 1.375,0.336 1.945,0.422 2.586,0.422 1.219,0 2.031,-0.516 2.523,-1.539 h 1.289 z M 93.125,75.873 H 59.477 V 74.42 h 0.477 c 3.648,0 4.789,-2.305 4.789,-9.328 v -27.43 l 0.078,-2.234 c 0,-4.961 -1.375,-7.094 -4.625,-7.094 H 59.477 V 26.88 h 16.609 v 1.453 h -0.484 c -3.648,0 -4.781,2.219 -4.781,9.328 v 30.687 c 0,4.102 0.891,5.039 4.547,5.227 l 2.672,0.086 h 7.375 c 5.672,0 7.062,-1.297 9.172,-8.391 h 1.461 z m 53.625,-8.977 c 1.859,5.891 2.836,7.172 5.352,7.359 l 1.219,0.078 0.656,0.086 v 1.453 h -16.312 v -1.453 c 2.594,0 3.977,-1.031 3.977,-2.906 0,-0.773 -0.164,-1.273 -0.891,-3.586 l -3.734,-11.891 h -15 l -3.164,9.828 c -0.82,2.648 -1.211,4.375 -1.211,5.391 0,2.047 1.039,3 3.719,3.164 v 1.453 h -12 v -1.453 c 3.25,-0.422 5.109,-2.211 6.406,-6.328 l 0.406,-1.453 12.898,-40.273 h 4.859 z M 129.555,32.271 h -0.156 l -6.492,20.766 h 13.133 z m 66.117,5.391 h -1.383 l -0.078,-0.688 c -0.891,-3.852 -1.859,-5.82 -3.891,-7.445 -1.789,-1.453 -3.984,-2.312 -6.336,-2.312 -4.859,0 -8.352,3.336 -8.352,7.789 0,2.391 1.141,5.039 3,6.922 1.141,1.117 2.438,2.133 3.898,3.164 1.055,0.688 2.836,1.891 5.352,3.508 3.734,2.469 5.594,4.023 7.219,6.078 2.023,2.562 3.078,5.383 3.078,8.453 0,7.703 -5.914,13.938 -13.219,13.938 -2.516,0 -3.891,-0.344 -7.711,-1.617 -1.852,-0.695 -2.586,-0.938 -2.914,-0.938 -0.812,0 -1.375,0.602 -1.789,1.875 h -1.375 V 63.13 h 1.375 l 0.086,0.953 c 0.648,4.609 1.547,6.398 4.219,8.547 1.945,1.703 4.383,2.562 6.891,2.562 5.594,0 9.328,-3.586 9.328,-8.891 0,-3 -1.047,-5.055 -3.891,-7.445 -1.703,-1.539 -3.492,-2.898 -5.438,-4.18 -3,-2.055 -4.945,-3.344 -6,-4.109 -1.133,-0.852 -2.266,-1.969 -3.32,-3.25 -2.023,-2.656 -3,-5.562 -3,-8.984 0,-7.516 5.188,-12.656 12.648,-12.656 2.352,0 3.727,0.258 6.484,1.203 1.625,0.602 2.188,0.68 2.68,0.68 0.648,0 0.891,-0.25 1.133,-1.031 0,-0.078 0.078,-0.164 0.078,-0.336 h 1.227 v 11.469 z m 44.851,0 h -1.375 l -0.078,-0.688 c -0.891,-3.852 -1.867,-5.82 -3.891,-7.445 -1.781,-1.453 -3.977,-2.312 -6.328,-2.312 -4.875,0 -8.352,3.336 -8.352,7.789 0,2.391 1.133,5.039 3,6.922 1.133,1.117 2.438,2.133 3.891,3.164 1.055,0.688 2.844,1.891 5.352,3.508 3.734,2.469 5.609,4.023 7.219,6.078 2.031,2.562 3.086,5.383 3.086,8.453 0,7.703 -5.922,13.938 -13.227,13.938 -2.508,0 -3.883,-0.344 -7.695,-1.617 -1.867,-0.695 -2.602,-0.938 -2.922,-0.938 -0.812,0 -1.383,0.602 -1.789,1.875 h -1.375 V 63.13 h 1.375 l 0.086,0.953 c 0.648,4.609 1.539,6.398 4.211,8.547 1.945,1.703 4.375,2.562 6.906,2.562 5.586,0 9.32,-3.586 9.32,-8.891 0,-3 -1.055,-5.055 -3.891,-7.445 -1.695,-1.539 -3.492,-2.898 -5.43,-4.18 -3,-2.055 -4.961,-3.344 -6.016,-4.109 -1.125,-0.852 -2.266,-1.969 -3.328,-3.25 -2.023,-2.656 -3,-5.562 -3,-8.984 0,-7.516 5.203,-12.656 12.664,-12.656 2.352,0 3.734,0.258 6.477,1.203 1.625,0.602 2.203,0.68 2.672,0.68 0.664,0 0.906,-0.25 1.148,-1.031 0,-0.078 0.078,-0.164 0.078,-0.336 h 1.211 V 37.662 Z M 275.43,75.873 H 258.703 V 74.42 h 0.656 c 3.328,0 4.695,-2.211 4.695,-7.781 V 36.115 c 0,-5.562 -1.367,-7.781 -4.695,-7.781 h -0.656 V 26.88 h 16.727 v 1.453 h -0.578 c -3.406,0 -4.711,2.219 -4.711,7.781 v 30.524 c 0,5.57 1.305,7.781 4.711,7.781 h 0.578 z M 334.617,40.81 h -1.383 c -2.258,-9.227 -7.367,-13.68 -15.398,-13.68 -10.711,0 -17.367,8.641 -17.367,22.406 0,14.625 7.148,24.461 17.836,24.461 7.312,0 12.734,-3.586 16.312,-10.781 l 1.219,1.195 c -3.07,7.797 -10.469,12.656 -19.383,12.656 -13.312,0 -22.875,-10.25 -22.875,-24.359 0,-15.656 10.148,-27.031 24,-27.031 3.336,0 5.602,0.352 10.148,1.633 1.383,0.336 1.945,0.422 2.602,0.422 1.211,0 2.023,-0.516 2.508,-1.539 h 1.289 z M 468.852,28.669 c -3.641,0.344 -5.281,2.234 -5.281,6.414 0,0.25 0.094,0.609 0.094,0.859 l 2.016,30.109 c 0.406,5.883 1.875,7.945 6,8.367 v 1.453 h -16.617 v -1.453 c 3,-0.258 4.617,-2.055 4.617,-5.211 0,-0.859 -0.07,-1.969 -0.156,-3.25 l -1.953,-30.531 h -0.156 l -15.805,40.445 h -1.312 L 424.807,35.426 h -0.164 l -2.258,30.109 c -0.086,0.422 -0.086,0.844 -0.086,1.281 0,4.602 1.617,6.758 5.68,7.602 v 1.453 h -14.445 v -1.453 c 4.219,-0.516 5.766,-2.906 6.258,-9.328 l 2.594,-33.336 c -1.867,-2.055 -3.414,-2.906 -6.25,-3.422 V 26.88 h 11.844 l 14.828,38.656 15.094,-38.406 h 10.953 v 1.539 z"
     id="path1" /><path
     fill="#e41e26"
     d="m 428.57,12.49 c -2.047,9.734 -11.875,7.539 -13.445,3.672 -3.102,-7.609 2.883,-11.688 6.633,-10.836 -1.617,-3.945 -6.773,-3.648 -9.266,-2.109 -7.305,4.961 -9.203,15.242 -11.289,23.281 -0.023,-0.023 9.562,-0.047 9.516,-0.023 v 1.969 h -9.961 c -7.328,28.359 -17.18,63.461 -36.727,77.336 -3.75,2.32 -7.875,1.883 -10.445,0.867 -2.656,-0.922 -5.516,-5.086 -5.023,-9.516 0.398,-2.719 2.805,-6.703 6.914,-6.703 4.734,0 6.391,3.234 6.797,5.906 0.398,2.672 -0.328,6.453 -4.242,7.281 0.805,0.898 3.023,1.672 6.234,-1.398 9.867,-11.102 13.43,-49.539 23.203,-73.797 -0.008,-0.023 -9.773,-0.07 -9.844,0.023 v -1.969 h 10.547 c 4.945,-11.57 12.727,-23.43 25.289,-26.164 14.047,-2.328 15.609,9.125 15.109,12.18"
     id="path2" /></g>
</svg>
