<?xml version="1.0" encoding="UTF-8" standalone="no"?>
<svg
   xmlns:dc="http://purl.org/dc/elements/1.1/"
   xmlns:cc="http://creativecommons.org/ns#"
   xmlns:rdf="http://www.w3.org/1999/02/22-rdf-syntax-ns#"
   xmlns:svg="http://www.w3.org/2000/svg"
   xmlns="http://www.w3.org/2000/svg"
   xmlns:sodipodi="http://sodipodi.sourceforge.net/DTD/sodipodi-0.dtd"
   xmlns:inkscape="http://www.inkscape.org/namespaces/inkscape"
   width="946.64813"
   height="301.03751"
   viewBox="0 0 757.3185 240.83"
   version="1.1"
   id="svg2"
   inkscape:version="0.47 r22583"
   sodipodi:docname="esRadioLOGO.svg">
  <metadata
     id="metadata31">
    <rdf:RDF>
      <cc:Work
         rdf:about="">
        <dc:format>image/svg+xml</dc:format>
        <dc:type
           rdf:resource="http://purl.org/dc/dcmitype/StillImage" />
      </cc:Work>
    </rdf:RDF>
  </metadata>
  <defs
     id="defs29">
    <inkscape:perspective
       sodipodi:type="inkscape:persp3d"
       inkscape:vp_x="0 : 301.25 : 1"
       inkscape:vp_y="0 : 1000 : 0"
       inkscape:vp_z="1903.75 : 301.25 : 1"
       inkscape:persp3d-origin="951.875 : 200.83333 : 1"
       id="perspective33" />
  </defs>
  <sodipodi:namedview
     pagecolor="#ffffff"
     bordercolor="#666666"
     borderopacity="1"
     objecttolerance="10"
     gridtolerance="10"
     guidetolerance="10"
     inkscape:pageopacity="0"
     inkscape:pageshadow="2"
     inkscape:window-width="1680"
     inkscape:window-height="988"
     id="namedview27"
     showgrid="false"
     inkscape:zoom="0.32"
     inkscape:cx="365.83513"
     inkscape:cy="510.99275"
     inkscape:window-x="-8"
     inkscape:window-y="-8"
     inkscape:window-maximized="1"
     inkscape:current-layer="svg2" />
  <g
     id="#ffffffff"
     transform="translate(-378.65926,-120.415)" />
  <g
     id="#b22f2fff"
     transform="matrix(0.5,0,0,0.5,-6.227885e-6,0)">
    <path
       d="m 99.58,0 0.2,0 c 13.42,13.34 26.77,26.74 40.15,40.13 -39.24,38.92 -66.56,89.66 -77.45,143.86 -9.61,46.97 -7.03,96.36 7.4,142.08 13.53,43.36 37.95,83.13 69.99,115.27 -13.42,13.44 -26.92,26.79 -40.24,40.32 C 81.49,463.07 64.96,442.82 51.28,420.69 19.25,369.54 1.53,309.68 0,249.37 L 0,231.65 C 0.8,205.23 4.47,178.88 11.26,153.33 26.41,95.59 57.27,42.11 99.58,0 z"
       id="path6"
       style="fill:#b22f2f" />
    <path
       d="m 121.53,193.92 c 9.06,-41.72 30.37,-80.7 60.73,-110.73 13.38,13.4 26.79,26.76 40.15,40.18 -22.3,22.25 -38.21,50.85 -45.1,81.61 -7.57,33.08 -4.78,68.44 7.92,99.91 8.39,21.03 21.2,40.24 37.2,56.25 -13.39,13.39 -26.78,26.78 -40.17,40.16 -24.96,-24.71 -43.88,-55.47 -54.77,-88.86 -12.52,-38.03 -14.53,-79.42 -5.96,-118.52 z"
       id="path8"
       style="fill:#b22f2f" />
    <path
       d="m 286.58,169.67 c 12.89,-9.26 28.57,-14.1 44.3,-15.27 17.2,-1.32 35,0.56 50.82,7.77 18.14,8.2 33.06,23.44 40.45,41.97 6.31,15.38 7.52,32.28 6.83,48.73 -36.83,0.01 -73.67,-0.01 -110.5,0.02 0.36,8.1 1.1,16.81 5.99,23.61 4.31,5.53 11.86,6.82 18.46,6.9 6.99,0.23 14.58,-1.52 19.45,-6.86 3.42,-3.67 5.18,-8.52 6.14,-13.36 20.16,1.3 40.33,2.67 60.49,4.05 -3.35,15.64 -12.66,29.58 -24.99,39.61 -13.83,11.84 -32.03,17.21 -49.91,18.58 -19.95,1.54 -40.78,-0.43 -58.84,-9.59 -19.36,-9.79 -34.71,-27.58 -40.96,-48.42 -4.33,-14.67 -4.56,-30.41 -1.61,-45.37 4.1,-20.93 16.62,-39.94 33.88,-52.37 m 38.06,29.02 c -5.16,5.9 -6.24,14.12 -6.3,21.68 15.32,0.01 30.63,0.01 45.94,0 -0.12,-5.92 -0.61,-12.02 -3.13,-17.46 -2.88,-6.15 -9.61,-9.59 -16.1,-10.43 -7.2,-0.88 -15.42,0.51 -20.41,6.21 z"
       id="path10"
       style="fill:#b22f2f" />
    <path
       d="m 488.89,159.17 c 15.15,-5.05 31.4,-5.88 47.23,-4.68 15.16,1.25 30.6,5.15 43.04,14.26 9.89,7.06 17.14,17.38 21.4,28.68 -16.37,3.07 -32.73,6.22 -49.11,9.24 -3.56,-7.88 -11.63,-12.73 -19.98,-13.9 -7.21,-0.99 -14.79,-1.17 -21.78,1.1 -2.81,1.13 -5.83,2.68 -7.26,5.49 -0.82,2.99 1.13,6.06 3.67,7.55 5.37,3.23 11.85,3.28 17.89,4.09 15.04,1.87 30.15,3.68 44.88,7.39 17.79,4.35 33.5,18.66 37.53,36.8 3.14,14.77 0.53,31.21 -9.01,43.21 -10.39,13.19 -26.36,20.73 -42.46,24.28 -16.63,3.54 -33.87,4.02 -50.75,2.15 -16.64,-1.98 -33.49,-7.52 -46,-19.05 -8.87,-8.05 -14.99,-18.77 -18.58,-30.12 17.05,-2.36 34.11,-4.65 51.17,-7 1.71,7 7.32,12.45 14.04,14.76 10.43,3.68 21.82,3.58 32.7,2.34 4.68,-0.84 10.69,-1.91 12.75,-6.84 1.6,-4.25 -2.15,-8.09 -5.99,-9.18 -11.61,-3.6 -23.88,-4.05 -35.75,-6.44 -15.1,-3 -30.82,-6.22 -43.72,-15.08 -18.64,-14.96 -22.82,-44.32 -9.9,-64.27 7.82,-12.06 20.54,-20.25 33.99,-24.78 z"
       id="path12"
       style="fill:#b22f2f" />
  </g>
  <g
     id="#060709ff"
     transform="matrix(0.5,0,0,0.5,-6.227885e-6,0)">
    <path
       d="m 1243.5,96.25 c 21.63,0 43.25,-0.01 64.88,0 0,17.12 0,34.25 0,51.37 -21.63,0.01 -43.26,0.01 -64.89,0 0.02,-17.13 0,-34.25 0.01,-51.37 z"
       id="path15"
       style="fill:#060709" />
    <path
       d="m 626.88,103.25 c 31.07,0 62.13,0 93.19,0 18.49,0.16 37.4,-1.22 55.37,4.12 16.22,4.47 31.25,14.6 39.78,29.32 8.14,13.85 9.41,30.73 6.76,46.31 -1.68,9.07 -4.82,18.14 -10.58,25.45 -7.22,8.87 -17.23,14.87 -27.4,19.8 13.37,32.16 26.74,64.33 40.06,96.51 -25.2,-0.03 -50.39,0.02 -75.58,-0.02 -10.75,-28.21 -21.51,-56.41 -32.26,-84.62 -7.11,0.01 -14.23,0 -21.34,0.01 -0.01,28.21 0.01,56.41 -0.01,84.62 -22.66,0 -45.33,0.01 -68,0 0.01,-73.84 -0.01,-147.67 0.01,-221.5 m 68,47.03 c 0.01,14.11 -0.02,28.23 0.01,42.34 10.01,-0.01 20.03,0.03 30.04,-0.02 7.64,-0.18 15.75,-1.81 21.61,-7.04 6.69,-6.09 7.08,-16.74 3.42,-24.55 -3.59,-7.32 -12.22,-10.06 -19.82,-10.48 -11.75,-0.42 -23.52,0.08 -35.26,-0.25 z"
       id="path17"
       style="fill:#060709" />
    <path
       d="m 1145.74,103.24 c 21.29,0.02 42.59,0 63.89,0.01 0,73.83 -0.01,147.66 0,221.49 -20.25,0.02 -40.5,0.01 -60.75,0.01 -0.01,-7.23 -0.01,-14.46 0,-21.69 -5.74,10.97 -15.78,19.78 -27.85,22.95 -15.83,4.14 -33.61,2.49 -47.63,-6.29 -11.96,-7.52 -20.82,-19.39 -25.78,-32.53 -6.42,-16.89 -7.7,-35.25 -7.15,-53.16 0.76,-18.76 4.95,-38.03 15.84,-53.65 7.59,-11.01 18.61,-19.97 31.64,-23.56 12.28,-3.37 25.8,-3.36 37.73,1.39 7.81,3.11 14.61,8.41 20.09,14.75 -0.05,-23.24 0,-46.48 -0.03,-69.72 m -23.5,93.91 c -5.67,1.52 -9.46,6.72 -11.08,12.12 -3.49,11.58 -4.28,23.76 -4.4,35.79 0.2,10.16 0.66,20.75 5.18,30.06 2.57,5.4 7.87,9.71 14.02,9.88 7.07,0.67 13.84,-3.87 16.86,-10.12 2.68,-5.53 3.02,-11.83 2.94,-17.87 -0.02,-13.01 0,-26.02 -0.01,-39.03 -0.1,-5.61 -0.99,-11.62 -4.66,-16.08 -4.5,-5.36 -12.39,-6.35 -18.85,-4.75 z"
       id="path19"
       style="fill:#060709" />
    <path
       d="m 874.72,170.75 c 17.72,-11.57 39.51,-14.31 60.23,-14.51 17.08,0.16 34.58,1.74 50.5,8.32 13.7,5.89 26.1,17.99 27.98,33.36 2.16,14.92 1.43,30.04 1.57,45.07 0.02,17.33 -0.05,34.67 0.03,52 0.19,10.1 1.55,20.26 5.03,29.78 -20.6,-0.05 -41.2,0 -61.79,-0.03 -1.58,-7.47 -2.16,-15.11 -2.31,-22.74 -7.23,11.05 -18.33,19.51 -31.05,23.16 -10.68,3.2 -22.03,3.54 -33.05,2.37 -10.92,-1.21 -21.98,-4.75 -30.31,-12.16 -7.63,-6.91 -13.5,-16.01 -15.69,-26.13 -2.87,-13.43 -0.17,-28.19 8.25,-39.17 8.56,-11.42 21.46,-18.8 34.91,-22.96 20.6,-6.47 42.26,-8.59 63.72,-9.88 0.05,-5.66 0.34,-12.05 -3.44,-16.71 -3.95,-4.02 -9.98,-4.73 -15.33,-4.89 -7.04,-0.04 -14.77,1.12 -20.02,6.24 -3.23,3.1 -4.79,7.46 -5.54,11.78 -19.71,-1.87 -39.44,-3.64 -59.15,-5.56 3.52,-15.02 12.37,-28.94 25.46,-37.34 m 49.29,84.34 c -5.78,3.03 -10.92,8.2 -12.08,14.84 -0.9,5.24 -0.36,11.5 3.86,15.24 4.69,3.88 11.29,4 17.04,3.21 6.93,-1.18 14.25,-4.99 16.87,-11.91 3.61,-9.18 3.03,-19.25 3.04,-28.92 -9.85,1.13 -19.88,2.86 -28.73,7.54 z"
       id="path21"
       style="fill:#060709" />
    <path
       d="m 1412.6,156.82 c 19.9,-1.8 40.76,0.54 58.6,10.04 15.65,8.34 28.48,21.93 35.9,38.04 7.66,16.82 9.11,36.04 6.02,54.13 -2.87,16.84 -11.36,32.57 -23.63,44.43 -13.41,13.49 -31.73,21.4 -50.48,23.68 -19.11,2.29 -39.18,0.96 -56.89,-7.06 -16.78,-7.5 -30.22,-21.34 -38.9,-37.37 -9.63,-17.85 -11.76,-39.1 -7.95,-58.85 3.1,-16.34 11.54,-31.51 23.54,-43 14.25,-14.23 33.86,-22.32 53.79,-24.04 m 5.81,40.92 c -4.69,1.37 -8.39,5.07 -10.48,9.39 -3.61,7.41 -4.45,15.79 -5.05,23.91 -0.53,11.16 -0.47,22.38 0.86,33.48 0.91,6.16 1.94,12.73 5.97,17.72 7.23,9.52 24.69,8.72 30.13,-2.28 3.3,-6.86 3.75,-14.66 4.82,-22.09 1.26,-12.5 1.31,-25.17 -0.32,-37.64 -1.03,-6.3 -2.3,-13.05 -6.66,-17.98 -4.78,-5.21 -12.71,-6.29 -19.27,-4.51 z"
       id="path23"
       style="fill:#060709" />
    <path
       d="m 1243.5,159.63 c 21.63,-0.01 43.25,-0.01 64.87,0 0.01,55.04 0.01,110.08 0.01,165.12 -21.63,0.01 -43.26,0 -64.88,0 0,-55.04 -0.01,-110.08 0,-165.12 z"
       id="path25"
       style="fill:#060709" />
  </g>
</svg>
