<?xml version="1.0" encoding="UTF-8" standalone="no"?>
<!-- Created with Inkscape (http://www.inkscape.org/) -->

<svg
   width="44.51017mm"
   height="45.683727mm"
   viewBox="0 0 44.51017 45.683727"
   version="1.1"
   id="svg1"
   xmlns:inkscape="http://www.inkscape.org/namespaces/inkscape"
   xmlns:sodipodi="http://sodipodi.sourceforge.net/DTD/sodipodi-0.dtd"
   xmlns="http://www.w3.org/2000/svg"
   xmlns:svg="http://www.w3.org/2000/svg">
  <sodipodi:namedview
     id="namedview1"
     pagecolor="#ffffff"
     bordercolor="#000000"
     borderopacity="0.25"
     inkscape:showpageshadow="2"
     inkscape:pageopacity="0.0"
     inkscape:pagecheckerboard="0"
     inkscape:deskcolor="#d1d1d1"
     inkscape:document-units="mm" />
  <defs
     id="defs1" />
  <g
     inkscape:label="Livello 1"
     inkscape:groupmode="layer"
     id="layer1"
     transform="translate(-39.687501,-89.958333)">
    <g
       id="g18"
       transform="matrix(0.35277777,0,0,-0.35277777,79.78172,97.243175)">
      <path
         d="m 0,0 -40.858,10.089 -0.019,-0.005 -40.857,10.081 c -8.836,2.183 -17.754,-3.21 -19.932,-12.04 l -10.569,-42.84 -1.024,-4.156 c -1.271,-5.116 0.889,-8.235 1.481,-9.213 l 33.557,-54.884 c 1.894,-2.627 4.699,-4.619 8.101,-5.464 h 0.005 0.011 c 3.395,-0.836 6.801,-0.375 9.715,1.071 l 55.225,32.969 c 0.981,0.598 4.339,2.348 5.604,7.466 l 1.027,4.153 10.567,42.844 C 14.213,-11.104 8.824,-2.178 0,0"
         style="fill:#1d1d1b;fill-opacity:1;fill-rule:nonzero;stroke:none"
         id="path20" />
    </g>
    <g
       id="g22"
       transform="matrix(0.35277777,0,0,-0.35277777,79.117157,99.302127)">
      <path
         d="m 0,0 -40.448,9.985 -40.455,9.974 c -5.752,1.421 -11.524,-1.93 -12.899,-7.504 l -11.625,-47.207 c -0.363,-1.45 -0.112,-2.902 0.61,-4.089 l 32.82,-54.115 c 1.98,-2.999 5.228,-3.702 5.228,-3.702 0,0 3.202,-0.887 6.353,0.848 l 54.238,32.634 c 1.178,0.719 2.092,1.884 2.449,3.333 L 7.924,-12.646 C 9.301,-7.073 5.749,-1.418 0,0"
         style="fill:#fedc00;fill-opacity:1;fill-rule:nonzero;stroke:none"
         id="path24" />
    </g>
    <g
       id="g26"
       transform="matrix(0.35277777,0,0,-0.35277777,54.916249,97.16186)">
      <path
         d="M 0,0 C 0.179,0.741 0.857,0.998 1.954,0.708 3.017,0.422 3.461,-0.165 3.298,-0.835 3.151,-1.42 2.429,-1.787 1.171,-1.473 0.369,-1.275 -0.178,-0.736 0,0 m 5.068,-7.773 c 0.18,0.724 -0.759,2.187 -0.55,3.034 0.225,0.915 0.996,0.774 1.933,1.866 0.294,0.333 0.473,0.79 0.61,1.328 C 7.435,-0.026 6.792,2.07 3.059,2.992 L -0.476,3.861 C -1.954,4.227 -2.813,3.993 -3.204,2.41 l -1.892,-7.48 c -0.154,-0.629 0.4,-1.381 1.526,-1.658 1.06,-0.267 1.837,0.215 2.153,1.482 0.248,1.006 0.657,1.329 1.375,1.152 0.311,-0.079 0.667,-0.462 0.898,-1.096 l 0.659,-1.725 c 0.3,-0.811 0.865,-1.304 1.848,-1.545 0.934,-0.231 1.516,-0.076 1.705,0.687"
         style="fill:#1d1d1b;fill-opacity:1;fill-rule:nonzero;stroke:none"
         id="path28" />
    </g>
    <g
       id="g30"
       transform="matrix(0.35277777,0,0,-0.35277777,59.653243,99.190508)">
      <path
         d="M 0,0 C 0.097,0.405 0.46,0.735 0.775,0.657 1.102,0.578 1.32,0.081 1.217,-0.324 1.112,-0.751 0.797,-0.886 0.386,-0.787 0.051,-0.703 -0.091,-0.361 0,0 M 3.99,3.524 C 3.823,4.315 3.533,5.292 1.887,5.7 0.853,5.953 0.005,5.637 -0.625,4.824 l -4.998,-6.647 c -0.104,-0.137 -0.205,-0.254 -0.314,-0.721 -0.17,-0.67 0.258,-1.203 1.222,-1.443 0.564,-0.14 1.15,-0.065 1.739,0.186 0.563,0.296 0.834,0.433 0.834,0.433 0.086,0.054 0.238,0.064 0.471,0.103 0.349,0.033 0.884,-0.002 1.639,-0.219 1.091,-0.288 1.256,-0.208 2.099,-1.491 0.427,-0.666 0.929,-0.913 1.493,-1.057 1.029,-0.248 2.075,0.228 1.922,1.053 z"
         style="fill:#1d1d1b;fill-opacity:1;fill-rule:nonzero;stroke:none"
         id="path32" />
    </g>
    <g
       id="g34"
       transform="matrix(0.35277777,0,0,-0.35277777,63.964611,99.878989)">
      <path
         d="M 0,0 C 0.444,1.813 1.015,2.07 2.381,1.735 3.335,1.5 4.658,0.349 4.14,-1.753 3.825,-3.029 2.599,-4.201 0.677,-3.724 c -0.834,0.205 -1.37,0.905 -1.093,2.047 z M 6.229,2.493 C 4.841,3.784 3.971,4.004 -0.21,5.029 -1.425,5.337 -2.168,4.92 -2.436,3.829 l -1.731,-7 c -0.319,-1.317 0.069,-2.032 1.4,-2.36 l 2.174,-0.535 c 4.484,-1.109 7.182,0.107 8.057,3.63 0.49,1.991 0.128,3.645 -1.235,4.929"
         style="fill:#1d1d1b;fill-opacity:1;fill-rule:nonzero;stroke:none"
         id="path36" />
    </g>
    <g
       id="g38"
       transform="matrix(0.35277777,0,0,-0.35277777,69.152914,100.30705)">
      <path
         d="m 0,0 c 0.533,2.147 0.115,2.918 -1.536,3.326 -1.235,0.3 -2.069,-0.467 -2.38,-1.739 l -1.637,-6.446 c -0.354,-1.456 -0.371,-2.639 1.416,-3.078 1.366,-0.339 2.232,0.204 2.588,1.633 z"
         style="fill:#1d1d1b;fill-opacity:1;fill-rule:nonzero;stroke:none"
         id="path40" />
    </g>
    <g
       id="g42"
       transform="matrix(0.35277777,0,0,-0.35277777,70.9857,101.77037)">
      <path
         d="M 0,0 C 0.416,1.676 1.831,2.533 3.305,2.171 5.325,1.674 5.738,-0.09 5.389,-1.518 4.954,-3.266 3.55,-4.151 1.894,-3.738 0.375,-3.366 -0.508,-2.078 0,0 M 8.86,-2.33 C 9.655,0.87 7.444,3.978 4.167,4.784 2.143,5.286 0.396,4.97 -1.012,4.088 -2.234,3.352 -3.093,2.066 -3.491,0.436 c -0.755,-3.021 1.415,-6.091 4.782,-6.918 3.484,-0.86 6.735,0.758 7.569,4.152"
         style="fill:#1d1d1b;fill-opacity:1;fill-rule:nonzero;stroke:none"
         id="path44" />
    </g>
    <g
       id="g46"
       transform="matrix(0.35277777,0,0,-0.35277777,45.939184,106.8412)">
      <path
         d="M 0,0 8.349,1.754 0.953,-28.222 11.536,-29.738 22.657,15.346 -2.086,7.276 Z"
         style="fill:#1d1d1b;fill-opacity:1;fill-rule:nonzero;stroke:none"
         id="path48" />
    </g>
    <g
       id="g50"
       transform="matrix(0.35277777,0,0,-0.35277777,61.172516,103.21316)">
      <path
         d="m 0,0 c -13.161,3.246 -19.458,-9.311 -21.869,-19.049 -2.411,-9.777 -2.667,-23.82 10.488,-27.065 13.371,-3.298 19.667,9.258 22.076,19.031 C 13.097,-17.343 13.366,-3.302 0,0 m -2.443,-9.901 c 4.63,-1.141 4.606,-7.257 2.789,-14.633 -1.831,-7.421 -4.655,-12.817 -9.283,-11.676 -4.637,1.141 -4.434,7.186 -2.608,14.617 1.818,7.366 4.467,12.834 9.102,11.692"
         style="fill:#1d1d1b;fill-opacity:1;fill-rule:nonzero;stroke:none"
         id="path52" />
    </g>
    <g
       id="g54"
       transform="matrix(0.35277777,0,0,-0.35277777,63.464372,118.82704)">
      <path
         d="m 0,0 c 3.12,-5.047 7.937,-8.22 13.704,-9.648 9.325,-2.294 19.192,1.477 21.745,11.803 2.178,8.855 -2.699,16.934 -11.53,19.111 -0.757,0.193 -1.572,0.249 -2.481,0.424 l 0.947,3.845 12.537,-3.089 4.954,9.279 -25.397,6.27 -5.833,-23.652 c 2.892,0.372 6.075,0.349 9.037,-0.379 C 21.617,13 25.447,10.08 24.315,5.498 23.278,1.291 19.5,-0.569 16.215,0.235 13.266,0.964 10.578,2.86 9.574,5.909 Z"
         style="fill:#1d1d1b;fill-opacity:1;fill-rule:nonzero;stroke:none"
         id="path56" />
    </g>
    <g
       id="g58"
       transform="matrix(0.35277777,0,0,-0.35277777,56.078264,131.00888)">
      <path
         d="M 0,0 -0.779,0.188 -0.605,0.882 0.171,0.683 C 0.556,0.593 0.872,0.515 0.792,0.203 0.7,-0.177 0.389,-0.104 0,0 M 1.433,-0.054 C 1.629,0.749 1.261,1.132 0.529,1.315 l -1.696,0.419 -0.874,-3.506 0.731,-0.182 0.365,1.47 0.566,-0.144 0.412,-1.66 0.849,-0.207 -0.467,1.67 c 0.465,-0.055 0.872,0.17 1.018,0.771"
         style="fill:#1d1d1b;fill-opacity:1;fill-rule:nonzero;stroke:none"
         id="path60" />
    </g>
    <g
       id="g62"
       transform="matrix(0.35277777,0,0,-0.35277777,55.782848,132.00692)">
      <path
         d="m 0,0 c -1.446,0.357 -2.216,1.57 -1.851,3.057 0.368,1.5 1.623,2.22 3.067,1.86 C 2.65,4.563 3.455,3.336 3.088,1.843 2.722,0.354 1.442,-0.361 0,0 M 1.437,5.804 C -0.425,6.26 -2.258,5.127 -2.719,3.276 -3.176,1.417 -2.075,-0.442 -0.216,-0.898 1.632,-1.353 3.506,-0.235 3.965,1.629 4.426,3.482 3.29,5.349 1.437,5.804"
         style="fill:#1d1d1b;fill-opacity:1;fill-rule:nonzero;stroke:none"
         id="path64" />
    </g>
    <g
       id="g66"
       transform="matrix(0.35277777,0,0,-0.35277777,50.469979,120.54648)">
      <path
         d="m 0,0 c -0.182,0.256 -0.344,0.416 -0.752,0.519 -0.659,0.16 -0.963,-0.15 -1.147,-0.881 l -0.775,-3.143 c -0.232,-0.928 -0.308,-1.447 0.415,-1.624 0.289,-0.073 0.531,0.003 0.697,0.23 0.083,0.189 0.209,0.253 0.434,1.189 0.113,0.424 0.249,0.653 0.458,0.602 0.131,-0.032 0.313,-0.452 0.449,-0.872 0.141,-0.486 0.381,-1.256 0.446,-1.36 0.141,-0.276 0.381,-0.52 0.84,-0.636 0.556,-0.137 0.938,0.167 1.109,0.883 l 0.777,3.13 c 0.274,1.117 0.187,1.474 -0.43,1.618 C 2.226,-0.269 1.999,-0.354 1.825,-0.61 1.59,-0.869 1.436,-1.659 1.409,-1.787 1.306,-2.218 1.096,-2.388 0.963,-2.374 0.801,-2.314 0.568,-1.842 0.375,-1.065 0.249,-0.606 0.073,-0.163 0,0"
         style="fill:#1d1d1b;fill-opacity:1;fill-rule:nonzero;stroke:none"
         id="path68" />
    </g>
    <g
       id="g70"
       transform="matrix(0.35277777,0,0,-0.35277777,52.924784,123.14923)">
      <path
         d="m 0,0 c 0.298,-0.071 1.466,-0.434 1.659,0.325 0.172,0.717 -1.092,0.909 -1.103,0.917 -1.2,0.29 -1.551,0.425 -1.421,0.959 0.084,0.318 0.329,0.464 1.198,0.251 C 0.893,2.315 1.629,2.137 1.79,2.782 1.959,3.473 1.155,3.672 0.507,3.831 -0.01,3.961 -0.249,4.109 -0.188,4.385 -0.13,4.59 0.168,4.68 0.688,4.555 1.649,4.318 2.3,4.173 2.473,4.868 2.551,5.2 2.243,5.571 1.807,5.671 L -0.758,6.307 C -1.276,6.431 -1.701,6.134 -1.825,5.638 L -2.789,1.751 C -3.026,0.778 -2.542,0.625 -1.4,0.345 Z"
         style="fill:#1d1d1b;fill-opacity:1;fill-rule:nonzero;stroke:none"
         id="path72" />
    </g>
    <g
       id="g74"
       transform="matrix(0.35277777,0,0,-0.35277777,54.490094,123.20402)">
      <path
         d="m 0,0 c -0.174,-0.692 0.01,-1.085 0.605,-1.236 0.43,-0.11 0.849,0.051 1.039,0.816 C 1.84,0.358 2.149,1.633 2.335,2.349 2.448,2.825 2.649,2.979 3.28,2.973 3.7,2.931 3.946,3.132 4.028,3.426 4.142,3.893 3.892,4.19 3.181,4.368 L 0.832,4.943 C 0.173,5.112 -0.205,4.967 -0.314,4.523 -0.395,4.205 -0.247,3.959 0.139,3.748 0.693,3.422 0.796,3.232 0.676,2.752 Z"
         style="fill:#1d1d1b;fill-opacity:1;fill-rule:nonzero;stroke:none"
         id="path76" />
    </g>
    <g
       id="g78"
       transform="matrix(0.35277777,0,0,-0.35277777,57.060962,122.25491)">
      <path
         d="M 0,0 C 0.022,0.352 -0.133,0.791 -0.756,0.947 -1.22,1.059 -1.558,0.845 -1.651,0.454 -1.689,0.298 -1.726,-0.007 -1.715,-0.312 l 0.05,-3.595 c -0.006,-1.083 0.394,-1.274 0.935,-1.405 0.401,-0.1 0.911,-0.045 1.331,0.801 0.586,1.135 0.784,1.137 0.879,1.112 0.121,-0.023 0.168,-0.159 0.222,-1.263 0.071,-0.803 0.064,-1.273 0.933,-1.479 0.968,-0.245 1.219,0.455 1.82,1.604 1.211,2.194 1.507,2.74 1.574,3.016 0.11,0.433 -0.065,0.792 -0.582,0.923 C 5.015,-0.497 4.556,-0.697 4.33,-1.163 3.786,-2.188 3.616,-2.603 3.395,-2.546 3.229,-2.505 3.187,-2.271 3.146,-1.257 3.122,-0.346 2.957,0.012 2.352,0.161 1.788,0.298 1.451,0.067 1.166,-0.409 0.502,-1.57 0.387,-1.773 0.2,-1.727 0.037,-1.69 0.002,-1.257 0,0"
         style="fill:#1d1d1b;fill-opacity:1;fill-rule:nonzero;stroke:none"
         id="path80" />
    </g>
    <g
       id="g82"
       transform="matrix(0.35277777,0,0,-0.35277777,60.107656,123.81934)">
      <path
         d="M 0,0 C 0.216,0.904 0.886,1.377 1.601,1.204 2.537,0.973 2.716,0.047 2.528,-0.74 2.3,-1.65 1.599,-2.168 0.842,-1.981 0.106,-1.794 -0.277,-1.112 0,0 M 4.161,-1.122 C 4.581,0.609 3.584,2.229 2.044,2.606 1.084,2.851 0.254,2.67 -0.434,2.171 -1.016,1.751 -1.454,1.049 -1.668,0.18 c -0.403,-1.635 0.589,-3.23 2.175,-3.615 1.625,-0.407 3.205,0.51 3.654,2.313"
         style="fill:#1d1d1b;fill-opacity:1;fill-rule:nonzero;stroke:none"
         id="path84" />
    </g>
    <g
       id="g86"
       transform="matrix(0.35277777,0,0,-0.35277777,62.861475,124.15419)">
      <path
         d="M 0,0 C 0.093,0.378 0.415,0.537 0.953,0.405 1.436,0.265 1.652,-0.044 1.562,-0.409 1.48,-0.718 1.124,-0.919 0.523,-0.768 0.16,-0.682 -0.1,-0.397 0,0 m 2.287,-4.075 c 0.1,0.401 -0.332,1.171 -0.223,1.627 0.12,0.484 0.497,0.422 0.945,1.017 0.14,0.183 0.249,0.41 0.318,0.706 C 3.528,0.1 3.266,1.184 1.494,1.623 l -1.65,0.405 c -0.697,0.171 -1.108,0.067 -1.328,-0.81 l -1.014,-4.01 c -0.074,-0.316 0.174,-0.732 0.696,-0.864 0.514,-0.127 0.892,0.158 1.058,0.831 0.137,0.554 0.32,0.725 0.656,0.646 0.156,-0.041 0.323,-0.254 0.429,-0.582 l 0.28,-0.899 c 0.124,-0.415 0.39,-0.688 0.842,-0.807 0.434,-0.101 0.723,-0.011 0.824,0.392"
         style="fill:#1d1d1b;fill-opacity:1;fill-rule:nonzero;stroke:none"
         id="path88" />
    </g>
    <g
       id="g90"
       transform="matrix(0.35277777,0,0,-0.35277777,66.589066,124.4973)">
      <path
         d="M 0,0 C 0.141,0.563 -0.676,0.717 -0.982,0.785 -1.235,0.848 -1.528,0.825 -1.886,0.684 -2.244,0.583 -2.898,-0.069 -3.216,0.007 -3.428,0.055 -3.418,0.277 -3.407,0.582 -3.418,1.103 -3.567,1.403 -4.147,1.546 -4.796,1.704 -5.226,1.41 -5.414,0.648 l -0.883,-3.48 c -0.184,-0.738 -0.176,-1.429 0.638,-1.632 0.598,-0.14 1.048,0.074 1.246,0.858 0.131,0.537 0.424,0.828 0.713,0.759 0.186,-0.051 0.254,-0.188 0.714,-1.56 0.134,-0.514 0.418,-0.812 1.12,-0.984 0.373,-0.094 0.771,0.041 0.866,0.442 0.083,0.339 0.031,0.417 -0.728,2.911 -0.045,0.131 -0.039,0.247 -0.011,0.386 0.082,0.305 0.303,0.416 0.822,0.772 0.788,0.509 0.85,0.615 0.917,0.88"
         style="fill:#1d1d1b;fill-opacity:1;fill-rule:nonzero;stroke:none"
         id="path92" />
    </g>
  </g>
</svg>
