<svg xmlns="http://www.w3.org/2000/svg" viewBox="0 0 500 500"><path d="M0,0h500v500H0"/><path d="M396 46a71 71 0 0 1-31 41c-19 13-35 18-75 21h-8v63c82 0 85 0 86 2l2 286c82 0 87 0 88-2l2-412c-62-1-63-1-64 1Z" fill="#f00"/><path d="m127 244-43 6a983 983 0 0 0 86 13v-26l-43 7Zm117-41v23l-19 4-20 3v18l1 17 18 3 19 3 1 23v24l-6-2-57-12-93-20-43-9a514 514 0 0 1 2-56 13392 13392 0 0 1 195-43c2-1 2 3 2 24ZM94 379c-9 2-12 8-13 22v9h48v-21c-1-3-5-7-9-9-4-1-21-2-26-1Zm150-29v26l-5 1-31 2c-27 1-28 1-33 3-8 4-9 6-9 19v9h78v46H45v-39c0-43 1-50 6-60 4-10 9-14 17-18 10-5 19-7 32-7 21 0 33 5 42 18l4 6 1-4c2-5 6-11 10-13 7-5 9-5 42-7 28-1 36-2 39-5l4-2c2 0 2 2 2 25ZM205 45c22 4 36 18 41 41 3 11 3 34 1 44-5 19-17 31-36 36-8 3-9 3-66 3-52 0-58-1-64-2-21-6-34-18-39-39-2-9-2-34 0-43 4-17 13-28 25-34 10-5 19-7 35-7h13v46h-7c-9 0-19 2-24 4-5 3-7 6-7 13s2 11 7 13c4 2 9 2 61 2 52 1 57 0 60-1 8-4 10-18 4-25-5-4-8-5-26-6h-16l-1-24V43h16l23 2Z" fill="#fff"/></svg>
